<svg xmlns="http://www.w3.org/2000/svg" xmlns:xlink="http://www.w3.org/1999/xlink" width="1080" height="1080" version="1.2" viewBox="0 0 810 810"><defs><clipPath id="clip1"><path d="M 50.226562 81 L 759.773438 81 L 759.773438 739.628906 L 50.226562 739.628906 Z M 50.226562 81"/></clipPath></defs><g id="surface1"><path style="stroke:none;fill-rule:nonzero;fill:#ff6363;fill-opacity:1" d="M 192.136719 274.714844 L 618.710938 274.714844 L 618.710938 701.292969 L 192.136719 701.292969 Z M 192.136719 274.714844"/><g clip-path="url(#clip1)" clip-rule="nonzero"><path style="stroke:none;fill-rule:nonzero;fill:#0d4375;fill-opacity:1" d="M 658.113281 182.328125 L 430.3125 182.328125 C 425.855469 182.328125 421.445312 181.886719 417.074219 181.003906 C 412.707031 180.121094 408.46875 178.816406 404.363281 177.085938 C 400.253906 175.355469 396.359375 173.238281 392.675781 170.730469 C 388.992188 168.222656 385.589844 165.375 382.472656 162.1875 L 333.242188 111.523438 C 330.882812 109.105469 328.40625 106.808594 325.8125 104.636719 C 323.222656 102.464844 320.527344 100.429688 317.734375 98.527344 C 314.9375 96.625 312.054688 94.867188 309.082031 93.257812 C 306.113281 91.644531 303.070312 90.183594 299.953125 88.875 C 296.835938 87.566406 293.660156 86.417969 290.425781 85.429688 C 287.195312 84.441406 283.921875 83.617188 280.605469 82.953125 C 277.292969 82.292969 273.953125 81.800781 270.589844 81.472656 C 267.226562 81.144531 263.851562 80.988281 260.472656 81 L 151.886719 81 C 150.230469 81 148.574219 81.039062 146.921875 81.121094 C 145.265625 81.203125 143.613281 81.324219 141.964844 81.488281 C 140.316406 81.652344 138.671875 81.851562 137.03125 82.097656 C 135.394531 82.339844 133.761719 82.625 132.136719 82.945312 C 130.511719 83.269531 128.894531 83.632812 127.289062 84.035156 C 125.679688 84.441406 124.085938 84.882812 122.5 85.363281 C 120.914062 85.84375 119.339844 86.363281 117.78125 86.921875 C 116.21875 87.480469 114.675781 88.078125 113.144531 88.714844 C 111.613281 89.347656 110.097656 90.019531 108.601562 90.730469 C 107.101562 91.4375 105.625 92.183594 104.160156 92.964844 C 102.699219 93.746094 101.257812 94.5625 99.839844 95.417969 C 98.417969 96.269531 97.015625 97.15625 95.640625 98.078125 C 94.261719 99 92.90625 99.953125 91.578125 100.941406 C 90.246094 101.929688 88.941406 102.949219 87.660156 104 C 86.378906 105.050781 85.125 106.136719 83.894531 107.25 C 82.667969 108.363281 81.46875 109.503906 80.296875 110.679688 C 79.125 111.851562 77.984375 113.050781 76.871094 114.28125 C 75.757812 115.507812 74.675781 116.765625 73.625 118.046875 C 72.574219 119.328125 71.554688 120.636719 70.566406 121.96875 C 69.582031 123.296875 68.625 124.652344 67.707031 126.03125 C 66.785156 127.410156 65.898438 128.8125 65.046875 130.234375 C 64.195312 131.65625 63.378906 133.101562 62.597656 134.5625 C 61.816406 136.023438 61.074219 137.503906 60.363281 139.003906 C 59.65625 140.503906 58.984375 142.019531 58.351562 143.550781 C 57.714844 145.082031 57.121094 146.628906 56.5625 148.191406 C 56.003906 149.753906 55.484375 151.328125 55.003906 152.914062 C 54.523438 154.5 54.082031 156.097656 53.675781 157.707031 C 53.273438 159.316406 52.914062 160.933594 52.589844 162.558594 C 52.265625 164.1875 51.984375 165.820312 51.738281 167.460938 C 51.496094 169.101562 51.292969 170.746094 51.132812 172.394531 C 50.96875 174.046875 50.847656 175.699219 50.765625 177.355469 C 50.683594 179.011719 50.644531 180.667969 50.644531 182.328125 L 50.644531 638.300781 C 50.644531 639.960938 50.683594 641.617188 50.765625 643.273438 C 50.847656 644.929688 50.96875 646.582031 51.132812 648.234375 C 51.292969 649.882812 51.496094 651.53125 51.738281 653.167969 C 51.984375 654.808594 52.265625 656.445312 52.589844 658.070312 C 52.914062 659.695312 53.273438 661.3125 53.675781 662.921875 C 54.082031 664.53125 54.523438 666.128906 55.003906 667.714844 C 55.484375 669.300781 56.003906 670.875 56.5625 672.4375 C 57.121094 674 57.714844 675.546875 58.351562 677.078125 C 58.984375 678.609375 59.65625 680.125 60.363281 681.625 C 61.074219 683.125 61.816406 684.605469 62.597656 686.066406 C 63.378906 687.53125 64.195312 688.972656 65.046875 690.394531 C 65.898438 691.816406 66.785156 693.21875 67.707031 694.597656 C 68.625 695.976562 69.582031 697.332031 70.566406 698.664062 C 71.554688 699.996094 72.574219 701.300781 73.625 702.582031 C 74.675781 703.867188 75.757812 705.121094 76.871094 706.347656 C 77.984375 707.578125 79.125 708.777344 80.296875 709.953125 C 81.46875 711.125 82.667969 712.265625 83.894531 713.378906 C 85.125 714.496094 86.378906 715.578125 87.660156 716.628906 C 88.941406 717.679688 90.246094 718.703125 91.578125 719.6875 C 92.90625 720.675781 94.261719 721.632812 95.640625 722.554688 C 97.015625 723.472656 98.417969 724.359375 99.839844 725.214844 C 101.257812 726.066406 102.699219 726.882812 104.160156 727.664062 C 105.625 728.445312 107.101562 729.191406 108.601562 729.902344 C 110.097656 730.609375 111.613281 731.28125 113.144531 731.917969 C 114.675781 732.550781 116.21875 733.148438 117.78125 733.707031 C 119.339844 734.265625 120.914062 734.785156 122.5 735.265625 C 124.085938 735.746094 125.679688 736.191406 127.289062 736.59375 C 128.894531 736.996094 130.511719 737.359375 132.136719 737.683594 C 133.761719 738.007812 135.394531 738.289062 137.03125 738.53125 C 138.671875 738.777344 140.316406 738.980469 141.964844 739.140625 C 143.613281 739.304688 145.265625 739.425781 146.921875 739.507812 C 148.574219 739.589844 150.230469 739.628906 151.886719 739.628906 L 658.113281 739.628906 C 659.769531 739.628906 661.425781 739.589844 663.078125 739.507812 C 664.734375 739.425781 666.386719 739.304688 668.035156 739.140625 C 669.683594 738.980469 671.328125 738.777344 672.96875 738.53125 C 674.605469 738.289062 676.238281 738.007812 677.863281 737.683594 C 679.488281 737.359375 681.105469 736.996094 682.710938 736.59375 C 684.320312 736.191406 685.914062 735.746094 687.5 735.265625 C 689.085938 734.785156 690.660156 734.265625 692.21875 733.707031 C 693.78125 733.148438 695.324219 732.550781 696.855469 731.917969 C 698.386719 731.28125 699.902344 730.609375 701.398438 729.902344 C 702.898438 729.191406 704.375 728.445312 705.839844 727.664062 C 707.300781 726.882812 708.742188 726.066406 710.160156 725.214844 C 711.582031 724.359375 712.984375 723.472656 714.359375 722.554688 C 715.738281 721.632812 717.09375 720.675781 718.421875 719.6875 C 719.753906 718.703125 721.058594 717.679688 722.339844 716.628906 C 723.621094 715.578125 724.875 714.496094 726.105469 713.378906 C 727.332031 712.265625 728.53125 711.125 729.703125 709.953125 C 730.875 708.777344 732.015625 707.578125 733.128906 706.347656 C 734.242188 705.121094 735.324219 703.867188 736.375 702.582031 C 737.425781 701.300781 738.445312 699.996094 739.433594 698.664062 C 740.417969 697.332031 741.371094 695.976562 742.292969 694.597656 C 743.214844 693.21875 744.101562 691.816406 744.953125 690.394531 C 745.804688 688.972656 746.621094 687.53125 747.402344 686.066406 C 748.183594 684.605469 748.925781 683.125 749.636719 681.625 C 750.34375 680.125 751.015625 678.609375 751.648438 677.078125 C 752.285156 675.546875 752.878906 674 753.4375 672.4375 C 753.996094 670.875 754.515625 669.300781 754.996094 667.714844 C 755.476562 666.128906 755.917969 664.53125 756.320312 662.921875 C 756.726562 661.3125 757.085938 659.695312 757.410156 658.070312 C 757.734375 656.445312 758.015625 654.808594 758.261719 653.167969 C 758.503906 651.53125 758.707031 649.882812 758.867188 648.234375 C 759.03125 646.582031 759.152344 644.929688 759.234375 643.273438 C 759.316406 641.617188 759.355469 639.960938 759.355469 638.300781 L 759.355469 283.65625 C 759.355469 281.996094 759.316406 280.339844 759.234375 278.683594 C 759.152344 277.027344 759.03125 275.375 758.867188 273.722656 C 758.707031 272.074219 758.503906 270.429688 758.261719 268.789062 C 758.015625 267.148438 757.734375 265.511719 757.410156 263.886719 C 757.085938 262.261719 756.726562 260.644531 756.320312 259.035156 C 755.917969 257.425781 755.476562 255.828125 754.996094 254.242188 C 754.515625 252.65625 753.996094 251.082031 753.4375 249.519531 C 752.878906 247.957031 752.285156 246.410156 751.648438 244.878906 C 751.015625 243.347656 750.34375 241.832031 749.636719 240.332031 C 748.925781 238.832031 748.183594 237.351562 747.402344 235.890625 C 746.621094 234.425781 745.804688 232.984375 744.953125 231.5625 C 744.101562 230.140625 743.214844 228.738281 742.292969 227.359375 C 741.371094 225.980469 740.417969 224.625 739.433594 223.292969 C 738.445312 221.960938 737.425781 220.65625 736.375 219.375 C 735.324219 218.09375 734.242188 216.835938 733.128906 215.609375 C 732.015625 214.378906 730.875 213.179688 729.703125 212.003906 C 728.53125 210.832031 727.332031 209.691406 726.105469 208.578125 C 724.875 207.460938 723.621094 206.378906 722.339844 205.328125 C 721.058594 204.277344 719.753906 203.257812 718.421875 202.269531 C 717.09375 201.28125 715.738281 200.324219 714.359375 199.40625 C 712.984375 198.484375 711.582031 197.597656 710.160156 196.742188 C 708.742188 195.890625 707.300781 195.074219 705.839844 194.292969 C 704.375 193.511719 702.898438 192.765625 701.398438 192.054688 C 699.902344 191.347656 698.386719 190.675781 696.855469 190.039062 C 695.324219 189.40625 693.78125 188.808594 692.21875 188.25 C 690.660156 187.691406 689.085938 187.171875 687.5 186.691406 C 685.914062 186.210938 684.320312 185.765625 682.710938 185.363281 C 681.105469 184.960938 679.488281 184.597656 677.863281 184.273438 C 676.238281 183.949219 674.605469 183.667969 672.96875 183.425781 C 671.328125 183.179688 669.683594 182.976562 668.035156 182.816406 C 666.386719 182.652344 664.734375 182.53125 663.078125 182.449219 C 661.425781 182.367188 659.769531 182.328125 658.113281 182.328125 Z M 329.066406 330.519531 C 329.066406 329.519531 329.164062 328.53125 329.359375 327.554688 C 329.554688 326.574219 329.839844 325.625 330.222656 324.703125 C 330.605469 323.78125 331.070312 322.90625 331.625 322.074219 C 332.179688 321.246094 332.808594 320.476562 333.515625 319.773438 C 334.21875 319.066406 334.988281 318.4375 335.816406 317.882812 C 336.644531 317.328125 337.519531 316.859375 338.441406 316.476562 C 339.363281 316.09375 340.3125 315.808594 341.289062 315.613281 C 342.269531 315.417969 343.257812 315.320312 344.253906 315.320312 L 465.746094 315.320312 C 466.742188 315.320312 467.730469 315.417969 468.710938 315.613281 C 469.6875 315.808594 470.636719 316.09375 471.558594 316.476562 C 472.480469 316.859375 473.355469 317.328125 474.183594 317.882812 C 475.011719 318.4375 475.78125 319.066406 476.484375 319.773438 C 477.191406 320.476562 477.820312 321.246094 478.375 322.074219 C 478.929688 322.90625 479.394531 323.78125 479.777344 324.703125 C 480.160156 325.625 480.445312 326.574219 480.640625 327.554688 C 480.835938 328.53125 480.933594 329.519531 480.933594 330.519531 L 480.933594 350.785156 C 480.933594 351.78125 480.835938 352.769531 480.640625 353.75 C 480.445312 354.730469 480.160156 355.679688 479.777344 356.601562 C 479.394531 357.523438 478.929688 358.398438 478.375 359.230469 C 477.820312 360.058594 477.191406 360.828125 476.484375 361.53125 C 475.78125 362.238281 475.011719 362.867188 474.183594 363.421875 C 473.355469 363.976562 472.480469 364.445312 471.558594 364.828125 C 470.636719 365.207031 469.6875 365.496094 468.710938 365.691406 C 467.730469 365.886719 466.742188 365.984375 465.746094 365.984375 L 344.253906 365.984375 C 343.257812 365.984375 342.269531 365.886719 341.289062 365.691406 C 340.3125 365.496094 339.363281 365.207031 338.441406 364.828125 C 337.519531 364.445312 336.644531 363.976562 335.816406 363.421875 C 334.988281 362.867188 334.21875 362.238281 333.515625 361.53125 C 332.808594 360.828125 332.179688 360.058594 331.625 359.230469 C 331.070312 358.398438 330.605469 357.523438 330.222656 356.601562 C 329.839844 355.679688 329.554688 354.730469 329.359375 353.75 C 329.164062 352.769531 329.066406 351.78125 329.066406 350.785156 Z M 531.554688 518.480469 L 416.390625 633.867188 C 415.683594 634.578125 414.917969 635.210938 414.085938 635.765625 C 413.257812 636.324219 412.378906 636.792969 411.457031 637.175781 C 410.535156 637.5625 409.582031 637.851562 408.601562 638.046875 C 407.621094 638.242188 406.632812 638.339844 405.632812 638.339844 C 404.632812 638.339844 403.644531 638.242188 402.664062 638.046875 C 401.683594 637.851562 400.730469 637.5625 399.808594 637.175781 C 398.886719 636.792969 398.007812 636.324219 397.179688 635.765625 C 396.347656 635.210938 395.582031 634.578125 394.875 633.867188 L 279.710938 518.480469 C 278.71875 517.417969 277.902344 516.230469 277.253906 514.929688 C 276.605469 513.625 276.15625 512.257812 275.90625 510.824219 C 275.65625 509.390625 275.613281 507.949219 275.777344 506.503906 C 275.945312 505.058594 276.3125 503.664062 276.878906 502.324219 C 277.449219 500.984375 278.195312 499.753906 279.121094 498.632812 C 280.046875 497.507812 281.113281 496.539062 282.316406 495.726562 C 283.523438 494.910156 284.820312 494.285156 286.207031 493.847656 C 287.59375 493.410156 289.011719 493.175781 290.46875 493.148438 L 314.511719 493.148438 C 315.503906 493.109375 316.484375 492.972656 317.449219 492.738281 C 318.414062 492.507812 319.347656 492.183594 320.246094 491.765625 C 321.148438 491.351562 322.003906 490.851562 322.804688 490.265625 C 323.609375 489.683594 324.347656 489.027344 325.023438 488.300781 C 325.699219 487.570312 326.296875 486.785156 326.816406 485.9375 C 327.339844 485.09375 327.773438 484.203125 328.117188 483.273438 C 328.464844 482.339844 328.71875 481.386719 328.878906 480.40625 C 329.039062 479.425781 329.101562 478.4375 329.066406 477.445312 L 329.066406 431.847656 C 329.066406 430.847656 329.164062 429.859375 329.359375 428.882812 C 329.554688 427.902344 329.839844 426.953125 330.222656 426.03125 C 330.605469 425.109375 331.070312 424.234375 331.625 423.402344 C 332.179688 422.574219 332.808594 421.804688 333.515625 421.097656 C 334.21875 420.394531 334.988281 419.765625 335.816406 419.210938 C 336.644531 418.65625 337.519531 418.1875 338.441406 417.804688 C 339.363281 417.421875 340.3125 417.132812 341.289062 416.941406 C 342.269531 416.746094 343.257812 416.648438 344.253906 416.648438 L 465.746094 416.648438 C 466.742188 416.648438 467.730469 416.746094 468.710938 416.941406 C 469.6875 417.132812 470.636719 417.421875 471.558594 417.804688 C 472.480469 418.1875 473.355469 418.65625 474.183594 419.210938 C 475.011719 419.765625 475.78125 420.394531 476.484375 421.097656 C 477.191406 421.804688 477.820312 422.574219 478.375 423.402344 C 478.929688 424.234375 479.394531 425.109375 479.777344 426.03125 C 480.160156 426.953125 480.445312 427.902344 480.640625 428.882812 C 480.835938 429.859375 480.933594 430.847656 480.933594 431.847656 L 480.933594 477.445312 C 480.933594 478.441406 481.03125 479.429688 481.226562 480.410156 C 481.417969 481.386719 481.707031 482.339844 482.089844 483.261719 C 482.472656 484.183594 482.9375 485.058594 483.492188 485.886719 C 484.046875 486.71875 484.675781 487.484375 485.382812 488.191406 C 486.085938 488.898438 486.855469 489.527344 487.683594 490.082031 C 488.511719 490.636719 489.386719 491.105469 490.308594 491.488281 C 491.230469 491.867188 492.179688 492.15625 493.15625 492.351562 C 494.136719 492.546875 495.125 492.644531 496.121094 492.644531 L 520.164062 492.644531 C 520.925781 492.597656 521.6875 492.613281 522.449219 492.683594 C 523.207031 492.753906 523.957031 492.882812 524.699219 493.070312 C 525.4375 493.253906 526.160156 493.496094 526.863281 493.789062 C 527.566406 494.085938 528.246094 494.429688 528.894531 494.828125 C 529.546875 495.226562 530.164062 495.671875 530.746094 496.164062 C 531.332031 496.65625 531.875 497.191406 532.375 497.765625 C 532.878906 498.339844 533.335938 498.949219 533.746094 499.59375 C 534.152344 500.238281 534.511719 500.90625 534.820312 501.605469 C 535.128906 502.304688 535.382812 503.023438 535.582031 503.761719 C 535.78125 504.496094 535.921875 505.246094 536.007812 506.003906 C 536.09375 506.761719 536.121094 507.523438 536.089844 508.285156 C 536.058594 509.050781 535.972656 509.804688 535.828125 510.554688 C 535.683594 511.304688 535.480469 512.039062 535.226562 512.757812 C 534.96875 513.476562 534.660156 514.171875 534.296875 514.84375 C 533.933594 515.519531 533.523438 516.160156 533.066406 516.769531 C 532.605469 517.378906 532.101562 517.949219 531.554688 518.480469 Z M 531.554688 518.480469"/></g></g></svg>