<svg xmlns="http://www.w3.org/2000/svg" xmlns:xlink="http://www.w3.org/1999/xlink" width="1080" height="1080" version="1.2" viewBox="0 0 810 810"><defs><clipPath id="clip1"><path d="M 518 151 L 729.316406 151 L 729.316406 519 L 518 519 Z M 518 151"/></clipPath></defs><g id="surface1"><path style="stroke:none;fill-rule:nonzero;fill:#0d4375;fill-opacity:1" d="M 341.441406 256.828125 C 373.660156 252.324219 379.285156 240.449219 371.421875 212.652344 L 347.449219 126.453125 C 338.839844 95.984375 326.398438 82.046875 296.28125 89.554688 C 248.148438 101.542969 198.875 114.195312 174.210938 149.5625 C 110.660156 240.6875 287.527344 710.285156 333.308594 740.308594 C 362.679688 759.574219 440.804688 744.511719 495.378906 723.339844 C 522.335938 712.882812 532.511719 703.648438 524.648438 675.839844 L 495.722656 573.613281 C 486.738281 541.882812 468.878906 539.769531 449.484375 547.710938 C 428.363281 556.363281 393.394531 590.230469 374.769531 577.050781 C 341.730469 553.664062 242.699219 343.910156 280.722656 276.707031 C 292.59375 255.730469 325.539062 259.046875 341.441406 256.828125"/><path style="stroke:none;fill-rule:nonzero;fill:#ff5757;fill-opacity:1" d="M 574.136719 503.316406 C 569.257812 503.316406 564.441406 501.078125 561.320312 496.84375 C 556.101562 489.785156 557.613281 479.824219 564.679688 474.605469 C 597.984375 450.058594 617.867188 410.757812 617.867188 369.460938 C 617.867188 298.851562 562.597656 241.539062 492.042969 238.992188 C 483.257812 238.671875 476.390625 231.296875 476.710938 222.519531 C 477.03125 213.738281 484.378906 206.773438 493.195312 207.207031 C 580.953125 210.375 649.691406 281.644531 649.691406 369.460938 C 649.691406 420.8125 624.972656 469.6875 583.574219 500.210938 C 580.726562 502.300781 577.421875 503.316406 574.136719 503.316406"/><path style="stroke:none;fill-rule:nonzero;fill:#ff5757;fill-opacity:1" d="M 506.558594 467.496094 C 501.679688 467.496094 496.851562 465.257812 493.734375 461.023438 C 488.523438 453.960938 490.023438 444.003906 497.101562 438.785156 C 517.199219 423.96875 529.207031 400.25 529.207031 375.332031 C 529.207031 332.707031 495.847656 298.117188 453.265625 296.585938 C 444.480469 296.265625 437.613281 288.894531 437.933594 280.113281 C 438.253906 271.34375 445.558594 264.386719 454.40625 264.800781 C 514.195312 266.953125 561.03125 315.511719 561.03125 375.332031 C 561.03125 410.304688 544.1875 443.597656 515.988281 464.386719 C 513.148438 466.480469 509.832031 467.496094 506.558594 467.496094"/><g clip-path="url(#clip1)" clip-rule="nonzero"><path style="stroke:none;fill-rule:nonzero;fill:#ff5757;fill-opacity:1" d="M 637.933594 518.441406 C 633.054688 518.441406 628.238281 516.207031 625.117188 511.980469 C 619.898438 504.910156 621.410156 494.960938 628.476562 489.742188 C 671.757812 457.84375 697.585938 406.773438 697.585938 353.113281 C 697.585938 261.355469 625.769531 186.875 534.074219 183.5625 C 525.289062 183.25 518.429688 175.878906 518.742188 167.097656 C 519.0625 158.320312 526.398438 151.371094 535.226562 151.777344 C 587.511719 153.671875 636.359375 175.453125 672.785156 213.109375 C 709.304688 250.867188 729.414062 300.582031 729.414062 353.113281 C 729.414062 416.824219 698.746094 477.472656 647.371094 515.347656 C 644.523438 517.4375 641.21875 518.441406 637.933594 518.441406"/></g></g></svg>