<?xml version="1.0" encoding="utf-8"?>
<!-- Generator: Adobe Illustrator 19.0.0, SVG Export Plug-In . SVG Version: 6.00 Build 0)  -->
<svg version="1.1" id="Layer_1" xmlns="http://www.w3.org/2000/svg" xmlns:xlink="http://www.w3.org/1999/xlink" x="0px" y="0px"
	 viewBox="0 0 500 500" style="enable-background:new 0 0 500 500;" xml:space="preserve">
<style type="text/css">
	.st0{fill:#134576;stroke:#134576;stroke-width:2;stroke-miterlimit:10;}
	.st1{fill:#F16465;}
</style>
<g>
	<path class="st0" d="M486.9,385.7l-101.2-67.5c-12.8-8.5-30.1-5.7-39.6,6.4l-29.5,37.9c-3.8,5-10.7,6.4-16.1,3.4l-5.6-3.1
		c-18.6-10.1-41.7-22.8-88.3-69.4s-59.2-69.8-69.4-88.3l-3.1-5.6c-3.1-5.5-1.7-12.4,3.3-16.2l37.9-29.5c12.1-9.5,14.9-26.7,6.4-39.6
		L114.2,13.1C105.6,0,88.1-3.9,74.6,4.2L32.3,29.6C19,37.5,9.3,50.1,5.1,65c-15.2,55.5-3.8,151.4,137.4,292.5
		C254.8,469.8,338.4,500,395.8,500c13.2,0,26.4-1.7,39.2-5.1c14.8-4.2,27.5-13.9,35.3-27.2l25.4-42.3
		C503.9,411.9,500,394.4,486.9,385.7z M481.4,416.8l-25.4,42.3c-5.6,9.6-14.7,16.6-25.4,19.7c-51.3,14.1-140.8,2.4-276.3-133.1
		C18.8,210.2,7.2,120.6,21.2,69.4c3.1-10.7,10.1-19.8,19.7-25.5l42.3-25.4c5.8-3.5,13.4-1.8,17.2,3.9l36.7,55l30.8,46.1
		c3.7,5.6,2.5,13-2.8,17.2l-37.9,29.5c-11.5,8.8-14.8,24.8-7.7,37.4l3,5.5c10.6,19.5,23.9,43.8,72.2,92.2
		c48.3,48.3,72.6,61.6,92.2,72.2l5.5,3c12.7,7.1,28.6,3.8,37.5-7.7l29.4-37.9c4.1-5.3,11.6-6.5,17.2-2.8l101.2,67.5
		C483.3,403.4,484.9,411,481.4,416.8z"/>
	<path id="XMLID_3_" class="st1" d="M274.5,36.4c111.4,0.1,201.6,90.4,201.8,201.8c0,6.6,5.3,11.9,11.9,11.9
		c6.6,0,11.9-5.3,11.9-11.9C499.8,113.7,399,12.8,274.5,12.6c-6.5,0-11.9,5.3-11.9,11.9S268,36.4,274.5,36.4z"/>
	<path id="XMLID_2_" class="st1" d="M274.5,107.6c72.1,0.1,130.5,58.5,130.6,130.6c0,6.6,5.3,11.9,11.8,11.9
		c6.6,0,11.9-5.3,11.9-11.9C428.7,153,359.7,84,274.5,83.9c-6.6,0-11.9,5.3-11.9,11.9C262.6,102.3,268,107.6,274.5,107.6z"/>
	<path id="XMLID_1_" class="st1" d="M274.5,178.8c32.8,0,59.3,26.6,59.3,59.4c0,6.6,5.3,11.9,11.9,11.9c6.5,0,11.9-5.3,11.9-11.9
		c-0.1-45.9-37.2-83-83.1-83.1c-6.5,0-11.9,5.3-11.9,11.9C262.6,173.5,268,178.8,274.5,178.8z"/>
</g>
</svg>
