<?xml version="1.0" encoding="utf-8"?>
<!-- Generator: Adobe Illustrator 19.0.0, SVG Export Plug-In . SVG Version: 6.00 Build 0)  -->
<svg version="1.1" id="Layer_1" xmlns="http://www.w3.org/2000/svg" xmlns:xlink="http://www.w3.org/1999/xlink" x="0px" y="0px"
	 viewBox="0 0 500 500" style="enable-background:new 0 0 500 500;" xml:space="preserve">
<style type="text/css">
	.st0{fill:#134576;}
	.st1{fill:#F16465;}
</style>
<g id="_22-guarantee">
	<g id="linear_color">
		<path class="st0" d="M385,285.6h-75.4V243c0-8.7,0-23.3-7.6-36.3c-9.4-16.1-26.9-24.3-52-24.3c-6.6,0-11.9,5.3-11.9,11.9v61.1
			l-21.3,34.6l-26.3,17.2v-9.8c0-6.6-5.3-11.9-11.9-11.9H99.1c-6.6,0-11.9,5.3-11.9,11.9v190.6c0,6.6,5.3,11.9,11.9,11.9h79.4
			c4.2,0,8-2.2,10.2-5.7c6.6,3.8,14,5.7,21.6,5.7h158.8c19.7,0,35.7-16,35.7-35.7c0-6.9-2-13.7-5.8-19.5c1.2-0.9,2.3-1.9,3.3-2.9
			c11.9-11.9,13.9-30.6,4.7-44.7c1.2-0.9,2.3-1.9,3.3-2.9c13.4-13.4,14-35,1.3-49.1c13.2-14.7,11.9-37.3-2.8-50.4
			C402.3,288.9,393.8,285.6,385,285.6z M166.6,476.2H111V309.5h55.6V476.2z M377.5,472.7c-2.2,2.2-5.3,3.5-8.4,3.5H210.3
			c-11,0-19.8-8.9-19.9-19.9V335.8l43.3-28.2c2.8-1.8,4.6-4.7,5.2-7.9l21.2-34.5c1.1-1.9,1.8-4,1.8-6.2v-51.7
			c21.8,3.7,23.8,18.5,23.8,35.8v54.6c0,6.6,5.3,11.9,11.9,11.9H385c6.6,0,11.9,5.3,11.9,11.9s-5.3,11.9-11.9,11.9h-23.8
			c-6.6,0-11.9,5.3-11.9,11.9c0,6.6,5.3,11.9,11.9,11.9H385c6.6,0,11.9,5.3,11.9,11.9c0,6.6-5.3,11.9-11.9,11.9h-23.8
			c-6.6,0-11.9,5.3-11.9,11.9s5.3,11.9,11.9,11.9H377c6.6,0,11.9,5.3,11.9,11.9c0,6.6-5.3,11.9-11.9,11.9h-15.9
			c-6.6,0-11.9,5.3-11.9,11.9c0,6.6,5.3,11.9,11.9,11.9h8c6.6,0,11.9,5.3,11.9,11.9C381,467.4,379.8,470.5,377.5,472.7z"/>
		<circle id="XMLID_7_" class="st0" cx="138.8" cy="457.3" r="11.9"/>
		<path class="st1" d="M202,101.5l-7.2,42.2c-1.1,6.5,3.2,12.6,9.7,13.7c2.6,0.4,5.2,0,7.6-1.2l37.9-19.9l37.9,19.9
			c8.3,4.7,19.2-3.2,17.3-12.6l-7.2-42.2l30.7-29.9c4.7-4.6,4.8-12.1,0.2-16.8c-1.8-1.9-4.2-3.1-6.8-3.5l-42.4-6.2l-19-38.4
			c-2.9-5.9-10.1-8.3-15.9-5.4c-2.3,1.2-4.3,3.1-5.4,5.4l-19,38.4l-42.4,6.2c-6.5,1-11,7-10.1,13.5c0.4,2.6,1.6,5,3.5,6.8L202,101.5
			z M230,67.7c3.9-0.6,7.2-3,9-6.5L250,38.8L261,61.2c1.7,3.5,5.1,6,9,6.5l24.7,3.6l-17.9,17.4c-2.8,2.7-4.1,6.7-3.4,10.5l4.2,24.6
			l-22.1-11.6c-3.5-1.8-7.6-1.8-11.1,0l-22.1,11.6l4.2-24.6c0.7-3.9-0.6-7.8-3.4-10.5l-17.9-17.4L230,67.7z"/>
		<path class="st1" d="M495.2,176.9l-34.3-25.7l1.7-42.8c0.3-6.6-4.8-12.1-11.4-12.4c-2.6-0.1-5.2,0.7-7.3,2.2l-35,24.7l-40.2-14.9
			c-6.2-2.3-13,0.9-15.3,7c-0.9,2.5-1,5.1-0.2,7.7l12.6,40.9l-26.6,33.6c-4.1,5.1-3.2,12.6,1.9,16.7c2.1,1.6,4.6,2.5,7.2,2.6
			l42.9,0.6l23.8,35.7c5.1,8.2,18.4,6.4,21.2-2.8l13.9-40.5l41.3-11.6c6.3-1.8,10-8.4,8.3-14.7C498.8,180.6,497.3,178.4,495.2,176.9
			L495.2,176.9z M437.6,188.2c-3.8,1.1-6.8,3.9-8.1,7.6l-8.1,23.6l-13.9-20.8c-2.2-3.3-5.8-5.2-9.7-5.3l-25-0.4l15.5-19.6
			c2.4-3.1,3.2-7.1,2-10.9l-7.4-23.9l23.4,8.7c3.7,1.4,7.8,0.8,11-1.4l20.4-14.4l-1,25c-0.2,3.9,1.6,7.7,4.8,10l20,15L437.6,188.2z"
			/>
		<path class="st1" d="M151.6,216.4c9.6,0.2,15.4-12,9.2-19.3l-26.6-33.6l12.6-40.9c1.9-6.3-1.6-13-7.9-14.9
			c-2.5-0.8-5.2-0.7-7.6,0.2l-40.2,14.9l-35-24.7c-5.4-3.8-12.8-2.5-16.6,2.9c-1.5,2.1-2.3,4.7-2.2,7.3l1.7,42.8L4.8,176.9
			c-5.3,3.9-6.3,11.4-2.4,16.7c1.6,2.1,3.8,3.6,6.3,4.3l41.2,11.6L63.8,250c2.8,9.1,16.1,10.9,21.2,2.8l23.8-35.6L151.6,216.4z
			 M92.4,198.6l-13.9,20.8l-8.1-23.6c-1.3-3.7-4.3-6.6-8.1-7.6l-24.1-6.7l20-15c3.1-2.4,4.9-6.1,4.8-10l-1-25l20.4,14.4
			c3.2,2.3,7.3,2.8,11,1.4l23.4-8.7l-7.4,23.9c-1.2,3.7-0.4,7.8,2,10.9l15.5,19.6l-25,0.4C98.2,193.4,94.6,195.4,92.4,198.6
			L92.4,198.6z"/>
	</g>
</g>
</svg>
