<?xml version="1.0" encoding="utf-8"?>
<!-- Generator: Adobe Illustrator 19.0.0, SVG Export Plug-In . SVG Version: 6.00 Build 0)  -->
<svg version="1.1" id="Layer_1" xmlns="http://www.w3.org/2000/svg" xmlns:xlink="http://www.w3.org/1999/xlink" x="0px" y="0px"
	 viewBox="0 0 500 500" style="enable-background:new 0 0 500 500;" xml:space="preserve">
<style type="text/css">
	.st0{fill:#53C3EF;}
	.st1{fill:#1DADDC;}
	.st2{fill:#FFFFFF;}
	.st3{fill:#E5F5FD;}
	.st4{fill:#020202;}
</style>
<g>
	<g>
		<ellipse id="XMLID_7_" class="st0" cx="250" cy="249.8" rx="242.7" ry="242.5"/>
		<path id="XMLID_6_" class="st1" d="M273.5,468.8c-134,0-242.7-108.6-242.7-242.5c0-61,22.6-116.7,59.8-159.3
			c-51,44.4-83.3,109.8-83.3,182.7C7.3,383.7,116,492.3,250,492.3c73,0,138.4-32.2,182.9-83.2C390.2,446.2,334.5,468.8,273.5,468.8
			L273.5,468.8z"/>
		<path id="XMLID_5_" class="st2" d="M343.9,101.2h-47c-47.6,0-86.1,38.5-86.1,86v62.6H156c-4.3,0-7.8,3.5-7.8,7.8v46.9
			c0,4.3,3.5,7.8,7.8,7.8h54.8v140.4l39.1,39.5c13.3,0,26.4-1.1,39.1-3.2V312.4H330c3.6,0,6.7-2.4,7.6-5.9l11.7-46.9
			c1.2-5-2.5-9.7-7.6-9.7h-52.6v-62.6c0-13,10.5-23.5,23.5-23.5h31.3c4.3,0,7.8-3.5,7.8-7.8V109
			C351.7,104.7,348.3,101.2,343.9,101.2z"/>
		<path id="XMLID_4_" class="st3" d="M288.4,467.7c-15.5,1.5-31.2,1.5-47.1-0.2c-4-0.4-6.9-3.9-6.9-7.8V312.4
			c0-13-10.5-23.5-23.5-23.5h-31.3c-4.3,0-7.8-3.5-7.8-7.8v-31.3h-15.7c-4.3,0-7.8,3.5-7.8,7.8v46.9c0,4.3,3.5,7.8,7.8,7.8h54.8
			v176.7c12.7,2.1,25.8,3.2,39.2,3.2c13.3,0,26.4-1.1,39.1-3.2v-21.4L288.4,467.7z"/>
	</g>
	<g>
		<path class="st4" d="M426.8,73.2C379.6,26,316.8,0,250,0S120.4,26,73.2,73.2C26,120.3,0,183.1,0,249.8s26,129.5,73.2,176.6
			c47.2,47.2,110,73.2,176.8,73.2s129.6-26,176.8-73.2C474,379.3,500,316.5,500,249.8S474,120.3,426.8,73.2z M416.4,416.1
			c-33.3,33.3-74.8,55.3-120,64.3V319.7H330c7,0,13-4.7,14.7-11.5l11.7-46.9c1.1-4.6,0.1-9.3-2.8-13c-2.9-3.7-7.2-5.8-11.9-5.8
			h-52.6c-4,0-7.3,3.3-7.3,7.3s3.3,7.3,7.3,7.3h52.6c0.1,0,0.2,0,0.4,0.2c0.2,0.2,0.1,0.4,0.1,0.4l-11.8,46.9
			c-0.1,0.2-0.3,0.4-0.5,0.4h-40.9c-4,0-7.3,3.3-7.3,7.3v170.5c-10.5,1.4-21.1,2.1-31.8,2.1c-62.9,0-122-24.5-166.4-68.9
			c-44.5-44.4-68.9-103.5-68.9-166.3S39.1,127.9,83.6,83.5C128,39.1,187.1,14.7,250,14.7c62.9,0,122,24.5,166.4,68.9
			c44.5,44.4,68.9,103.5,68.9,166.3S460.9,371.7,416.4,416.1L416.4,416.1z"/>
		<path id="XMLID_1_" class="st4" d="M343.9,93.9h-47c-51.5,0-93.4,41.9-93.4,93.4v55.2h-47.5c-8.4,0-15.1,6.8-15.1,15.1v46.9
			c0,8.4,6.8,15.1,15.1,15.1h47.5v133.5c0,4,3.3,7.3,7.3,7.3c4.1,0,7.3-3.3,7.3-7.3V312.4c0-4-3.3-7.3-7.3-7.3h-54.8
			c-0.3,0-0.5-0.2-0.5-0.5v-46.9c0-0.3,0.2-0.5,0.5-0.5h54.8c4.1,0,7.3-3.3,7.3-7.3v-62.6c0-43.4,35.4-78.7,78.8-78.7h47
			c0.3,0,0.5,0.2,0.5,0.5v46.9c0,0.3-0.2,0.5-0.5,0.5h-31.3c-17,0-30.8,13.8-30.8,30.8v31.3c0,4,3.3,7.3,7.3,7.3
			c4,0,7.3-3.3,7.3-7.3v-31.3c0-8.9,7.3-16.2,16.2-16.2h31.3c8.4,0,15.1-6.8,15.1-15.1V109C359.1,100.7,352.3,93.9,343.9,93.9z"/>
	</g>
</g>
</svg>
