<?xml version="1.0" encoding="utf-8"?>
<!-- Generator: Adobe Illustrator 19.0.0, SVG Export Plug-In . SVG Version: 6.00 Build 0)  -->
<svg version="1.1" id="Layer_1" xmlns="http://www.w3.org/2000/svg" xmlns:xlink="http://www.w3.org/1999/xlink" x="0px" y="0px"
	 viewBox="0 0 500 500" style="enable-background:new 0 0 500 500;" xml:space="preserve">
<style type="text/css">
	.st0{fill:#F16465;}
	.st1{fill:#134576;stroke:#134576;stroke-width:2;stroke-miterlimit:10;}
	.st2{fill:#020202;}
</style>
<path class="st0" d="M73.2,332.8c43.8,101.2,192.2,101.4,236.1,0c5.1-11.8-3.9-24.8-17.1-24.8h-202C77,308,68.1,321,73.2,332.8z
	 M292.2,322.6c2.4,0,4.1,2.3,3.1,4.5c-38.7,89.3-169.5,89.4-208.3,0c-0.9-2.1,0.8-4.5,3.1-4.5H292.2z"/>
<path id="XMLID_6_" class="st0" d="M98,242.7c0-14.5,12.2-26.3,27.1-26.3s27.1,11.8,27.1,26.3c0,4,3.4,7.3,7.5,7.3
	c4.2,0,7.6-3.3,7.6-7.3c0-22.6-18.9-41-42.2-41s-42.2,18.4-42.2,41c0,4,3.4,7.3,7.5,7.3C94.6,250,98,246.7,98,242.7z"/>
<path id="XMLID_5_" class="st0" d="M230.2,242.7c0-14.5,12.2-26.3,27.1-26.3c14.9,0,27.1,11.8,27.1,26.3c0,4,3.4,7.3,7.5,7.3
	c4.2,0,7.5-3.3,7.5-7.3c0-22.6-18.9-41-42.2-41s-42.2,18.4-42.2,41c0,4,3.4,7.3,7.5,7.3C226.8,250,230.2,246.7,230.2,242.7z"/>
<path id="XMLID_4_" class="st1" d="M444.8,412.6c-25.3-4.4-61.9-14-95.9-34.9c-12.5,17.8-28.2,33.5-46.7,46.3
	c-3.4,2.4-8.1,1.6-10.5-1.7c-2.4-3.3-1.6-7.9,1.7-10.2c46.3-32.1,73.9-84.1,73.9-139.2c0-94.2-79-170.9-176.1-170.9
	c-97,0-176,76.5-176.1,170.6c-0.1,54.5,27,106.3,72.5,138.4c8.5,6,11,17.1,5.7,25.8C82.5,454.8,69,471.1,53,485.3
	c26.5-4.7,65-15.1,98.9-38.5c5.1-3.5,11.5-5.1,18-4.3c31.7,3.7,64.2-0.7,94.3-14.1c3.8-1.7,8.3,0,10,3.6c1.7,3.7,0,8-3.7,9.7
	C238,456.1,202.6,461.1,168,457c-2.7-0.3-5.4,0.3-7.4,1.7c-36.4,25.1-77.4,36.1-105.4,41c-14.8,2.6-23.8-15.2-12.7-25
	c15-13.3,27.7-28.5,37.7-45.2c1.3-2.2,0.7-5-1.6-6.6C29.3,387.9-0.1,332.3,0,272.6c0.2-88,62.2-159.1,143-179.3
	c15.8-26.6,38.3-49.2,65.3-65.4c3.5-2.1,8.2-1.1,10.4,2.4c2.2,3.4,1.1,8-2.4,10.1c-21,12.6-39,29.3-52.9,49
	C280,73,382.4,160.9,382.4,272.9c0,32.8-9.1,64.6-25.5,92.4c31.8,19.5,66.1,28.6,90.1,32.8c-16-14.2-29.6-30.5-40.3-48.4
	c-5.2-8.7-2.7-19.8,5.7-25.8c45.5-32.2,72.5-83.9,72.5-138.4C484.7,66.8,361.8-16.4,246.6,25.8c-3.9,1.4-8.2-0.5-9.7-4.3
	c-1.5-3.8,0.5-8,4.4-9.4C365.6-33.4,499.8,54.9,500,185.4c0.1,59.9-29.4,115.5-78.6,150.3c-2.2,1.6-2.9,4.4-1.6,6.6
	c10,16.8,22.7,32,37.8,45.2C468.6,397.3,459.5,415.1,444.8,412.6z"/>
<path id="XMLID_3_" class="st2" d="M296.2,325"/>
<rect id="XMLID_2_" x="86" y="315.3" class="st0" width="213.5" height="32.3"/>
<ellipse id="XMLID_1_" class="st0" cx="190.3" cy="355.5" rx="95.4" ry="42.4"/>
</svg>
