<?xml version="1.0" encoding="utf-8"?>
<!-- Generator: Adobe Illustrator 25.2.3, SVG Export Plug-In . SVG Version: 6.00 Build 0)  -->
<svg version="1.1" id="Layer_1" xmlns="http://www.w3.org/2000/svg" xmlns:xlink="http://www.w3.org/1999/xlink" x="0px" y="0px"
	 viewBox="0 0 1080 1080" style="enable-background:new 0 0 1080 1080;" xml:space="preserve">
<style type="text/css">
	.st0{fill:#E6E6E6;}
	.st1{fill:#FF6363;stroke:#FF6365;stroke-width:2;stroke-miterlimit:10;}
	.st2{fill:#010101;}
</style>
<path class="st0" d="M170.4,716.4c91.9,214.8,403.1,215.1,495.2,0c10.7-25-8.2-52.6-35.8-52.6H206.2
	C178.6,663.8,159.7,691.5,170.4,716.4z M629.9,694.9c4.9,0,8.5,4.9,6.6,9.5c-81.1,189.5-355.6,189.8-436.8,0c-2-4.5,1.6-9.5,6.5-9.5
	H629.9z"/>
<path class="st0" d="M222.5,525.2c0-30.8,25.5-55.8,56.9-55.8s56.9,25.1,56.9,55.8c0,8.6,7.1,15.5,15.8,15.5c8.8,0,15.8-7,15.8-15.5
	c0-47.9-39.7-86.9-88.6-86.9s-88.6,39-88.6,86.9c0,8.6,7.1,15.5,15.8,15.5C215.4,540.7,222.5,533.8,222.5,525.2z"/>
<path class="st0" d="M499.8,525.2c0-30.8,25.5-55.8,56.9-55.8c31.3,0,56.9,25.1,56.9,55.8c0,8.6,7.1,15.5,15.8,15.5
	c8.8,0,15.8-7,15.8-15.5c0-47.9-39.7-86.9-88.6-86.9c-48.8,0-88.6,39-88.6,86.9c0,8.6,7.1,15.5,15.8,15.5
	C492.7,540.7,499.8,533.8,499.8,525.2z"/>
<path class="st1" d="M949.9,885.7c-53.1-9.4-129.8-29.8-201.1-74c-26.2,37.7-59.2,71.1-98,98.2c-7.1,5-17,3.4-22-3.6
	c-5.1-7-3.4-16.7,3.7-21.7c97.1-68,155.1-178.4,155.1-295.3c0-199.9-165.7-362.6-369.4-362.6C214.7,226.8,49,389.1,48.7,588.7
	c-0.2,115.7,56.6,225.5,152,293.8c17.8,12.8,23,36.3,12,54.7c-22.5,38.1-51,72.6-84.6,102.7c55.6-9.9,136.3-32.1,207.4-81.6
	c10.8-7.5,24.2-10.7,37.7-9.1c66.4,7.9,134.7-1.6,197.9-29.8c8-3.5,17.4-0.1,21,7.7c3.6,7.8,0.1,17-7.8,20.6
	c-68.1,30.5-142.2,41-214.8,32.4c-5.7-0.7-11.2,0.6-15.6,3.6c-76.4,53.2-162.3,76.7-221,87c-30.9,5.4-50-32.4-26.7-53.1
	c31.5-28.1,58.1-60.4,79.2-96c2.8-4.6,1.4-10.7-3.3-14C78.4,833.4,16.8,715.3,17,588.6c0.3-186.7,130.5-337.7,299.9-380.4
	c33.1-56.4,80.3-104.4,137-138.8c7.4-4.5,17.2-2.3,21.8,5c4.6,7.3,2.4,16.9-5.1,21.4c-43.9,26.7-81.8,62.3-110.9,103.9
	c244.6-34.6,459.5,151.9,459.5,389.6c0,69.6-19,137.1-53.5,196.1c66.7,41.3,138.7,60.6,189,69.5c-33.6-30.2-62-64.7-84.6-102.8
	c-10.9-18.5-5.7-42,12-54.7c95.4-68.3,152.2-178.1,152-293.8C1033.7,151.9,775.9-24.5,534.3,65c-8.2,3-17.3-1-20.4-9
	c-3.1-8,1.1-17,9.2-20c260.7-96.6,542.2,90.9,542.6,367.7c0.3,127.1-61.7,245-165,318.9c-4.7,3.3-6.1,9.4-3.3,14
	c21,35.6,47.7,67.9,79.2,96C999.9,853.3,980.8,891.1,949.9,885.7z"/>
<path class="st2" d="M638.4,699.8"/>
<rect x="197.4" y="679.4" class="st0" width="447.8" height="68.4"/>
<ellipse class="st0" cx="416.1" cy="764.6" rx="200.2" ry="89.9"/>
</svg>
