<?xml version="1.0" encoding="utf-8"?>
<!-- Generator: Adobe Illustrator 19.0.0, SVG Export Plug-In . SVG Version: 6.00 Build 0)  -->
<svg version="1.1" id="Layer_1" xmlns="http://www.w3.org/2000/svg" xmlns:xlink="http://www.w3.org/1999/xlink" x="0px" y="0px"
	 viewBox="0 0 500 500" style="enable-background:new 0 0 500 500;" xml:space="preserve">
<style type="text/css">
	.st0{fill:#134576;stroke:#134576;stroke-miterlimit:10;}
	.st1{fill:#F16465;}
	.st2{fill:#134576;}
</style>
<g id="Consult-Smartphone">
	<path class="st0" d="M40,250c0,59.8,58.2,108.3,130,108.3c71.8,0,130-48.5,130-108.3s-58.2-108.3-130-108.3
		C98.2,141.7,40.1,190.2,40,250z M280,250c0,50.6-49.2,91.7-110,91.7S60,300.6,60,250c0-50.6,49.3-91.7,110-91.7
		C230.7,158.4,279.9,199.4,280,250z"/>
	<path class="st1" d="M113.4,250c-15.6,13-15.6,34.1,0,47.1c15.6,13,40.9,13,56.6,0l56.6-47.1c15.6-13,15.6-34.1,0-47.1
		c-15.6-13-40.9-13-56.6,0L113.4,250z M155.9,285.4c-7.8,6.5-20.5,6.5-28.3,0c-7.8-6.5-7.8-17.1,0-23.6l21.2-17.7l28.3,23.6
		L155.9,285.4z M198.3,209.8c11,0,20,7.5,20,16.7c0,4.4-2.1,8.6-5.8,11.8l-21.2,17.7l-28.3-23.6l21.2-17.7
		C187.9,211.5,193,209.8,198.3,209.8z"/>
	<path class="st0" d="M322.7,416.7H17.9V83.3h322.7V41.7c0-23-20.1-41.6-44.8-41.7h-251C20.1,0,0,18.7,0,41.7v416.7
		c0,23,20.1,41.6,44.8,41.7h251c24.7,0,44.8-18.7,44.8-41.7V275h-17.9L322.7,416.7L322.7,416.7z M44.8,16.7h251
		c14.8,0,26.9,11.2,26.9,25v25H17.9v-25C17.9,27.9,30,16.7,44.8,16.7z M295.8,483.3h-251c-14.9,0-26.9-11.2-26.9-25v-25h304.8v25
		C322.7,472.1,310.6,483.3,295.8,483.3z"/>
	<rect id="XMLID_8_" x="40" y="33.3" class="st2" width="20" height="16.7"/>
	<rect id="XMLID_7_" x="80" y="33.3" class="st2" width="40" height="16.7"/>
	<rect id="XMLID_6_" x="140" y="450" class="st2" width="60" height="16.7"/>
	<path class="st1" d="M470,100H330c-16.6,0-30,11.2-30,25v66.7c0,13.8,13.4,25,30,25h30V250c0,3.5,2.7,6.7,6.7,7.9
		c1.1,0.3,2.2,0.5,3.3,0.5c3,0,5.9-1.2,7.8-3.1l37-38.5H470c16.6,0,30-11.2,30-25V125C500,111.2,486.6,100,470,100z M480,191.7
		c0,4.6-4.5,8.3-10,8.3h-60c-3,0-5.9,1.1-7.8,3.1L380,226.3v-17.9c0-4.6-4.5-8.3-10-8.3h-40c-5.5,0-10-3.7-10-8.3V125
		c0-4.6,4.5-8.3,10-8.3h140c5.5,0,10,3.7,10,8.3L480,191.7L480,191.7z"/>
	<rect id="XMLID_3_" x="390" y="150" class="st2" width="20" height="16.7"/>
	<rect id="XMLID_2_" x="430" y="150" class="st2" width="20" height="16.7"/>
	<rect id="XMLID_1_" x="350" y="150" class="st2" width="20" height="16.7"/>
</g>
</svg>
