<svg xmlns="http://www.w3.org/2000/svg" xmlns:xlink="http://www.w3.org/1999/xlink" id="Layer_1" x="0" y="0" version="1.1" viewBox="0 0 500 500" xml:space="preserve" style="enable-background:new 0 0 500 500"><style type="text/css">.st0{fill:#f16465}.st1{fill:#134576}.st2{fill:#f16465;stroke:#f16465;stroke-width:.75;stroke-miterlimit:10}</style><g><g><path id="XMLID_28_" d="M382.6,428.8c0,8.6-6.8,15.6-15.2,15.6h-41.5c-8.4,0-15.2-7-15.2-15.6v-83.3 c0-8.6,6.8-15.6,15.2-15.6h41.5c8.4,0,15.2,7,15.2,15.6V428.8z" class="st0"/><path id="XMLID_27_" d="M174.5,405.6h-30c-10.7,0.4-10.7,19.1,0,19.5h30C185.2,424.6,185.2,406,174.5,405.6z" class="st1"/><path id="XMLID_26_" d="M116.9,405.6H98.3c-6.8,0-12.3-6.7-12.3-14.9v-30.9c-0.4-12.9-15.8-12.9-16.2,0v30.9 c0,19,12.8,34.4,28.5,34.4h18.5C127.6,424.6,127.6,406,116.9,405.6z" class="st1"/><path id="XMLID_25_" d="M69.8,293v33.5c0.4,12.9,15.8,12.9,16.2,0V293C85.7,280,70.2,280,69.8,293z" class="st1"/><path id="XMLID_24_" d="M200.9,365.5" class="st1"/><path d="M475.8,441.4h-18.9V367l0.3,0.4c4.5,4.9,10.3,7.7,16.4,7.7c6.8,0,13.3-3.5,17.9-9.5 c9.1-11.9,8.4-30.5-1.5-41.4l-2.3-2.6l-0.7-0.8l-19-21c-11-14.5-25.5-30.7-42.1-46.7c-0.7-0.7-1.4-1.4-2.1-2l-61.2-67.5 c-9.4-10.3-23.5-10.3-32.8,0L202.4,324.2c-9.9,10.9-10.6,29.5-1.5,41.4c4.4,5.8,10.4,9.1,16.8,9.5c0.4,0,0.7,0,1.1,0 c6.1,0,11.9-2.7,16.4-7.7l0.3-0.4v74.4h-18.9c-32.2,1.6-32.2,57,0,58.6h51.1c10.7-0.4,10.7-19.1,0-19.5h-51.1 c-10.7-0.5-10.7-19.1,0-19.5h259.2c10.7,0.5,10.7,19.1,0,19.5H306.3c-10.7,0.4-10.7,19.1,0,19.5h169.5 C508.1,498.4,508,443,475.8,441.4z M378.1,441.3h-63.7v-72.1c1.8-50.9,62-50.9,63.7,0V441.3z M440.7,441.3h-46.4v-72.1 c-2.6-76.9-93.5-76.8-96.1,0v72.1h-46.4v-92.1l94.5-104.2l94.5,104.2V441.3z" class="st1"/><rect id="XMLID_20_" width="4.4" height=".1" x="346.2" y="232.3" class="st1"/><polygon id="XMLID_19_" points="487.8 320.8 487.8 321.6 487 320.8" class="st1"/></g><g id="insurance-clipboard-document-report-security"><path d="M81.6,13.5c-6.1,0-11.1,6-11.1,13.4c0,7.4,5,13.4,11.1,13.4c6.2,0,11.1-6,11.1-13.4 C92.8,19.5,87.8,13.5,81.6,13.5z M81.6,31.3c-2,0-3.7-2-3.7-4.5c0-2.5,1.7-4.5,3.7-4.5c2.1,0,3.7,2,3.7,4.5 C85.3,29.3,83.7,31.3,81.6,31.3z" class="st2"/><path id="XMLID_16_" d="M33.4,138.7h14.8v8.9H33.4V138.7z" class="st2"/><path id="XMLID_15_" d="M55.7,138.7h55.7v8.9H55.7V138.7z" class="st2"/><path id="XMLID_14_" d="M33.4,165.5h14.8v8.9H33.4V165.5z" class="st2"/><path id="XMLID_13_" d="M33.4,192.3h14.8v8.9H33.4V192.3z" class="st2"/><path id="XMLID_12_" d="M33.4,219.2h14.8v8.9H33.4V219.2z" class="st2"/><path d="M218.9,147.6h-3.7c-12,0-23.7-4.7-33.4-13.4l-8.9-8c-1.3-1.2-3.1-1.2-4.5,0l-5.2,4.7V40.3 c0-7.4-5-13.4-11.1-13.4h-30.3c-1.6-5.3-5.8-8.9-10.5-8.9h-8.7C98.5,4,85.8-3.4,74.2,1.5c-6.4,2.7-11.4,8.7-13.6,16.4h-8.7 c-4.7,0-8.9,3.6-10.5,8.9H11.1C5,26.9,0,32.9,0,40.3v214.6c0,7.4,5,13.4,11.1,13.4h141c3.4,0,6.6-1.9,8.7-5.1l8.2,4.7 c1,0.6,2.2,0.6,3.2,0l32.6-18.7c11-6.9,17.8-20.6,17.8-35.5v-61.6C222.6,149.6,221,147.6,218.9,147.6L218.9,147.6z M122.4,35.8 h29.7c2,0,3.7,2,3.7,4.5v97c-2.4,1.8-4.9,3.4-7.4,4.7V49.2c0-2.5-1.7-4.5-3.7-4.5h-22.3L122.4,35.8L122.4,35.8z M48.2,31.3 c0-2.5,1.7-4.5,3.7-4.5h11.5c1.8,0,3.3-1.5,3.6-3.6c1.6-9.7,9.5-15.9,17.5-14c5.8,1.4,10.4,6.9,11.6,14c0.3,2.1,1.9,3.6,3.6,3.6 h11.5c2,0,3.7,2,3.7,4.5v17.9H48.2V31.3z M44.5,58.2h74.2c2.1,0,3.7-2,3.7-4.5H141v91.4c-4.8,1.6-9.8,2.5-14.8,2.5h-3.7 c-2.1,0-3.7,2-3.7,4.5v13.4H55.6v8.9h63.1v17.9H55.6v8.9h63.1v12.4c0,1.8,0.1,3.6,0.3,5.4H55.6v8.9H121c1.6,5,4,9.6,7.1,13.4H22.3 V53.7h18.5C40.8,56.2,42.5,58.2,44.5,58.2z M152.1,259.4h-141c-2,0-3.7-2-3.7-4.5V40.3c0-2.5,1.7-4.5,3.7-4.5h29.7v8.9H18.6 c-2,0-3.7,2-3.7,4.5V246c0,2.5,1.7,4.5,3.7,4.5h120.1l14.9,8.5C153.1,259.2,152.6,259.4,152.1,259.4z M215.2,213.7 c0,11.5-5.2,22.1-13.7,27.5l-30.8,17.7l-30.8-17.6c-8.5-5.4-13.8-16-13.8-27.6v-57.2c13.6,0,26.9-5.4,37.8-15.2l6.7-6l6.7,6 c10.9,9.8,24.2,15.2,37.8,15.2V213.7z" class="st2"/><path d="M103.9,85H92.8V71.6c0-2.5-1.7-4.5-3.7-4.5H74.2c-2,0-3.7,2-3.7,4.5V85H59.4c-2.1,0-3.7,2-3.7,4.5v17.9 c0,2.5,1.7,4.5,3.7,4.5h11.1v13.4c0,2.5,1.7,4.5,3.7,4.5h14.8c2,0,3.7-2,3.7-4.5v-13.4h11.1c2.1,0,3.7-2,3.7-4.5V89.5 C107.6,87,105.9,85,103.9,85z M100.2,102.9H89c-2,0-3.7,2-3.7,4.5v13.4h-7.4v-13.4c0-2.5-1.7-4.5-3.7-4.5H63.1v-8.9h11.1 c2,0,3.7-2,3.7-4.5V76.1h7.4v13.4c0,2.5,1.7,4.5,3.7,4.5h11.1V102.9z" class="st2"/><path d="M204.6,164.5c-11.5-2.1-22.4-7.6-31.7-16c-1.3-1.2-3.1-1.2-4.5,0c-9.3,8.4-20.2,13.9-31.7,16 c-1.8,0.3-3.1,2.2-3.2,4.4v44.8c0,8.1,3.7,15.6,9.6,19.5l0.2,0.1l25.7,14.7c1,0.6,2.2,0.6,3.2,0l25.9-14.8 c5.9-3.9,9.6-11.4,9.6-19.5v-44.8C207.8,166.7,206.4,164.9,204.6,164.5L204.6,164.5z M200.4,213.7c0,4.8-2.1,9.2-5.6,11.6 l-24.1,13.8l-24-13.7c-3.5-2.4-5.6-6.8-5.6-11.7v-41c10.7-2.5,20.8-7.7,29.7-15.1c8.9,7.5,19,12.6,29.7,15.1L200.4,213.7 L200.4,213.7z" class="st2"/><path id="XMLID_1_" d="M154.7,202.6l-5.3,6.3l11.1,13.4c1.5,1.7,3.8,1.7,5.3,0l29.7-35.8l-5.2-6.3l-27.1,32.6 L154.7,202.6z" class="st2"/></g></g></svg>