<svg xmlns="http://www.w3.org/2000/svg" xmlns:xlink="http://www.w3.org/1999/xlink" id="Layer_1" x="0" y="0" version="1.1" viewBox="0 0 500 500" xml:space="preserve" style="enable-background:new 0 0 500 500"><style type="text/css">.st0{fill:#c12427}.st1{fill:#134576}.st2{fill:#f16465}</style><g><path id="XMLID_7_" d="M228.2,0H245v500h-16.8V0z" class="st0"/><path d="M139.1,118.2c10.6-10.8,17.2-25.5,17.2-41.6c0-33.3-28.1-60.5-62.5-60.5S31.3,43.3,31.3,76.7 c0,16.1,6.5,30.7,17.2,41.6C19.6,133.7,0,163.5,0,197.6v151.2h31.3V500h125.1V348.8h31.3V197.6C187.6,163.5,168,133.7,139.1,118.2z M62.5,76.7c0-16.7,14-30.2,31.3-30.2c17.2,0,31.3,13.6,31.3,30.2c0,16.7-14,30.2-31.3,30.2S62.5,93.4,62.5,76.7z M156.3,318.6 h-31.3v151.2H62.5V318.6H31.3v-121c0-33.3,28-60.5,62.5-60.5c34.5,0,62.5,27.1,62.5,60.5L156.3,318.6L156.3,318.6z" class="st1"/><path d="M482.5,196.8c-0.3-33.8-19.8-63.1-48.4-78.5c10.6-10.8,17.2-25.5,17.2-41.6c0-33.3-28-60.5-62.5-60.5 s-62.5,27.1-62.5,60.5c0,16.1,6.6,30.7,17.2,41.6c-28.7,15.4-48.2,44.9-48.4,78.7l-12.8,151.8h46.2V500h125.1V348.8H500 L482.5,196.8z M357.5,76.7c0-16.7,14-30.2,31.3-30.2S420,60,420,76.7c0,16.7-14,30.2-31.3,30.2C371.5,106.9,357.5,93.4,357.5,76.7z M422.1,318.6v151.2h-62.5V318.6h-43.5l10.1-119.7l0.1-1.2c0-33.3,28-60.5,62.5-60.5c34.5,0,62.5,27.1,62.5,60.5v0.8L465,318.6 L422.1,318.6L422.1,318.6z" class="st2"/></g></svg>