<?xml version="1.0" encoding="utf-8"?>
<!-- Generator: Adobe Illustrator 19.0.0, SVG Export Plug-In . SVG Version: 6.00 Build 0)  -->
<svg version="1.1" id="Layer_1" xmlns="http://www.w3.org/2000/svg" xmlns:xlink="http://www.w3.org/1999/xlink" x="0px" y="0px"
	 viewBox="0 0 500 500" style="enable-background:new 0 0 500 500;" xml:space="preserve">
<style type="text/css">
	.st0{fill:url(#SVGID_1_);}
	.st1{fill:#FFFFFF;}
	.st2{fill:url(#XMLID_21_);}
	.st3{fill:url(#SVGID_2_);}
	.st4{fill:#020202;}
</style>
<g>
	
		<linearGradient id="SVGID_1_" gradientUnits="userSpaceOnUse" x1="44.1869" y1="178.8085" x2="458.2504" y2="-235.2548" gradientTransform="matrix(1 0 0 -1 0 223)">
		<stop  offset="0" style="stop-color:#595FAA"/>
		<stop  offset="0.4973" style="stop-color:#D52F8C"/>
		<stop  offset="1" style="stop-color:#FED56C"/>
	</linearGradient>
	<path class="st0" d="M126.9,48.8h246.1c43,0,78.1,35.2,78.1,78.1V373c0,43-35.1,78.1-78.1,78.1H126.9c-43,0-78.1-35.2-78.1-78.1
		V127C48.8,84,84,48.8,126.9,48.8z M373.1,9.8H126.9C62.5,9.8,9.8,62.5,9.8,127v246.1c0,64.5,52.7,117.2,117.2,117.2h246.1
		c64.5,0,117.2-52.7,117.2-117.2V127C490.2,62.5,437.5,9.8,373.1,9.8z"/>
	<path class="st1" d="M373.1,48.8H126.9C84,48.8,48.8,84,48.8,127V373c0,43,35.2,78.1,78.1,78.1h246.1c43,0,78.1-35.2,78.1-78.1V127
		C451.2,84,416,48.8,373.1,48.8z M373.1,97.6c16.2,0,29.3,13.1,29.3,29.3s-13.1,29.3-29.3,29.3c-16.2,0-29.3-13.1-29.3-29.3
		S356.9,97.6,373.1,97.6z M250,152.4c53.9,0,97.7,43.7,97.7,97.6c0,53.9-43.7,97.7-97.7,97.7c-53.9,0-97.7-43.7-97.7-97.7
		C152.3,196.1,196.1,152.4,250,152.4z"/>
	
		<linearGradient id="XMLID_21_" gradientUnits="userSpaceOnUse" x1="166.9883" y1="302.1012" x2="581.075" y2="-111.9852" gradientTransform="matrix(1 0 0 -1 0 223)">
		<stop  offset="0" style="stop-color:#595FAA"/>
		<stop  offset="0.4973" style="stop-color:#D52F8C"/>
		<stop  offset="1" style="stop-color:#FED56C"/>
	</linearGradient>
	<path id="XMLID_14_" class="st2" d="M402.3,127c0,16.2-13.1,29.3-29.3,29.3c-16.2,0-29.3-13.1-29.3-29.3s13.1-29.3,29.3-29.3
		C389.2,97.6,402.3,110.8,402.3,127z"/>
	
		<linearGradient id="SVGID_2_" gradientUnits="userSpaceOnUse" x1="43.9462" y1="179.0476" x2="457.998" y2="-235.0037" gradientTransform="matrix(1 0 0 -1 0 223)">
		<stop  offset="0" style="stop-color:#595FAA"/>
		<stop  offset="0.4973" style="stop-color:#D52F8C"/>
		<stop  offset="1" style="stop-color:#FED56C"/>
	</linearGradient>
	<path class="st3" d="M347.7,250c0-53.9-43.7-97.6-97.7-97.6c-53.9,0-97.7,43.7-97.7,97.6c0,53.9,43.7,97.7,97.7,97.7
		C303.9,347.7,347.7,303.9,347.7,250z M250,191.4c32.4,0,58.6,26.2,58.6,58.6s-26.2,58.6-58.6,58.6s-58.6-26.2-58.6-58.6
		C191.4,217.6,217.6,191.4,250,191.4z"/>
	<path id="XMLID_11_" class="st1" d="M308.6,250c0,32.4-26.2,58.6-58.6,58.6s-58.6-26.2-58.6-58.6c0-32.4,26.2-58.6,58.6-58.6
		S308.6,217.6,308.6,250z"/>
</g>
<path id="XMLID_10_" class="st4" d="M373.1,0H230.5c-5.4,0-9.8,4.4-9.8,9.8c0,5.4,4.4,9.8,9.8,9.8h142.6
	c59.2,0,107.4,48.2,107.4,107.4v246.1c0,59.2-48.2,107.4-107.4,107.4H126.9c-59.2,0-107.4-48.2-107.4-107.4V127
	c0-59.2,48.2-107.4,107.4-107.4h25.4c5.4,0,9.8-4.4,9.8-9.8c0-5.4-4.4-9.8-9.8-9.8h-25.4C56.9,0,0,57,0,127V373
	c0,70,56.9,127,126.9,127h246.1c70,0,126.9-57,126.9-127V127C500,57,443.1,0,373.1,0z"/>
<path id="XMLID_9_" class="st4" d="M347.7,460.9h25.4c48.5,0,87.9-39.4,87.9-87.9V127c0-48.5-39.4-87.9-87.9-87.9H126.9
	c-48.5,0-87.9,39.4-87.9,87.9V373c0,48.5,39.4,87.9,87.9,87.9h142.6c5.4,0,9.8-4.4,9.8-9.8c0-5.4-4.4-9.8-9.8-9.8H126.9
	c-37.7,0-68.4-30.7-68.4-68.4V127c0-37.7,30.7-68.3,68.4-68.3h246.1c37.7,0,68.4,30.7,68.4,68.3V373c0,37.7-30.7,68.4-68.4,68.4
	h-25.4c-5.4,0-9.8,4.4-9.8,9.8C337.9,456.6,342.3,460.9,347.7,460.9z"/>
<path class="st4" d="M357.4,250c0-59.2-48.2-107.4-107.4-107.4c-59.2,0-107.4,48.2-107.4,107.4c0,59.2,48.2,107.4,107.4,107.4
	C309.2,357.4,357.4,309.2,357.4,250z M250,337.9c-48.5,0-87.9-39.4-87.9-87.9c0-48.5,39.4-87.9,87.9-87.9s87.9,39.4,87.9,87.9
	C337.9,298.5,298.5,337.9,250,337.9z"/>
<path class="st4" d="M250,181.6c-37.7,0-68.4,30.7-68.4,68.3s30.7,68.4,68.4,68.4s68.4-30.7,68.4-68.4S287.7,181.6,250,181.6z
	 M250,298.8c-26.9,0-48.8-21.9-48.8-48.8c0-26.9,21.9-48.8,48.8-48.8s48.8,21.9,48.8,48.8C298.8,276.9,276.9,298.8,250,298.8z"/>
<path class="st4" d="M412.1,127c0-21.5-17.5-39.1-39.1-39.1c-21.5,0-39.1,17.5-39.1,39.1s17.5,39.1,39.1,39.1
	C394.6,166,412.1,148.5,412.1,127z M353.5,127c0-10.8,8.8-19.5,19.5-19.5s19.5,8.8,19.5,19.5s-8.8,19.5-19.5,19.5
	C362.3,146.5,353.5,137.7,353.5,127z"/>
<path id="XMLID_2_" class="st4" d="M191.4,19.5c5.4,0,9.8-4.4,9.8-9.8c0-5.4-4.4-9.8-9.8-9.8h0c-5.4,0-9.8,4.4-9.8,9.8
	C181.6,15.2,186,19.5,191.4,19.5z"/>
<path id="XMLID_1_" class="st4" d="M308.6,441.4c-5.4,0-9.8,4.4-9.8,9.8c0,5.4,4.4,9.8,9.8,9.8c5.4,0,9.8-4.4,9.8-9.8
	C318.4,445.8,314,441.4,308.6,441.4L308.6,441.4z"/>
</svg>
