<svg xmlns="http://www.w3.org/2000/svg" xmlns:xlink="http://www.w3.org/1999/xlink" id="Layer_1" x="0" y="0" version="1.1" viewBox="0 0 500 500" xml:space="preserve" style="enable-background:new 0 0 500 500"><style type="text/css">.st0{fill:#0c76b5}.st1{fill:#fff}.st2{fill:#020202}</style><g><path id="XMLID_14_" d="M470.8,9.8H31.3c-10.7,0-19.5,8.8-19.5,19.5v441.4c0,10.7,8.8,19.5,19.5,19.5h439.5 c10.7,0,19.4-8.8,19.4-19.5V29.3C490.3,18.6,481.5,9.8,470.8,9.8z" class="st0"/><path id="XMLID_13_" d="M163.5,121.1c0,23.1-18.6,41.7-41.6,41.7c-23,0-41.6-18.7-41.6-41.7S99,79.3,121.9,79.3 C144.9,79.3,163.5,98.1,163.5,121.1z" class="st1"/><path id="XMLID_12_" d="M86.2,192.1h71.5v228.5H86.2V192.1z" class="st1"/><path id="XMLID_11_" d="M200.5,192.1v228.5H272V288.8c0-21.6,17.6-39.3,39.1-39.3c21.5,0,39.2,17.7,39.2,39.3v131.9 h71.5V272.5c0-46.9-38.2-85.2-84.9-85.2c-28.1,0-53.1,13.9-68.5,35.2v-30.3H200.5L200.5,192.1z" class="st1"/></g><path id="XMLID_10_" d="M373.6,480.5H31.3c-5.4,0-9.7-4.4-9.7-9.8V29.3c0-5.4,4.4-9.8,9.7-9.8h19.4	c5.4,0,9.7-4.4,9.7-9.8c0-5.4-4.4-9.8-9.7-9.8H31.3C15.2,0,2.1,13.1,2.1,29.3v441.4c0,16.1,13.1,29.3,29.2,29.3h342.3	c5.4,0,9.7-4.4,9.7-9.8C383.3,484.8,378.9,480.5,373.6,480.5z" class="st2"/><path id="XMLID_9_" d="M470.8,0H128.5c-5.4,0-9.7,4.4-9.7,9.8c0,5.4,4.3,9.7,9.7,9.7h342.3c5.4,0,9.7,4.4,9.7,9.8v441.4	c0,5.4-4.4,9.8-9.7,9.8h-19.4c-5.4,0-9.7,4.4-9.7,9.7c0,5.4,4.4,9.8,9.7,9.8h19.4c16.1,0,29.2-13.1,29.2-29.3V29.3	C500,13.1,486.9,0,470.8,0z" class="st2"/><path d="M122,172.6c28.3,0,51.3-23.1,51.3-51.5c0-28.4-23-51.5-51.3-51.5c-28.3,0-51.3,23.1-51.3,51.5	C70.7,149.5,93.7,172.6,122,172.6z M122,89.1c17.6,0,31.8,14.4,31.8,32s-14.3,32-31.8,32c-17.6,0-31.9-14.4-31.9-32	S104.4,89.1,122,89.1z" class="st2"/><path d="M336.9,177.5c-21.5,0-42.2,7.5-58.8,20.8v-6.1c0-5.4-4.4-9.8-9.7-9.8h-67.8c-5.4,0-9.7,4.4-9.7,9.8v228.5	c0,5.4,4.4,9.8,9.7,9.8H272c5.4,0,9.7-4.4,9.7-9.8V288.8c0-16.3,13.2-29.5,29.4-29.5c16.2,0,29.4,13.3,29.4,29.5v131.9	c0,5.4,4.4,9.8,9.7,9.8h71.5c5.4,0,9.7-4.4,9.7-9.8V272.5C431.4,220.1,389,177.5,336.9,177.5z M412,410.9h-52V288.8	c0-27.1-21.9-49.1-48.9-49.1c-26.9,0-48.9,22-48.9,49.1v122.1h-52v-209h48.4v20.5c0,4.2,2.7,8,6.7,9.3c4,1.3,8.4-0.1,10.9-3.5	c14.2-19.5,36.9-31.2,60.7-31.2c41.4,0,75.1,33.8,75.1,75.4L412,410.9L412,410.9z" class="st2"/><path d="M86.2,182.4c-5.4,0-9.7,4.4-9.7,9.8v228.5c0,5.4,4.3,9.8,9.7,9.8h71.5c5.4,0,9.7-4.4,9.7-9.8V192.1	c0-5.4-4.4-9.8-9.7-9.8H86.2z M148,410.9h-52v-209h52V410.9z" class="st2"/><path id="XMLID_2_" d="M89.6,19.5c5.4,0,9.7-4.4,9.7-9.8C99.3,4.4,95,0,89.6,0l0,0c-5.4,0-9.7,4.4-9.7,9.8	C79.9,15.2,84.2,19.5,89.6,19.5z" class="st2"/><path id="XMLID_1_" d="M412.5,480.5L412.5,480.5c-5.4,0-9.7,4.4-9.7,9.8c0,5.4,4.4,9.8,9.7,9.8c5.4,0,9.7-4.4,9.7-9.8	C422.2,484.8,417.8,480.5,412.5,480.5z" class="st2"/></svg>