<?xml version="1.0" encoding="utf-8"?>
<!-- Generator: Adobe Illustrator 19.0.0, SVG Export Plug-In . SVG Version: 6.00 Build 0)  -->
<svg version="1.1" id="Layer_1" xmlns="http://www.w3.org/2000/svg" xmlns:xlink="http://www.w3.org/1999/xlink" x="0px" y="0px"
	 viewBox="0 0 500 500" style="enable-background:new 0 0 500 500;" xml:space="preserve">
<style type="text/css">
	.st0{fill:#134576;}
	.st1{fill:#F16465;}
</style>
<path id="XMLID_3_" class="st0" d="M291.7,119.1c0,65.7-46.6,119-104.2,119s-104.2-53.3-104.2-119S130,0,187.5,0
	C245,0,291.7,53.3,291.7,119.1z"/>
<path id="XMLID_2_" class="st0" d="M276,285.7H99c-54.6,0-99,50.7-99,113.1v83.3C0,492,7,500,15.6,500h343.7c8.6,0,15.6-8,15.6-17.9
	v-83.3C375,336.5,330.6,285.7,276,285.7z"/>
<path id="XMLID_1_" class="st1" d="M495,201.2l-72.9-77.4c-2.9-3.1-6.8-4.7-10.6-4.7c-10.3,0-15.6,10.1-15.6,17.8v53.6h-83.3
	c-11.5,0-20.8,10.7-20.8,23.8c0,13.1,9.3,23.8,20.8,23.8h83.3v53.6c0,9.9,7,17.9,15.6,17.9c3.9,0,7.7-1.6,10.6-4.7l72.9-77.4
	c3.2-3.4,5-8.1,5-13.1C500,209.3,498.2,204.6,495,201.2z"/>
</svg>
