<?xml version="1.0" encoding="utf-8"?>
<!-- Generator: Adobe Illustrator 19.0.0, SVG Export Plug-In . SVG Version: 6.00 Build 0)  -->
<svg version="1.1" id="Layer_1" xmlns="http://www.w3.org/2000/svg" xmlns:xlink="http://www.w3.org/1999/xlink" x="0px" y="0px"
	 viewBox="0 0 500 500" style="enable-background:new 0 0 500 500;" xml:space="preserve">
<style type="text/css">
	.st0{fill:#F7F8F9;stroke:#134576;stroke-width:2;stroke-miterlimit:10;}
	.st1{fill:#F16465;}
	.st2{fill:#134576;stroke:#134576;stroke-width:2;stroke-miterlimit:10;}
	.st3{fill:#FAFDFF;stroke:#FFFFFF;stroke-width:2;stroke-miterlimit:10;}
	.st4{fill:#FFFFFF;stroke:#FFFFFF;stroke-width:2;stroke-miterlimit:10;}
</style>
<path id="XMLID_5_" class="st0" d="M404.6,118.2c-39.9,0-66.9,20.5-81.4,35.5c-11.5-11.9-31-27.3-58.6-33.1V43.9
	c0-24.2-19.7-43.9-44-43.9H43.9C19.7,0,0,19.7,0,43.9V456c0,24.2,19.7,44,43.9,44h176.8c24.2,0,44-19.7,44-44v-48.4
	c15.2,10.4,32.4,20.8,51.7,31c2.2,1.2,4.5,1.7,6.9,1.7c2.4,0,4.7-0.6,6.9-1.7C477.9,360,500,274.5,500,230.5
	C500,171.3,462.4,118.2,404.6,118.2z"/>
<path id="XMLID_4_" class="st1" d="M396.5,264.7h-29.3c-5.6,0-10.6,3.1-13.1,8.1l-11.6,23.2l-19.7-78.8c-1.5-6-6.5-10.3-12.6-11
	c-6.1-0.7-12,2.5-14.7,8l-25.3,50.5H250c-8.1,0-14.7,6.6-14.7,14.6s6.5,14.6,14.7,14.6h29.3c5.5,0,10.6-3.1,13.1-8.1l11.6-23.2
	l19.7,78.8c1.6,6.5,7.5,11.1,14.2,11.1c5.5,0,10.6-3.1,13.1-8.1l25.3-50.5h20.2c8.1,0,14.6-6.6,14.6-14.7
	C411.1,271.2,404.6,264.7,396.5,264.7L396.5,264.7z"/>
<path id="XMLID_3_" class="st2" d="M235.4,456c0,8.1-6.6,14.7-14.7,14.7H43.9c-8.1,0-14.6-6.6-14.6-14.7V44
	c0-8.1,6.6-14.6,14.6-14.6h176.8c8.1,0,14.7,6.6,14.7,14.6v74.5c-54.4,3.9-89.5,55.4-89.5,112.1c0,34.2,13.4,93.6,89.5,155.4V456z"
	/>
<path id="XMLID_2_" class="st3" d="M162.1,412.1h-58.6c-8.1,0-14.7,6.6-14.7,14.7c0,8.1,6.6,14.6,14.7,14.6h58.6
	c8.1,0,14.7-6.6,14.7-14.6C176.8,418.7,170.2,412.1,162.1,412.1z"/>
<circle id="XMLID_1_" class="st4" cx="132.8" cy="73.2" r="14.6"/>
</svg>
