<svg xmlns="http://www.w3.org/2000/svg" xmlns:xlink="http://www.w3.org/1999/xlink" id="Layer_1" x="0" y="0" version="1.1" viewBox="0 0 500 500" xml:space="preserve" style="enable-background:new 0 0 500 500"><style type="text/css">.st0{fill:#f7f8f9;stroke:#134576;stroke-width:2;stroke-miterlimit:10}.st1{fill:#f16465}.st2,.st3,.st4{fill:#134576;stroke:#134576;stroke-width:2;stroke-miterlimit:10}.st3,.st4{fill:#fafdff;stroke:#fff}.st4{fill:#fff}</style><path id="XMLID_5_" d="M404.6,118.2c-39.9,0-66.9,20.5-81.4,35.5c-11.5-11.9-31-27.3-58.6-33.1V43.9	c0-24.2-19.7-43.9-44-43.9H43.9C19.7,0,0,19.7,0,43.9V456c0,24.2,19.7,44,43.9,44h176.8c24.2,0,44-19.7,44-44v-48.4	c15.2,10.4,32.4,20.8,51.7,31c2.2,1.2,4.5,1.7,6.9,1.7c2.4,0,4.7-0.6,6.9-1.7C477.9,360,500,274.5,500,230.5	C500,171.3,462.4,118.2,404.6,118.2z" class="st0"/><path id="XMLID_4_" d="M396.5,264.7h-29.3c-5.6,0-10.6,3.1-13.1,8.1l-11.6,23.2l-19.7-78.8c-1.5-6-6.5-10.3-12.6-11	c-6.1-0.7-12,2.5-14.7,8l-25.3,50.5H250c-8.1,0-14.7,6.6-14.7,14.6s6.5,14.6,14.7,14.6h29.3c5.5,0,10.6-3.1,13.1-8.1l11.6-23.2	l19.7,78.8c1.6,6.5,7.5,11.1,14.2,11.1c5.5,0,10.6-3.1,13.1-8.1l25.3-50.5h20.2c8.1,0,14.6-6.6,14.6-14.7	C411.1,271.2,404.6,264.7,396.5,264.7L396.5,264.7z" class="st1"/><path id="XMLID_3_" d="M235.4,456c0,8.1-6.6,14.7-14.7,14.7H43.9c-8.1,0-14.6-6.6-14.6-14.7V44	c0-8.1,6.6-14.6,14.6-14.6h176.8c8.1,0,14.7,6.6,14.7,14.6v74.5c-54.4,3.9-89.5,55.4-89.5,112.1c0,34.2,13.4,93.6,89.5,155.4V456z" class="st2"/><path id="XMLID_2_" d="M162.1,412.1h-58.6c-8.1,0-14.7,6.6-14.7,14.7c0,8.1,6.6,14.6,14.7,14.6h58.6	c8.1,0,14.7-6.6,14.7-14.6C176.8,418.7,170.2,412.1,162.1,412.1z" class="st3"/><circle id="XMLID_1_" cx="132.8" cy="73.2" r="14.6" class="st4"/></svg>