<?xml version="1.0" encoding="utf-8"?>
<!-- Generator: Adobe Illustrator 25.2.3, SVG Export Plug-In . SVG Version: 6.00 Build 0)  -->
<svg version="1.1" id="Layer_1" xmlns="http://www.w3.org/2000/svg" xmlns:xlink="http://www.w3.org/1999/xlink" x="0px" y="0px"
	 viewBox="0 0 1080 1080" style="enable-background:new 0 0 1080 1080;" xml:space="preserve">
<style type="text/css">
	.st0{fill:#F16364;}
	.st1{fill:#E6E6E6;stroke:#FF6363;stroke-width:2;stroke-miterlimit:10;}
</style>
<path class="st0" d="M1074.3,541.4c0,142.5-55,276.5-154.9,377.3c-99.9,100.8-232.7,156.2-373.9,156.2c-108.6,0-213-33-301.9-95.4
	c-59.2-41.6-108.7-94.1-146.4-154.8v112.7H14.5V687.2h247.9v83.3H161.2c79.3,136.2,223.5,220.9,384.3,220.9
	c246,0,446.2-201.9,446.2-450.2L1074.3,541.4L1074.3,541.4z"/>
<path class="st0" d="M541.3,91.2c160.8,0,305,84.7,384.3,220.9h-99.2v83.4h245.8V145.4h-82.6V258c-37.7-60.7-87.2-113.2-146.4-154.8
	C754.4,40.8,650,7.8,541.3,7.8c-141.2,0-273.6,55.5-373,156.3C69.1,264.8,14.5,398.7,14.5,541.3h82.6
	C97.2,293.1,296.4,91.2,541.3,91.2z"/>
<path class="st1" d="M385.1,301.7l-53.4,53.4c-23.9,24.1-26.4,57.5-15.5,91.4C335,505.2,354.8,551.4,445.7,643
	c90.9,91.6,139,106.5,195.6,130c13,5.4,25.3,8,36.8,8c20.5,0,38.5-8.3,53.8-23.7l53.2-53.9L648.5,565.4L578,634.9
	c-18.7-13.8-39.8-32.3-66.1-58.7c-26.5-26.8-46.8-49.5-62-69.8l68.4-69.6L385.1,301.7z"/>
</svg>
