<svg xmlns="http://www.w3.org/2000/svg" xmlns:xlink="http://www.w3.org/1999/xlink" id="Layer_1" x="0" y="0" version="1.1" viewBox="0 0 500 500" xml:space="preserve" style="enable-background:new 0 0 500 500"><style type="text/css">.st0{fill:#f16464}.st1{fill:#134576;stroke:#134576;stroke-width:2;stroke-miterlimit:10}</style><path id="XMLID_3_" d="M500.5,250c0,66.8-26,129.6-73.2,176.8C380.2,474,317.5,500,250.8,500	c-51.3,0-100.6-15.5-142.6-44.7c-28-19.5-51.4-44.1-69.1-72.5v52.8H0V318.4h117.1v39.1H69.3c37.5,63.8,105.5,103.5,181.5,103.5	c116.2,0,210.8-94.6,210.8-210.9L500.5,250L500.5,250z" class="st0"/><path id="XMLID_2_" d="M248.8,39.1c76,0,144,39.7,181.5,103.5h-46.9v39.1h116.1V64.5h-39v52.8	c-17.8-28.4-41.2-53-69.2-72.5C349.4,15.5,300.1,0,248.8,0C182.1,0,119.6,26,72.6,73.3C25.8,120.4,0,183.2,0,250h39	C39,133.7,133.1,39.1,248.8,39.1z" class="st0"/><path id="XMLID_1_" d="M175,137.7l-25.2,25c-11.3,11.3-12.5,27-7.3,42.9c8.9,27.5,18.3,49.1,61.2,92	c42.9,42.9,65.7,49.9,92.4,60.9c6.1,2.5,11.9,3.8,17.4,3.8c9.7,0,18.2-3.9,25.4-11.1l25.1-25.2l-64.5-64.7l-33.3,32.6	c-8.8-6.5-18.8-15.1-31.2-27.5c-12.5-12.5-22.1-23.2-29.3-32.7l32.3-32.6L175,137.7z" class="st1"/></svg>