<svg xmlns="http://www.w3.org/2000/svg" xmlns:xlink="http://www.w3.org/1999/xlink" id="Layer_1" x="0" y="0" version="1.1" viewBox="0 0 500 500" xml:space="preserve" style="enable-background:new 0 0 500 500"><style type="text/css">.st0{fill:#f16465}.st1{fill:#134576}</style><g><g><path id="XMLID_5_" d="M115.9,99.1c-4.1-5.8-12.2-7.2-18-3.1c-21.6,15.4-35.1,39.6-36.9,66.5 c-0.5,6.7,4.3,12.5,10.7,13.6c0.4,0.1,0.9,0.1,1.3,0.1c7.1,0.5,13.3-4.9,13.8-12c1.3-19.1,10.8-36.3,26.1-47.1 C118.7,113,120.1,104.9,115.9,99.1z" class="st0"/></g></g><g><g><path d="M192.2,0C86.2,0,0,86.2,0,192.2c0,106,86.2,192.2,192.2,192.2c106,0,192.2-86.2,192.2-192.2S298.1,0,192.2,0z M192.2,350.8c-87.4,0-158.5-71.1-158.5-158.6S104.7,33.6,192.2,33.6c87.4,0,158.6,71.1,158.6,158.6 C350.7,279.7,279.6,350.8,192.2,350.8z" class="st1"/></g></g><g><g><path id="XMLID_2_" d="M450,426.4L327.8,304.2c-6.6-6.6-17.2-6.6-23.8,0c-6.6,6.6-6.6,17.2,0,23.8l122.1,122.2 c3.3,3.3,7.6,4.9,11.9,4.9c4.3,0,8.6-1.6,11.9-4.9C456.5,443.6,456.5,432.9,450,426.4z" class="st1"/></g></g><g><g><path id="XMLID_1_" d="M481.3,401.3l-78.9,80c-4.2,4.3-4.2,11.2,0.1,15.5c4.3,4.2,11.2,4.2,15.5-0.1l78.9-80 c2.1-2.2,3.2-5,3.2-7.8c0-2.8-1.1-5.6-3.3-7.7C492.4,397,485.5,397,481.3,401.3z" class="st1"/></g></g></svg>