<svg xmlns="http://www.w3.org/2000/svg" xmlns:xlink="http://www.w3.org/1999/xlink" id="Layer_1" x="0" y="0" version="1.1" viewBox="0 0 500 500" xml:space="preserve" style="enable-background:new 0 0 500 500"><style type="text/css">.st0{fill:#f16465}.st1{fill:#134576}</style><path d="M250,333.6c95.1,0,172.4-74.6,172.4-166.4C422.4,75.5,345.1,0.9,250,0.9c-95.1,0-172.4,74.6-172.4,166.4	C77.6,259,154.9,333.6,250,333.6z M250,17.5c85.6,0,155.2,67.2,155.2,149.7S335.6,317,250,317c-85.6,0-155.2-67.2-155.2-149.7	C94.8,84.7,164.4,17.5,250,17.5z" class="st0"/><path d="M8.6,500h302c6.8,0,13.6-1.6,19.6-4.6l150.8-74.5c17-8.3,23.7-28.3,15.1-44.7l-3.9-7.4	c-8.6-16.4-29.3-22.9-46.3-14.6l-121.1,58.8c3.2-7.4,3.5-15.7,0.9-23.4c-4.6-13.6-17.8-22.8-32.7-22.6h-69	c-8.2-10.4-20.9-16.6-34.5-16.6H8.6c-4.8,0-8.6,3.7-8.6,8.3v133.1C0,496.3,3.9,500,8.6,500z M212.1,379.4c1.5,2.6,4.4,4.2,7.5,4.2	h73.6c7.3-0.1,13.9,4.4,16.2,11c2.2,6.1,0.6,12.8-4.1,17.4c-3.2,3.1-7.6,4.9-12.2,4.9h-94.8c-4.8,0-8.6,3.7-8.6,8.3s3.9,8.3,8.6,8.3	H319c1.3,0,2.7-0.3,3.9-0.9l131-63.6c8.5-4.2,18.9-0.9,23.2,7.3c0,0,0,0,0,0l3.9,7.4c4.3,8.2,0.9,18.2-7.6,22.4l-150.9,74.5	c-3.6,1.8-7.7,2.7-11.8,2.7H112V366.9h77.6C198.9,366.9,207.4,371.7,212.1,379.4z M17.2,366.9h77.6v116.5H17.2V366.9L17.2,366.9z" class="st1"/><path d="M250,34.2c-76.2,0-137.9,59.6-137.9,133.1c0,73.5,61.8,133.1,137.9,133.1c76.2,0,137.9-59.6,137.9-133.1	C387.9,93.8,326.2,34.2,250,34.2z M362.1,175.6h8.3c-1.8,25.1-12.1,48.9-29.2,67.9l-5.8-5.6c-3.4-3.2-8.8-3.2-12.2,0	c-3.4,3.3-3.4,8.5,0,11.8l5.8,5.6c-19.7,16.5-44.4,26.4-70.4,28.2v-8c0-4.6-3.8-8.3-8.6-8.3c-4.8,0-8.6,3.7-8.6,8.3v8	c-26-1.8-50.7-11.7-70.4-28.2l5.8-5.6c3.4-3.2,3.4-8.5,0-11.8c-3.4-3.2-8.8-3.2-12.2,0l0,0l-5.8,5.6c-17.1-19-27.4-42.8-29.2-67.9	h8.3c4.8,0,8.6-3.7,8.6-8.3c0-4.6-3.8-8.3-8.6-8.3h-8.3c1.8-25.1,12.1-48.9,29.2-67.9l5.8,5.6c3.4,3.2,8.8,3.2,12.2,0	c3.4-3.3,3.4-8.5,0-11.8l0,0l-5.8-5.6c19.7-16.5,44.4-26.4,70.4-28.2v8c0,4.6,3.8,8.3,8.6,8.3c4.8,0,8.6-3.7,8.6-8.3v-8	c26,1.8,50.7,11.7,70.4,28.2l-5.8,5.6c-3.4,3.2-3.4,8.5,0,11.8c3.4,3.2,8.8,3.2,12.2,0l5.8-5.6c17.1,19,27.4,42.8,29.2,67.9h-8.3	c-4.8,0-8.6,3.7-8.6,8.3S357.3,175.6,362.1,175.6L362.1,175.6z" class="st0"/><path d="M327.6,159h-53.2c-2.6-7.1-8.4-12.7-15.8-15.2V109c0-4.6-3.8-8.3-8.6-8.3c-4.8,0-8.6,3.7-8.6,8.3v34.7	c-13.5,4.6-20.5,18.8-15.8,31.9c4.8,13,19.5,19.8,33,15.2c7.4-2.5,13.2-8.1,15.8-15.2h53.2c4.8,0,8.6-3.7,8.6-8.3	C336.2,162.7,332.3,159,327.6,159z M250,175.6c-4.8,0-8.6-3.7-8.6-8.3s3.9-8.3,8.6-8.3c4.8,0,8.6,3.7,8.6,8.3S254.8,175.6,250,175.6	z" class="st0"/></svg>