<?xml version="1.0" encoding="utf-8"?>
<!-- Generator: Adobe Illustrator 19.0.0, SVG Export Plug-In . SVG Version: 6.00 Build 0)  -->
<svg version="1.1" id="Layer_1" xmlns="http://www.w3.org/2000/svg" xmlns:xlink="http://www.w3.org/1999/xlink" x="0px" y="0px"
	 viewBox="0 0 500 500" style="enable-background:new 0 0 500 500;" xml:space="preserve">
<style type="text/css">
	.st0{fill:#F16465;}
	.st1{fill:#D52328;}
</style>
<path class="st0" d="M483.8,341.2c0.2-0.2,0.4-0.4,0.6-0.6c0.5-0.6,1.1-1.3,1.6-1.9c0.1-0.1,0.2-0.2,0.3-0.3
	c8.9-11.3,13.8-25,13.8-39.3V40.3C500,18.1,480.8,0,457.1,0H206.4c-23.6,0-42.9,18.1-42.9,40.3v91.8c-11.8-0.7-23.8,1.3-34.8,5.6
	c-15.5,6.2-28,16.7-36.5,30.4l-41,66.7l-41,66.7c-4,6.5-6.8,13.3-8.4,20.2c-0.6,2.3-1,4.6-1.3,7c-0.2,1.2-0.3,2.3-0.4,3.5
	c-0.2,2.3-0.3,4.7-0.2,7c0,1.3,0.1,2.5,0.2,3.8c0.5,6.8,2.1,13.5,4.6,19.8c0.7,1.9,1.6,3.7,2.5,5.5c0.2,0.3,0.3,0.7,0.5,1
	c6.5,12.5,16.9,23.4,30.6,30.9c0.4,0.2,0.8,0.4,1.2,0.6c0.3,0.2,0.7,0.4,1.1,0.5c0.3,0.2,0.5,0.3,0.8,0.4c0.5,0.2,1,0.5,1.5,0.7
	c0.2,0.1,0.3,0.2,0.5,0.2c0.6,0.3,1.2,0.5,1.8,0.8c0,0,0.1,0,0.1,0c9.9,4.2,20.6,6.3,31.4,6.3c11.2,0,22.2-2.3,32.3-6.6
	c0.1,0,0.2-0.1,0.2-0.1c0.1,0,0.2-0.1,0.2-0.1c2.3,24.6,13.6,47.6,32.4,65.3c21.2,20,49.4,31.2,79.4,31.5h0.1l0,0h0.2
	c0.2,0,0.5,0,0.7,0c51.8,0,95.6-32.9,109-77.7h39.5c10.1,0,20-2.1,29.1-6c0.2-0.1,0.5-0.2,0.8-0.3c1.3-0.6,2.7-1.2,3.9-1.9
	c0,0,0,0,0,0c1-0.5,2-1.1,3-1.6c0.1,0,0.1-0.1,0.2-0.1c0.9-0.5,1.8-1.1,2.7-1.6c0.1-0.1,0.2-0.1,0.3-0.2c0.8-0.5,1.7-1.1,2.5-1.7
	c0.1-0.1,0.3-0.2,0.4-0.3c0.8-0.5,1.5-1.1,2.3-1.7c0.2-0.1,0.3-0.3,0.5-0.4c0.7-0.5,1.4-1.1,2-1.7c0.2-0.2,0.4-0.3,0.6-0.5
	c0.8-0.7,1.6-1.4,2.3-2.2c0,0,0.1-0.1,0.1-0.1l58.7-57.1c0.5-0.5,0.9-1,1.4-1.4c0.2-0.3,0.5-0.5,0.7-0.8
	C482.8,342.3,483.3,341.8,483.8,341.2z M110.3,177.9c10.1-16.5,29.1-26.4,48.8-26.4c4.2,0,8.3,0.4,12.5,1.3
	c5.4,1.2,10.5,3.1,15.4,5.7c17.3,9.4,28.1,26.9,28.1,45.7c0,9.2-2.6,18.3-7.5,26.3l-35.8,58.3l-97.2-52.7L110.3,177.9z M107.8,381.7
	c-0.5,0.3-0.9,0.6-1.4,0.8c-0.2,0.1-0.4,0.2-0.6,0.3c-0.4,0.2-0.8,0.4-1.2,0.7c-0.2,0.1-0.5,0.2-0.8,0.4c-0.4,0.2-0.7,0.4-1.1,0.6
	c-0.3,0.1-0.6,0.3-0.9,0.4c-0.3,0.2-0.7,0.3-1,0.4c-0.3,0.2-0.7,0.3-1,0.5c-0.3,0.1-0.6,0.2-0.8,0.3c-0.4,0.2-0.8,0.3-1.2,0.5
	c-0.2,0.1-0.4,0.2-0.6,0.2c-0.5,0.2-1,0.3-1.5,0.5c-0.1,0-0.2,0.1-0.3,0.1c-12,3.9-25.1,4-37.2,0c0,0,0,0-0.1,0
	c-0.6-0.2-1.1-0.4-1.7-0.6c-0.1-0.1-0.2-0.1-0.3-0.1c-0.5-0.2-0.9-0.4-1.4-0.5c-0.2-0.1-0.3-0.1-0.5-0.2c-0.4-0.2-0.9-0.4-1.3-0.6
	c-0.2-0.1-0.4-0.2-0.5-0.2c-0.4-0.2-0.8-0.4-1.3-0.6c-0.2-0.1-0.3-0.2-0.5-0.3c-0.6-0.3-1.2-0.6-1.7-0.9
	c-26.8-14.6-36-46.9-20.5-72.1l35.8-58.3l95.5,51.9c-0.3,0.2-0.7,0.4-1,0.7c-0.4,0.3-0.8,0.5-1.2,0.8c-0.2,0.1-0.3,0.2-0.5,0.3
	c-0.3,0.2-0.6,0.4-0.9,0.6c0,0,0,0,0,0c-0.4,0.3-0.8,0.6-1.2,0.8c-0.2,0.1-0.4,0.3-0.6,0.4c-0.3,0.2-0.6,0.4-0.9,0.7
	c-0.3,0.2-0.7,0.5-1,0.7c-0.2,0.2-0.4,0.3-0.6,0.5c-0.3,0.3-0.7,0.5-1,0.7c-0.3,0.2-0.6,0.4-0.8,0.6c-0.2,0.2-0.5,0.4-0.7,0.6
	c-0.3,0.3-0.7,0.5-1,0.8c-0.2,0.2-0.5,0.4-0.7,0.5c-0.2,0.2-0.5,0.4-0.8,0.7c-0.3,0.3-0.7,0.6-1,0.9c-0.2,0.2-0.3,0.3-0.5,0.4
	c-0.3,0.3-0.6,0.5-0.9,0.8c-0.3,0.3-0.7,0.6-1,0.9c-0.5,0.4-0.9,0.8-1.3,1.2c-0.3,0.3-0.7,0.6-1,0.9c-0.1,0.1-0.1,0.1-0.2,0.2
	c-0.4,0.4-0.8,0.7-1.1,1.1c-0.3,0.3-0.6,0.6-0.9,0.9c0,0-0.1,0.1-0.1,0.1c-0.4,0.4-0.8,0.8-1.2,1.2c-0.3,0.3-0.5,0.5-0.8,0.8
	c-0.1,0.1-0.1,0.1-0.2,0.2c-0.3,0.4-0.7,0.8-1,1.2c-0.3,0.3-0.6,0.6-0.8,0.9c-0.2,0.3-0.5,0.5-0.7,0.8c-0.2,0.2-0.3,0.3-0.4,0.5
	c-0.3,0.3-0.6,0.6-0.8,1c-0.1,0.1-0.2,0.2-0.3,0.3c-0.3,0.3-0.5,0.7-0.8,1c-0.2,0.3-0.5,0.6-0.8,0.9c-0.1,0.2-0.2,0.3-0.4,0.5
	c-0.2,0.3-0.5,0.7-0.8,1c-0.2,0.3-0.4,0.6-0.6,0.9c-0.2,0.2-0.3,0.4-0.5,0.6c-0.2,0.3-0.5,0.7-0.7,1c-0.2,0.3-0.4,0.5-0.5,0.8
	c-0.2,0.3-0.4,0.5-0.5,0.7c-0.2,0.3-0.5,0.7-0.7,1c-0.2,0.2-0.3,0.5-0.5,0.7c-0.2,0.3-0.4,0.6-0.6,0.9c-0.2,0.3-0.4,0.6-0.6,1
	c-0.1,0.2-0.2,0.4-0.4,0.6c-0.2,0.3-0.4,0.7-0.6,1c-0.2,0.3-0.4,0.6-0.6,1c-0.1,0.1-0.1,0.2-0.2,0.3c-0.1,0.1-0.1,0.2-0.2,0.3
	c-0.2,0.4-0.4,0.7-0.6,1.1c-0.3,0.5-0.6,1.1-0.9,1.6c-0.2,0.4-0.4,0.7-0.6,1.1c-0.3,0.6-0.6,1.1-0.9,1.7c-0.2,0.4-0.3,0.7-0.5,1.1
	c0,0.1,0,0.1-0.1,0.1c-0.1,0.2-0.2,0.3-0.2,0.5c-0.2,0.4-0.3,0.7-0.5,1.1c-0.2,0.3-0.3,0.6-0.4,1c-0.1,0.2-0.2,0.4-0.3,0.7
	c-0.2,0.4-0.4,0.8-0.5,1.2c-0.1,0.3-0.2,0.5-0.3,0.8c-0.1,0.3-0.2,0.5-0.3,0.8c-0.2,0.4-0.4,0.9-0.5,1.3c-0.1,0.2-0.2,0.4-0.3,0.6
	c-0.1,0.3-0.2,0.6-0.3,0.8c-0.2,0.5-0.4,0.9-0.5,1.4c-0.1,0.2-0.1,0.3-0.2,0.5c-0.1,0.3-0.2,0.6-0.3,0.9c-0.2,0.6-0.5,1.3-0.7,2
	c-0.1,0.3-0.2,0.5-0.2,0.8c-0.2,0.7-0.4,1.3-0.6,2c-0.1,0.2-0.1,0.4-0.2,0.6c-0.4,1.4-0.7,2.7-1.1,4.1c0,0.2-0.1,0.4-0.2,0.6
	c-0.2,0.7-0.3,1.3-0.4,2c-0.1,0.3-0.2,0.7-0.2,1c0,0.1,0,0.1,0,0.2c-0.1,0.6-0.2,1.1-0.3,1.7c0,0.4-0.1,0.7-0.2,1.1
	c0,0.1,0,0.2,0,0.3c-0.1,0.5-0.2,1.1-0.2,1.6c0,0.1,0,0.3-0.1,0.4c0,0.2-0.1,0.4-0.1,0.6c-0.6,0.4-1.2,0.8-1.8,1.2
	C108.1,381.6,107.9,381.7,107.8,381.7z M129.8,393.6c0-2.4,0.1-4.9,0.3-7.3c0.1-0.9,0.2-1.7,0.3-2.6c0.2-1.6,0.5-3.3,0.8-4.9
	c0-0.1,0-0.2,0-0.3c0.1-0.6,0.2-1.3,0.4-1.9c0.1-0.2,0.1-0.5,0.1-0.7c0.1-0.5,0.3-1.1,0.4-1.6c0.1-0.3,0.1-0.6,0.2-0.9
	c0.1-0.5,0.3-1,0.4-1.5c0.1-0.4,0.2-0.7,0.3-1.1c0.1-0.5,0.3-0.9,0.4-1.3c0.1-0.4,0.2-0.8,0.4-1.2c0.1-0.4,0.3-0.8,0.4-1.2
	c0.1-0.4,0.3-0.9,0.4-1.3c0.1-0.4,0.3-0.8,0.4-1.2c0.2-0.4,0.3-0.9,0.5-1.3c0.2-0.4,0.3-0.7,0.5-1.1c0.2-0.4,0.4-0.9,0.5-1.3
	c0.2-0.4,0.3-0.7,0.5-1.1c0.2-0.4,0.4-0.9,0.6-1.3c0.2-0.3,0.3-0.7,0.5-1c0.2-0.4,0.4-0.9,0.6-1.3c0.2-0.3,0.3-0.6,0.5-1
	c0.2-0.4,0.5-0.9,0.7-1.4c0.2-0.3,0.3-0.6,0.5-0.9c0.2-0.4,0.5-0.9,0.8-1.3c0.2-0.3,0.4-0.6,0.5-0.9c0.3-0.4,0.5-0.9,0.8-1.3
	c0.2-0.3,0.4-0.6,0.6-0.9c0.3-0.4,0.6-0.9,0.9-1.3c0.2-0.3,0.4-0.6,0.6-0.9c0.3-0.4,0.6-0.9,0.9-1.3c0.2-0.3,0.4-0.6,0.6-0.9
	c0.3-0.4,0.6-0.9,0.9-1.3c0.2-0.3,0.5-0.5,0.7-0.8c0.3-0.4,0.7-0.8,1-1.2c0.2-0.3,0.5-0.5,0.7-0.8c0.3-0.4,0.7-0.8,1-1.2
	c0.2-0.3,0.5-0.5,0.7-0.8c0.3-0.4,0.7-0.8,1-1.2c0.3-0.3,0.5-0.5,0.8-0.8c0.4-0.4,0.7-0.7,1.1-1.1c0.2-0.3,0.5-0.5,0.8-0.8
	c0.4-0.4,0.7-0.7,1.1-1.1c0.3-0.3,0.6-0.5,0.8-0.8c0.4-0.4,0.7-0.7,1.1-1.1c0.3-0.3,0.6-0.5,0.9-0.8c0.4-0.3,0.7-0.7,1.1-1
	c0.3-0.3,0.6-0.5,0.9-0.7c0.4-0.3,0.8-0.6,1.2-1c0.3-0.3,0.6-0.5,1-0.7c0.4-0.3,0.8-0.6,1.2-0.9c0.3-0.2,0.7-0.5,1-0.7
	c0.4-0.3,0.8-0.6,1.2-0.9c0.3-0.2,0.7-0.5,1-0.7c0.4-0.3,0.8-0.6,1.2-0.8c0.3-0.2,0.7-0.5,1.1-0.7c0.4-0.3,0.8-0.5,1.2-0.8
	c0.4-0.2,0.7-0.5,1.1-0.7c0.4-0.3,0.8-0.5,1.2-0.8c0.4-0.2,0.8-0.4,1.2-0.6c0.4-0.2,0.8-0.5,1.2-0.7c0,0,0.1-0.1,0.2-0.1
	c1.2-0.7,2.4-1.3,3.6-1.9c0.3-0.1,0.6-0.3,0.9-0.4c1.2-0.6,2.5-1.1,3.7-1.7c0,0,0,0,0,0c8.5-3.6,17.5-6,26.8-7v172.4
	C165.4,474.5,129.8,437.7,129.8,393.6z M231.8,480V307.2c0,0,0.1,0,0.1,0c1.4,0.2,2.7,0.3,4.1,0.5c0.1,0,0.2,0,0.2,0
	c1.3,0.2,2.6,0.4,3.9,0.6c0.2,0,0.3,0.1,0.5,0.1c1.2,0.2,2.5,0.5,3.7,0.8c0.2,0,0.4,0.1,0.6,0.1c1.2,0.3,2.4,0.6,3.6,0.9
	c0.2,0.1,0.4,0.1,0.6,0.2c1.2,0.4,2.3,0.7,3.5,1.1c0.2,0.1,0.4,0.1,0.6,0.2c1.1,0.4,2.3,0.8,3.4,1.2c0.2,0.1,0.4,0.1,0.5,0.2
	c1.1,0.4,2.3,0.9,3.4,1.4c0.2,0.1,0.3,0.1,0.4,0.2c1.2,0.5,2.3,1,3.4,1.6c0.1,0,0.1,0.1,0.2,0.1c1.1,0.5,2.2,1.1,3.3,1.7
	c0.1,0.1,0.2,0.1,0.3,0.2c1.1,0.6,2.1,1.2,3.2,1.8c0.2,0.1,0.3,0.2,0.5,0.3c1,0.6,2,1.2,3,1.9c0.2,0.1,0.4,0.2,0.5,0.4
	c1,0.6,1.9,1.3,2.9,2c0.2,0.1,0.4,0.3,0.5,0.4c0.9,0.7,1.8,1.3,2.7,2.1c0.2,0.1,0.3,0.3,0.5,0.4c0.9,0.7,1.8,1.4,2.6,2.2
	c0.2,0.1,0.3,0.3,0.5,0.4c0.9,0.8,1.8,1.6,2.6,2.4c0.1,0.1,0.2,0.2,0.3,0.3c0.9,0.8,1.8,1.7,2.6,2.6c0.1,0.1,0.1,0.1,0.2,0.2
	c0.8,0.9,1.6,1.8,2.4,2.6c0.1,0.1,0.2,0.2,0.2,0.3c0.8,0.9,1.6,1.8,2.3,2.7c0.1,0.2,0.2,0.3,0.3,0.4c0.7,0.9,1.4,1.8,2.1,2.7
	c0.1,0.2,0.2,0.3,0.4,0.5c0.7,0.9,1.3,1.9,2,2.8c0.1,0.2,0.2,0.4,0.4,0.5c0.6,1,1.2,1.9,1.8,2.9c0.1,0.2,0.2,0.4,0.3,0.6
	c0.6,1,1.1,2,1.7,3c0.1,0.1,0.2,0.3,0.2,0.5c0.6,1.1,1.1,2.1,1.6,3.2c0.1,0.1,0.1,0.2,0.2,0.3c0.5,1.1,1,2.2,1.5,3.4
	c0,0,0,0.1,0,0.1c0.5,1.1,0.9,2.3,1.4,3.5c0,0.1,0.1,0.2,0.1,0.3c0.4,1.1,0.8,2.3,1.2,3.4c0,0.2,0.1,0.3,0.1,0.5
	c0.4,1.1,0.7,2.3,1,3.4c0.1,0.2,0.1,0.4,0.2,0.5c0.3,1.1,0.6,2.3,0.8,3.4c0,0.2,0.1,0.4,0.1,0.6c0.2,1.1,0.4,2.3,0.6,3.5
	c0,0.2,0.1,0.4,0.1,0.5c0.2,1.2,0.3,2.4,0.5,3.6c0,0.2,0,0.3,0.1,0.5c0.1,1.2,0.2,2.5,0.3,3.7c0,0.1,0,0.2,0,0.3
	c0.1,1.3,0.1,2.6,0.1,4c0,1.4,0,2.8-0.1,4.3c0,0.3,0,0.6-0.1,0.9c-0.1,1.1-0.2,2.2-0.3,3.3c0,0.5-0.1,0.9-0.2,1.4
	c-0.1,0.9-0.2,1.8-0.4,2.8c-0.1,0.6-0.2,1.3-0.3,1.9c-0.1,0.7-0.2,1.4-0.4,2.1C305.3,447.3,272.4,476,231.8,480z M335.1,402.8
	c0-0.1,0-0.2,0-0.3c0.1-1.4,0.2-2.7,0.3-4.1c0-0.2,0-0.4,0-0.6c0.1-1.4,0.1-2.8,0.1-4.2c0-9.9-1.5-19.6-4.2-28.7H350
	c5.7,0,10.4-4.4,10.4-9.8c0-5.4-4.7-9.8-10.4-9.8h-26.9c-18.7-34.5-56.9-58.2-100.9-58.2c-0.2,0-0.5,0-0.7,0h-0.2h-0.1
	c-1.2,0-2.4,0-3.6,0.1c-0.2,0-0.5,0-0.8,0c-0.9,0-1.8,0.1-2.7,0.1c-0.5,0-1,0.1-1.5,0.1c-0.6,0.1-1.2,0.1-1.9,0.2
	c-0.6,0.1-1.3,0.1-1.9,0.2c-0.5,0.1-1,0.1-1.5,0.2c-0.7,0.1-1.4,0.2-2.1,0.3c-0.4,0.1-0.8,0.1-1.3,0.2c-0.7,0.1-1.5,0.2-2.2,0.4
	c-0.4,0.1-0.7,0.1-1.1,0.2c-0.8,0.2-1.5,0.3-2.3,0.4c-0.3,0.1-0.7,0.1-1,0.2c-0.8,0.2-1.6,0.3-2.3,0.5c-0.1,0-0.2,0-0.4,0.1l30.7-50
	c6.7-11,10.3-23.4,10.3-36.1c0-25.8-14.7-49.8-38.5-62.7c-0.9-0.5-1.9-1-2.9-1.5c-0.3-0.1-0.6-0.3-0.9-0.4c-0.7-0.3-1.4-0.6-2.1-1
	c-0.3-0.2-0.7-0.3-1-0.5c-0.7-0.3-1.4-0.6-2.1-0.9c-0.3-0.1-0.6-0.2-0.9-0.4c-1-0.4-2-0.7-3-1.1c0,0,0,0,0,0V40.3
	c0-11.5,9.9-20.8,22.1-20.8h250.7c12.2,0,22.1,9.3,22.1,20.8V299c0,4.5-0.7,8.9-2,13.1h-53.9c-20.7,0-37.5,15.8-37.5,35.3v53.2
	c-4.9,1.5-9.9,2.2-15.1,2.2L335.1,402.8L335.1,402.8z M406.6,388.4v-41.1c0-8.7,7.5-15.7,16.7-15.7h41.7l-53.7,52.2L406.6,388.4z"/>
<path id="XMLID_4_" class="st1" d="M248.9,106.8h165c5.7,0,10.4-4.4,10.4-9.8c0-5.4-4.7-9.8-10.4-9.8h-165c-5.7,0-10.4,4.4-10.4,9.8
	C238.5,102.5,243.2,106.8,248.9,106.8z"/>
<path id="XMLID_3_" class="st1" d="M416.5,173.3L416.5,173.3c-5.8,0-10.4,4.4-10.4,9.8c0,5.4,4.7,9.8,10.4,9.8
	c5.7,0,10.4-4.4,10.4-9.8C426.8,177.7,422.2,173.3,416.5,173.3z"/>
<path id="XMLID_2_" class="st1" d="M382.7,183.1c0-5.4-4.7-9.8-10.4-9.8H248.9c-5.7,0-10.4,4.4-10.4,9.8c0,5.4,4.7,9.8,10.4,9.8
	h123.4C378,192.9,382.7,188.5,382.7,183.1z"/>
<path id="XMLID_1_" class="st1" d="M424.3,269.1c0-5.4-4.7-9.8-10.4-9.8H299.4c-5.7,0-10.4,4.4-10.4,9.8c0,5.4,4.7,9.8,10.4,9.8
	h114.5C419.7,278.9,424.3,274.5,424.3,269.1z"/>
</svg>
