<svg xmlns="http://www.w3.org/2000/svg" xmlns:xlink="http://www.w3.org/1999/xlink" id="Layer_1" x="0" y="0" version="1.1" viewBox="0 0 500 500" xml:space="preserve" style="enable-background:new 0 0 500 500"><style type="text/css">.st0{fill:#eae9ec}.st1{fill:#7ec67e}.st2{fill:#9ccf7d}.st3{fill:#dcd9db}.st4{fill:#fff}.st5{fill:#020202}</style><g><g><g><path id="XMLID_12_" d="M243.8,7.5c-122.2,4.2-223.5,101.9-231.6,224c-3.4,51.6,9.5,100,34,140.6L8.4,470.9 c-4.9,12.9,7.8,25.7,20.7,20.7l98.8-37.8c40.6,24.5,89,37.4,140.6,34c122-8.1,219.8-109.3,224-231.6 C497.3,116.8,383.2,2.7,243.8,7.5z" class="st0"/><path id="XMLID_11_" d="M71.5,418.1c-2.5,6.5,3.9,12.8,10.4,10.3l31.7-12.1c4.6-1.8,9.5-2.6,14.3-2.6 c7.2,0,14.4,1.9,20.7,5.8c35.2,21.3,75.7,31.1,117.2,28.3C367,441.1,449,356.3,452.5,254.9c1.9-56.2-18.9-109.1-58.6-148.8 c-39.7-39.7-92.3-60.5-148.7-58.6C143.6,51,58.9,132.9,52.2,234.1c-2.7,41.3,6.9,81.5,27.9,116.6c6.5,10.8,8,23.9,3.5,35.7 L71.5,418.1z" class="st1"/><path id="XMLID_10_" d="M145.5,392c5.6,1.5,10.8,4,15.8,7c31,18.7,66.5,27.2,103,24.8c89-5.9,161.1-80.5,164.1-169.8 c1.7-49.5-16.6-96-51.6-130.9c-35.1-35-81.4-53.3-130.9-51.5c-89.3,3-163.9,75.1-169.8,164.1c-2.4,36.3,6.1,71.8,24.5,102.6 c7.9,13.3,11,28.4,8.9,42.9c-0.7,5.2,3.8,9.9,8.9,9.1C127.4,389.1,136.4,389.6,145.5,392z" class="st2"/><path id="XMLID_9_" d="M393.6,410.9c-36.1,31.5-79.9,49.8-126.7,52.9c-44.9,3-88.5-7.6-126.6-30.6 c-6.3-3.8-14.1-4.5-21-1.9L54,456.3c-4.5,1.7-7.7-1-8.5-1.8c-0.9-0.9-3.6-4-1.8-8.5l24.9-65.3c2.6-6.9,2-14.7-1.9-21l0,0 c-23-38-33.6-81.8-30.6-126.6c3.1-46.8,21.4-90.6,52.9-126.7c8.6-9.8,8.1-24.7-1-33.9C44.9,113,16.3,169,12.2,231.4 c-3.4,51.6,9.5,100,34,140.6L8.4,470.9c-4.9,12.9,7.8,25.7,20.7,20.7l98.8-37.8c40.6,24.5,89,37.4,140.6,34 c62.4-4.2,118.5-32.7,158.9-76C418.3,402.8,403.5,402.3,393.6,410.9L393.6,410.9z" class="st3"/></g><path id="XMLID_8_" d="M297.3,304.8l-2.8,2.8c-6.9,6.9-17.3,9.2-26.2,5.2c-17.4-7.7-33.8-18.7-48.1-33 c-14.3-14.3-25.3-30.7-33-48.1c-3.9-8.9-1.7-19.3,5.2-26.2l2.8-2.8c6.6-6.6,8.8-16.5,5.5-25.3c-4.5-12-7.9-24.4-10.1-36.9 c-2.2-12.6-18-17.2-27-8.2l-18.2,18.2c-8,8-12.5,19.2-11.7,30.5c3.4,46.3,22.7,91.7,58.1,127.1c35.4,35.4,80.8,54.8,127.1,58.1 c11.4,0.8,22.5-3.6,30.5-11.7l18.2-18.2c9-9.1,4.4-24.8-8.2-27.1c-12.5-2.2-24.9-5.5-36.9-10C313.8,296,303.9,298.1,297.3,304.8 L297.3,304.8z" class="st4"/><path id="XMLID_7_" d="M347.3,346.4c-1.1,0-2.2,0-3.3,0c-51,0-98.8-19.7-134.7-55.7c-36.8-36.8-56.6-85.8-55.7-138 l0.1-10.5l-8.3,8.2c-8.1,8-12.5,19.2-11.7,30.5c3.4,46.3,22.7,91.7,58.1,127.1c35.4,35.4,80.8,54.8,127.1,58.1 c11.4,0.8,22.5-3.6,30.5-11.7l8.3-8.4L347.3,346.4z" class="st0"/></g><g><path d="M482.1,155.1c-12.5-31-30.9-58.8-54.7-82.5c-23.7-23.8-51.5-42.1-82.5-54.7c-32.2-13-66.3-19-101.4-17.8 C182.5,2.2,124.5,27,80.1,70C35.6,113,8.9,170.1,4.9,231c-3.3,50,8.1,99,33.2,141.8L1.6,468.3c-3.3,8.7-1.3,18.2,5.3,24.9 c4.5,4.5,10.4,6.9,16.4,6.9c2.8,0,5.7-0.5,8.5-1.6l95.5-36.5C170,487,219,498.5,269.1,495.1c60.8-4,118-30.7,161-75.2 c43-44.4,67.8-102.5,69.8-163.4C501,221.4,495,187.3,482.1,155.1L482.1,155.1z M485.2,256c-1.9,57.3-25.3,111.9-65.7,153.7 c-40.4,41.8-94.2,67-151.4,70.8c-48.2,3.2-95.4-8.2-136.4-33c-1.9-1.2-4.3-1.4-6.4-0.6l-98.8,37.8c-3.3,1.3-6.8,0.5-9.3-2 c-2.5-2.5-3.2-6-2-9.3L53,374.7c0.8-2.1,0.6-4.5-0.6-6.4c-24.8-41-36.2-88.1-33-136.4c3.8-57.2,28.9-111,70.8-151.4 c41.8-40.4,96.4-63.8,153.7-65.7c33-1.1,65.1,4.5,95.4,16.7C368.6,43.3,394.7,60.6,417,83c22.4,22.4,39.7,48.5,51.4,77.7 C480.7,190.9,486.3,223,485.2,256L485.2,256z" class="st5"/><path id="XMLID_4_" d="M252.2,40.1c-51.4,0-100.8,19-139.1,53.5c-3,2.7-3.2,7.3-0.5,10.4c2.7,3,7.3,3.2,10.3,0.5 c35.6-32.1,81.4-49.7,129.2-49.7c106.5,0,193.1,86.6,193.1,193.1c0,47.8-17.7,93.7-49.8,129.2c-2.7,3-2.5,7.6,0.5,10.3 c1.4,1.3,3.2,1.9,4.9,1.9c2,0,4-0.8,5.5-2.4c34.5-38.3,53.5-87.6,53.5-139C459.9,133.3,366.7,40.1,252.2,40.1L252.2,40.1z" class="st5"/><path id="XMLID_3_" d="M373,398.3c-34.7,27.9-76.5,42.7-120.8,42.7c-35.3,0-69.7-9.6-99.7-27.7 c-7.4-4.5-15.9-6.8-24.5-6.8c-5.8,0-11.5,1.1-16.9,3.1l-33.2,12.7L90.5,389c5.3-13.7,3.9-28.9-3.7-41.4 c-18.1-30-27.7-64.5-27.7-99.7c0-44.4,14.8-86.2,42.7-120.9c2.5-3.1,2-7.8-1.1-10.3c-3.2-2.5-7.8-2-10.3,1.1 c-29.6,36.8-45.9,83-45.9,130c0,37.9,10.3,75,29.8,107.3c5.3,8.7,6.2,19.1,2.6,28.6l-18.5,48.5c-1,2.7-0.4,5.8,1.7,7.8 c2,2,5.1,2.7,7.8,1.7l48.5-18.5c3.7-1.4,7.7-2.2,11.7-2.2c6,0,11.8,1.6,16.9,4.7c32.3,19.5,69.4,29.8,107.3,29.8 c47.1,0,93.3-16.3,130-45.9c3.2-2.5,3.6-7.2,1.1-10.3C380.8,396.2,376.2,395.7,373,398.3L373,398.3z" class="st5"/><path d="M200.4,207.9c8.6-8.6,11.5-21.6,7.2-33.1c-4.3-11.5-7.6-23.5-9.7-35.6c-1.5-8.4-7.5-15.3-15.7-17.9 c-8.4-2.7-17.5-0.4-23.7,5.8l-18.2,18.2c-9.7,9.7-14.8,23-13.8,36.2c3.6,49.7,25,96.5,60.3,131.8c35.3,35.3,82.1,56.6,131.8,60.2 c1.1,0.1,2.1,0.1,3.2,0.1c12.2,0,24.1-5,33-14l18.2-18.2c6.2-6.2,8.4-15.3,5.8-23.7c-2.6-8.2-9.4-14.3-17.9-15.7 c-12.1-2.1-24.1-5.4-35.6-9.7c-11.4-4.3-24.4-1.5-33,7.2l-2.8,2.8c-4.9,4.8-12.1,6.3-18,3.7c-17.2-7.6-32.6-18.2-45.9-31.5 c-13.3-13.3-23.9-28.7-31.5-45.9c-2.6-5.9-1.1-13.2,3.7-18L200.4,207.9z M190,197.6l-2.8,2.8c-9.1,9.1-11.8,22.9-6.8,34.3 c8.3,18.8,19.9,35.7,34.5,50.3c14.6,14.6,31.5,26.2,50.3,34.5c11.4,5.1,25.2,2.4,34.3-6.7l2.8-2.8c4.6-4.6,11.5-6.1,17.6-3.8 c12.3,4.6,25.2,8.1,38.3,10.4c4.4,0.8,6,4.2,6.4,5.7c1,3.2,0.2,6.6-2.2,8.9l-18.2,18.2c-6.8,6.8-15.8,10.2-24.8,9.6 c-46.2-3.3-89.7-23.2-122.5-56c-32.8-32.8-52.6-76.3-56-122.5c-0.7-9,2.8-18.1,9.6-24.8l18.2-18.2c1.7-1.7,3.9-2.6,6.2-2.6 c0.9,0,1.8,0.1,2.8,0.4c1.5,0.5,4.9,2,5.7,6.4c2.3,13,5.8,25.9,10.4,38.2C196.1,186.1,194.6,193,190,197.6L190,197.6z" class="st5"/></g></g></svg>