<svg xmlns="http://www.w3.org/2000/svg" xmlns:xlink="http://www.w3.org/1999/xlink" id="Layer_1" x="0" y="0" version="1.1" viewBox="0 0 500 500" xml:space="preserve" style="enable-background:new 0 0 500 500"><style type="text/css">.st0{fill:#6bdddd}.st1{fill:#f9cfcf}.st2{fill:#3762cc}.st3{fill:#020100}.st4{opacity:.7;fill:#000102;enable-background:new}.st5{fill:#f9a7a7}.st6{fill:#a4c9ff}.st7{fill:#e0ebfc}.st8{fill:#fee265}.st9{fill:#7fc0fd}.st10{fill:#9ccefd}.st11{fill:#fffbf5}.st12{fill:#9ed643}.st13{fill:#b1e75a}</style><path id="XMLID_69_" d="M438.9,500.4H39.1v-43.5c0-39.9,41.8-72.2,93.3-72.2h213.3c51.5,0,93.3,32.3,93.3,72.2V500.4z" class="st0"/><path id="XMLID_68_" d="M413.4,195.3c-0.4,0-0.7,0-1.1,0v-12.6c0-73.4-77.6-132.8-173.3-132.8	c-95.7,0-173.3,59.5-173.3,132.8v12.6c-0.4,0-0.7,0-1.1,0c-29.2,0-52.9,18.1-52.9,40.5s23.7,40.5,52.9,40.5c1.9,0,3.8-0.1,5.7-0.2	c17.9,58.8,86.6,102.5,168.8,102.5c82.1,0,150.9-43.8,168.8-102.5c1.9,0.1,3.8,0.2,5.7,0.2c29.2,0,52.9-18.1,52.9-40.5	C466.3,213.4,442.6,195.3,413.4,195.3z" class="st1"/><path id="XMLID_67_" d="M271.9,319.9c-3,0-5.4-1.9-5.4-4.2c0-3.3-1.9-6.5-5.4-9.2c-3.1-2.4-7.3-4.3-12.1-5.4	c-2.9-0.7-6.2-1-10.1-1s-7.2,0.3-10.1,1c-4.9,1.1-9,3-12.1,5.4c-3.5,2.7-5.4,5.9-5.4,9.2c0,2.3-2.4,4.2-5.4,4.2	c-3,0-5.4-1.9-5.4-4.2c0-5.5,3-10.8,8.5-15.1c4.3-3.4,10.1-6,16.6-7.5c4-0.9,8.3-1.4,13.2-1.4s9.3,0.5,13.2,1.4	c6.6,1.5,12.3,4.1,16.6,7.5c5.5,4.3,8.5,9.6,8.5,15.1C277.3,318,274.9,319.9,271.9,319.9L271.9,319.9z" class="st2"/><path id="XMLID_66_" d="M8.7,148.2C0.9,132,0.3,114.1,7.1,97.6l0.6-1.4C18.9,69.1,48.2,49,84.3,43.7	c17-2.5,34.6-1.5,50.9,2.8l1.9,0.5c0.1,0.8,0.3,1.5,0.5,2.3c7.9,24.9,22.3,47.9,41.9,67.6c-17,36.7-37.9,57.7-53.8,69.3l0,0	L105,202.5l-40.4-7.3c-11.1,0-21.3,2.6-29.8,7L8.7,148.2z" class="st3"/><path id="XMLID_65_" d="M444.4,92.6c-13.6-32.7-44.7-58.6-84.4-71.4l0,0c-139.6-53.2-216,11-216,11	c-5.7,4.3-8.4,10.8-6.4,17.2c16,50.7,59.2,93.4,118.3,117l0.1,0c12.8,5.1,26.1,9.2,39.8,12.4c3.4,0.8,6.2-2.3,4.1-4.6l-28.7-31.7	c-2.5-2.8,1.9-6.1,5.3-4.1c31.7,19.2,93.4,51.1,155.8,52.7l10.2-21.5C454.2,144.8,454.8,117.7,444.4,92.6z" class="st3"/><path id="XMLID_64_" d="M251.8,378.2c-0.7,0-1.4,0.1-2.1,0.1c-1.1,0.1-2.2,0.1-3.3,0.1c-2.5,0.1-4.9,0.1-7.4,0.1	c-2.5,0-5-0.1-7.4-0.1c-1.1,0-2.2-0.1-3.3-0.1c-0.7,0-1.4-0.1-2.1-0.1c-25.5-1.4-49.5-7.1-70.8-16.1v15.4	c0,35.9,36.2,64.9,80.9,64.9h5.4c44.7,0,80.9-29.1,80.9-64.9v-15.4C301.3,371.2,277.3,376.8,251.8,378.2z" class="st1"/><path d="M150.8,254.5c-2.3,0-4.6-0.9-5.8-2.6c-1.9-2.5-0.8-5.7,2.4-7.2l31.3-14.1l-31.3-14.1c-3.2-1.5-4.3-4.7-2.4-7.1	c1.9-2.5,6-3.3,9.2-1.9l34.2,15.4c3.6,1.6,5.7,4.5,5.7,7.7c0,3.2-2.1,6.1-5.7,7.7l-34.2,15.4C153.1,254.3,151.9,254.5,150.8,254.5	L150.8,254.5z M181.6,232L181.6,232L181.6,232z" class="st4"/><path id="XMLID_61_" d="M327.3,254.5c-1.2,0-2.3-0.2-3.4-0.7l-34.2-15.4c-3.6-1.6-5.7-4.5-5.7-7.7	c0-3.2,2.2-6.1,5.7-7.7l34.2-15.4c3.2-1.5,7.4-0.6,9.2,1.9c1.9,2.5,0.8,5.7-2.4,7.1l-31.3,14.1l31.3,14.1c3.2,1.4,4.3,4.7,2.4,7.2	C331.9,253.6,329.6,254.5,327.3,254.5L327.3,254.5z" class="st4"/><path id="XMLID_60_" d="M183.8,305.9c-13.2,15-0.6,35.3,23.1,37.9c10.1,1.1,20.9,1.7,32.1,1.7s22-0.6,32.1-1.7	c23.8-2.6,36.4-22.9,23.1-37.9c-12.9-14.7-32.8-24.1-55.2-24.1C216.6,281.8,196.7,291.2,183.8,305.9L183.8,305.9z" class="st5"/><path id="XMLID_59_" d="M240.7,273.9c0,4.8,3.8,8.6,8.5,8.6c4.7,0,8.5-3.9,8.5-8.6v-20.1c-4.8,4.8-10.8,7.4-17.1,8	V273.9L240.7,273.9z" class="st6"/><path id="XMLID_58_" d="M238.4,264.1c-8.4,0-16.8-2.5-23.2-7.4l-0.5-0.4c-2.1-1.6-2.1-4.3,0-5.9c2.1-1.6,5.5-1.6,7.6,0	l0.5,0.4c8.6,6.6,22.5,6.6,31.1,0c2.1-1.6,5.5-1.6,7.6,0c2.1,1.6,2.1,4.3,0,5.9C255.2,261.6,246.8,264.1,238.4,264.1L238.4,264.1z" class="st4"/><path id="XMLID_57_" d="M343.7,315.4l-7.8-4.1c-8.1-4.2-18.6-4.5-27-0.7l-23.5,10.5c-9.3,4.1-16.8,10.2-21.9,17.5	l-12.7,18.6c-4.6,6.7-3.8,14.8,1.9,20.9l5.5,5.9c20.5,22,50.1,37.9,83.8,45.1l82.9,62l62.9-50.5l-82.9-62	C394.3,352.8,372.8,330.5,343.7,315.4L343.7,315.4z" class="st1"/><path id="XMLID_56_" d="M487.3,489c-17.4,13.9-46,14.3-64,0.9l-43.7-32.7l62.9-50.5l43.7,32.7	C504.2,452.9,504.7,475.1,487.3,489L487.3,489z" class="st1"/><path id="XMLID_55_" d="M280.3,279.8l22.1-0.3c13.1-0.2,25,5.6,29.8,14.4l72.6,134c3.1,5.8-1.1,12.3-9.3,14.3	l-102.6,24.1c-9.8,2.3-19.8-3.1-19.5-10.6L280.3,279.8z" class="st7"/><path id="XMLID_54_" d="M296.8,279.6l-26.1,0.3c-13.1,0.2-24.7,6.2-29.2,15.1l-74.7,150.2c-2.9,5.9,1.6,12.3,9.9,14.1	l116.1,24.3c9.9,2.1,19.7-3.6,19.1-11L296.8,279.6z" class="st7"/><path id="XMLID_53_" d="M332.1,294c-4.8-8.8-16.6-14.6-29.8-14.4l-5.5,0.1l-16.6,0.2l-9.5,0.1	c-13.1,0.2-24.7,6.2-29.2,15.1l-9.8,19.7l18.1-0.2c3.1,0,5.7,1.8,5.8,4.1l0.3,16.3c0.2,8.5,9.3,15.7,21,15.9	c12.1,0.1,21.9-7,21.7-15.7l-0.3-18c0-1.7,1.9-3.1,4.2-3.1c2.4,0,4.3,1.3,4.3,3.1l0.1,5c0.2,8.5,9.3,15.8,21,15.9	c10.4,0.1,19.1-5.2,21.2-12.1L332.1,294z" class="st6"/><g><path id="XMLID_52_" d="M421.3,373.6c-0.3,0-0.7,0-1-0.1c-2.7-0.4-4.5-2.5-3.9-4.6l1.6-6l-7.6-1.7 c-2.2-0.5-3.7-2-3.7-3.8l0.1-6.1l-7.8-0.3c-2.2-0.1-4-1.2-4.6-2.8l-3.5-9.5c-0.8-2.1,0.8-4.2,3.5-4.8c2.7-0.6,5.5,0.6,6.2,2.7 l2.5,6.8l9,0.4c2.7,0.1,4.8,1.9,4.8,3.9l-0.1,6.8l8.4,1.8c2.5,0.6,4.1,2.5,3.6,4.6l-2.5,9.6C425.8,372.3,423.7,373.6,421.3,373.6 L421.3,373.6z" class="st8"/></g><g><path id="XMLID_51_" d="M21.7,490.7c-2.8,1.1-6.4,0.7-8.4-1.3L2.5,479.2c-2.3-2.1-2-5.3,0.6-7.2l8.5-6.3L6,457.7 c-1.7-2.5-0.6-5.6,2.5-7l10.4-4.8l-2.6-9.3c-0.8-2.8,1.5-5.6,5.2-6.3c3.7-0.6,7.3,1.2,8.1,4l3.6,13c0.6,2.2-0.6,4.5-3.1,5.6l-9,4.2 l5,7.2c1.4,2.1,0.9,4.7-1.3,6.3l-7.7,5.7l6.8,6.4c2.4,2.3,2,5.6-0.9,7.4C22.5,490.3,22.1,490.5,21.7,490.7z" class="st8"/></g><g><g><path id="XMLID_50_" d="M191.5,327.6c-0.3-0.6-0.6-1.2-0.9-1.9l-0.3-0.6l-5.2,9.6l-2.9,7.1c4.5,1.3,9.5-0.4,11.1-3.9 C194.9,334.8,193.4,331.8,191.5,327.6z" class="st9"/><path id="XMLID_49_" d="M189.6,325.5c-0.8,0.3-1.5,0.6-2.2,1c-5,2.1-8.7,3.7-10.2,6.8c-1.7,3.5,0.6,7.3,5,8.6 l8.2-16.7L189.6,325.5z" class="st10"/></g><g><path id="XMLID_48_" d="M180.4,337.6l1.1-0.6c-0.5-0.8-0.6-1.7-0.2-2.5c0.4-0.8,1.1-1.4,2.1-1.8l-0.6-1 c-1.3,0.5-2.3,1.3-2.8,2.4C179.5,335.3,179.7,336.6,180.4,337.6L180.4,337.6z" class="st11"/><path id="XMLID_47_" d="M182.3,337.9l-1.1,0.6c0.6,0.5,1.3,0.9,2.1,1.1l0.5-1C183.2,338.4,182.7,338.2,182.3,337.9z" class="st11"/></g></g><g><g><path id="XMLID_46_" d="M350.7,383.6c-0.6-0.4-1.3-0.8-2-1.2l-0.6-0.4l2,10.3l2.2,7.3c4.7-0.7,7.8-4.2,6.9-7.8 C358.4,388.4,355.2,386.4,350.7,383.6z" class="st9"/><path id="XMLID_45_" d="M347.7,382.5c-0.4,0.6-0.9,1.2-1.3,1.7c-2.9,3.8-5,6.6-4.2,9.9c0.9,3.6,5.4,6,10.1,5.4 l-4.2-17.5L347.7,382.5z" class="st10"/></g><g><path id="XMLID_44_" d="M348,396.6l0.5-1c-0.9-0.5-1.6-1.2-1.8-2.1c-0.2-0.8,0-1.7,0.6-2.4l-1.1-0.6 c-0.8,0.9-1.1,2-0.8,3.1C345.6,395,346.6,396,348,396.6L348,396.6z" class="st11"/><path id="XMLID_43_" d="M349.8,396l-0.5,1c0.8,0.2,1.7,0.2,2.5,0.1l-0.2-1C350.9,396.2,350.3,396.1,349.8,396z" class="st11"/></g></g><g><g><path id="XMLID_42_" d="M261.7,404.5c-0.4-0.5-0.9-1.1-1.4-1.7l-0.4-0.5l-2.5,10.2l-1,7.4c4.7,0.6,9.1-2,9.8-5.6 C266.9,411,264.7,408.3,261.7,404.5z" class="st9"/><path id="XMLID_41_" d="M259.3,402.7c-0.7,0.5-1.3,0.9-1.9,1.3c-4.4,2.9-7.5,5-8.2,8.3c-0.7,3.6,2.5,7.1,7.2,7.6 l3.5-17.6L259.3,402.7z" class="st10"/></g><g><path id="XMLID_40_" d="M253.6,416.1l0.9-0.8c-0.7-0.7-1-1.6-0.8-2.5c0.2-0.8,0.7-1.6,1.6-2.1l-0.8-0.8 c-1.2,0.7-1.9,1.7-2.1,2.8C252.1,414,252.6,415.2,253.6,416.1L253.6,416.1z" class="st11"/><path id="XMLID_39_" d="M255.5,416l-0.9,0.8c0.7,0.4,1.5,0.6,2.4,0.7l0.2-1C256.5,416.4,256,416.3,255.5,416z" class="st11"/></g></g><g><g><path id="XMLID_38_" d="M191.1,353c-0.1-0.2-0.2-0.4-0.4-0.5l-0.1-0.2l-1.2,3.1l-0.6,2.3c1.4,0.3,2.9-0.4,3.2-1.5 C192.5,355.2,191.9,354.3,191.1,353z" class="st9"/><path id="XMLID_37_" d="M190.5,352.4c-0.2,0.1-0.4,0.2-0.6,0.4c-1.4,0.8-2.5,1.4-2.8,2.4c-0.4,1.1,0.5,2.2,1.9,2.5 l1.8-5.4L190.5,352.4z" class="st10"/></g><g><path id="XMLID_36_" d="M188.2,356.4l0.3-0.2c-0.2-0.2-0.3-0.5-0.2-0.8c0.1-0.3,0.3-0.5,0.6-0.6l-0.2-0.3 c-0.4,0.2-0.7,0.5-0.8,0.8C187.8,355.7,187.9,356.1,188.2,356.4L188.2,356.4z" class="st11"/><path id="XMLID_35_" d="M188.8,356.4l-0.3,0.2c0.2,0.1,0.4,0.2,0.7,0.3l0.1-0.3C189.1,356.6,188.9,356.5,188.8,356.4 z" class="st11"/></g></g><g><g><path id="XMLID_34_" d="M241.2,349.3c-0.3-0.4-0.7-0.8-1-1.3l-0.3-0.4l-2,7.6l-0.8,5.5c3.5,0.5,6.8-1.4,7.4-4.1 C245.1,354.2,243.5,352.2,241.2,349.3z" class="st9"/><path id="XMLID_33_" d="M239.5,347.9c-0.5,0.3-1,0.7-1.5,0.9c-3.3,2.1-5.7,3.7-6.2,6.1c-0.6,2.7,1.8,5.3,5.3,5.8 l2.9-13.2L239.5,347.9z" class="st10"/></g><g><path id="XMLID_32_" d="M235,357.9l0.7-0.6c-0.5-0.5-0.7-1.2-0.6-1.8c0.1-0.6,0.6-1.2,1.2-1.5l-0.6-0.6 c-0.9,0.5-1.5,1.2-1.6,2C233.9,356.3,234.3,357.2,235,357.9L235,357.9z" class="st11"/><path id="XMLID_31_" d="M236.4,357.8l-0.7,0.6c0.5,0.3,1.1,0.5,1.8,0.6l0.2-0.8C237.2,358.2,236.8,358,236.4,357.8z" class="st11"/></g></g><g><g><g><path id="XMLID_30_" d="M339.5,414.3c-1.2,0-2.1-0.7-2.1-1.6v-2c0-0.9,0.9-1.6,2.1-1.6c1.2,0,2.1,0.7,2.1,1.6v2 C341.6,413.5,340.6,414.3,339.5,414.3z" class="st12"/></g><g><path id="XMLID_29_" d="M339.5,431c-1.2,0-2.1-0.7-2.1-1.6v-2c0-0.9,0.9-1.6,2.1-1.6c1.2,0,2.1,0.7,2.1,1.6v2 C341.6,430.3,340.6,431,339.5,431z" class="st12"/></g></g><g><g><path id="XMLID_28_" d="M332.7,416.4c-0.5,0-1.1-0.2-1.5-0.5l-1.8-1.4c-0.8-0.6-0.8-1.7,0-2.3c0.8-0.6,2.1-0.6,3,0 l1.8,1.4c0.8,0.6,0.8,1.7,0,2.3C333.8,416.3,333.3,416.4,332.7,416.4z" class="st12"/></g><g><path id="XMLID_27_" d="M348,428.3c-0.5,0-1.1-0.2-1.5-0.5l-1.8-1.4c-0.8-0.6-0.8-1.7,0-2.3c0.8-0.6,2.1-0.6,3,0 l1.8,1.4c0.8,0.6,0.8,1.7,0,2.3C349.1,428.1,348.6,428.3,348,428.3z" class="st12"/></g></g><g><g><path id="XMLID_26_" d="M329.9,421.7h-2.5c-1.2,0-2.1-0.7-2.1-1.6c0-0.9,0.9-1.6,2.1-1.6h2.5c1.2,0,2.1,0.7,2.1,1.6 C332,421,331.1,421.7,329.9,421.7z" class="st12"/></g><g><path id="XMLID_25_" d="M351.6,421.7h-2.5c-1.2,0-2.1-0.7-2.1-1.6c0-0.9,0.9-1.6,2.1-1.6h2.5c1.2,0,2.1,0.7,2.1,1.6 C353.7,421,352.7,421.7,351.6,421.7z" class="st12"/></g></g><g><g><path id="XMLID_24_" d="M330.9,428.3c-0.5,0-1.1-0.2-1.5-0.5c-0.8-0.6-0.8-1.7,0-2.3l1.8-1.4c0.8-0.6,2.1-0.6,3,0 c0.8,0.6,0.8,1.7,0,2.3l-1.8,1.4C332,428.1,331.5,428.3,330.9,428.3z" class="st12"/></g><g><path id="XMLID_23_" d="M346.3,416.4c-0.5,0-1.1-0.2-1.5-0.5c-0.8-0.6-0.8-1.7,0-2.3l1.8-1.4c0.8-0.6,2.1-0.6,3,0 c0.8,0.6,0.8,1.7,0,2.3l-1.8,1.4C347.3,416.3,346.8,416.4,346.3,416.4z" class="st12"/></g></g></g><g><ellipse id="XMLID_22_" cx="339.5" cy="420.1" class="st13" rx="9.6" ry="7.4"/></g><path id="XMLID_21_" d="M339.5,412.7c-1.6,0-3.1,0.3-4.4,0.9c3,1.2,5.1,3.7,5.1,6.6c0,2.8-2.1,5.3-5.1,6.6	c1.3,0.5,2.8,0.9,4.4,0.9c5.3,0,9.6-3.3,9.6-7.4C349,416,344.8,412.7,339.5,412.7z" class="st12"/><g><g><g><path id="XMLID_20_" d="M251.8,374.8c-1,0-1.8-0.6-1.8-1.4v-1.7c0-0.8,0.8-1.4,1.8-1.4c1,0,1.8,0.6,1.8,1.4v1.7 C253.6,374.2,252.8,374.8,251.8,374.8z" class="st12"/></g><g><path id="XMLID_19_" d="M251.8,389.3c-1,0-1.8-0.6-1.8-1.4v-1.7c0-0.8,0.8-1.4,1.8-1.4c1,0,1.8,0.6,1.8,1.4v1.7 C253.6,388.6,252.8,389.3,251.8,389.3z" class="st12"/></g></g><g><g><path id="XMLID_18_" d="M246,376.7c-0.5,0-0.9-0.1-1.3-0.4l-1.5-1.2c-0.7-0.5-0.7-1.4,0-2c0.7-0.5,1.9-0.5,2.6,0 l1.5,1.2c0.7,0.5,0.7,1.4,0,2C246.9,376.5,246.4,376.7,246,376.7z" class="st12"/></g><g><path id="XMLID_17_" d="M259.2,386.9c-0.5,0-0.9-0.1-1.3-0.4l-1.5-1.2c-0.7-0.5-0.7-1.4,0-2c0.7-0.5,1.9-0.5,2.6,0 l1.5,1.2c0.7,0.6,0.7,1.4,0,2C260.1,386.8,259.6,386.9,259.2,386.9z" class="st12"/></g></g><g><g><path id="XMLID_16_" d="M243.5,381.2h-2.2c-1,0-1.8-0.6-1.8-1.4c0-0.8,0.8-1.4,1.8-1.4h2.2c1,0,1.8,0.6,1.8,1.4 C245.4,380.6,244.5,381.2,243.5,381.2z" class="st12"/></g><g><path id="XMLID_15_" d="M262.2,381.2H260c-1,0-1.8-0.6-1.8-1.4c0-0.8,0.8-1.4,1.8-1.4h2.2c1,0,1.8,0.6,1.8,1.4 C264,380.6,263.2,381.2,262.2,381.2z" class="st12"/></g></g><g><g><path id="XMLID_14_" d="M244.4,386.9c-0.5,0-0.9-0.1-1.3-0.4c-0.7-0.5-0.7-1.4,0-2l1.5-1.2c0.7-0.5,1.9-0.5,2.6,0 c0.7,0.5,0.7,1.4,0,2l-1.5,1.2C245.3,386.8,244.9,386.9,244.4,386.9z" class="st12"/></g><g><path id="XMLID_13_" d="M257.6,376.7c-0.5,0-0.9-0.1-1.3-0.4c-0.7-0.5-0.7-1.4,0-2l1.5-1.2c0.7-0.5,1.9-0.5,2.6,0 c0.7,0.5,0.7,1.4,0,2l-1.5,1.2C258.6,376.5,258.1,376.7,257.6,376.7z" class="st12"/></g></g></g><g><ellipse id="XMLID_12_" cx="251.8" cy="379.8" class="st13" rx="8.2" ry="6.4"/></g><path id="XMLID_11_" d="M251.8,373.4c-1.4,0-2.7,0.3-3.8,0.7c2.6,1.1,4.4,3.2,4.4,5.7c0,2.5-1.8,4.6-4.4,5.6	c1.1,0.5,2.5,0.7,3.8,0.7c4.5,0,8.2-2.9,8.2-6.4C260,376.3,256.4,373.4,251.8,373.4z" class="st12"/><g><g><g><path id="XMLID_10_" d="M200.1,443.8c-0.7,0-1.2-0.4-1.2-0.9v-1.1c0-0.5,0.5-0.9,1.2-0.9c0.7,0,1.2,0.4,1.2,0.9v1.1 C201.3,443.4,200.8,443.8,200.1,443.8z" class="st12"/></g><g><path id="XMLID_9_" d="M200.1,453.5c-0.7,0-1.2-0.4-1.2-0.9v-1.1c0-0.5,0.5-0.9,1.2-0.9c0.7,0,1.2,0.4,1.2,0.9v1.1 C201.3,453.1,200.8,453.5,200.1,453.5z" class="st12"/></g></g><g><g><path id="XMLID_8_" d="M196.2,445.1c-0.3,0-0.6-0.1-0.9-0.3l-1-0.8c-0.5-0.4-0.5-1,0-1.3c0.5-0.4,1.2-0.4,1.7,0 l1,0.8c0.5,0.4,0.5,1,0,1.3C196.8,445,196.5,445.1,196.2,445.1z" class="st12"/></g><g><path id="XMLID_7_" d="M205,451.9c-0.3,0-0.6-0.1-0.9-0.3l-1-0.8c-0.5-0.4-0.5-1,0-1.3c0.5-0.4,1.2-0.4,1.7,0l1,0.8 c0.5,0.4,0.5,1,0,1.3C205.6,451.8,205.3,451.9,205,451.9z" class="st12"/></g></g><g><g><path id="XMLID_6_" d="M194.6,448.1h-1.5c-0.7,0-1.2-0.4-1.2-0.9c0-0.5,0.5-0.9,1.2-0.9h1.5c0.7,0,1.2,0.4,1.2,0.9 C195.8,447.7,195.2,448.1,194.6,448.1z" class="st12"/></g><g><path id="XMLID_5_" d="M207.1,448.1h-1.5c-0.7,0-1.2-0.4-1.2-0.9c0-0.5,0.5-0.9,1.2-0.9h1.5c0.7,0,1.2,0.4,1.2,0.9 C208.3,447.7,207.7,448.1,207.1,448.1z" class="st12"/></g></g><g><g><path id="XMLID_4_" d="M195.2,451.9c-0.3,0-0.6-0.1-0.9-0.3c-0.5-0.4-0.5-1,0-1.3l1-0.8c0.5-0.4,1.2-0.4,1.7,0 c0.5,0.4,0.5,1,0,1.3l-1,0.8C195.8,451.8,195.5,451.9,195.2,451.9z" class="st12"/></g><g><path id="XMLID_3_" d="M204,445.1c-0.3,0-0.6-0.1-0.9-0.3c-0.5-0.4-0.5-1,0-1.3l1-0.8c0.5-0.4,1.2-0.4,1.7,0 c0.5,0.4,0.5,1,0,1.3l-1,0.8C204.6,445,204.3,445.1,204,445.1z" class="st12"/></g></g></g><g><ellipse id="XMLID_2_" cx="200.1" cy="447.2" class="st13" rx="5.5" ry="4.3"/></g><path id="XMLID_1_" d="M200.1,442.9c-0.9,0-1.8,0.2-2.6,0.5c1.8,0.7,2.9,2.1,2.9,3.8s-1.2,3.1-2.9,3.8	c0.8,0.3,1.6,0.5,2.6,0.5c3,0,5.5-1.9,5.5-4.3S203.1,442.9,200.1,442.9z" class="st12"/></svg>