<?xml version="1.0" encoding="utf-8"?>
<!-- Generator: Adobe Illustrator 19.0.0, SVG Export Plug-In . SVG Version: 6.00 Build 0)  -->
<svg version="1.1" id="Layer_1" xmlns="http://www.w3.org/2000/svg" xmlns:xlink="http://www.w3.org/1999/xlink" x="0px" y="0px"
	 viewBox="0 0 500 500" style="enable-background:new 0 0 500 500;" xml:space="preserve">
<style type="text/css">
	.st0{fill:#EAB1B7;}
	.st1{fill:#E28086;}
	.st2{fill:#E4989D;}
	.st3{fill:#F6D3D5;}
</style>
<g>
	<path id="XMLID_18_" class="st0" d="M315.8,438.3c-14.3-13.1-1.8-61.1-1.8-84.8l-75.1,27.1l47.3,106.7c3.5,7.8,10.1,12.7,17.4,12.7
		c13.1,0,22.6-15.3,19.1-30.9L315.8,438.3z"/>
	<path id="XMLID_17_" class="st1" d="M292.3,380.6c0,39.6,26.1,71.7,58.2,71.7h10.3c38.2,0,71.4-34,75.9-77.5
		c-9.2,3.8-25.4-37-35.6-37L292.3,380.6z"/>
	<path id="XMLID_16_" class="st0" d="M169.7,380.6h154h83.6c25.6,0,48.8-12.8,65.6-33.5c12.3-15.2,12.4-39.9,0-55.1l-8.2-10.1
		l1.6,1.9c12.4,15.2,33.7,4.7,33.7-16.9c0-0.2,0-0.3,0-0.5c0-73-23.8-139.2-62.5-187.3c-7.7-9.6-20.3-9.8-28.1-0.2l-2.7,3.3
		c8.8-10.9,7.4-29-3-37.5h0C369.4,16.4,328.2,0,283.9,0h-14.2C258.8,0,250,10.9,250,24.4C250,10.9,241.2,0,230.2,0h-44.1
		c-32.9,0-64.4,10.3-92,28.7c-11.6,7.7-13.7,27.1-4.4,38.6l-4.9-6.1c-7.4-9.1-19.3-9.5-27.1-1c-22.9,25.1-40.9,57.2-52.4,94
		c-19.7,64.2,18.9,132.9,74.5,132.9h18.8c1.4,0,2.5,1.5,2.4,3.2c-0.1,1.8-0.1,3.7-0.1,5.6C100.8,342.7,131.7,380.7,169.7,380.6
		L169.7,380.6z"/>
	<path id="XMLID_15_" class="st2" d="M437.5,79c-6.7-8.4-17.1-9.6-24.8-3.4c29.5,45.5,47.1,103.2,47.1,166v0.3
		c-0.1,63-41.6,114-92.7,114H129.5c-3.1,0-6.1-0.2-9.1-0.7c12.5,15.8,30,25.6,49.3,25.5h237.6c25.6,0,48.8-12.8,65.6-33.5
		c12.3-15.2,12.4-39.9,0-55.1l-6.7-8.2c12.4,15.2,33.7,4.6,33.7-16.9c0-0.2,0-0.3,0-0.5C500,193.3,476.1,127.1,437.5,79z"/>
	<path id="XMLID_14_" class="st3" d="M61.1,99.6c-2.9,4-5.7,8.1-8.3,12.4c-3.8,6.1-3.3,14.8,1.1,20.2l0.1,0.2
		c5.3,6.6,14.2,5.8,18.8-1.6c2.2-3.6,4.6-7.1,7-10.5c4.3-6,4.3-15.1-0.2-20.9l-0.1-0.2C74.5,92.7,66,92.9,61.1,99.6z"/>
	<path id="XMLID_13_" class="st3" d="M55.6,209.5c-4.6-8.1-6.3-17.3-4.7-27.2c0.8-5.1-0.4-10.4-3.4-14c-7-8.6-18.9-4.2-21,7.7
		c-3,17.1-1.3,33.9,8.4,51.2c7.2,12.8,17.2,21.8,28.8,26.1c8,3,16.1-4.4,16.1-14.7v-0.2c0-6.7-3.5-12.7-8.7-14.6
		C64.8,221.3,59.5,216.5,55.6,209.5z"/>
	<g>
		<path id="XMLID_12_" class="st2" d="M316.1,201.8h-18.9h-15.1h-75.6h-15.1H162c-12.1,0-23.6,3.5-33.8,9.8L115,221.7
			C98.9,237.3,88,260.6,86,287.1h12.6c1.3,0,2.3,1.2,2.4,2.7c2.5-38.8,28.9-69.4,61-69.4h154.2c4.2,0,7.6-4.2,7.6-9.3
			C323.7,205.9,320.3,201.8,316.1,201.8z"/>
		<path id="XMLID_11_" class="st2" d="M319.8,279.8c24.7,0,47.9-11.8,65.3-33.4l23.4-28.8c2.9-3.6,2.9-9.5,0-13.2
			c-3-3.6-7.7-3.6-10.7,0l-23.4,28.8c-14.6,18-34,27.9-54.7,27.9H191.1c-15.9,0-30.9,7.6-42.2,21.5l-2.6,3.2
			c-2.9,3.6-2.9,9.5,0,13.2c1.5,1.8,3.4,2.7,5.3,2.7c1.9,0,3.9-0.9,5.3-2.7l2.6-3.2c8.4-10.4,19.6-16.1,31.5-16.1L319.8,279.8
			L319.8,279.8z"/>
		<path id="XMLID_10_" class="st2" d="M384.2,354.8c-20-24.6-46.5-38.2-74.7-38.2h-93.9c-4.2,0-7.5,4.2-7.5,9.3
			c0,5.1,3.4,9.3,7.5,9.3h93.8c24.2,0,46.9,11.6,64.1,32.7l10.3,12.7h21.3L384.2,354.8z"/>
		<path id="XMLID_9_" class="st2" d="M417.2,258c-2.9,3.6-2.9,9.5,0,13.2c1.5,1.8,3.4,2.7,5.3,2.7c1.9,0,3.9-0.9,5.3-2.7l13.6-16.8
			c17.1-21,20-54.5,7-79.5l-5.9-11.3c-2.2-4.3-6.9-5.6-10.4-2.8c-3.5,2.8-4.5,8.5-2.3,12.8l5.9,11.3c9.2,17.8,7.1,41.5-5,56.4
			L417.2,258z"/>
		<path id="XMLID_8_" class="st2" d="M84.7,61.2c-6.6-8.1-16.6-9.3-24.3-3.6l37.3,46c1.5,1.8,3.4,2.7,5.3,2.7c1.9,0,3.9-0.9,5.3-2.7
			c2.9-3.6,2.9-9.5,0-13.2L84.7,61.2z"/>
		<path id="XMLID_7_" class="st2" d="M242.4,115.6c4.2,0,7.5-4.2,7.5-9.3V24.4c0-11.5-6.4-21.1-15.1-23.7v105.6
			C234.9,111.4,238.3,115.6,242.4,115.6z"/>
		<path id="XMLID_6_" class="st2" d="M161.4,121.2c-3.1,0.4-5.3,4-5,8.1l5.2,65.7c0,0,3.3,3.3,6.1,2.5c2.7-0.8,5.1-4.1,5.1-4.1
			l-5.2-65.3C167.3,123.9,164.5,120.9,161.4,121.2z"/>
		<path id="XMLID_5_" class="st2" d="M308.7,80.1c-3.1-0.1-5.8,4.9-5.9,11.2l-2.8,101c0,0,2.9,5.8,5.7,5.1c2.8-0.7,5.5-5.2,5.5-5.2
			L314,91.8C314.2,85.4,311.8,80.2,308.7,80.1z"/>
		<path id="XMLID_4_" class="st2" d="M268.1,141.2c-3.1-0.1-5.7,2.2-5.8,5.3l-1.3,48.6c0,0,3,2.8,5.8,2.6c2.8-0.3,5.4-2.4,5.4-2.4
			l1.3-48.3C273.7,143.9,271.2,141.3,268.1,141.2z"/>
		<path id="XMLID_3_" class="st2" d="M212.9,138.8c-3.1,0-5.6,2.5-5.6,5.5l0,48.6c0,0,3,2.7,5.9,2.3c2.8-0.4,5.4-2.6,5.4-2.6l0-48.4
			C218.5,141.2,216,138.8,212.9,138.8z"/>
		<path id="XMLID_2_" class="st2" d="M104.5,185.5c-2.8,1.7-4.5,4.4-3.9,6l10.2,25.6c0,0,3.3-0.2,5.7-1.9c2.4-1.7,4.3-4.3,4.3-4.3
			l-10.1-25.5C110,183.7,107.3,183.8,104.5,185.5z"/>
		<path id="XMLID_1_" class="st2" d="M409.7,52.3c-1.4-2.9-3.4-5.6-5.9-7.6h0c-13.6-11.2-28.4-20.6-43.9-27.8
			c10,7.9,19.5,16.8,28.3,26.6c8.2,9.1,8.6,24.7,0.8,34.3l-27.5,33.9c-3,3.6-3,9.5,0,13.2c1.5,1.8,3.4,2.7,5.3,2.7
			c1.9,0,3.9-0.9,5.3-2.7l34.6-42.7C413.4,73.9,414.2,61.5,409.7,52.3L409.7,52.3z"/>
	</g>
</g>
</svg>
