<?xml version="1.0" encoding="utf-8"?>
<!-- Generator: Adobe Illustrator 19.0.0, SVG Export Plug-In . SVG Version: 6.00 Build 0)  -->
<svg version="1.1" id="Layer_1" xmlns="http://www.w3.org/2000/svg" xmlns:xlink="http://www.w3.org/1999/xlink" x="0px" y="0px"
	 viewBox="0 0 500 500" style="enable-background:new 0 0 500 500;" xml:space="preserve">
<style type="text/css">
	.st0{fill:#E47C6E;}
	.st1{fill:#FADFB2;}
	.st2{fill:#DB9B7C;}
	.st3{fill:#EFBE9A;}
	.st4{fill:#BF5763;}
</style>
<path id="XMLID_14_" class="st0" d="M225.5,254.5v66.7c0,11.4-3.4,22.5-9.7,31.6c-6.3,9.1-9.7,20.2-9.7,31.6v5.1
	c0,8.2,1.8,16.2,5.1,23.6l18.6,40.3c5.3,11.6,16.2,18.9,28.2,18.9c11.9,0,22.8-7.3,28.2-18.9l18.6-40.3c3.4-7.3,5.1-15.4,5.1-23.6
	v-5.1c0-11.4-3.4-22.5-9.7-31.6c-6.3-9.1-9.7-20.2-9.7-31.6v-66.7"/>
<path id="XMLID_13_" class="st1" d="M257.9,475.7c2.7,0,5.3-1.7,7.4-4.6c-4.9-20.5-7.4-42.6-7.4-64.9c0,22.3-2.5,44.4-7.4,64.9
	C252.6,474,255.2,475.7,257.9,475.7L257.9,475.7z"/>
<path id="XMLID_12_" class="st1" d="M84.9,432.4v-31c0-31.4-9.2-61.9-26-86.7l-2-2.9c-16.8-24.8-26-55.3-26-86.7v-22.1
	c0-39,27.7-70.6,61.7-70.6L115.8,97H92.6C41.5,97,0,144.5,0,202.9v39.8c0,31.4,9.2,61.9,26,86.7l2,2.9c16.9,24.8,26,55.3,26,86.7
	v66.3"/>
<path id="XMLID_11_" class="st1" d="M446,478.4v-66.3c0-31.4,9.2-61.9,26-86.7l2-2.9c16.9-24.8,26-55.3,26-86.7v-39.8
	c0-58.5-41.5-105.9-92.6-105.9h-23.2l23.2,35.3c34.1,0,61.7,31.6,61.7,70.6v22.1c0,31.4-9.2,61.9-26,86.7l-2,2.9
	c-16.9,24.8-26,55.3-26,86.7v31"/>
<ellipse id="XMLID_10_" class="st2" cx="254.9" cy="150" rx="187.2" ry="114.7"/>
<path id="XMLID_9_" class="st3" d="M373,61C340.8,45,299.7,35.3,254.9,35.3C151.5,35.3,67.7,86.7,67.7,150
	c0,21.4,9.7,41.4,26.4,58.5c15.3,2.1,31.2,3.3,47.5,3.3C267.6,211.8,370.1,144.6,373,61z"/>
<path id="XMLID_8_" class="st1" d="M57.9,0l24,26.9c10,11.2,15.4,25,15.4,39.3s5.4,28.1,15.4,39.3l28.8,32.6l34.7-14.6l-24.3-27.2
	c-9.8-11-15.1-24.6-15.1-38.6v-1.9c0-13.4-4.8-26.4-13.8-37.1L107.2,0"/>
<path id="XMLID_7_" class="st1" d="M452,0l-24,26.9c-10,11.2-15.4,25-15.4,39.3s-5.4,28.1-15.4,39.3l-28.2,31.9l-35.2-13.9L358,96.3
	c9.8-11,15.1-24.6,15.1-38.6v-1.9c0-13.4,4.8-26.4,13.8-37.1L402.7,0"/>
<g>
	<ellipse id="XMLID_6_" class="st0" cx="168.5" cy="142.8" rx="29" ry="23.4"/>
	<ellipse id="XMLID_5_" class="st0" cx="345.3" cy="144.1" rx="29" ry="23.4"/>
	<ellipse id="XMLID_4_" class="st0" cx="68.6" cy="454.3" rx="43.8" ry="45.7"/>
	<ellipse id="XMLID_3_" class="st0" cx="442.1" cy="454.3" rx="43.8" ry="45.7"/>
</g>
<path id="XMLID_2_" class="st4" d="M171.3,126.5c-2.8,2.8-6.2,5-9.9,6.7c-2.4-3.7-5.1-7.2-8.1-10.5c-2.9,1.4-5.5,3.2-7.7,5.1
	c5.6,6.2,10.1,13.1,13.4,20.6l1.6,3.7l8.9-3.1l-1.6-3.7c-0.7-1.5-1.4-3-2.2-4.5c4.8-2.1,9.1-5,12.6-8.6l1.1-1.1l-7.1-5.8
	L171.3,126.5z"/>
<path id="XMLID_1_" class="st4" d="M336.2,126.9l-6.3,6.5l1.3,1c4,3.1,8.7,5.5,13.7,7.2c-0.5,1.5-1.1,3.1-1.6,4.7l-1.1,3.8l9.3,2.1
	l1.1-3.8c2.2-7.7,5.8-15.1,10.6-21.8c-2.4-1.7-5.2-3.2-8.3-4.3c-2.5,3.6-4.8,7.4-6.7,11.3c-3.9-1.3-7.6-3.2-10.7-5.6L336.2,126.9z"
	/>
</svg>
