<?xml version="1.0" encoding="utf-8"?>
<!-- Generator: Adobe Illustrator 19.0.0, SVG Export Plug-In . SVG Version: 6.00 Build 0)  -->
<svg version="1.1" id="Layer_1" xmlns="http://www.w3.org/2000/svg" xmlns:xlink="http://www.w3.org/1999/xlink" x="0px" y="0px"
	 viewBox="0 0 500 500" style="enable-background:new 0 0 500 500;" xml:space="preserve">
<style type="text/css">
	.st0{fill:#EAB1B7;}
	.st1{fill:#E4989D;}
	.st2{fill:#E28086;}
	.st3{fill:#DD636E;}
	.st4{fill:#DA4A54;}
	.st5{fill:#F28B74;}
	.st6{opacity:0.1;enable-background:new    ;}
	.st7{fill:#BED8FB;}
	.st8{fill:#9DC6FB;}
</style>
<g>
	<g>
		<g>
			<path id="XMLID_22_" class="st0" d="M489.8,210.2h-121v-51.9h121c5.6,0,10.2,3.1,10.2,6.9v38.2
				C500,207.2,495.4,210.2,489.8,210.2z"/>
		</g>
	</g>
	<g>
		<path id="XMLID_21_" class="st1" d="M489.8,158.3h-25.6v21c0,3.8-4.6,6.9-10.2,6.9h-85.2v24h121c5.6,0,10.2-3.1,10.2-6.9v-38.2
			C500,161.3,495.4,158.3,489.8,158.3L489.8,158.3z"/>
	</g>
	<g>
		<g>
			<path id="XMLID_20_" class="st0" d="M177.5,151.6h-77.4V7.4c0-3.8,4.6-6.9,10.2-6.9h57c5.6,0,10.2,3.1,10.2,6.9L177.5,151.6
				L177.5,151.6z"/>
		</g>
	</g>
	<g>
		<path id="XMLID_19_" class="st1" d="M167.3,0.5h-26.9v151h37.2V7.4C177.5,3.6,172.9,0.5,167.3,0.5L167.3,0.5z"/>
	</g>
	<g>
		<g>
			<path id="XMLID_18_" class="st2" d="M254.9,182.5h-77.4V68.8c0-38.4,46.4-69.6,103.7-69.6h22.6c5.6,0,10.2,3.1,10.2,6.9v38.2
				c0,3.8-4.6,6.9-10.2,6.9h-22.6c-14.5,0-26.3,7.9-26.3,17.6L254.9,182.5L254.9,182.5z"/>
		</g>
	</g>
	<g>
		<path id="XMLID_17_" class="st3" d="M303.8-0.8h-22.6c-1.9,0-3.8,0-5.7,0.1v29.2c0,3.8-4.6,6.9-10.2,6.9h-6.2
			c-23.6,0-42.7,12.8-42.7,28.6v118.5h38.5V68.8c0-9.7,11.8-17.6,26.3-17.6h22.6c5.6,0,10.2-3.1,10.2-6.9V6.1
			C314,2.3,309.4-0.8,303.8-0.8L303.8-0.8z"/>
	</g>
	<g>
		<path id="XMLID_16_" class="st3" d="M426.4,182.4l-16.2,49.2l-133.6-50.5L328,93.8l74.8,42C423,147.1,432.1,165.1,426.4,182.4z"/>
	</g>
	<g>
		<path id="XMLID_15_" class="st4" d="M402.8,135.8l-74.8-42l-13,22.2l46.6,26.1c20.2,11.4,29.4,29.3,23.7,46.6l-9.8,29.8l34.8,13.2
			l16.2-49.2C432.1,165.1,423,147.1,402.8,135.8z"/>
	</g>
	<g>
		<path id="XMLID_14_" class="st3" d="M159,124.8l-46.6-31.2C93.5,80.9,62.2,83,47.4,97.9l-25.6,25.8c-24.8,25-28.7,56.8-10.3,84.2
			l57.8,86.1l99.3-94.6C192.9,176.2,188.8,144.7,159,124.8L159,124.8z"/>
	</g>
	<path id="XMLID_13_" class="st4" d="M159,124.8l-46.6-31.2c-15.9-10.6-40.7-10.8-56.9-1.7c3.2,1.2,6.3,2.8,9.1,4.6l46.6,31.2
		c29.8,20,33.9,51.4,9.6,74.5l-69,65.7l17.4,26l99.3-94.6C192.9,176.2,188.8,144.7,159,124.8L159,124.8z"/>
	<g>
		<path id="XMLID_12_" class="st0" d="M166.4,162.4l59.2-48.2c31.9-26,79.4-41.1,129.5-41.1h82.4c5.6,0,10.2,3.1,10.2,6.9v38.2
			c0,3.8-4.6,6.9-10.2,6.9h-71c-23,0-41.4,12.8-40.6,28.2l1.8,36.1L166.4,162.4z"/>
	</g>
	<g>
		<path id="XMLID_11_" class="st1" d="M437.6,73.1h-28.8V92c0,3.8-4.6,6.9-10.2,6.9h-39.8c-39.9,0-72.1,21.8-71.7,48.6l0.5,35.1
			l40.2,6.7l-1.8-36.1c-0.8-15.4,17.6-28.2,40.6-28.2h71c5.6,0,10.2-3.1,10.2-6.9V80C447.8,76.2,443.2,73.1,437.6,73.1z"/>
	</g>
	<g>
		<path id="XMLID_10_" class="st5" d="M305.2,494.9l-112.8-35.7c-56.5-17.8-101.2-49-125.6-87.5C35.3,321.8,40.9,264.9,82,218.2
			l38-43.1c23.6-26.8,73.3-37.6,115.9-25.2l91.2,26.5c0,0,30.9,17.2,41.9,22.2c11.1,5,37.8,8.2,47.3,14.4
			c24.2,16,42.7,35.7,53.6,57.8c15.5,31.3,14.6,65.3-2.6,96.2l-54.4,98.4C396.8,494.5,347,508.1,305.2,494.9L305.2,494.9z"/>
	</g>
	<g class="st6">
		<path id="XMLID_9_" d="M469.9,270.8c-19.4-39.3-62.9-71.2-119.6-87.7L311.9,172c35.6,18.1,62.7,43.1,77,72
			c15.8,32.1,14.9,66.9-2.6,98.6l-55.8,100.8c-12.3,22.1-43.5,35.5-76.4,35.4l51.1,16.2c41.8,13.2,91.6-0.4,107.7-29.5l54.4-98.4
			C484.5,336.1,485.4,302.2,469.9,270.8L469.9,270.8z"/>
	</g>
	<g>
		<path id="XMLID_8_" class="st3" d="M170.3,302.1h-18.9c-22.2,0-40.2-12.1-40.2-27v-6.2c0-4.1,4.9-7.4,11-7.4s11,3.3,11,7.4v6.2
			c0,6.8,8.2,12.3,18.3,12.3h18.9c6,0,11,3.3,11,7.4C181.3,298.8,176.4,302.1,170.3,302.1L170.3,302.1z"/>
	</g>
	<path id="XMLID_7_" class="st7" d="M348.3,453.7v-16c0-11.8-6.8-22.8-19.2-31.2c-8.3-5.5-12.8-12.9-12.8-20.8v-22.1c0,0,0,0,0,0
		c0-11.8-6.8-22.8-19.2-31.2l-19.2-12.9l1.5-1c11.7-7.8,18.1-18.3,18.1-29.3V167.8l-21.9-6.4v127.8c0,7.2-4.2,13.9-11.7,18.9
		L232.7,329c-4.3,2.9-4.3,7.5,0,10.4c4.3,2.9,11.2,2.9,15.5,0l14.1-9.5l19.2,12.9c7.2,4.9,11.6,11.1,12.6,17.9l-28.7,19.2
		c-9.4,6.3-14.6,14.7-14.6,23.6v7.5c0,6.2-7.5,11.2-16.6,11.2c-6,0-11,3.3-11,7.4c0,4.1,4.9,7.3,11,7.3c21.3,0,38.6-11.6,38.6-25.9
		v-7.5c0-5,2.9-9.7,8.1-13.2l13.4-9v4.4c0,11.8,6.8,22.9,19.2,31.2c8.3,5.6,12.8,12.9,12.8,20.8v16c0,4.1,4.9,7.3,11,7.3
		C343.4,461.1,348.3,457.8,348.3,453.7L348.3,453.7z"/>
	<path id="XMLID_6_" class="st8" d="M348.3,453.7v-16c0-6-1.8-11.8-5.2-17.2l-12.6,22.9c-1.2,2.2-2.6,4.2-4.1,6.2v4.1
		c0,4.1,4.9,7.4,11,7.4C343.4,461.1,348.3,457.8,348.3,453.7L348.3,453.7z"/>
	<path id="XMLID_5_" class="st7" d="M182.9,210.7h-39.4c-10.1,0-19.7-2.6-26.9-7.5l-13.4-9l-11.5,13.1l9.5,6.3
		c10.9,7.3,25.2,11.4,40.6,11.7v23.5c0,4.1,4.9,7.4,11,7.4c6,0,11-3.3,11-7.4v-23.5h19.3c6.1,0,11-3.3,11-7.4
		C193.9,214,189,210.7,182.9,210.7L182.9,210.7z"/>
	<path id="XMLID_4_" class="st3" d="M430,296h-16.3c-7.4,0-14.3-1.9-19.5-5.4l-16.5-11.1v-86.8c-7-2.9-14.3-5.6-21.9-7.9v37.9h-58.8
		c-23.6,0-42.8,12.9-42.8,28.7c0,7.7-9.4,14-20.9,14h-14.5c-11.4,0-22.2,3-30.3,8.4l-59.6,40c-4.3,2.9-4.3,7.5,0,10.4
		c4.3,2.9,11.2,2.9,15.5,0l59.6-40c3.9-2.6,9.2-4.1,14.8-4.1h14.5c23.6,0,42.8-12.9,42.8-28.7c0-7.7,9.4-14,20.9-14h58.8v11.3
		l-33.6,22.6c-4.3,2.9-4.3,7.5,0,10.4c4.3,2.9,11.2,2.9,15.5,0l18.1-12.2v66c0,17.9,10.4,34.8,29.3,47.5l14.6,9.8
		c4.3,2.9,11.2,2.9,15.5,0s4.3-7.5,0-10.4l-14.6-9.8c-5.6-3.7-10.2-8-13.8-12.5h32.2c6,0,11-3.3,11-7.3c0-4.1-4.9-7.4-11-7.4h-39.9
		c-0.9-3.2-1.4-6.5-1.4-9.9v-35l1,0.7c9.3,6.3,21.8,9.7,35,9.7H430c6,0,11-3.3,11-7.4C440.9,299.3,436,296,430,296L430,296z"/>
	<g>
		<path id="XMLID_3_" class="st4" d="M415.2,382.2l-14.6-9.8c-5.6-3.7-10.2-8-13.8-12.5h32.2c6,0,11-3.3,11-7.3
			c0-4.1-4.9-7.4-11-7.4h-34.1l-14.1,25.5c4,4.4,8.8,8.4,14.3,12.1l14.6,9.8c4.3,2.9,11.2,2.9,15.5,0
			C419.5,389.8,419.5,385.1,415.2,382.2L415.2,382.2z"/>
		<path id="XMLID_2_" class="st4" d="M430,296h-16.3c-4.8,0-9.5-0.8-13.6-2.4c-0.2,5.2-0.7,10.4-1.6,15.5c4.8,1,10,1.6,15.2,1.6H430
			c6,0,11-3.3,11-7.4C440.9,299.3,436,296,430,296z"/>
		<path id="XMLID_1_" class="st4" d="M377.7,225.6v-32.9c-1.8-0.7-3.5-1.4-5.3-2.1c0,0,0,0,0,0c-1.7-0.7-3.4-1.3-5.2-1.9
			c-0.1,0-0.2-0.1-0.3-0.1c-1.6-0.6-3.3-1.2-4.9-1.7c-0.2-0.1-0.4-0.1-0.6-0.2c-1.8-0.6-3.7-1.2-5.5-1.8v16.8
			C364.1,209,371.5,217.1,377.7,225.6z"/>
	</g>
</g>
</svg>
