<?xml version="1.0" encoding="utf-8"?>
<!-- Generator: Adobe Illustrator 19.0.0, SVG Export Plug-In . SVG Version: 6.00 Build 0)  -->
<svg version="1.1" id="Layer_1" xmlns="http://www.w3.org/2000/svg" xmlns:xlink="http://www.w3.org/1999/xlink" x="0px" y="0px"
	 viewBox="0 0 500 500" style="enable-background:new 0 0 500 500;" xml:space="preserve">
<style type="text/css">
	.st0{fill:#F5D7B7;}
	.st1{opacity:0.1;enable-background:new    ;}
	.st2{fill:#38648C;}
	.st3{fill:#F28B74;}
</style>
<path id="XMLID_15_" class="st0" d="M221.4,500c-9.2,0-16.7-9.6-16.7-21.5V302c0-14.8-7.4-27.7-18.3-32.1l-59.4-24
	c-8.8-3.5-13.7-15.6-10.9-26.9c2.8-11.3,12.1-17.6,20.9-14.1l59.4,24c24.9,10.1,41.7,39.4,41.7,73.1v176.5
	C238.1,490.4,230.7,500,221.4,500z"/>
<path id="XMLID_14_" class="st1" d="M188.6,327.4c-4.4-19-12.4-36.5-23.4-51.1l-26.9-10.8c-7.9-3.2-16.3,2.5-18.8,12.6
	c-2.5,10.2,1.9,21,9.8,24.2l53.4,21.5C184.9,324.7,186.8,325.9,188.6,327.4z"/>
<path id="XMLID_13_" class="st0" d="M301.8,500c-9.2,0-16.7-9.6-16.7-21.5V302c0-33.6,16.8-63,41.7-73.1l59.4-24
	c8.8-3.6,18.2,2.8,20.9,14.1c2.8,11.3-2.1,23.4-10.9,26.9l-59.4,24c-10.9,4.4-18.3,17.3-18.3,32.1v176.5
	C318.5,490.4,311,500,301.8,500z"/>
<path id="XMLID_12_" class="st1" d="M311.9,327.4c4.4-19,12.4-36.5,23.4-51.1l26.9-10.8c7.9-3.2,16.3,2.5,18.8,12.6
	c2.5,10.2-1.9,21-9.8,24.2l-53.4,21.5C315.7,324.7,313.7,325.9,311.9,327.4z"/>
<path id="XMLID_11_" class="st2" d="M375.9,256.7l-59.7-26.9c-12.6-5.7-23.1-17-29.7-31.9l-14.1-31.8c-4.7-10.5-7.1-22.4-7.1-34.6
	V19.8C265.2,9.5,259,0.5,251,0c-8.6-0.5-15.7,8.3-15.7,19.3v112.3c0,12.1-2.4,24-7.1,34.6L214,198c-6.6,14.9-17.2,26.2-29.7,31.9
	L125,256.5c-7.8,3.5-12.3,14.4-9.7,24.4c2.1,8.1,8,13.2,14.2,13.2c1.6,0,3.3-0.3,4.9-1.1l59.7-26.9c19.4-8.7,35.7-26.2,45.9-49.2
	l8.9-20c0.6-1.3,2-1.3,2.6,0l8.9,20c10.2,23,26.5,40.4,45.9,49.2l59.7,26.9c1.6,0.7,3.3,1.1,4.9,1.1c6.2,0,12-5,14.1-12.9
	C387.9,271.2,383.7,260.2,375.9,256.7z"/>
<path id="XMLID_10_" class="st1" d="M331,275c2.1-2.7,2.5-4.8,2.5-7.2s-0.4-4.5-2.5-7.2c-7.5-9.7-13.6-20.7-18.3-32.6
	c1.3,0.7,2.5,1.4,3.8,2l59.3,26.7c7.8,3.5,12.3,14.4,9.7,24.4c-2.1,8.1-8,13.2-14.2,13.2c-1.6,0-3.3-0.3-4.9-1.1l-36.7-16.5
	C330.2,276.2,330.6,275.6,331,275z"/>
<path id="XMLID_9_" class="st1" d="M169.9,274.8c-2.1-2.7-2.5-4.8-2.5-7.2c0-2.4,0.4-4.5,2.5-7.2c7.5-9.7,13.6-20.7,18.3-32.5
	c-1.3,0.7-2.5,1.4-3.8,2L125,256.6c-7.8,3.5-12.3,14.4-9.7,24.4c2.1,8.1,8,13.2,14.2,13.2c1.6,0,3.3-0.3,4.9-1.1l36.7-16.5
	C170.8,276,170.4,275.4,169.9,274.8z"/>
<path id="XMLID_8_" class="st3" d="M0,267.6c0,50.4,10.6,116.2,47.9,164.3c29.2,37.6,76.5,37.6,105.7,0c29.2-37.6,29.2-98.5,0-136.1
	c-8.4-10.8-9.2-22.3-9.2-28.2c0-5.9,0.9-17.4,9.2-28.2c29.2-37.6,29.2-98.5,0-136.1s-76.5-37.6-105.7,0C10.6,151.4,0,217.2,0,267.6z
	"/>
<path id="XMLID_7_" class="st1" d="M34.7,122.9C8,168.2,0,223.7,0,267.6c0,50.4,10.6,116.2,47.9,164.3c29.2,37.6,76.5,37.6,105.7,0
	c2.3-2.9,4.3-5.9,6.2-9.1C60,459.5-13.2,264.4,34.7,122.9z"/>
<path id="XMLID_6_" class="st3" d="M500.5,267.6c0,50.4-10.6,116.2-47.9,164.3c-29.2,37.6-76.5,37.6-105.7,0
	c-29.2-37.6-29.2-98.5,0-136.1c8.4-10.8,9.3-22.3,9.3-28.2c0-5.9-0.9-17.4-9.3-28.2c-29.2-37.6-29.2-98.5,0-136.1
	c29.2-37.6,76.5-37.6,105.7,0C490,151.4,500.5,217.2,500.5,267.6z"/>
<path id="XMLID_5_" class="st1" d="M402.1,411.5c-46.3-4.3-60.4-68.3-51.3-121.6c-1.1,2-2.3,4-3.9,5.9c-29.2,37.6-29.2,98.5,0,136.1
	c29.2,37.6,76.5,37.6,105.7,0c31.4-40.4,43.8-93.3,47-139.1C468.8,385.8,450.5,416,402.1,411.5z"/>
<path class="st1" d="M144.4,265.6c-18,6.4-27.7,24.6-32.1,35.5c-1.8,4.6-0.4,10.3,3.2,12.7c1.1,0.7,2.2,1,3.3,1
	c2.7,0,5.2-1.9,6.5-5.1c3.1-7.8,9.8-20.5,21.8-25.5c-2.5-6.7-2.8-12.8-2.8-16.6C144.4,267,144.4,266.3,144.4,265.6z M144.5,263.6
	c0.4-4.8,1.5-11.2,5-17.8c-13.4-4.2-20.8-18.1-24.1-26.3c-1.8-4.6-6.3-6.5-9.9-4.1s-5,8.1-3.2,12.7
	C116.7,239.1,126.4,257.3,144.5,263.6z"/>
<path id="XMLID_2_" class="st1" d="M385,215.4c-3.6-2.4-8-0.5-9.9,4.1c-3.3,8.3-10.7,22.2-24.1,26.3c3.5,6.6,4.6,13,5,17.8
	c18.1-6.4,27.8-24.6,32.2-35.5C390,223.5,388.6,217.8,385,215.4z"/>
<path id="XMLID_1_" class="st1" d="M375.1,309.7c1.3,3.3,3.9,5.1,6.5,5.1c1.1,0,2.3-0.3,3.3-1c3.6-2.4,5-8.1,3.2-12.7
	c-4.4-10.9-14.1-29.1-32.1-35.5c0,0.7,0,1.4,0,2c0,3.8-0.4,9.9-2.8,16.6C365.3,289.2,372,301.9,375.1,309.7z"/>
</svg>
