<svg xmlns="http://www.w3.org/2000/svg" xmlns:xlink="http://www.w3.org/1999/xlink" id="Layer_1" x="0" y="0" version="1.1" viewBox="0 0 500 500" xml:space="preserve" style="enable-background:new 0 0 500 500"><style type="text/css">.st0{fill:#556080}.st1{fill:#f5b05c}.st2{fill:#366db6}.st3{fill:#b24648}.st4{fill:#892f34}</style><path id="XMLID_12_" d="M251.5,338.3v141.1c0,11.4,7,20.7,15.5,20.7c8.6,0,15.5-9.3,15.5-20.7V313.8	C272.5,322.3,262.2,330.5,251.5,338.3z" class="st0"/><path id="XMLID_11_" d="M319.6,362.3h-13.9c-21.8,0-39.7-22.2-41.7-50.5c-7.7,8.3-15.8,16.6-24.3,24.9	c9.4,36.5,35.3,62.8,65.9,62.8h13.9c7.7,0,13.9-8.3,13.9-18.6C333.5,370.6,327.3,362.3,319.6,362.3z" class="st1"/><path id="XMLID_10_" d="M221.9,92.9c-3.8,0-7-4.2-7-9.3c0-25.6-15.6-46.4-34.9-46.4c-3.8,0-7-4.2-7-9.3	c0-5.1,3.1-9.3,7-9.3c26.9,0,48.8,29.2,48.8,65C228.9,88.7,225.8,92.9,221.9,92.9z" class="st2"/><path id="XMLID_9_" d="M242.8,92.9c-3.8,0-7-4.2-7-9.3c0-5.1,3.1-9.3,7-9.3c19.2,0,34.9-20.8,34.9-46.4	c0-5.1,3.1-9.3,7-9.3s7,4.2,7,9.3C291.7,63.7,269.8,92.9,242.8,92.9z" class="st2"/><path id="XMLID_8_" d="M229.5,123.4c4.4,1.3,8.8,2.4,13.3,3.3V18.6c0-10.3-6.3-18.6-14-18.6c-7.7,0-13.9,8.3-13.9,18.6	v101C220.2,120.8,225.2,122.1,229.5,123.4z" class="st0"/><path id="XMLID_7_" d="M47.6,92.9h7c14.3,0,26.8,9.7,34.4,24.2c9.4-3.4,19.3-5.5,29.2-6.6	c-10.9-32.2-35.2-54.7-63.5-54.7h-7c-7.7,0-13.9,8.3-13.9,18.6C33.6,84.6,39.9,92.9,47.6,92.9L47.6,92.9z" class="st1"/><path id="XMLID_6_" d="M0,0" class="st1"/><path id="XMLID_5_" d="M0,0" class="st1"/><path id="XMLID_4_" d="M64.4,156.7c1-4.3,2-8.5,3.1-12.8c5.9-22.8,13.4-45.1,24.4-64.3C122.7,26,177,19.2,224.2,22.5	c22.9,1.6,60,8.3,82.4,15c21.8,6.5,44.3,8.7,66.7,6.8c30.2-2.6,68.7-14,92.1-31c19.3-14,41.5,12.3,32.6,39.1	c-6,18.1-19,42.3-43.4,74.6c-7.8,10.3-15.5,20.8-22.8,31.7c-24.9,37.1-98.6,138.7-193.6,203c-18.1,12.3-37.4,21.7-57.4,26.6	c-19.3,4.8-51.2,20.3-69.1,70.3c-3.3,9.3-4.6,42-31.1,41.4c-6.7-0.1-13.9-15.3-15.2-37.3c-1.7-30.4-8.7-59.5-11-89.8	C49,299.7,48.3,227.3,64.4,156.7L64.4,156.7z" class="st3"/><g><path id="XMLID_3_" d="M79.8,408c-0.6,0-1.2-0.1-1.8-0.3c-2.6-0.9-4.6-3.7-5.1-7.2c-0.1-0.8-0.4-2.2-0.7-4 c-3.2-19-12.9-76.6-6.3-120.4c0.8-5,4.4-8.3,8.2-7.3c3.8,1,6.2,5.9,5.5,10.9c-3.6,24.1-2.2,57.6,4.2,99.9 c24.5-30.5,52.5-40.3,64.3-43.2c13.9-3.4,28.7-12.7,40-20.3c3.4-2.3,7.6-0.5,9.4,4.1c1.7,4.6,0.4,10.2-3.1,12.5 c-12.2,8.3-28.1,18.2-43.8,22.1c-11.9,2.9-42.2,13.7-65.6,50C83.7,406.8,81.8,408,79.8,408L79.8,408z" class="st4"/><path id="XMLID_2_" d="M79.8,212.9c-0.7,0-1.5-0.2-2.3-0.5c-3.6-1.7-5.6-7-4.3-11.8c5.2-19.9,18.1-51.8,25-63.9 c13.9-24.3,38.4-35.2,79.2-35.2c3.8,0,7,4.2,7,9.3c0,5.1-3.1,9.3-7,9.3c-36.1,0-57.1,8.6-68.1,27.9c-6.2,10.8-18.2,40.6-22.9,58.8 C85.4,210.5,82.7,212.9,79.8,212.9L79.8,212.9z" class="st4"/><path id="XMLID_1_" d="M276,310.8c11.8-11.4,23-23,33.3-34.3c22.8-69-7.3-124.2-7.7-124.9c-2.3-4.1-6.7-4.9-9.7-1.9 c-3.1,3.1-3.7,8.9-1.4,13c1.6,2.8,37.6,69.5-13.6,146.2C276.4,309.5,276.2,310.2,276,310.8L276,310.8z" class="st4"/></g></svg>