<?xml version="1.0" encoding="utf-8"?>
<!-- Generator: Adobe Illustrator 19.0.0, SVG Export Plug-In . SVG Version: 6.00 Build 0)  -->
<svg version="1.1" id="Layer_1" xmlns="http://www.w3.org/2000/svg" xmlns:xlink="http://www.w3.org/1999/xlink" x="0px" y="0px"
	 viewBox="0 0 500 500" style="enable-background:new 0 0 500 500;" xml:space="preserve">
<style type="text/css">
	.st0{fill:#BE6054;}
	.st1{opacity:0.15;fill:#F2CDB7;enable-background:new    ;}
	.st2{opacity:0.2;fill:#F2CDB7;enable-background:new    ;}
	.st3{opacity:0.5;fill:#612721;enable-background:new    ;}
	.st4{fill:#DAC69C;}
	.st5{fill:#C9AD80;}
	.st6{opacity:0.5;fill:#B69362;enable-background:new    ;}
</style>
<path id="XMLID_50_" class="st0" d="M212.9,115.1C204.1,83,167.1,70.8,142.5,92C57.1,165.3,2.7,276.7,2.7,401.5
	c0,20.5,1.5,40.7,4.3,60.4c1.9,13.2,10.9,24.1,23.1,28c21,6.6,43.3,10.2,66.4,10.2c31.9,0,62.3-6.8,90-19.1
	c8.7-3.9,15.4-11.4,18.5-20.8c19-58.3,29.4-120.9,29.4-186C234.2,218.9,226.8,165.6,212.9,115.1z"/>
<g>
	<path id="XMLID_49_" class="st1" d="M179.6,428.9l1-0.9c43.4-38.9,52.6-146.3,53.5-158.5c-0.4-53.6-7.8-105.4-21.3-154.5
		c-8.8-32.1-45.9-44.1-70.5-22.9c-64.1,55.1-110.7,131.7-130,219.3c6.9,41.3,23.5,78.9,47.5,110.3c11.2,14.6,28.4,22.6,46.2,21.5
		c11.7-0.7,25-1.1,39.9-1.1C159,442.1,170.1,437.1,179.6,428.9z"/>
	<path id="XMLID_48_" class="st1" d="M142.6,91.9C91,136.1,50.7,194.3,26.9,260.9c-2.8,7.9,0.2,16.7,7.1,21
		c34.9,22,75.7,34.6,119.4,34.6c24.1,0,47.3-3.8,69.1-11c6.7-2.2,11.3-8.7,11.5-16.1c0.1-5.1,0.2-10.2,0.2-15.4
		c0-55.2-7.4-108.5-21.3-159C204.1,83.1,167.2,70.8,142.6,91.9z"/>
	<path id="XMLID_47_" class="st2" d="M103.5,158.1c-10.8,23.2-10.9,46.9-0.2,52.8c10.7,5.9,28.2-8.2,39-31.5
		c10.8-23.3,10.9-46.9,0.2-52.8C131.7,120.7,114.3,134.8,103.5,158.1z"/>
</g>
<g>
	<path id="XMLID_46_" class="st3" d="M211.7,111.4C203,87,168.3,93.5,168,119.5c0,0.1,0,0.3,0,0.5l0,0c0,20.6,8.7,40.2,23.8,53.4
		l0,0c25.7,22.5,41.1,55.5,42.3,90.5c-0.9-51.5-8.2-101.4-21.2-148.8C212.6,113.8,212.2,112.6,211.7,111.4z"/>
	<path id="XMLID_45_" class="st3" d="M80.2,464.6c23.2,2.4,60.2,7.3,93.1-0.7c11.7-2.6,22.3-8.7,30.5-17.5
		c5.2-5.6,8.9-12.6,10.9-20.1c0,0,0-0.1,0-0.1l0,0c1.1-4.1,2.1-8.3,3.1-12.5c0.1-0.4,0.2-0.9,0.3-1.3c0.6-2.7,1.3-5.4,1.8-8.1
		c0.2-1,0.4-1.9,0.6-2.9c0.7-3.1,1.3-6.1,1.9-9.2c0.1-0.3,0.1-0.6,0.2-1l0,0c7.5-37.8,11.4-77,11.4-117.1c0-1.7,0-3.4,0-5.2
		c-0.7,9.2-9.4,119.5-53.5,159.1l-1,0.9c-9.5,8.2-20.6,13.1-33.6,13.1c-60.6,0-94,7.1-105.5,10.2c-0.5,0.1-1.2,0.9-1.2,0.9
		c-0.1,0.1-0.1,0.2-0.2,0.3c-0.7,1.3,0.1,3,1.5,3.4C53.4,460.8,66.7,463.2,80.2,464.6z"/>
</g>
<path id="XMLID_44_" class="st0" d="M289.7,115.1c8.8-32.1,45.8-44.2,70.5-23.1C445.5,165.3,500,276.7,500,401.5
	c0,20.5-1.5,40.7-4.3,60.4c-1.9,13.2-10.9,24.1-23.1,28c-21,6.6-43.3,10.2-66.3,10.2c-31.9,0-62.3-6.8-90-19.1
	c-8.7-3.9-15.4-11.4-18.5-20.8c-19-58.3-29.4-120.9-29.4-186C268.5,218.9,275.9,165.6,289.7,115.1z"/>
<g>
	<g>
		<path id="XMLID_43_" class="st1" d="M270.3,287.2L270.3,287.2L270.3,287.2L270.3,287.2L270.3,287.2L270.3,287.2L270.3,287.2
			L270.3,287.2L270.3,287.2L270.3,287.2L270.3,287.2C270.3,287.3,270.3,287.3,270.3,287.2L270.3,287.2
			C270.3,287.3,270.3,287.3,270.3,287.2L270.3,287.2L270.3,287.2L270.3,287.2C270.3,287.3,270.3,287.3,270.3,287.2L270.3,287.2
			L270.3,287.2C270.3,287.3,270.3,287.3,270.3,287.2C270.3,287.3,270.3,287.3,270.3,287.2L270.3,287.2
			C270.3,287.3,270.3,287.3,270.3,287.2L270.3,287.2L270.3,287.2L270.3,287.2c0,0.2,0.1,0.4,0.1,0.5l0,0c0,0.1,0,0.1,0,0.1
			c0,0,0,0,0,0c0,0,0,0,0,0v0v0v0v0v0c0,0,0,0,0,0c0-0.1,0-0.3-0.1-0.5c0-0.3,0.1,1.1,0,0.3c0-0.3-0.1-0.8-0.1-0.8
			S270.3,287,270.3,287.2L270.3,287.2L270.3,287.2L270.3,287.2z"/>
	</g>
</g>
<path id="XMLID_42_" class="st3" d="M270.4,287.9c-0.1-0.5-0.1-0.9-0.2-1.4C270.3,287,270.3,287.5,270.4,287.9z"/>
<path id="XMLID_41_" class="st1" d="M271.3,295.3c-0.1-0.6-0.2-1.2-0.2-1.8C271.2,294.1,271.3,294.7,271.3,295.3z"/>
<path id="XMLID_40_" class="st3" d="M271.3,295.3c-0.1-0.6-0.2-1.2-0.2-1.8C271.2,294.1,271.3,294.7,271.3,295.3z"/>
<path id="XMLID_39_" class="st1" d="M271,292.7c-0.1-0.5-0.1-1-0.2-1.6C270.8,291.6,270.9,292.2,271,292.7z"/>
<path id="XMLID_38_" class="st3" d="M271,292.7c-0.1-0.5-0.1-1-0.2-1.6C270.8,291.6,270.9,292.2,271,292.7z"/>
<path id="XMLID_37_" class="st1" d="M270.7,290.2c-0.1-0.5-0.1-1-0.2-1.5C270.5,289.3,270.6,289.7,270.7,290.2z"/>
<path id="XMLID_36_" class="st3" d="M270.7,290.2c-0.1-0.5-0.1-1-0.2-1.5C270.5,289.3,270.6,289.7,270.7,290.2z"/>
<path id="XMLID_35_" class="st1" d="M391.9,443c-0.3,0-0.5,0-0.8-0.1C391.4,442.9,391.7,442.9,391.9,443z"/>
<path id="XMLID_34_" class="st3" d="M391.9,443c-0.3,0-0.5,0-0.8-0.1C391.4,442.9,391.7,442.9,391.9,443z"/>
<path id="XMLID_33_" class="st1" d="M268.6,271c0-0.2,0-0.3,0-0.5C268.6,270.7,268.6,270.8,268.6,271z"/>
<path id="XMLID_32_" class="st3" d="M268.6,271c0-0.2,0-0.3,0-0.5C268.6,270.7,268.6,270.8,268.6,271z"/>
<path id="XMLID_31_" class="st1" d="M268.7,272c0-0.2,0-0.4,0-0.5C268.7,271.6,268.7,271.8,268.7,272z"/>
<path id="XMLID_30_" class="st3" d="M268.7,272c0-0.2,0-0.4,0-0.5C268.7,271.6,268.7,271.8,268.7,272z"/>
<path id="XMLID_29_" class="st1" d="M270.1,285.7c-0.1-0.5-0.1-0.9-0.2-1.3C270,284.8,270.1,285.3,270.1,285.7z"/>
<path id="XMLID_28_" class="st3" d="M270.1,285.7c-0.1-0.5-0.1-0.9-0.2-1.3C270,284.8,270.1,285.3,270.1,285.7z"/>
<path id="XMLID_27_" class="st1" d="M268.5,269.8c0,0.1,0,0.2,0,0.4C268.5,270,268.5,269.9,268.5,269.8z"/>
<path id="XMLID_26_" class="st3" d="M268.5,269.8c0,0.1,0,0.2,0,0.4C268.5,270,268.5,269.9,268.5,269.8z"/>
<path id="XMLID_25_" class="st1" d="M392.2,443c1.5,0.1,3,0.2,4.4,0.3c0,0,0,0,0,0c-1.3-0.1-2.6-0.1-3.9-0.2
	C392.5,443,392.3,443,392.2,443z"/>
<path id="XMLID_24_" class="st3" d="M392.2,443c1.5,0.1,3,0.2,4.4,0.3c0,0,0,0,0,0c-1.3-0.1-2.6-0.1-3.9-0.2
	C392.5,443,392.3,443,392.2,443z"/>
<path id="XMLID_23_" class="st1" d="M268.8,273.2c0-0.2,0-0.4-0.1-0.7C268.8,272.7,268.8,272.9,268.8,273.2z"/>
<path id="XMLID_22_" class="st3" d="M268.8,273.2c0-0.2,0-0.4-0.1-0.7C268.8,272.7,268.8,272.9,268.8,273.2z"/>
<path id="XMLID_21_" class="st1" d="M269.9,283.6c-0.1-0.5-0.1-0.9-0.2-1.4C269.8,282.7,269.8,283.2,269.9,283.6z"/>
<path id="XMLID_20_" class="st3" d="M269.9,283.6c-0.1-0.5-0.1-0.9-0.2-1.4C269.8,282.7,269.8,283.2,269.9,283.6z"/>
<path id="XMLID_19_" class="st1" d="M269.7,281.7c-0.1-1.3-0.3-2.5-0.4-3.6C269.4,279.2,269.5,280.4,269.7,281.7z"/>
<path id="XMLID_18_" class="st3" d="M269.7,281.7c-0.1-1.3-0.3-2.5-0.4-3.6C269.4,279.2,269.5,280.4,269.7,281.7z"/>
<path id="XMLID_17_" class="st1" d="M269.2,277.6c0-0.4-0.1-0.7-0.1-1.1C269.1,276.9,269.2,277.2,269.2,277.6z"/>
<path id="XMLID_16_" class="st3" d="M269.2,277.6c0-0.4-0.1-0.7-0.1-1.1C269.1,276.9,269.2,277.2,269.2,277.6z"/>
<path id="XMLID_15_" class="st1" d="M269.1,275.9c0-0.3-0.1-0.6-0.1-0.9C269,275.3,269,275.6,269.1,275.9z"/>
<path id="XMLID_14_" class="st3" d="M269.1,275.9c0-0.3-0.1-0.6-0.1-0.9C269,275.3,269,275.6,269.1,275.9z"/>
<path id="XMLID_13_" class="st1" d="M268.9,274.5c0-0.3,0-0.5-0.1-0.8C268.9,273.9,268.9,274.2,268.9,274.5z"/>
<path id="XMLID_12_" class="st3" d="M268.9,274.5c0-0.3,0-0.5-0.1-0.8C268.9,273.9,268.9,274.2,268.9,274.5z"/>
<path id="XMLID_11_" class="st1" d="M360.1,91.9c51.6,44.2,91.9,102.4,115.7,169.1c2.8,7.9-0.2,16.7-7.1,21
	c-34.9,22-75.7,34.6-119.4,34.6c-24.1,0-47.3-3.8-69.1-11c-6.7-2.2-11.3-8.7-11.5-16.1c-0.1-5.1-0.2-10.2-0.2-15.4
	c0-55.2,7.4-108.5,21.3-159C298.5,83.1,335.5,70.8,360.1,91.9z"/>
<g>
	<path id="XMLID_10_" class="st3" d="M290.9,111.4c8.8-24.3,43.4-17.9,43.7,8.1c0,0.1,0,0.3,0,0.5l0,0c0,20.6-8.7,40.2-23.8,53.4
		l0,0c-25.7,22.5-41.1,55.5-42.3,90.5c0.9-51.5,8.2-101.4,21.2-148.8C290.1,113.8,290.5,112.6,290.9,111.4z"/>
	<path id="XMLID_9_" class="st3" d="M463.7,453.5c-0.1-0.1-0.1-0.2-0.2-0.3c0,0-0.7-0.7-1.2-0.9c-8.7-2.3-29.8-6.9-65.6-9.1
		c0,0,0,0,0,0c-1.4-0.1-2.9-0.2-4.4-0.2c-0.1,0-0.2,0-0.2,0c-0.3,0-0.5,0-0.8,0c-6.8-0.3-18.1-0.6-25.9-0.8c0,0-0.1,0-0.1,0
		c-4.7-0.2-8.3-4.2-8.2-9l0.8-27.4c0.6-19.8-11.9-37.5-30.3-43.1l0,0c-29.7-9-51.6-35.1-56-66.7c0,0,0,0,0,0c0-0.2-0.1-0.4-0.1-0.6
		c-0.1-0.6-0.2-1.2-0.2-1.8c0-0.3-0.1-0.6-0.1-0.9c-0.1-0.5-0.1-1-0.2-1.6c0-0.3-0.1-0.6-0.1-0.9c-0.1-0.5-0.1-1-0.2-1.5
		c0-0.3-0.1-0.6-0.1-0.9c-0.1-0.5-0.1-0.9-0.2-1.4c0-0.3-0.1-0.5-0.1-0.8c-0.1-0.5-0.1-0.9-0.2-1.3c0-0.2-0.1-0.5-0.1-0.7
		c-0.1-0.5-0.1-0.9-0.2-1.4c0-0.2,0-0.4-0.1-0.6c-0.1-1.3-0.3-2.5-0.4-3.6c0-0.2,0-0.3,0-0.5c0-0.4-0.1-0.7-0.1-1.1
		c0-0.2,0-0.4-0.1-0.6c0-0.3-0.1-0.6-0.1-0.9c0-0.2,0-0.4-0.1-0.6c0-0.3,0-0.5-0.1-0.8c0-0.2,0-0.4,0-0.5c0-0.2,0-0.4-0.1-0.7
		c0-0.2,0-0.3,0-0.5c0-0.2,0-0.4,0-0.5c0-0.1,0-0.3,0-0.4c0-0.2,0-0.3,0-0.5c0-0.1,0-0.3,0-0.4c0-0.1,0-0.3,0-0.4
		c0-0.3,0-0.6-0.1-0.8c0,1.7,0,3.4,0,5.2c0,40.1,3.9,79.3,11.4,117.1l0,0c0.1,0.3,0.1,0.6,0.2,1c0.6,3.1,1.2,6.1,1.9,9.2
		c0.2,1,0.4,1.9,0.6,2.9c0.6,2.7,1.2,5.4,1.8,8.1c0.1,0.4,0.2,0.9,0.3,1.3c1,4.2,2,8.3,3.1,12.5l0,0c0,0,0,0.1,0,0.1
		c2,7.6,5.7,14.5,10.9,20.1c8.2,8.8,18.9,15,30.5,17.5c32.9,8,69.9,3.1,93.1,0.7c13.5-1.4,26.8-3.7,39.7-7.7
		C463.5,456.4,464.3,454.8,463.7,453.5z"/>
</g>
<path id="XMLID_8_" class="st4" d="M310.8,173.3L310.8,173.3c2.5-2.2,4.7-4.5,6.9-7l-39.9-34.2c-2.6-2.2-4.1-5.5-4.1-8.9V23.8
	c0-12.6-9.5-23.3-21.8-23.8c-12.8-0.5-23.4,10.1-23.4,23.2v99.9c0,3.4-1.5,6.7-4.1,8.9l-39.7,34c2.2,2.5,4.5,4.9,7,7.2l0,0
	c9.1,8,16.9,17.2,23.2,27.4l28.9-24.8c4.2-3.6,10.3-3.6,14.5,0l29.1,25C293.8,190.7,301.7,181.3,310.8,173.3z"/>
<g>
	<path id="XMLID_7_" class="st5" d="M273.7,56.6V23.8c0-0.1,0-0.3,0-0.4c0,5.9-2.2,11.8-6.6,16.3c-8.8,9.1-23.1,9.1-31.9,0
		c-5.4-5.6-7.5-13.3-6.2-20.6c-0.2,1.3-0.4,2.7-0.4,4.2v33.4c6.8,4.9,14.7,7.3,22.6,7.3C259.1,63.9,267,61.5,273.7,56.6z"/>
	<path id="XMLID_6_" class="st5" d="M228.6,90.9c0,0.2,0,0.4,0,0.6c6.8,4.8,14.7,7.2,22.6,7.2s15.8-2.4,22.6-7.2c0-0.2,0-0.4,0-0.6
		h0V57.7h0c0.2,6.4-2.2,12.4-6.6,16.9c-8.8,9-23.2,9-32,0c-4.4-4.5-6.7-10.5-6.6-16.9h0L228.6,90.9L228.6,90.9z"/>
	<path id="XMLID_5_" class="st5" d="M273.8,124.6c-0.1-0.5-0.1-0.9-0.1-1.4V91.5c0,0,0,0,0,0c0,6.2-2.3,11.9-6.6,16.3
		c-8.8,9-23.2,9-32,0c-4.3-4.4-6.6-10.1-6.6-16.3c0,0,0,0,0,0v31.7c0,0.5,0,1-0.1,1.4l0.1,0c0,0,0,0.1,0,0.1
		c6.8,4.8,14.7,7.2,22.6,7.2c7.9,0,15.8-2.4,22.6-7.2c0,0,0-0.1,0-0.1L273.8,124.6z"/>
	<path id="XMLID_4_" class="st5" d="M284.1,137.5l-6.3-5.4c-2.2-1.9-3.6-4.6-4-7.5c0,0-0.1,0.1-0.1,0.1c0.1,6.3-2.2,12.3-6.6,16.8
		c-8.8,9-23.2,9-32,0c-4.4-4.5-6.7-10.4-6.6-16.8c0,0-0.1-0.1-0.1-0.1c-0.4,2.9-1.8,5.6-4,7.5l-5.9,5.1l-4,3.4
		c2,4.9,4.9,9.4,8.6,13.2c7.7,7.9,17.8,11.8,28,11.8c10.1,0,20.2-3.9,27.9-11.8c3.8-3.9,6.7-8.3,8.6-13.2L284.1,137.5z"/>
	<ellipse id="XMLID_3_" class="st5" cx="251.1" cy="23.3" rx="8.5" ry="8.7"/>
</g>
<g>
	<path id="XMLID_2_" class="st6" d="M277.8,132.1c-2.6-2.2-4.1-5.5-4.1-8.9V23.8c0-0.1,0-0.1,0-0.2c-0.1,5.8-2.3,11.7-6.6,16.1
		c-1.4,1.5-3,2.7-4.7,3.7c-7,4.1-11.3,11.8-11.3,20.1v59.7c0,10.4,4.5,20.2,12.2,26.8l38,32.6c3-3.3,6.1-6.4,9.5-9.3l0,0
		c2.5-2.2,4.7-4.5,6.9-7L277.8,132.1z"/>
	<path id="XMLID_1_" class="st6" d="M201.8,183.1L201.8,183.1c5,5.5,9.4,11.4,13.3,17.7l28.9-24.8c2.1-1.8,4.7-2.7,7.2-2.7h-23
		C218.5,173.3,209.2,176.8,201.8,183.1z"/>
</g>
</svg>
