<?xml version="1.0" encoding="utf-8"?>
<!-- Generator: Adobe Illustrator 19.0.0, SVG Export Plug-In . SVG Version: 6.00 Build 0)  -->
<svg version="1.1" id="Layer_1" xmlns="http://www.w3.org/2000/svg" xmlns:xlink="http://www.w3.org/1999/xlink" x="0px" y="0px"
	 viewBox="0 0 500 500" style="enable-background:new 0 0 500 500;" xml:space="preserve">
<style type="text/css">
	.st0{fill:#EB866C;}
	.st1{fill:#FDD9B1;}
	.st2{fill:#F2CA9C;}
	.st3{fill:#FFE4C4;}
	.st4{fill:#FA6F5F;}
	.st5{fill:#EB5E4E;}
</style>
<g>
	<path id="XMLID_28_" class="st0" d="M315.4,144.8H184.6c-10.2,0-18.5-7-18.5-15.6V82.7c0-8.6,8.3-15.6,18.5-15.6h130.8
		c10.2,0,18.5,7,18.5,15.6v46.5C333.9,137.8,325.6,144.8,315.4,144.8z"/>
	<path id="XMLID_27_" class="st1" d="M315.4,144.8H184.6c-10.2,0-18.5-7-18.5-15.6V82.7c0-8.6,8.3-15.6,18.5-15.6h130.8
		c10.2,0,18.5,7,18.5,15.6v46.5C333.9,137.8,325.6,144.8,315.4,144.8z"/>
	<path id="XMLID_26_" class="st2" d="M316.2,67.2h-35.4c9.7,0,17.6,7.3,17.6,16.3v45c0,9-7.9,16.3-17.6,16.3h35.4
		c9.7,0,17.6-7.3,17.6-16.3v-45C333.9,74.5,326,67.2,316.2,67.2z"/>
	<path id="XMLID_25_" class="st0" d="M315.4,286.1H184.6c-10.2,0-18.5-7-18.5-15.6V224c0-8.6,8.3-15.6,18.5-15.6h130.8
		c10.2,0,18.5,7,18.5,15.6v46.5C333.9,279.1,325.6,286.1,315.4,286.1z"/>
	<path id="XMLID_24_" class="st1" d="M315.4,286.1H184.6c-10.2,0-18.5-7-18.5-15.6V224c0-8.6,8.3-15.6,18.5-15.6h130.8
		c10.2,0,18.5,7,18.5,15.6v46.5C333.9,279.1,325.6,286.1,315.4,286.1z"/>
	<path id="XMLID_23_" class="st2" d="M316.2,208.5h-35.4c9.7,0,17.6,7.3,17.6,16.3v45c0,9-7.9,16.3-17.6,16.3h35.4
		c9.7,0,17.6-7.3,17.6-16.3v-45C333.9,215.8,326,208.5,316.2,208.5z"/>
	<path id="XMLID_22_" class="st0" d="M315.4,427.4H184.6c-10.2,0-18.5-7-18.5-15.6v-46.5c0-8.6,8.3-15.6,18.5-15.6h130.8
		c10.2,0,18.5,7,18.5,15.6v46.5C333.9,420.4,325.6,427.4,315.4,427.4z"/>
	<path id="XMLID_21_" class="st1" d="M315.4,427.4H184.6c-10.2,0-18.5-7-18.5-15.6v-46.5c0-8.6,8.3-15.6,18.5-15.6h130.8
		c10.2,0,18.5,7,18.5,15.6v46.5C333.9,420.4,325.6,427.4,315.4,427.4z"/>
	<path id="XMLID_20_" class="st2" d="M316.2,349.8h-35.4c9.7,0,17.6,7.3,17.6,16.3v45c0,9-7.9,16.3-17.6,16.3h35.4
		c9.7,0,17.6-7.3,17.6-16.3v-45C333.9,357.1,326,349.8,316.2,349.8L316.2,349.8z"/>
	<path id="XMLID_19_" class="st0" d="M316.2,70.7H183.8c-9.7,0-17.6-6.7-17.6-14.9V14.9C166.1,6.7,174,0,183.8,0h132.5
		c9.7,0,17.6,6.7,17.6,14.9v40.9C333.9,64,326,70.7,316.2,70.7z"/>
	<path id="XMLID_18_" class="st3" d="M316.2,70.7H183.8c-9.7,0-17.6-6.7-17.6-14.9V14.9C166.1,6.7,174,0,183.8,0h132.5
		c9.7,0,17.6,6.7,17.6,14.9v40.9C333.9,64,326,70.7,316.2,70.7z"/>
	<path id="XMLID_17_" class="st1" d="M316.2,0h-35.4c9.7,0,17.6,6.7,17.6,14.9v40.9c0,8.2-7.9,14.9-17.6,14.9h35.4
		c9.7,0,17.6-6.7,17.6-14.9V14.9C333.9,6.7,326,0,316.2,0z"/>
	<path id="XMLID_16_" class="st0" d="M316.2,211.9H183.8c-9.7,0-17.6-6.7-17.6-14.9v-40.9c0-8.2,7.9-14.9,17.6-14.9h132.5
		c9.7,0,17.6,6.7,17.6,14.9v40.9C333.9,205.3,326,211.9,316.2,211.9z"/>
	<path id="XMLID_15_" class="st3" d="M316.2,211.9H183.8c-9.7,0-17.6-6.7-17.6-14.9v-40.9c0-8.2,7.9-14.9,17.6-14.9h132.5
		c9.7,0,17.6,6.7,17.6,14.9v40.9C333.9,205.3,326,211.9,316.2,211.9z"/>
	<path id="XMLID_14_" class="st1" d="M316.2,141.3h-35.4c9.7,0,17.6,6.7,17.6,14.9v40.9c0,8.2-7.9,14.9-17.6,14.9h35.4
		c9.7,0,17.6-6.7,17.6-14.9v-40.9C333.9,147.9,326,141.3,316.2,141.3z"/>
	<path id="XMLID_13_" class="st0" d="M316.2,353.2H183.8c-9.7,0-17.6-6.6-17.6-14.9v-40.9c0-8.2,7.9-14.9,17.6-14.9h132.5
		c9.7,0,17.6,6.7,17.6,14.9v40.9C333.9,346.6,326,353.2,316.2,353.2z"/>
	<path id="XMLID_12_" class="st3" d="M316.2,353.2H183.8c-9.7,0-17.6-6.6-17.6-14.9v-40.9c0-8.2,7.9-14.9,17.6-14.9h132.5
		c9.7,0,17.6,6.7,17.6,14.9v40.9C333.9,346.6,326,353.2,316.2,353.2z"/>
	<path id="XMLID_11_" class="st1" d="M316.2,282.6h-35.4c9.7,0,17.6,6.7,17.6,14.9v40.9c0,8.2-7.9,14.9-17.6,14.9h35.4
		c9.7,0,17.6-6.6,17.6-14.9v-40.9C333.9,289.2,326,282.6,316.2,282.6z"/>
	<path id="XMLID_10_" class="st0" d="M316.2,494.5H183.8c-9.7,0-17.6-6.7-17.6-14.9v-40.9c0-8.2,7.9-14.8,17.6-14.8h132.5
		c9.7,0,17.6,6.6,17.6,14.8v40.9C333.9,487.9,326,494.5,316.2,494.5z"/>
	<path id="XMLID_9_" class="st3" d="M316.2,494.5H183.8c-9.7,0-17.6-6.7-17.6-14.9v-40.9c0-8.2,7.9-14.8,17.6-14.8h132.5
		c9.7,0,17.6,6.6,17.6,14.8v40.9C333.9,487.9,326,494.5,316.2,494.5z"/>
	<path id="XMLID_8_" class="st1" d="M316.2,423.9h-35.4c9.7,0,17.6,6.6,17.6,14.8v40.9c0,8.2-7.9,14.9-17.6,14.9h35.4
		c9.7,0,17.6-6.7,17.6-14.9v-40.9C333.9,430.5,326,423.9,316.2,423.9z"/>
	<path id="XMLID_7_" class="st4" d="M494,126.9c-15.7,29.2-54,109.5-77.7,162s-104.2,48-130.8,20.3c-19.8-20.6-51.2-20.6-71,0
		c-26.6,27.7-107.1,32.1-130.8-20.3C60,236.5,21.7,156.1,6,126.9C-9.7,97.7,3.7,52.8,65.6,52.8c61.9,0,89.5,36.7,98.7,48.4
		c9.1,11.7,162.4,11.7,171.6,0c9.1-11.7,36.8-48.4,98.7-48.4C496.3,52.8,509.7,97.7,494,126.9L494,126.9z"/>
	<g>
		<path id="XMLID_6_" class="st5" d="M434.4,52.8c-6.6,0-12.9,0.4-18.7,1.2c47.5,7.3,57.1,46.5,42.9,72.9
			c-15.7,29.2-54,109.5-77.7,162c-10.4,23-31.8,35.1-54.8,39.1c33.5,5.6,74.4-4.1,90.1-39.1c23.7-52.5,62-132.8,77.7-162
			C509.7,97.7,496.3,52.8,434.4,52.8z"/>
	</g>
	<g>
		<path id="XMLID_5_" class="st5" d="M162.3,170.2c-1.9-3.7-6.9-5.4-11.3-3.8c-12.2,4.4-26.4-0.5-31.6-10.8
			c-1.9-3.7-6.9-5.4-11.3-3.9c-4.4,1.6-6.4,5.8-4.6,9.5c8.9,17.6,33.1,26,54.2,18.4C162.1,178.2,164.2,173.9,162.3,170.2
			L162.3,170.2z"/>
		<path id="XMLID_4_" class="st5" d="M198,231.9c-10.3,7.2-25.4,6-33.9-2.7c-3-3.1-8.5-3.5-12.1-0.9c-3.7,2.6-4.2,7.1-1.1,10.2
			c14.6,14.8,40.6,16.8,58.2,4.6c3.7-2.6,4.2-7.1,1.1-10.2C207.1,229.8,201.6,229.4,198,231.9L198,231.9z"/>
		<path id="XMLID_3_" class="st5" d="M391.8,151.8c-4.4-1.6-9.4,0.1-11.3,3.9c-5.2,10.3-19.4,15.1-31.6,10.8
			c-4.4-1.6-9.4,0.2-11.3,3.8c-1.9,3.7,0.2,7.9,4.6,9.5c21,7.5,45.3-0.8,54.2-18.4C398.3,157.6,396.2,153.4,391.8,151.8z"/>
		<path id="XMLID_2_" class="st5" d="M348.1,228.3c-3.6-2.6-9.1-2.1-12.1,1c-8.5,8.6-23.7,9.8-33.9,2.7c-3.7-2.6-9.1-2.1-12.1,0.9
			c-3,3.1-2.5,7.7,1.1,10.2c17.6,12.3,43.7,10.1,58.2-4.6C352.2,235.4,351.7,230.9,348.1,228.3L348.1,228.3z"/>
		<path id="XMLID_1_" class="st5" d="M267.1,170.6c-9.5,7.8-24.8,7.6-34.1-0.4c-3.3-2.9-8.8-2.9-12.2-0.1c-3.4,2.8-3.5,7.4-0.2,10.2
			c15.9,13.8,42.1,14,58.4,0.6c3.4-2.8,3.5-7.4,0.2-10.2C276,167.9,270.5,167.8,267.1,170.6z"/>
	</g>
</g>
</svg>
