<?xml version="1.0" encoding="utf-8"?>
<!-- Generator: Adobe Illustrator 19.0.0, SVG Export Plug-In . SVG Version: 6.00 Build 0)  -->
<svg version="1.1" id="Layer_1" xmlns="http://www.w3.org/2000/svg" xmlns:xlink="http://www.w3.org/1999/xlink" x="0px" y="0px"
	 viewBox="0 0 500 500" style="enable-background:new 0 0 500 500;" xml:space="preserve">
<style type="text/css">
	.st0{fill:#BDC0C9;}
	.st1{fill:#F5DC60;}
	.st2{fill:#DDC448;}
	.st3{fill:#D6D8E0;}
	.st4{fill:#DE5866;}
	.st5{fill:#77BF9A;}
	.st6{fill:#FFFFFF;}
	.st7{fill:#C6475C;}
</style>
<g>
	<path id="XMLID_20_" class="st0" d="M64.2,80.4h293.5v74H64.2V80.4z"/>
	<path id="XMLID_19_" class="st1" d="M374.1,107.4H47.7v-90C47.7,7.8,57.4,0,69.3,0h283.2c11.9,0,21.6,7.8,21.6,17.4L374.1,107.4
		L374.1,107.4z"/>
	<path id="XMLID_18_" class="st2" d="M151.5,0c-11.9,0-21.6,7.8-21.6,17.4v90H47.7v-90C47.7,7.8,57.4,0,69.3,0H151.5L151.5,0z"/>
	<path id="XMLID_17_" class="st3" d="M373.6,500H48.2C21.6,500,0,482.6,0,461.1V179c0-21.5,21.6-38.9,48.2-38.9h325.4
		c26.6,0,48.2,17.4,48.2,38.9v282.2C421.8,482.6,400.2,500,373.6,500z"/>
	<path id="XMLID_16_" class="st0" d="M135.1,500H48.2C21.6,500,0,482.6,0,461.1V179c0-21.5,21.6-38.9,48.2-38.9h86.9
		c-26.6,0-48.2,17.4-48.2,38.9v282.2C86.9,482.6,108.5,500,135.1,500z"/>
	<ellipse id="XMLID_15_" class="st4" cx="284.8" cy="279.1" rx="88.8" ry="71.6"/>
	<path id="XMLID_14_" class="st2" d="M47.7,65.1h326.3v15.3H47.7V65.1z"/>
	<path id="XMLID_13_" class="st1" d="M229.9,307.6c0,41.7-41.9,75.5-93.6,75.5c-18.1,0-35-4.1-49.3-11.3
		c-26.6-13.3-44.3-37.1-44.3-64.2c0-27.1,17.7-50.9,44.3-64.2c14.3-7.2,31.2-11.3,49.3-11.3C188,232.1,229.9,265.9,229.9,307.6z"/>
	<ellipse id="XMLID_12_" class="st5" cx="222" cy="388" rx="73.6" ry="59.4"/>
	<path id="XMLID_11_" class="st2" d="M86.9,243.4v128.4c-26.6-13.3-44.3-37.1-44.3-64.2C42.7,280.5,60.4,256.7,86.9,243.4z"/>
	<g>
		<path id="XMLID_10_" class="st6" d="M129.7,278.7c7.7,0,11.3,2.6,11.7,8.5c0.1,1.4,1,6,9.9,6c6.8,0,9.9-2.5,9.9-8.2
			c0-12.4-13.2-21.1-32-21.1c-19.7,0-31.4,9.5-31.4,25.4v29.8c0,16.2,11.4,25.4,31.3,25.4c18.9,0,32.1-8.9,32.1-21.7
			c0-5.6-3.2-8.2-10-8.2c-8.3,0-9.6,4.2-9.8,5.9c-0.6,5.1-1.8,9.3-11.5,9.3c-8.5,0-12.3-3.3-12.3-10.7v-29.8
			C117.6,282,121.3,278.7,129.7,278.7L129.7,278.7z"/>
		<path class="st6" d="M322,275.6c4.9-3.6,7.7-9.3,7.7-16.3c0-13.5-9.7-20.3-28.8-20.3h-23.1c-5.3,0-9.1,2.6-9.1,6.1V313
			c0,3.4,3.9,6,9.1,6h25.8c18.4,0,28.5-8.6,28.5-24.1V293C331.9,284.7,328.8,279.1,322,275.6L322,275.6z M312.1,292.5v1.6
			c0,7-3.5,10.2-11.2,10.2h-12.7v-21.6h12.7C310.2,282.8,312.1,286.7,312.1,292.5z M288.2,269v-15.3h11.7c8.8,0,9.9,3.9,9.9,7.3
			c0,5.6-2.9,8-9.7,8L288.2,269L288.2,269z"/>
		<path class="st6" d="M240.9,352.1h-20.2c-4.6,0-8.2,2.4-8.2,5.4v61c0,3,3.6,5.4,8.2,5.4h20.2c18.1,0,28.5-8.3,28.5-22.8v-26.2
			C269.4,360.4,259,352.1,240.9,352.1L240.9,352.1z M240.9,410.7h-10.6v-45.4h10.6c7.3,0,10.7,3,10.7,9.6v26.2
			C251.6,407.7,248.2,410.7,240.9,410.7z"/>
	</g>
	<path id="XMLID_4_" class="st4" d="M500,466.2c0,18.6-18.7,33.8-41.8,33.8h-94.7c-11.5,0-22-3.8-29.6-9.9
		c-7.6-6.1-12.2-14.5-12.2-23.9c0-18.6,18.7-33.7,41.8-33.7h94.7c11.6,0,22,3.8,29.6,9.9C495.3,448.5,500,456.9,500,466.2z"/>
	<path id="XMLID_3_" class="st7" d="M458.2,478.2h-94.7c-11.5,0-22-3.8-29.6-9.9c-4.5-3.6-7.9-8-10-13c-1.4,3.4-2.2,7.1-2.2,10.9
		c0,9.3,4.7,17.8,12.2,23.9c7.6,6.1,18,9.9,29.6,9.9h94.7c23.1,0,41.8-15.1,41.8-33.7c0-3.8-0.8-7.5-2.2-10.9
		C492.2,468.7,476.6,478.2,458.2,478.2L458.2,478.2z"/>
	<path id="XMLID_2_" class="st1" d="M500,466.2c0,18.6-18.7,33.8-41.8,33.8h-47.3v-67.5h47.3c11.6,0,22,3.8,29.6,9.9
		c4.5,3.6,8,8.1,10,13C499.2,458.8,500,462.5,500,466.2L500,466.2z"/>
	<path id="XMLID_1_" class="st2" d="M500,466.2c0,18.6-18.7,33.8-41.8,33.8h-47.3v-21.8h47.3c18.4,0,34-9.6,39.6-22.9c0,0,0,0,0,0.1
		C499.2,458.8,500,462.5,500,466.2z"/>
</g>
</svg>
