<svg id="Capa_1" enable-background="new 0 0 512 512" height="512" viewBox="0 0 512 512" width="512" xmlns="http://www.w3.org/2000/svg"><g><path d="m301 277.5h-90v39h-39v90h39v39h90v-39h39v-90h-39zm9 69v30h-39v39h-30v-39h-39v-30h39v-39h30v39z" fill="#ff6363"/><path d="m394.617 76.5-48.788-70h-179.658l-48.788 70h-117.383v429h512c0-93.175 0-339.526 0-429zm-212.788-40h148.342l27.878 40h-204.098zm300.171 439h-452v-249h30v60h90v-60h212v60h90v-60h30zm-392-249h30v30h-30zm302 0h30v30h-30zm-362-30v-90h452v90z" fill="#ff6363"/></g></svg>