<svg width="87" height="77" viewBox="0 0 87 77" fill="none" xmlns="http://www.w3.org/2000/svg">
<path fill-rule="evenodd" clip-rule="evenodd" d="M68.3817 33.7695C67.5826 33.7475 66.8037 34.0224 66.1958 34.541C66.1122 34.4751 65.8331 34.4142 65.577 34.3583C65.3834 34.316 65.203 34.2766 65.1299 34.2401C65.1966 34.0651 65.0764 33.8833 64.9516 33.6948C64.8454 33.5343 64.7359 33.3689 64.7359 33.1986V32.7048C64.7359 31.617 64.7359 30.6526 63.8091 30.1357C63.8411 30.0503 63.9323 29.9649 64.0243 29.8788C64.1318 29.7781 64.2404 29.6765 64.257 29.5725C64.752 29.7522 65.2753 29.841 65.8019 29.8348C65.9359 29.8348 65.9834 29.8348 66.0286 29.8246C66.0535 29.8189 66.0776 29.8102 66.115 29.7967C66.1429 29.7866 66.1782 29.7738 66.2267 29.7577C66.5666 30.8378 68.6289 31.725 68.6289 31.725C74.0358 31.725 74.0358 25.8076 68.6289 25.8076H68.8452C68.8038 24.7477 68.2204 23.7834 67.3004 23.2539C70.1506 21.8883 69.7412 16.6807 65.8791 16.6807C62.0171 16.6807 61.569 21.8883 64.4115 23.2539C63.4102 23.7773 62.746 24.7754 62.6504 25.9002C62.2829 25.7181 61.8849 25.6056 61.4764 25.5684C61.3922 25.0425 61.1621 24.5506 60.8121 24.1488C60.7494 23.9816 60.6745 23.8191 60.5881 23.6628C60.5465 23.5812 60.4974 23.5037 60.4413 23.4313C60.3068 23.1693 60.1322 22.9298 59.9238 22.7216C59.3675 22.169 58.6151 21.8584 57.8306 21.8575H57.5062C57.4284 21.4935 57.2983 21.1427 57.1199 20.8159C56.8223 20.3182 56.4056 19.9019 55.9073 19.6047C55.45 19.3373 54.9373 19.1789 54.4088 19.1418C54.1912 18.8947 53.9292 18.6906 53.6364 18.54C53.4251 18.4327 53.2192 18.3164 53.0127 18.1999C52.7888 18.0734 52.5641 17.9466 52.331 17.8302C51.5082 17.4057 50.5996 17.1735 49.6739 17.1513C48.04 17.1193 46.6896 18.4164 46.6576 20.0483C46.6256 21.6802 47.9242 23.0291 49.558 23.061C49.7098 23.1417 49.8603 23.225 50.0105 23.3082C50.2195 23.424 50.4282 23.5396 50.6394 23.6474C51.0266 23.8461 51.4491 23.9667 51.883 24.0023C51.9968 24.1327 52.1208 24.2539 52.2537 24.3649C52.3326 24.4724 52.4205 24.573 52.5164 24.6657C53.0705 25.2226 53.8236 25.5362 54.6096 25.5375C54.7228 25.5448 54.8363 25.5448 54.9495 25.5375C55.014 25.8666 55.1342 26.1823 55.3048 26.4711C55.3445 26.5536 55.3938 26.6313 55.4515 26.7025C55.5059 26.8072 55.5679 26.9078 55.6369 27.0034C55.6515 27.1239 55.6774 27.2427 55.7142 27.3583C55.1603 27.6437 54.7233 28.1129 54.4783 28.6853C53.9114 27.982 53.0646 27.5619 52.161 27.5357C51.3751 27.5371 50.6219 27.8507 50.0678 28.4075C49.9101 28.562 49.7726 28.7356 49.6584 28.9245C49.1118 27.8216 47.9614 27.1486 46.731 27.2117C46.1379 27.2008 45.5523 27.3444 45.0317 27.6283C44.4332 26.7059 43.3888 26.1711 42.2896 26.2242C41.55 26.2029 40.8252 26.4343 40.235 26.88C39.6755 25.8199 38.5522 25.1793 37.3539 25.2367C35.8365 25.1789 34.4917 26.205 34.1484 27.6823C33.5297 27.1507 32.7314 26.8748 31.9161 26.9108C30.6829 26.8615 29.5349 27.5374 28.9809 28.639C28.1346 27.7259 26.8513 27.3568 25.6484 27.6806C24.4456 28.0045 23.5218 28.9678 23.2496 30.182C23.1059 30.005 22.9456 29.8423 22.7707 29.696C23.5993 28.6534 23.7614 27.2306 23.1885 26.0287C22.6156 24.8268 21.4076 24.0556 20.075 24.0408H19.7428C17.8337 24.0742 16.2989 25.6209 16.2824 27.528C16.4038 28.6855 17.05 29.7235 18.0358 30.344C17.7141 30.9548 17.5925 31.651 17.6882 32.3345V32.6663C17.5874 33.6246 17.9252 34.5772 18.6074 35.2585H18.3293C17.4932 35.2101 16.6742 35.5088 16.0662 36.084C15.7079 36.4596 15.4433 36.9142 15.2937 37.411C15.2937 37.4459 15.3839 37.4925 15.4884 37.5466C15.638 37.6241 15.8172 37.7168 15.8035 37.8122L15.3401 37.6348C9.93319 37.6348 9.93319 43.5522 15.3401 43.5522C15.3401 43.5522 17.1244 42.6495 17.4488 41.5463C17.7219 41.7256 18.0411 41.8221 18.3679 41.824C19.5722 41.8043 20.6293 41.0186 20.9942 39.8721C21.317 39.2644 21.4181 38.5634 21.2799 37.8893C21.4968 38.0336 21.7336 38.1453 21.9828 38.2211C22.623 38.9389 23.5385 39.3512 24.5009 39.3552C24.8905 39.3519 25.2768 39.2842 25.6441 39.1546C25.8438 40.4253 26.753 41.4702 27.985 41.8448C29.2169 42.2193 30.5548 41.8577 31.4295 40.9136C31.9716 42.0225 33.1229 42.7022 34.3569 42.6418C35.0432 42.6565 35.7174 42.4598 36.2879 42.0786C36.816 43.161 37.8852 43.8769 39.0882 43.9535C40.2913 44.0301 41.4429 43.4556 42.1042 42.4489C42.5339 43.6133 43.5743 44.4438 44.8061 44.6057C46.0379 44.7676 47.258 44.2342 47.9746 43.2204C49.3449 44.3503 51.35 44.2569 52.6091 43.0044C53.2444 43.8447 54.2429 44.3319 55.2971 44.316C55.9724 44.3146 56.6355 44.1364 57.2204 43.7991C57.6913 43.5301 58.0953 43.1582 58.4022 42.7113C58.4757 42.8161 58.5584 42.9142 58.6493 43.0044C58.0012 43.7284 57.6702 44.6814 57.7302 45.6507C56.4654 45.7316 55.3784 46.5757 54.9881 47.78C54.4383 47.4418 53.8031 47.2678 53.1575 47.2786C53.0185 47.2709 52.8793 47.2709 52.7404 47.2786C52.261 47.0392 51.7314 46.9175 51.1955 46.9237C50.0973 46.8832 49.0576 47.4185 48.4535 48.3355C47.9339 48.0482 47.348 47.9019 46.7542 47.9112C46.0953 47.8982 45.4475 48.0808 44.8926 48.4358C44.2679 47.657 43.3112 47.2193 42.3128 47.2554C41.6252 47.2395 40.9499 47.4391 40.3817 47.8263C39.8675 46.6376 38.6724 45.8888 37.3771 45.9439C37.0768 45.9439 36.8033 45.8809 36.5517 45.823L36.5517 45.823C36.1562 45.7319 35.8147 45.6532 35.5078 45.8513L35.4473 45.7826C34.817 45.0674 33.9305 44.0614 32.9279 44.0614H32.6035C32.2641 44.0614 31.9391 44.3487 31.6303 44.6218C31.433 44.7962 31.2423 44.9647 31.0587 45.0489C30.603 43.9071 29.5834 43.3362 27.969 43.3362C27.1457 43.3614 26.3611 43.6914 25.7677 44.262C25.2289 43.9861 24.6265 43.8583 24.022 43.8917C23.5465 43.9031 23.0732 43.9599 22.6085 44.0614C21.8778 42.8776 20.5435 42.2038 19.1558 42.3178C15.2937 42.3178 15.2937 49.2228 19.1558 49.2228C19.6264 49.204 20.0957 49.1603 20.5616 49.0916C20.7973 49.4224 21.081 49.7163 21.4035 49.9634C21.5897 50.5546 21.928 51.0867 22.3845 51.5064C22.7067 51.8077 23.081 52.0482 23.489 52.2162C24.0732 53.256 25.193 53.8794 26.3856 53.8286H26.5169C26.4217 54.7664 26.7332 55.6999 27.3726 56.3931C28.012 57.0863 28.918 57.4728 29.8615 57.4547C30.4699 57.4677 31.0705 57.3157 31.5994 57.015C31.9405 58.1784 32.882 59.0686 34.0638 59.3449C35.2456 59.6213 36.4848 59.241 37.3075 58.3497C37.8416 59.4732 38.9988 60.1667 40.2427 60.1087C40.851 60.1205 41.4513 59.9686 41.9806 59.6689C42.1083 60.3234 42.4283 60.9251 42.8998 61.3971L43.5641 62.0529C45.0111 63.3684 47.2227 63.3684 48.6697 62.0529C49.449 62.8431 50.496 63.3137 51.6049 63.3722C56.2394 63.3722 56.2394 56.4672 51.6049 56.4672C50.6384 56.4892 49.7065 56.8311 48.9555 57.4393C48.913 57.3841 48.8283 57.3312 48.7453 57.2794C48.6776 57.2371 48.611 57.1954 48.5693 57.1538L47.851 56.4903C46.694 55.3773 44.9333 55.178 43.5564 56.0043C43.4483 55.3081 43.1335 54.6604 42.6526 54.145C43.1632 54.0988 43.6543 53.9265 44.0816 53.6435C44.7087 54.4235 45.6683 54.8613 46.6692 54.8239C47.7683 54.877 48.8128 54.3421 49.4113 53.4198C49.9318 53.7037 50.5175 53.8473 51.1106 53.8364C51.2469 53.8443 51.3836 53.8443 51.5199 53.8364C51.9996 54.0749 52.529 54.1965 53.0648 54.1913C54.4558 54.2362 55.7117 53.3644 56.1544 52.0465C56.7013 52.3849 57.3341 52.559 57.9773 52.548C58.9204 52.5643 59.8252 52.1756 60.4619 51.4806C61.0987 50.7855 61.4062 49.851 61.3064 48.9142C63.0597 48.7548 64.3713 47.2366 64.2725 45.481C64.6334 45.5889 65.0081 45.6434 65.3848 45.643C68.2736 45.643 69.2468 42.7498 68.4358 40.7053C72.8386 40.5742 72.8154 33.7695 68.3817 33.7695ZM42.3746 39.2241C41.9401 37.8969 40.6822 37.0143 39.2849 37.0561C38.5975 37.0412 37.9224 37.2408 37.3539 37.627C36.851 36.4276 35.6494 35.6717 34.3492 35.7368C33.3972 35.7038 32.481 36.1005 31.8543 36.817C31.3133 35.7024 30.1576 35.0189 28.9191 35.0811C28.5853 35.0826 28.2531 35.1267 27.9304 35.2122C27.9255 34.8636 27.8682 34.5177 27.7605 34.1861C28.4631 33.9041 29.0376 33.3743 29.3748 32.6971C30.0093 33.4066 30.9256 33.7992 31.8775 33.7695C33.3977 33.8311 34.7468 32.8042 35.0907 31.3238C35.707 31.8543 36.5025 32.1302 37.3153 32.0953C38.054 32.1106 38.7768 31.8798 39.3699 31.4396C39.6755 32.0173 40.1607 32.4803 40.7525 32.7588C40.3634 34.0835 40.8638 35.5084 41.9961 36.3C42.3484 37.0859 43.0202 37.6838 43.8422 37.9434C43.2244 38.196 42.7082 38.6465 42.3746 39.2241ZM57.9928 38.0668C58.094 38.1721 58.1894 38.2828 58.2786 38.3985C58.8501 37.5345 59.83 37.0291 60.8661 37.0638H60.9897C60.8945 36.6115 60.9487 36.1404 61.1442 35.7214C60.1735 35.2187 59.5101 34.2737 59.3677 33.1909V32.6971C59.3677 32.6508 59.4546 32.6026 59.5415 32.5544C59.6284 32.5062 59.7153 32.4579 59.7153 32.4117C59.5048 32.3823 59.4339 32.3344 59.3355 32.2679C59.2786 32.2294 59.2126 32.1848 59.105 32.1339C58.5695 32.6781 57.8294 32.9721 57.0659 32.944C56.1847 32.9802 55.3419 32.5823 54.8104 31.8793C54.5743 32.5106 54.2055 33.0841 53.729 33.5612C52.5682 34.7043 50.7034 34.7043 49.5426 33.5612C49.3989 33.4088 49.2696 33.2435 49.1564 33.0674C48.9577 33.2895 48.7258 33.4795 48.4689 33.6306C49.6206 34.0707 50.3862 35.1688 50.3999 36.4003C50.4007 36.6223 50.3852 36.8441 50.3536 37.0638C51.3517 37.0831 52.281 37.5758 52.8562 38.3908V38.3445C52.9335 38.252 53.0107 38.1594 53.1034 38.0668C54.4543 36.7199 56.6419 36.7199 57.9928 38.0668Z" fill="url(#paint0_linear)"/>
<path fill-rule="evenodd" clip-rule="evenodd" d="M84.9732 34.1167C85.6783 32.909 85.8676 31.4688 85.4985 30.1203C85.1024 28.8373 84.2545 27.741 83.1117 27.0343L82.8259 26.8568C85.0378 25.9069 86.4762 23.7385 86.4896 21.3337C86.503 18.929 85.0888 16.7447 82.8877 15.7703C83.3997 13.5912 82.4405 11.3319 80.5164 10.1846C80.7251 10.0358 80.9238 9.87339 81.1112 9.69852C83.1131 7.65856 83.1131 4.39376 81.1112 2.35379L80.8331 2.07605C78.7881 0.075561 75.517 0.075561 73.472 2.07605C73.1129 2.44998 72.8133 2.8767 72.5837 3.34132C71.2864 1.9223 69.3049 1.34489 67.4472 1.8446C65.6041 2.39163 64.1971 3.88529 63.7628 5.75613L63.6855 5.69441C62.4949 4.99692 61.0753 4.80178 59.7403 5.15213C58.4054 5.50249 57.2651 6.36948 56.5716 7.56145C56.5252 7.63861 56.4944 7.7389 56.448 7.82377C55.067 7.29774 53.5252 7.3982 52.2243 8.09898C50.9235 8.79976 49.9925 10.0314 49.6739 11.473C48.9175 11.0445 48.0641 10.8161 47.1945 10.8095C45.4314 10.8294 43.7944 11.7265 42.8303 13.2012C42.155 12.4055 41.2564 11.8304 40.2505 11.5501C37.9957 10.9975 35.6371 11.925 34.3647 13.8647C33.6867 13.0152 32.7607 12.3977 31.7153 12.0979C29.8538 11.6671 27.9002 12.2006 26.517 13.5175C25.2244 11.4325 22.6367 10.5505 20.3377 11.4113C19.6966 9.44393 18.7156 7.64632 16.8309 6.57393C13.4941 4.66059 9.55476 6.46592 7.69325 9.49793C6.34925 11.6967 6.21794 14.3121 6.496 16.7887C6.29153 16.8643 6.09276 16.9546 5.90125 17.0587C4.30304 17.9821 3.32178 19.6892 3.32911 21.5334C3.41776 22.7174 3.71316 23.8767 4.20194 24.9589C1.83835 25.3369 4.43165e-06 27.8289 4.43165e-06 30.128C-0.0029946 32.3962 1.51643 34.385 3.70759 34.9808C1.94383 35.9554 0.836184 37.7973 0.803315 39.8104C0.835985 41.9756 2.14436 43.9177 4.14014 44.7634C2.37282 46.0193 1.58227 48.2463 2.16276 50.3337C2.75784 52.3236 4.44254 53.7963 6.496 54.1218C4.62676 55.6262 4.31007 58.7508 5.46097 60.7182C6.39441 62.387 8.2193 63.3557 10.1263 63.1947C9.88155 64.4404 10.0839 65.7324 10.6979 66.8439C11.3847 68.004 12.4904 68.8571 13.7876 69.2279C15.1415 69.5774 16.5783 69.3893 17.7964 68.7033C19.3885 68.0172 20.8656 67.0909 22.176 65.9567C24.1871 63.9175 24.1871 60.6435 22.176 58.6043C21.5361 57.9648 20.7357 57.5091 19.8588 57.285C20.6404 55.7518 20.5791 53.9252 19.6966 52.4476C19.1231 51.5112 18.273 50.7753 17.2635 50.3414C17.8744 49.1522 18.0388 47.7837 17.7269 46.4839C17.3217 44.924 16.162 43.6701 14.6372 43.1433C16.8232 41.7546 17.333 38.5143 16.0817 36.3772C15.779 35.8776 15.3953 35.4318 14.9462 35.0579C16.5319 34.3179 17.6295 32.8203 17.8564 31.0868C18.0833 29.3534 17.4081 27.6242 16.0662 26.5019C16.6249 26.0865 17.0928 25.5614 17.4411 24.9589C17.8014 24.3127 18.0199 23.5974 18.0822 22.8604C18.2135 22.8218 18.3294 22.7601 18.4607 22.7138C18.8494 23.1189 19.285 23.4763 19.7583 23.7785C21.6286 24.8755 23.9871 24.681 25.6519 23.2924C25.7832 23.6628 25.9222 24.064 26.0921 24.4034C27.2585 26.988 30.9583 27.5897 33.2061 26.2705C34.2317 25.6577 35.0166 24.7131 35.4306 23.5933C37.0913 25.6918 39.8257 26.6099 42.3051 25.1363C43.2956 24.5197 44.0597 23.5995 44.4833 22.5132C44.5297 22.5672 44.5528 22.6135 44.5992 22.6598C46.6364 24.6718 49.9153 24.6718 51.9526 22.6598C52.4537 22.1606 52.8433 21.5612 53.0957 20.9008C53.1311 20.9323 53.1646 20.9657 53.1961 21.0011C55.3821 22.8064 58.4099 23.1381 60.5572 21.0011C61.1396 20.3956 61.564 19.6564 61.7931 18.8486C62.3471 19.0759 62.9399 19.1938 63.5388 19.1958C64.9206 19.1884 66.243 18.6334 67.2155 17.6527C67.6177 17.239 67.9491 16.762 68.1964 16.2409C69.7023 17.2718 71.6252 17.4803 73.3175 16.7964C72.6526 17.4937 72.1652 18.3404 71.8963 19.2652C71.4679 20.8477 71.6875 22.5353 72.5065 23.9559C72.8199 24.4726 73.2106 24.9384 73.6651 25.3369C72.4805 25.9964 71.618 27.1116 71.2784 28.423C70.9335 29.8121 71.15 31.2809 71.8808 32.5119C71.765 32.674 71.6337 32.8283 71.5332 32.998C70.8252 34.2075 70.6359 35.6512 71.008 37.0021C71.0891 37.2675 71.1925 37.5255 71.317 37.7736C68.9772 38.9896 67.9679 41.7989 68.9997 44.2234C67.1613 45.2355 66.1569 47.2914 66.4894 49.3616C64.5677 49.8278 63.028 51.2604 62.4265 53.142C62.099 54.2712 62.1951 55.4809 62.6968 56.5443C61.6056 56.4336 60.5065 56.6569 59.5454 57.1847C58.5815 57.758 57.8285 58.6265 57.3981 59.6612C56.1435 59.4111 54.8407 59.6134 53.7214 60.2321C53.327 60.4687 52.966 60.7567 52.6477 61.0885C51.4783 60.4974 50.1357 60.3441 48.8629 60.6565C48.7779 60.6565 48.7084 60.7259 48.6312 60.749C47.9316 60.3838 47.1492 60.2058 46.3603 60.2321C43.2706 60.371 39.9415 61.4125 38.3581 64.3365C37.0513 66.8581 37.1716 69.8808 38.6748 72.2908C39.7484 74.1115 41.8185 76.0403 44.0044 76.3489C45.7423 76.588 47.5189 76.6189 49.0406 75.5774C49.141 75.5079 49.2182 75.4308 49.3109 75.3613C49.7899 75.5182 50.2899 75.6015 50.7939 75.6082C52.3193 75.5907 53.7609 74.9088 54.741 73.7412C55.0759 74.1536 55.4813 74.5036 55.9382 74.775C57.1503 75.4788 58.5943 75.6678 59.947 75.2996C61.8225 74.6991 63.254 73.173 63.7319 71.2647C64.4381 71.6666 65.2363 71.8792 66.0491 71.8819C67.431 71.8745 68.7534 71.3195 69.7258 70.3388C71.2648 68.6936 71.6555 66.2823 70.7145 64.2362C72.7264 65.115 75.0695 64.7046 76.6621 63.1947C78.1957 61.6742 78.5873 59.346 77.6353 57.4084C79.1802 57.153 80.5383 56.2411 81.3584 54.9087C82.3645 53.2076 82.2768 51.0749 81.1343 49.4619C81.6744 49.0623 82.1288 48.5586 82.4706 47.9806C83.4219 46.326 83.3833 44.2825 82.3702 42.6649L82.5479 42.5801C83.7384 41.8846 84.6034 40.7452 84.9525 39.4125C85.3016 38.0799 85.1063 36.6633 84.4094 35.4745C84.3229 35.3397 84.2274 35.2108 84.1236 35.0888C84.4493 34.8044 84.7351 34.4774 84.9732 34.1167V34.1167Z" fill="url(#paint1_linear)"/>
<defs>
<linearGradient id="paint0_linear" x1="41.9845" y1="16.6807" x2="41.9845" y2="63.3722" gradientUnits="userSpaceOnUse">
<stop stop-color="#ff6363"/>
<stop offset="1" stop-color="#e0c0c0"/>
</linearGradient>
<linearGradient id="paint1_linear" x1="43.2448" y1="0.575684" x2="43.2448" y2="76.4866" gradientUnits="userSpaceOnUse">
<stop stop-color="#ff6363"/>
<stop offset="1" stop-color="#e0c0c0"/>
</linearGradient>
</defs>
</svg>
