<svg xmlns="http://www.w3.org/2000/svg" width="71" height="26" fill="none" viewBox="0 0 71 26"><path fill="url(#paint0_linear)" d="M15.5688 10.6835C15.2674 11.5424 15.1956 12.472 15.4397 13.349C16.8515 18.4224 14.9375 24.4811 10.7368 25.2675C6.15585 26.1237 1.53541 21.4161 0.30937 14.7731C-0.0533859 12.8011 -0.138957 9.9623 0.280199 6.73111C0.768343 2.96752 3.83652 -0.160454 8.36637 0.00637956C12.4815 0.157925 15.8427 3.52404 16.0148 7.66727C16.0588 8.72798 15.8979 9.74581 15.5688 10.6835V10.6835Z"/><path fill="url(#paint1_linear)" d="M15.5809 10.6834C15.9012 9.74574 16.0578 8.7279 16.0149 7.66727C15.8475 3.52388 12.5764 0.157816 8.57162 0.00626888C7.90581 -0.0188694 7.27306 0.0322283 6.67578 0.148172C10.1242 0.843218 12.7869 3.94004 12.9375 7.66727C12.9803 8.728 13.1611 13.4223 10.0504 15.0095C10.6611 16.8048 13.3521 15.1135 13.2566 17.9453C13.1339 21.5871 12.0277 24.0143 8.26392 25.1526C9.1199 25.3883 9.99998 25.4365 10.8786 25.2677C14.9667 24.4814 16.8294 18.4225 15.4554 13.3491C15.2178 12.472 15.2877 11.5424 15.5809 10.6834V10.6834Z"/><path fill="url(#paint2_linear)" d="M14.6238 10.8679C14.3693 11.5859 14.288 12.3559 14.4371 13.097C13.2897 14.1259 11.5231 15.2818 8.93021 15.996C8.52885 16.1032 8.14093 15.8649 8.03728 15.4926C7.93081 15.1086 8.15729 14.7101 8.54327 14.6042C12.2796 13.5753 14.0656 11.5512 14.6868 10.6812C14.6664 10.7437 14.646 10.8063 14.6238 10.8679V10.8679Z"/><path fill="url(#paint3_linear)" d="M54.4531 10.6835C54.7545 11.5424 54.8263 12.472 54.5822 13.349C53.1704 18.4224 55.0844 24.4811 59.2851 25.2675C63.866 26.1237 68.4865 21.4161 69.7125 14.7731C70.0753 12.8011 70.1608 9.9623 69.7417 6.73111C69.2535 2.96752 66.1854 -0.160454 61.6555 0.00637956C57.5404 0.157925 54.1792 3.52404 54.0071 7.66727C53.9631 8.72798 54.124 9.74581 54.4531 10.6835V10.6835Z"/><path fill="url(#paint4_linear)" d="M69.755 6.73111C69.29 2.96751 66.3672 -0.160359 62.0519 0.00637209C61.6581 0.0215574 61.2721 0.070704 60.8952 0.148272C64.181 0.800112 66.3477 3.53593 66.7426 6.73111C67.1419 9.9623 67.0604 12.8011 66.7148 14.7731C65.7769 20.1069 62.7545 24.1922 59.3407 25.1523C59.4885 25.198 59.6393 25.2371 59.7937 25.2675C64.1577 26.1237 68.5593 21.4161 69.7272 14.7731C70.0728 12.8011 70.1543 9.9624 69.755 6.73111Z"/><path fill="url(#paint5_linear)" d="M61.9845 15.4739C61.8799 15.859 61.4887 16.1062 61.0833 15.9951C58.4958 15.2637 56.7002 14.0849 55.5187 13.0297C55.6788 12.2515 55.5979 11.4404 55.3372 10.6861C55.3362 10.6841 55.3362 10.6831 55.3352 10.6812C56.1124 11.6706 57.9843 13.5688 61.4739 14.5542C61.8634 14.6638 62.0918 15.0764 61.9845 15.4739Z"/><defs><linearGradient id="paint0_linear" x1="8.011" x2="8.011" y1="0" y2="25.368" gradientUnits="userSpaceOnUse"><stop stop-color="#ff6363"/><stop offset="1" stop-color="#e0c0c0"/></linearGradient><linearGradient id="paint1_linear" x1="11.349" x2="11.349" y1="0" y2="25.368" gradientUnits="userSpaceOnUse"><stop stop-color="#ff6363"/><stop offset="1" stop-color="#e0c0c0"/></linearGradient><linearGradient id="paint2_linear" x1="11.349" x2="11.349" y1="10.681" y2="16.022" gradientUnits="userSpaceOnUse"><stop stop-color="#ff6363"/><stop offset="1" stop-color="#e0c0c0"/></linearGradient><linearGradient id="paint3_linear" x1="62.011" x2="62.011" y1="0" y2="25.368" gradientUnits="userSpaceOnUse"><stop stop-color="#ff6363"/><stop offset="1" stop-color="#e0c0c0"/></linearGradient><linearGradient id="paint4_linear" x1="64.681" x2="64.681" y1="0" y2="25.368" gradientUnits="userSpaceOnUse"><stop stop-color="#ff6363"/><stop offset="1" stop-color="#e0c0c0"/></linearGradient><linearGradient id="paint5_linear" x1="58.673" x2="58.673" y1="10.681" y2="16.022" gradientUnits="userSpaceOnUse"><stop stop-color="#ff6363"/><stop offset="1" stop-color="#e0c0c0"/></linearGradient></defs></svg>