<svg xmlns="http://www.w3.org/2000/svg" width="29" height="14" fill="none" viewBox="0 0 29 14"><path fill="url(#paint0_linear)" fill-rule="evenodd" d="M8.19412 0C8.78005 0 9.28323 0.354318 9.50109 0.86038L9.51022 0.860352C9.911 0.860352 10.2731 1.02612 10.5316 1.29284C10.756 1.14478 11.0249 1.05859 11.3138 1.05859C11.978 1.05859 12.5358 1.51375 12.6924 2.12915C12.8602 2.05946 13.0443 2.021 13.2373 2.021C13.8019 2.021 14.2897 2.34995 14.5194 2.82665C14.7589 2.64319 15.0584 2.53418 15.3834 2.53418C16.0868 2.53418 16.671 3.04486 16.7853 3.71569C16.9499 3.11216 17.5019 2.66846 18.1576 2.66846C18.8387 2.66846 19.4079 3.14716 19.5472 3.78646C19.8057 3.52033 20.1673 3.35498 20.5676 3.35498C21.2764 3.35498 21.8642 3.87361 21.972 4.55212C22.2136 4.36285 22.5179 4.25 22.8486 4.25C23.3814 4.25 23.8457 4.54296 24.0894 4.97657C24.3123 4.83141 24.5785 4.74707 24.8644 4.74707C25.221 4.74707 25.5469 4.8783 25.7965 5.0951C26.0548 4.737 26.4756 4.50391 26.9509 4.50391C27.7364 4.50391 28.3732 5.1407 28.3732 5.92621C28.3732 6.71172 27.7364 7.34851 26.9509 7.34851C26.7707 7.34851 26.5984 7.31502 26.4398 7.25392C26.4267 8.02805 25.795 8.65155 25.0178 8.65155C24.9626 8.65155 24.9082 8.64841 24.8547 8.6423C24.7743 9.35143 24.1723 9.9024 23.4417 9.9024C23.2141 9.9024 22.9991 9.84896 22.8083 9.75395C22.6577 10.3776 22.0959 10.8409 21.4259 10.8409C21.0505 10.8409 20.709 10.6954 20.4548 10.4577C20.2387 10.9675 19.7336 11.3252 19.1449 11.3252C18.743 11.3252 18.38 11.1585 18.1214 10.8904C17.8649 11.1417 17.5136 11.2967 17.1261 11.2967C17.0945 11.2967 17.0631 11.2957 17.032 11.2936C17.0702 11.4222 17.0908 11.5585 17.0908 11.6995C17.0908 12.4849 16.454 13.1216 15.6686 13.1216C15.2112 13.1216 14.8043 12.9057 14.5441 12.5703C14.3901 12.6274 14.2235 12.6586 14.0496 12.6586C13.5437 12.6586 13.0995 12.3944 12.8473 11.9965C12.5947 12.3918 12.152 12.6539 11.6481 12.6539C11.0334 12.6539 10.5098 12.2639 10.3112 11.7179C10.1179 12.2738 9.58927 12.6728 8.9675 12.6728C8.64077 12.6728 8.33977 12.5626 8.09963 12.3774C7.87741 12.8732 7.37961 13.2185 6.80115 13.2185C6.34282 13.2185 5.93512 13.0017 5.67502 12.6651C5.4423 12.8312 5.15741 12.9289 4.8497 12.9289C4.26346 12.9289 3.76008 12.5742 3.54243 12.0677C3.31567 12.2206 3.04246 12.3098 2.74841 12.3098C1.96293 12.3098 1.32617 11.6731 1.32617 10.8876C1.32617 10.4193 1.55251 10.0038 1.90176 9.74467C1.75196 9.7983 1.59054 9.82751 1.4223 9.82751C0.636792 9.82751 0 9.19072 0 8.40521C0 7.70808 0.501557 7.12809 1.1635 7.0064L1.16333 6.98416C1.16333 6.95925 1.16397 6.93449 1.16524 6.90989C0.760258 6.65921 0.490479 6.21094 0.490479 5.69965C0.490479 4.91412 1.12726 4.27734 1.91278 4.27734C2.09117 4.27734 2.26189 4.31019 2.41923 4.37015C2.14192 4.1106 1.96863 3.7413 1.96863 3.33151C1.96863 2.54598 2.60543 1.90918 3.39096 1.90918C3.57853 1.90918 3.75761 1.94549 3.92157 2.01146C3.89678 1.90629 3.88367 1.79663 3.88367 1.6839C3.88367 0.898458 4.52041 0.261719 5.30585 0.261719C5.76826 0.261719 6.17914 0.482416 6.43888 0.824223C6.58702 0.837072 6.72867 0.872631 6.86031 0.927401C7.06131 0.385878 7.58265 0 8.19412 0ZM14.391 9.85519C14.4058 9.8178 14.4191 9.77963 14.4308 9.74076C14.4667 9.79824 14.5066 9.85296 14.5502 9.90455C14.4985 9.8851 14.4453 9.86858 14.391 9.85519ZM15.1744 10.3656C15.1623 10.35 15.1498 10.3346 15.1371 10.3195C15.1652 10.3301 15.1938 10.3398 15.2228 10.3486C15.2065 10.354 15.1904 10.3596 15.1744 10.3656ZM7.47939 4.09041C7.46041 4.07831 7.44174 4.06577 7.42338 4.0528C7.42327 4.07642 7.42258 4.09989 7.42132 4.12322C7.44039 4.11184 7.45975 4.1009 7.47939 4.09041ZM4.97015 3.06623C4.90325 3.05004 4.8382 3.02912 4.77537 3.00384C4.78316 3.0369 4.7898 3.0704 4.79524 3.1043C4.8262 3.12289 4.8564 3.14262 4.88577 3.16344C4.91244 3.12976 4.94059 3.09733 4.97015 3.06623Z" clip-rule="evenodd"/><defs><linearGradient id="paint0_linear" x1="14.187" x2="14.187" y1="0" y2="13.219" gradientUnits="userSpaceOnUse"><stop stop-color="#ff6363"/><stop offset="1" stop-color="#e0c0c0"/></linearGradient></defs></svg>