<svg xmlns="http://www.w3.org/2000/svg" xmlns:xlink="http://www.w3.org/1999/xlink" id="Layer_1" x="0" y="0" version="1.1" viewBox="0 0 1080 1080" xml:space="preserve" style="enable-background:new 0 0 1080 1080"><style type="text/css">.st0{fill:#f16364}.st1{fill:#154475;stroke:#154475;stroke-width:2;stroke-miterlimit:10}</style><switch><g><path d="M893.13,500.15c0,91.29-35.66,177.12-100.37,241.69C728.04,806.38,642,841.93,550.47,841.93 c-70.4,0-138.04-21.13-195.62-61.12c-38.35-26.63-70.45-60.31-94.85-99.17v72.17h-53.54V593.59h160.62v53.39h-65.61 c51.38,87.24,144.79,141.53,249,141.53c159.42,0,289.13-129.36,289.13-288.39L893.13,500.15L893.13,500.15z" class="st0"/><path d="M547.8,211.75c104.21,0,197.61,54.27,248.99,141.53h-64.29v53.4h159.29V246.47h-53.52v72.17 c-24.41-38.86-56.51-72.52-94.87-99.17c-57.56-39.99-125.21-61.12-195.59-61.12c-91.49,0-177.3,35.57-241.69,100.16 c-64.26,64.47-99.65,150.27-99.65,241.62H260C260.02,341.12,389.12,211.75,547.8,211.75z" class="st0"/><path d="M446.53,346.6l-34.6,34.24c-15.48,15.42-17.1,36.86-10.05,58.58c12.23,37.6,25.06,67.13,83.94,125.85 c58.88,58.71,90.08,68.22,126.73,83.28c8.43,3.47,16.39,5.13,23.86,5.13c13.28,0,24.97-5.29,34.87-15.17L705.74,604l-88.54-88.44 l-45.66,44.53c-12.1-8.84-25.8-20.67-42.8-37.63c-17.2-17.15-30.3-31.71-40.19-44.71l44.31-44.56L446.53,346.6z" class="st1"/></g></switch></svg>