<svg xmlns="http://www.w3.org/2000/svg" xmlns:xlink="http://www.w3.org/1999/xlink" id="Layer_1" x="0" y="0" version="1.1" viewBox="0 0 1080 1080" xml:space="preserve" style="enable-background:new 0 0 1080 1080"><style type="text/css">.st0{fill:#f16364}.st1{fill:#154475;stroke:#154475;stroke-width:2;stroke-miterlimit:10}</style><switch><g><path d="M1080,540.74c0,142.01-56.08,275.55-157.86,375.98c-101.8,100.41-237.13,155.71-381.07,155.71 c-110.72,0-217.11-32.87-307.67-95.09c-60.32-41.43-110.8-93.82-149.19-154.27v112.27H0V686.11h252.63v83.05H149.44 c80.81,135.72,227.73,220.17,391.63,220.17c250.74,0,454.74-201.24,454.74-448.64L1080,540.74L1080,540.74z" class="st0"/><path d="M536.86,92.1c163.91,0,310.8,84.42,391.61,220.17H827.35v83.08h250.54V146.11H993.7v112.27 c-38.39-60.45-88.87-112.82-149.21-154.27C753.95,41.9,647.56,9.02,536.86,9.02C392.97,9.02,258,64.35,156.72,164.84 C55.65,265.12,0,398.61,0,540.72h84.21C84.23,293.35,287.28,92.1,536.86,92.1z" class="st0"/><path d="M377.59,301.88l-54.42,53.26c-24.35,24-26.89,57.34-15.8,91.14c19.23,58.49,39.42,104.44,132.02,195.77 C532,733.38,581.07,748.18,638.72,771.6c13.26,5.4,25.78,7.98,37.53,7.98c20.89,0,39.27-8.23,54.85-23.6l54.19-53.69 L646.02,564.72l-71.81,69.28c-19.03-13.75-40.58-32.15-67.32-58.54c-27.04-26.68-47.66-49.34-63.21-69.55l69.69-69.33 L377.59,301.88z" class="st1"/></g></switch></svg>