<?xml version="1.0" encoding="utf-8"?>
<!-- Generator: Adobe Illustrator 25.2.0, SVG Export Plug-In . SVG Version: 6.00 Build 0)  -->
<svg version="1.1" id="Layer_1" xmlns="http://www.w3.org/2000/svg" xmlns:xlink="http://www.w3.org/1999/xlink" x="0px" y="0px"
	 viewBox="0 0 500 500" style="enable-background:new 0 0 500 500;" xml:space="preserve">
<style type="text/css">
	.st0{fill:#164576;}
	.st1{fill:#D52328;}
</style>
<g id="_22-guarantee_1_">
	<g id="linear_color_1_">
		<path class="st0" d="M385.48,285.55h-75.42v-42.67c0-8.72,0-23.32-7.6-36.28c-9.42-16.09-26.91-24.24-51.99-24.24
			c-6.56,0-11.9,5.34-11.9,11.9v61.14l-21.33,34.64l-26.31,17.19v-9.75c0-6.58-5.34-11.92-11.92-11.92h-79.4
			c-6.58,0-11.9,5.34-11.9,11.92v190.55c0,6.57,5.32,11.91,11.9,11.91h79.4c4.18,0,8.02-2.19,10.17-5.74
			c6.58,3.76,14.02,5.74,21.59,5.74h158.83c19.73,0,35.73-15.96,35.73-35.68c0-6.94-2-13.74-5.81-19.54c1.16-0.9,2.28-1.87,3.3-2.89
			c11.94-11.94,13.88-30.62,4.64-44.73c1.16-0.91,2.26-1.88,3.3-2.91c13.4-13.4,13.98-34.95,1.34-49.07
			c13.16-14.7,11.9-37.29-2.79-50.45C402.78,288.8,394.28,285.55,385.48,285.55z M167.09,476.11h-55.6V309.38h55.6V476.11z
			 M378.04,472.61c-2.24,2.25-5.26,3.5-8.43,3.5H210.78c-10.98,0-19.85-8.9-19.86-19.84V335.68l43.25-28.25
			c2.75-1.81,4.64-4.68,5.22-7.92l21.25-34.5c1.14-1.88,1.77-4.04,1.77-6.25v-51.7c21.82,3.69,23.82,18.46,23.82,35.83v54.59
			c0,6.57,5.34,11.9,11.9,11.9h87.34c6.6,0,11.92,5.33,11.92,11.9c0,6.58-5.32,11.91-11.92,11.91h-23.81
			c-6.58,0-11.92,5.33-11.92,11.9c0,6.59,5.34,11.91,11.92,11.91h23.81c6.6,0,11.92,5.34,11.92,11.91s-5.32,11.9-11.92,11.9h-23.81
			c-6.58,0-11.92,5.33-11.92,11.91c0,6.58,5.34,11.9,11.92,11.9h15.89c6.56,0,11.9,5.34,11.9,11.91s-5.34,11.9-11.9,11.9h-15.89
			c-6.58,0-11.92,5.34-11.92,11.91c0,6.58,5.34,11.9,11.92,11.9h7.94c6.56,0,11.9,5.34,11.9,11.9
			C381.52,467.35,380.28,470.37,378.04,472.61z"/>
		<ellipse class="st0" cx="139.3" cy="457.24" rx="11.91" ry="11.91"/>
		<path class="st1" d="M202.52,101.38l-7.25,42.23c-1.1,6.48,3.24,12.63,9.73,13.75c2.59,0.45,5.24,0.02,7.56-1.2l37.94-19.93
			l37.92,19.93c8.33,4.74,19.23-3.16,17.28-12.55l-7.25-42.23l30.7-29.91c4.7-4.59,4.79-12.15,0.2-16.84
			c-1.83-1.88-4.22-3.1-6.8-3.48L280.14,45L261.17,6.58c-2.91-5.9-10.06-8.33-15.96-5.42c-2.35,1.15-4.26,3.06-5.4,5.42L220.84,45
			l-42.41,6.15c-6.5,0.95-11.01,6.99-10.08,13.49c0.39,2.59,1.61,4.99,3.48,6.83L202.52,101.38z M230.46,67.67
			c3.89-0.57,7.23-3,8.95-6.51l11.07-22.41l11.05,22.41c1.73,3.52,5.09,5.95,8.97,6.51l24.72,3.59L277.31,88.7
			c-2.79,2.73-4.08,6.67-3.42,10.55l4.22,24.61l-22.12-11.62c-3.46-1.83-7.6-1.83-11.07,0l-22.14,11.62l4.24-24.61
			c0.68-3.88-0.61-7.8-3.42-10.55l-17.89-17.45L230.46,67.67z"/>
		<path class="st1" d="M495.72,176.77l-34.29-25.7l1.73-42.82c0.29-6.57-4.83-12.13-11.39-12.39c-2.62-0.11-5.2,0.65-7.36,2.17
			l-35.05,24.65l-40.18-14.89c-6.15-2.28-13.03,0.87-15.3,7.04c-0.91,2.46-0.99,5.14-0.2,7.65l12.63,40.93l-26.59,33.61
			c-4.08,5.16-3.2,12.65,1.94,16.74c2.08,1.62,4.58,2.53,7.21,2.55l42.86,0.65l23.75,35.67c5.09,8.15,18.39,6.39,21.21-2.75
			l13.85-40.54l41.26-11.59c6.33-1.77,10.02-8.35,8.25-14.68C499.33,180.56,497.8,178.35,495.72,176.77L495.72,176.77z
			 M438.04,188.09c-3.77,1.05-6.78,3.93-8.04,7.63l-8.09,23.63l-13.85-20.79c-2.18-3.27-5.81-5.24-9.73-5.31l-24.98-0.39
			l15.48-19.59c2.45-3.07,3.2-7.15,2.04-10.89l-7.36-23.86l23.43,8.68c3.67,1.36,7.78,0.81,11.01-1.44l20.41-14.36l-1.01,24.95
			c-0.16,3.93,1.61,7.66,4.76,10.02l19.98,14.99L438.04,188.09z"/>
		<path class="st1" d="M152.1,216.34c9.57,0.17,15.36-11.98,9.17-19.29l-26.59-33.61l12.64-40.94c1.92-6.29-1.59-12.95-7.88-14.89
			c-2.51-0.76-5.18-0.69-7.66,0.21L91.6,122.7L56.55,98.05c-5.38-3.79-12.8-2.51-16.58,2.88c-1.51,2.14-2.26,4.73-2.18,7.34
			l1.75,42.81L5.25,176.79c-5.26,3.95-6.31,11.4-2.37,16.67c1.55,2.1,3.79,3.61,6.31,4.32l41.24,11.58l13.87,40.54
			c2.79,9.15,16.12,10.91,21.19,2.75L109.25,217L152.1,216.34z M92.89,198.57l-13.85,20.78l-8.08-23.63
			c-1.26-3.71-4.28-6.56-8.06-7.62l-24.06-6.75l20-14.99c3.14-2.35,4.91-6.09,4.76-10.02l-1.03-24.95L83,145.76
			c3.2,2.27,7.32,2.78,11.01,1.43l23.41-8.68l-7.36,23.88c-1.16,3.73-0.39,7.8,2.04,10.89l15.5,19.59l-25,0.38
			C98.72,193.32,95.07,195.3,92.89,198.57L92.89,198.57z"/>
	</g>
</g>
</svg>
