<svg xmlns="http://www.w3.org/2000/svg" xmlns:xlink="http://www.w3.org/1999/xlink" id="Layer_1" x="0" y="0" version="1.1" viewBox="0 0 500 500" xml:space="preserve" style="enable-background:new 0 0 500 500"><style type="text/css">.st0{fill:#d52328}.st1{fill:#164576}</style><g><rect width="155.11" height="232.45" x="43.47" y="223.97" class="st0"/><path d="M189.63,461.13v6.15c0,10.19-7.03,18.45-15.57,18.45H74.18c-8.65,0-15.57-8.25-15.57-18.45v-6.15 c0-10.1,6.92-18.36,15.57-18.36h99.88C182.59,442.76,189.63,451.02,189.63,461.13z" class="st0"/><path d="M232.43,40.64h-23.09V9.6c0-5.4-5.73-9.76-12.81-9.76H41.91c-7.08,0-12.81,4.37-12.81,9.76v31.04H13.3 c-7.08,0-12.81,4.37-12.81,9.76v45.68c0,5.39,5.74,9.76,12.81,9.76h14.39v321.49c0,39.97,42.71,72.5,95.17,72.5 c52.47,0,95.17-32.53,95.17-72.5V105.85h14.39c7.08,0,12.81-4.38,12.81-9.76V50.4C245.25,45.01,239.52,40.64,232.43,40.64z M54.74,19.38h128.98v21.26H54.74V19.38z M122.86,480.31c-38.34,0-69.53-23.75-69.53-52.96V230.38h139.08v196.97 C192.41,456.56,161.2,480.31,122.86,480.31z M192.41,210.87H53.33v-105h139.08V210.87L192.41,210.87z M219.61,86.32H26.11V60.16 h193.5V86.32z" class="st1"/><path d="M463.67,166.34H296.51c-20.3,0-36.81,12.58-36.81,28.05v99.05c0,12.68,11.13,23.44,26.34,26.88l3.54,11.25 c0.97,3.1,3.89,5.65,7.8,6.82c1.51,0.44,3.1,0.67,4.66,0.67c2.51,0,5.01-0.56,7.14-1.66l31.24-15.92h123.26 c20.3,0,36.8-12.59,36.8-28.04v-99.05C500.49,178.93,483.97,166.34,463.67,166.34L463.67,166.34z M474.86,293.44 c0,4.68-5.02,8.5-11.18,8.5H336.53c-2.55,0-5.04,0.58-7.14,1.66l-19.17,9.76l-1.22-3.93c-1.38-4.39-6.53-7.5-12.47-7.5 c-6.16,0-11.18-3.81-11.18-8.5v-99.05c0-4.69,5.02-8.51,11.18-8.51H463.7c6.16,0,11.18,3.81,11.18,8.51v99.05H474.86z" class="st0"/><path d="M426.87,218.04c-5.54-3.34-13.61-2.64-18.01,1.6l-33.41,32.13l-18.52-13.04c-5.2-3.67-13.3-3.42-18.11,0.54 c-4.81,3.96-4.49,10.14,0.72,13.81l28.67,20.18c2.38,1.68,5.49,2.6,8.71,2.6c0.32,0,0.66-0.01,0.99-0.04 c3.55-0.2,6.83-1.54,9.05-3.67l42.01-40.39C433.35,227.53,432.42,221.39,426.87,218.04L426.87,218.04z" class="st1"/></g></svg>