<svg xmlns="http://www.w3.org/2000/svg" xmlns:xlink="http://www.w3.org/1999/xlink" id="Layer_1" x="0" y="0" version="1.1" viewBox="0 0 500 500" xml:space="preserve" style="enable-background:new 0 0 500 500"><style type="text/css">.st0{fill:#d52328}.st1{fill:#164576}</style><g><g><path d="M116.39,98.92c-4.13-5.83-12.2-7.2-18.03-3.06c-21.64,15.37-35.1,39.61-36.93,66.5 c-0.45,6.7,4.25,12.54,10.75,13.65c0.43,0.07,0.86,0.12,1.27,0.15c7.14,0.5,13.32-4.89,13.83-12.03 c1.28-19.11,10.82-36.31,26.1-47.14C119.17,112.84,120.54,104.75,116.39,98.92z" class="st0"/></g></g><g><g><path d="M192.64-0.2C86.68-0.2,0.48,86.05,0.48,192.03c0,106,86.2,192.23,192.16,192.23s192.18-86.23,192.18-192.23 S298.61-0.2,192.64-0.2z M192.64,350.62c-87.43,0-158.57-71.12-158.57-158.6s71.12-158.6,158.57-158.6 c87.41,0,158.57,71.12,158.57,158.6S280.07,350.62,192.64,350.62z" class="st1"/></g></g><g><g><path d="M450.49,426.17L328.34,304c-6.56-6.57-17.19-6.57-23.75,0c-6.56,6.57-6.56,17.21,0,23.76l122.12,122.17 c3.28,3.28,7.57,4.93,11.89,4.93c4.3,0,8.57-1.64,11.89-4.93C457.03,443.38,457.03,432.74,450.49,426.17z" class="st1"/></g></g><g><g><path d="M481.76,401.14l-78.91,80.04c-4.25,4.3-4.23,11.23,0.1,15.48c4.3,4.23,11.22,4.18,15.45-0.12l78.91-80.04 c2.13-2.15,3.2-4.94,3.18-7.77c-0.02-2.8-1.12-5.59-3.28-7.72C492.91,396.79,486.01,396.82,481.76,401.14z" class="st1"/></g></g></svg>