<?xml version="1.0" encoding="utf-8"?>
<!-- Generator: Adobe Illustrator 25.2.0, SVG Export Plug-In . SVG Version: 6.00 Build 0)  -->
<svg version="1.1" id="Layer_1" xmlns="http://www.w3.org/2000/svg" xmlns:xlink="http://www.w3.org/1999/xlink" x="0px" y="0px"
	 viewBox="0 0 500 500" style="enable-background:new 0 0 500 500;" xml:space="preserve">
<style type="text/css">
	.st0{fill:#EAE9EC;}
	.st1{fill:#7EC67E;}
	.st2{fill:#70B346;}
	.st3{fill:#DCD9DB;}
	.st4{fill:#FFFFFF;}
	.st5{fill:#020202;}
</style>
<g>
	<g>
		<g>
			<path class="st0" d="M244.27,7.38C122.04,11.55,20.81,109.32,12.7,231.35c-3.43,51.62,9.45,100.06,34,140.64L8.93,470.77
				c-4.95,12.95,7.76,25.66,20.7,20.69l98.79-37.75c40.58,24.54,89.01,37.43,140.65,34.01c122.02-8.1,219.82-109.34,223.96-231.57
				C497.8,116.68,383.74,2.62,244.27,7.38z"/>
			<path class="st1" d="M72,418.05c-2.46,6.47,3.88,12.81,10.37,10.34l31.72-12.14c4.64-1.77,9.49-2.64,14.32-2.64
				c7.2,0,14.4,1.95,20.74,5.77c35.22,21.28,75.74,31.11,117.25,28.33c101.16-6.71,183.12-91.46,186.57-192.93
				c1.9-56.25-18.9-109.07-58.6-148.76c-39.68-39.69-92.34-60.51-148.75-58.58C144.13,50.89,59.39,132.83,52.7,234
				c-2.74,41.26,6.9,81.54,27.9,116.59c6.51,10.84,8.04,23.92,3.54,35.71L72,418.05z"/>
			<path class="st2" d="M146.02,391.92c5.6,1.48,10.84,4.04,15.77,7.02c31.01,18.68,66.53,27.22,103,24.77
				c88.99-5.9,161.1-80.46,164.15-169.75c1.68-49.52-16.63-96.02-51.56-130.94c-35.06-35.04-81.44-53.34-130.92-51.54
				C157.15,74.52,82.61,146.6,76.7,235.6c-2.43,36.32,6.08,71.81,24.56,102.62c7.93,13.29,10.98,28.37,8.92,42.95
				c-0.74,5.18,3.75,9.85,8.9,9.09C127.88,388.95,136.94,389.5,146.02,391.92z"/>
			<path class="st3" d="M394.16,410.77c-36.12,31.54-79.91,49.84-126.69,52.94c-44.89,2.98-88.54-7.59-126.62-30.58
				c-6.34-3.85-14.1-4.55-21.04-1.89l-65.26,24.95c-4.48,1.7-7.67-0.95-8.53-1.81c-0.86-0.86-3.54-4.03-1.82-8.54l24.95-65.27
				c2.63-6.91,1.96-14.66-1.86-21l-0.02-0.02c-22.97-38.02-33.57-81.82-30.57-126.61c3.07-46.75,21.39-90.56,52.93-126.68
				c8.56-9.81,8.12-24.64-0.99-33.86C45.41,112.85,16.84,168.9,12.7,231.34c-3.43,51.62,9.45,100.06,34,140.64L8.93,470.76
				c-4.95,12.95,7.76,25.66,20.7,20.69l98.79-37.75c40.58,24.54,89.01,37.43,140.65,34.01c62.42-4.15,118.48-32.72,158.94-75.96
				C418.82,402.67,403.99,402.22,394.16,410.77L394.16,410.77z"/>
		</g>
		<path class="st4" d="M297.78,304.68l-2.84,2.84c-6.88,6.88-17.31,9.16-26.2,5.23c-17.44-7.73-33.77-18.68-48.08-32.99
			c-14.3-14.31-25.27-30.66-32.97-48.1c-3.93-8.87-1.66-19.3,5.2-26.17l2.84-2.85c6.66-6.62,8.78-16.51,5.5-25.29
			c-4.5-12.04-7.85-24.41-10.05-36.93c-2.22-12.6-18-17.24-27.04-8.18l-18.24,18.22c-8.04,8.05-12.52,19.16-11.7,30.53
			c3.34,46.35,22.7,91.71,58.11,127.13c35.45,35.42,80.83,54.78,127.15,58.12c11.37,0.82,22.48-3.65,30.53-11.71l18.22-18.23
			c9.04-9.04,4.44-24.84-8.18-27.04c-12.54-2.2-24.89-5.55-36.92-10.05C314.28,295.89,304.42,298.05,297.78,304.68L297.78,304.68z"
			/>
		<path class="st0" d="M347.78,346.34c-1.1,0.02-2.2,0.04-3.28,0.04c-51.01,0-98.75-19.71-134.74-55.7
			c-36.83-36.81-56.6-85.82-55.67-138l0.08-10.48l-8.26,8.24c-8.06,8.05-12.54,19.17-11.72,30.54
			c3.36,46.34,22.7,91.72,58.13,127.13s80.81,54.77,127.15,58.12c11.35,0.83,22.46-3.65,30.53-11.71l8.34-8.35L347.78,346.34z"/>
	</g>
	<g>
		<path class="st5" d="M482.59,155.02c-12.54-31-30.9-58.78-54.69-82.53c-23.74-23.76-51.51-42.15-82.53-54.66
			c-32.19-13-66.3-18.98-101.36-17.79C183.05,2.13,125.02,26.92,80.6,69.88C36.12,112.86,9.43,170.03,5.4,230.86
			c-3.34,50.03,8.15,99.01,33.18,141.83L2.11,468.15c-3.34,8.72-1.31,18.25,5.3,24.86c4.52,4.51,10.37,6.88,16.41,6.88
			c2.82,0,5.67-0.52,8.45-1.58l95.47-36.5c42.82,25.06,91.79,36.54,141.84,33.21c60.82-4.04,117.99-30.74,160.96-75.19
			c42.97-44.43,67.78-102.46,69.84-163.43C501.57,221.32,495.58,187.21,482.59,155.02L482.59,155.02z M485.73,255.9
			c-1.94,57.33-25.28,111.92-65.74,153.75s-94.22,66.96-151.41,70.76c-48.25,3.2-95.39-8.19-136.36-32.97
			c-1.92-1.16-4.31-1.38-6.4-0.57l-98.79,37.76c-3.3,1.27-6.75,0.53-9.27-1.98c-2.5-2.49-3.25-5.97-1.96-9.27l37.75-98.77
			c0.82-2.12,0.6-4.48-0.56-6.41C28.18,327.23,16.79,280.09,20,231.84c3.8-57.18,28.92-110.96,70.77-151.41
			C132.59,40,187.2,16.65,244.51,14.69c33.05-1.11,65.12,4.52,95.39,16.75c29.17,11.76,55.3,29.06,77.66,51.42
			c22.36,22.36,39.67,48.49,51.44,77.66C481.22,190.79,486.85,222.88,485.73,255.9L485.73,255.9z"/>
		<path class="st5" d="M252.68,39.99c-51.42,0-100.79,19.01-139.06,53.52c-3,2.7-3.25,7.35-0.53,10.35c2.7,3,7.33,3.24,10.33,0.53
			C159,72.32,204.89,54.64,252.65,54.64c106.47,0,193.12,86.61,193.12,193.1c0,47.76-17.68,93.66-49.76,129.22
			c-2.7,3-2.46,7.63,0.54,10.33c1.38,1.28,3.15,1.89,4.89,1.89c2.01,0,4.01-0.81,5.46-2.42c34.52-38.25,53.51-87.63,53.51-139.03
			C460.42,133.19,367.23,39.99,252.68,39.99L252.68,39.99z"/>
		<path class="st5" d="M373.53,398.19c-34.67,27.91-76.47,42.65-120.85,42.65c-35.26,0-69.75-9.57-99.74-27.7
			c-7.38-4.48-15.87-6.85-24.52-6.85c-5.8,0-11.51,1.05-16.93,3.13l-33.2,12.69l12.7-33.2c5.26-13.74,3.9-28.85-3.71-41.45
			c-18.12-30-27.71-64.48-27.71-99.72c0-44.38,14.75-86.19,42.67-120.86c2.54-3.14,2.03-7.76-1.12-10.27
			c-3.15-2.56-7.76-2.05-10.29,1.1c-29.6,36.78-45.9,82.96-45.9,130.04c0,37.92,10.31,75.02,29.82,107.29
			c5.26,8.7,6.19,19.14,2.58,28.65l-18.55,48.49c-1.02,2.68-0.37,5.76,1.68,7.79c2.03,2.04,5.09,2.69,7.77,1.66l48.51-18.53
			c3.75-1.44,7.69-2.17,11.7-2.17c5.99,0,11.84,1.64,16.95,4.73c32.28,19.52,69.4,29.82,107.31,29.82
			c47.07,0,93.27-16.3,130.04-45.9c3.15-2.54,3.64-7.15,1.1-10.28C381.31,396.14,376.69,395.64,373.53,398.19L373.53,398.19z"/>
		<path class="st5" d="M200.91,207.81c8.63-8.63,11.45-21.61,7.18-33.06c-4.31-11.49-7.57-23.49-9.7-35.62
			c-1.49-8.42-7.51-15.28-15.74-17.87c-8.41-2.65-17.49-0.44-23.7,5.77l-18.24,18.22c-9.74,9.75-14.79,22.95-13.84,36.24
			c3.62,49.74,25.01,96.53,60.26,131.79c35.26,35.24,82.08,56.66,131.8,60.24c1.06,0.1,2.13,0.13,3.21,0.13
			c12.16,0,24.07-4.97,33.03-13.97l18.22-18.21c6.21-6.2,8.43-15.31,5.77-23.7c-2.59-8.23-9.43-14.26-17.87-15.73
			c-12.14-2.15-24.13-5.4-35.64-9.71c-11.43-4.29-24.4-1.48-33.05,7.17l-2.84,2.86c-4.85,4.84-12.11,6.32-18.04,3.7
			c-17.18-7.59-32.62-18.16-45.9-31.46c-13.28-13.3-23.87-28.72-31.46-45.88c-2.63-5.95-1.16-13.2,3.7-18.04L200.91,207.81z
			 M190.56,197.46l-2.86,2.83c-9.1,9.11-11.8,22.89-6.75,34.34c8.34,18.8,19.94,35.72,34.52,50.3c14.56,14.56,31.5,26.18,50.32,34.5
			c11.43,5.07,25.22,2.37,34.34-6.73l2.84-2.84c4.58-4.6,11.49-6.1,17.55-3.82c12.35,4.62,25.2,8.13,38.25,10.42
			c4.4,0.77,5.97,4.24,6.42,5.72c1,3.24,0.2,6.57-2.15,8.95l-18.22,18.21c-6.75,6.75-15.81,10.25-24.83,9.59
			c-46.22-3.34-89.72-23.23-122.51-55.98c-32.75-32.77-52.63-76.27-55.96-122.48c-0.67-9.02,2.82-18.09,9.57-24.84l18.22-18.21
			c1.7-1.7,3.88-2.59,6.17-2.59c0.94,0,1.84,0.14,2.78,0.43c1.45,0.46,4.93,2.01,5.71,6.44c2.29,13.03,5.78,25.89,10.41,38.23
			C196.64,185.98,195.13,192.86,190.56,197.46L190.56,197.46z"/>
	</g>
</g>
</svg>
