<svg xmlns="http://www.w3.org/2000/svg" xmlns:xlink="http://www.w3.org/1999/xlink" id="Layer_1" x="0" y="0" version="1.1" viewBox="0 0 500 500" xml:space="preserve" style="enable-background:new 0 0 500 500"><style type="text/css">.st0{fill:#164576;stroke:#164576;stroke-miterlimit:10}.st1{fill:#d52328}.st2{fill:#164576}</style><g id="Consult-Smartphone_1_"><path d="M40.75,249.85c0,59.83,58.2,108.34,130,108.34s130-48.5,130-108.34c0-59.82-58.2-108.34-130-108.34 C98.99,141.58,40.83,190.04,40.75,249.85z M280.75,249.85c0,50.62-49.25,91.67-110.01,91.67S60.74,300.47,60.74,249.85 s49.25-91.66,110.01-91.66C231.47,158.24,280.66,199.24,280.75,249.85z" class="st0"/><path d="M114.18,249.85c-15.63,13.03-15.63,34.13,0,47.14c15.63,13.03,40.94,13.03,56.57,0l56.57-47.14 c15.63-13.02,15.63-34.11,0-47.14c-15.63-13.03-40.94-13.03-56.57,0L114.18,249.85z M156.6,285.21c-7.8,6.52-20.49,6.52-28.31,0 c-7.78-6.5-7.78-17.07,0-23.57l21.24-17.68l28.27,23.57L156.6,285.21z M199.03,209.62c11.05,0,20,7.48,20,16.68 c-0.02,4.42-2.11,8.65-5.84,11.76l-21.24,17.68l-28.27-23.57l21.21-17.69C188.65,211.36,193.74,209.62,199.03,209.62z" class="st1"/><path d="M323.44,416.51H18.68V83.18h322.68V41.51c-0.04-23-20.08-41.64-44.82-41.66H45.58 C20.83-0.13,0.77,18.51,0.74,41.51v416.66c0.04,23,20.09,41.65,44.85,41.67h250.95c24.73-0.03,44.79-18.66,44.82-41.67V274.84 h-17.94v141.67H323.44z M45.59,16.51h250.94c14.84,0,26.88,11.2,26.88,25.01v24.99H18.69V41.52C18.69,27.7,30.73,16.51,45.59,16.51 z M296.54,483.18H45.58c-14.86,0-26.91-11.21-26.91-25.01v-25h304.74v25C323.44,471.98,311.38,483.18,296.54,483.18z" class="st0"/><rect width="20" height="16.68" x="40.75" y="33.18" class="st2"/><rect width="40" height="16.68" x="80.73" y="33.18" class="st2"/><rect width="60" height="16.67" x="140.75" y="449.83" class="st2"/><path d="M470.73,99.84H330.73c-16.56,0-29.99,11.2-29.99,25v66.66c0,13.8,13.44,25,29.99,25h29.99v33.33 c0,3.54,2.69,6.69,6.71,7.87c1.08,0.31,2.19,0.47,3.32,0.49c3.04,0,5.92-1.16,7.8-3.13l37-38.54h55.18c16.57,0,30.01-11.2,30.01-25 v-66.66C500.74,111.04,487.28,99.84,470.73,99.84z M480.72,191.51c0,4.6-4.47,8.34-9.99,8.34h-60c-3.02,0-5.9,1.15-7.8,3.13 l-22.19,23.11v-17.9c0-4.6-4.49-8.34-9.99-8.34h-40c-5.51,0-9.99-3.74-9.99-8.34v-66.66c0-4.6,4.49-8.34,9.99-8.34h139.99 c5.52,0,9.99,3.74,9.99,8.34v66.66H480.72z" class="st1"/><rect width="20" height="16.66" x="390.73" y="149.84" class="st2"/><rect width="20" height="16.66" x="430.73" y="149.84" class="st2"/><rect width="20.02" height="16.66" x="350.73" y="149.84" class="st2"/></g></svg>