<?xml version="1.0" encoding="utf-8"?>
<!-- Generator: Adobe Illustrator 25.2.0, SVG Export Plug-In . SVG Version: 6.00 Build 0)  -->
<svg version="1.1" id="Layer_1" xmlns="http://www.w3.org/2000/svg" xmlns:xlink="http://www.w3.org/1999/xlink" x="0px" y="0px"
	 viewBox="0 0 500 500" style="enable-background:new 0 0 500 500;" xml:space="preserve">
<style type="text/css">
	.st0{fill:#C12428;}
	.st1{fill:#164576;}
	.st2{fill:#D52328;}
</style>
<g>
	<path class="st0" d="M228.7-0.16h16.77v499.99H228.7L228.7-0.16L228.7-0.16z"/>
	<path class="st1" d="M139.63,118.09c10.64-10.84,17.18-25.48,17.18-41.56c0-33.35-28.06-60.47-62.54-60.47S31.75,43.18,31.75,76.53
		c0,16.09,6.54,30.72,17.17,41.56c-28.85,15.48-48.44,45.26-48.44,79.38v151.19h31.27v151.18h125.07V348.66h31.26V197.47
		C188.08,163.36,168.49,133.57,139.63,118.09z M63.01,76.53c0-16.68,14.02-30.25,31.27-30.25c17.24,0,31.26,13.56,31.26,30.25
		c0,16.67-14.02,30.23-31.26,30.23S63.01,93.2,63.01,76.53z M156.82,318.42h-31.27v151.19H63.01V318.42H31.75V197.47
		c0-33.35,28.05-60.47,62.53-60.47c34.47,0,62.54,27.13,62.54,60.47V318.42z"/>
	<path class="st2" d="M483.02,196.59c-0.33-33.76-19.83-63.15-48.45-78.5c10.64-10.84,17.18-25.48,17.18-41.56
		c0-33.35-28.05-60.47-62.53-60.47S326.7,43.18,326.7,76.53c0,16.09,6.56,30.72,17.18,41.56c-28.68,15.39-48.21,44.88-48.44,78.74
		l-12.8,151.83h46.15v151.18h125.06V348.66h46.64L483.02,196.59z M357.95,76.53c0-16.68,14.03-30.25,31.27-30.25
		s31.27,13.56,31.27,30.25c0,16.67-14.02,30.23-31.27,30.23C371.98,106.75,357.95,93.2,357.95,76.53z M422.56,318.42v151.19h-62.53
		V318.42h-43.49l10.08-119.72l0.06-1.22c0-33.35,28.04-60.47,62.53-60.47c34.47,0,62.53,27.13,62.53,60.47v0.84l13.79,120.1H422.56z
		"/>
</g>
</svg>
