<svg xmlns="http://www.w3.org/2000/svg" xmlns:xlink="http://www.w3.org/1999/xlink" id="Layer_1" x="0" y="0" version="1.1" viewBox="0 0 500 500" xml:space="preserve" style="enable-background:new 0 0 500 500"><style type="text/css">.st0{fill:#d52328}</style><g><ellipse cx="78.19" cy="431.74" class="st0" rx="30.5" ry="46.04"/><ellipse cx="348.68" cy="437.25" class="st0" rx="30.49" ry="46.03"/><path d="M491.76,42.05h-63.7c-3.9,0-7.32,3.91-8.39,9.57l-52,277.17h-22.64l47.49-312.86c0.59-3.91-0.02-8-1.68-11.14 s-4.16-4.95-6.81-4.95H17.92c-2.66,0-5.18,1.83-6.81,4.95c-1.66,3.12-2.27,7.23-1.68,11.14l47.48,312.86H0.49v26.33h67.36H334.1 h28.64l-2.89,15.38c-3.44-1.32-6.99-2.23-10.7-2.23c-21.04,0-38.65,22.64-42.7,52.64H121.64c-4.05-29.99-21.66-52.64-42.71-52.64 c-24.03,0-43.59,29.52-43.59,65.79s19.56,65.78,43.59,65.78c21.04,0,38.65-22.64,42.71-52.64h184.81 c4.05,29.99,21.66,52.64,42.7,52.64c24.04,0,43.59-29.51,43.59-65.78c0-21.1-6.74-39.69-16.99-51.74l58.9-313.94h57.11 c4.82,0,8.71-5.9,8.71-13.16S496.59,42.05,491.76,42.05z M327.15,328.78H74.78L28.85,26.16h344.23L327.15,328.78z M78.93,473.53 c-14.42,0-26.15-17.71-26.15-39.47c0-21.77,11.73-39.46,26.15-39.46s26.16,17.69,26.16,39.46 C105.09,455.82,93.36,473.53,78.93,473.53z M349.16,473.53c-14.42,0-26.15-17.71-26.15-39.47c0-21.77,11.73-39.46,26.15-39.46 c14.41,0,26.15,17.69,26.15,39.46C375.31,455.82,363.57,473.53,349.16,473.53z" class="st0"/><path d="M227.12,78.8h-52.3v52.64h-34.87v78.93h34.87V263h52.3v-52.64h34.87v-78.94h-34.87V78.8z M244.56,157.73v26.32 h-34.86v52.64h-17.44v-52.64h-34.87v-26.32h34.87V105.1h17.44v52.65L244.56,157.73L244.56,157.73z" class="st0"/><polygon points="190.81 98.6 190.81 156.44 152.49 156.44 152.49 185.34 190.81 185.34 190.81 243.19 209.97 243.19 209.97 185.34 248.28 185.34 248.28 156.44 209.97 156.44 209.97 98.6" class="st0"/></g></svg>