<?xml version="1.0" encoding="utf-8"?>
<!-- Generator: Adobe Illustrator 25.2.3, SVG Export Plug-In . SVG Version: 6.00 Build 0)  -->
<svg version="1.1" id="Layer_1" xmlns="http://www.w3.org/2000/svg" xmlns:xlink="http://www.w3.org/1999/xlink" x="0px" y="0px"
	 viewBox="0 0 1080 1080" style="enable-background:new 0 0 1080 1080;" xml:space="preserve">
<style type="text/css">
	.st0{fill:#D52027;}
	.st1{fill:#E6E6E6;stroke:#154475;stroke-width:2;stroke-miterlimit:10;}
</style>
<path class="st0" d="M1068.5,538.3c0,142.3-54.5,276.2-153.3,376.9c-98.9,100.6-230.3,156.1-370.2,156.1
	c-107.6,0-210.9-32.9-298.9-95.3c-58.6-41.5-107.6-94-144.9-154.6v112.5H19.4V684h245.4v83.3H164.6
	c78.5,136,221.2,220.7,380.4,220.7c243.6,0,441.7-201.7,441.7-449.7L1068.5,538.3L1068.5,538.3z"/>
<path class="st0" d="M540.9,88.6c159.2,0,301.9,84.6,380.4,220.7h-98.2v83.3h243.4V142.7h-81.8v112.5
	c-37.3-60.6-86.3-113.1-144.9-154.6C751.8,38.3,648.5,5.4,540.9,5.4C401.1,5.4,270,60.8,171.7,161.5
	C73.5,262.1,19.4,395.9,19.4,538.3h81.8C101.2,290.3,298.5,88.6,540.9,88.6z"/>
<path class="st1" d="M386.2,298.9l-52.9,53.4c-23.7,24.1-26.1,57.5-15.4,91.3c18.7,58.6,38.3,104.7,128.2,196.2
	c90,91.5,137.6,106.4,193.6,129.9c12.9,5.4,25,8,36.5,8c20.3,0,38.1-8.2,53.3-23.6l52.6-53.8L647,562.3l-69.8,69.4
	c-18.5-13.8-39.4-32.3-65.4-58.7c-26.3-26.7-46.3-49.4-61.4-69.7l67.7-69.5L386.2,298.9z"/>
</svg>
