<svg xmlns="http://www.w3.org/2000/svg" xmlns:xlink="http://www.w3.org/1999/xlink" id="Layer_1" x="0" y="0" version="1.1" viewBox="0 0 500 500" xml:space="preserve" style="enable-background:new 0 0 500 500"><style type="text/css">.st0{fill:#d52328}.st1{fill:#164576;stroke:#164576;stroke-width:2;stroke-miterlimit:10}</style><path d="M500,249.99c0,66.77-25.96,129.56-73.08,176.78C379.79,473.99,317.14,500,250.5,500	c-51.26,0-100.51-15.46-142.44-44.71c-27.92-19.48-51.3-44.11-69.07-72.54v52.79H0.01V318.35h116.95v39.06H69.19	c37.41,63.82,105.43,103.52,181.31,103.52c116.08,0,210.53-94.64,210.53-210.94H500V249.99z" class="st0"/><path d="M248.54,39.05c75.88,0,143.89,39.69,181.3,103.52h-46.81v39.06h115.99V64.45h-38.97v52.79	c-17.77-28.42-41.14-53.05-69.08-72.53C349.04,15.46,299.79,0,248.54,0c-66.62,0-129.1,26.01-175.99,73.26	C25.76,120.42,0,183.19,0,250.01h38.98C39,133.66,133,39.05,248.54,39.05z" class="st0"/><path d="M174.81,137.69l-25.19,25.03c-11.27,11.28-12.45,26.97-7.32,42.85c8.9,27.51,18.25,49.11,61.12,92.05	c42.87,42.95,65.59,49.9,92.28,60.92c6.14,2.54,11.94,3.75,17.37,3.75c9.67,0,18.18-3.87,25.39-11.08l25.09-25.24l-64.47-64.69	l-33.24,32.57c-8.81-6.47-18.79-15.13-31.17-27.52c-12.52-12.55-22.07-23.2-29.26-32.71l32.26-32.6L174.81,137.69z" class="st1"/></svg>