<?xml version="1.0" encoding="utf-8"?>
<!-- Generator: Adobe Illustrator 25.2.0, SVG Export Plug-In . SVG Version: 6.00 Build 0)  -->
<svg version="1.1" id="Layer_1" xmlns="http://www.w3.org/2000/svg" xmlns:xlink="http://www.w3.org/1999/xlink" x="0px" y="0px"
	 viewBox="0 0 500 500" style="enable-background:new 0 0 500 500;" xml:space="preserve">
<style type="text/css">
	.st0{fill:url(#SVGID_1_);}
	.st1{fill:#FFFFFF;}
	.st2{fill:url(#SVGID_2_);}
	.st3{fill:url(#SVGID_3_);}
	.st4{fill:#020202;}
</style>
<g>
	
		<linearGradient id="SVGID_1_" gradientUnits="userSpaceOnUse" x1="44.6738" y1="178.9795" x2="458.7416" y2="-235.0893" gradientTransform="matrix(1 0 0 -1 0 223)">
		<stop  offset="0.064" style="stop-color:#595EAA"/>
		<stop  offset="0.4382" style="stop-color:#D52F8C"/>
		<stop  offset="0.9261" style="stop-color:#FED56C"/>
	</linearGradient>
	<path class="st0" d="M127.43,48.66h246.1c42.97,0,78.12,35.17,78.12,78.12v246.09c0,42.97-35.15,78.12-78.12,78.12h-246.1
		c-42.97,0-78.13-35.16-78.13-78.12V126.8C49.31,83.83,84.47,48.66,127.43,48.66z M373.54,9.59h-246.1
		c-64.45,0-117.19,52.74-117.19,117.19v246.09c0,64.47,52.73,117.18,117.19,117.18h246.1c64.45,0,117.19-52.72,117.19-117.18V126.8
		C490.72,62.35,438,9.59,373.54,9.59z"/>
	<path class="st1" d="M373.54,48.66h-246.1c-42.97,0-78.13,35.17-78.13,78.12v246.09c0,42.97,35.16,78.12,78.13,78.12h246.1
		c42.97,0,78.12-35.16,78.12-78.12V126.8C451.66,83.83,416.5,48.66,373.54,48.66z M373.54,97.49c16.17,0,29.28,13.11,29.28,29.29
		s-13.11,29.31-29.28,29.31c-16.18,0-29.3-13.13-29.3-29.31S357.36,97.49,373.54,97.49z M250.49,152.2
		c53.93,0,97.66,43.72,97.66,97.63c0,53.94-43.73,97.65-97.66,97.65c-53.94,0-97.66-43.72-97.66-97.65
		C152.83,195.93,196.55,152.2,250.49,152.2z"/>
	
		<linearGradient id="SVGID_2_" gradientUnits="userSpaceOnUse" x1="167.4733" y1="302.2658" x2="581.5562" y2="-111.8169" gradientTransform="matrix(1 0 0 -1 0 223)">
		<stop  offset="0" style="stop-color:#595EAA"/>
		<stop  offset="0.4973" style="stop-color:#D52F8C"/>
		<stop  offset="1" style="stop-color:#FED56C"/>
	</linearGradient>
	<path class="st2" d="M402.83,126.8c0,16.18-13.11,29.31-29.28,29.31c-16.18,0-29.3-13.13-29.3-29.31s13.12-29.29,29.3-29.29
		C389.72,97.49,402.83,110.61,402.83,126.8z"/>
	
		<linearGradient id="SVGID_3_" gradientUnits="userSpaceOnUse" x1="44.446" y1="179.1973" x2="458.4725" y2="-234.8297" gradientTransform="matrix(1 0 0 -1 0 223)">
		<stop  offset="0" style="stop-color:#595EAA"/>
		<stop  offset="0.4973" style="stop-color:#D52F8C"/>
		<stop  offset="1" style="stop-color:#FED56C"/>
	</linearGradient>
	<path class="st3" d="M348.15,249.84c0-53.91-43.73-97.63-97.66-97.63c-53.94,0-97.66,43.72-97.66,97.63
		c0,53.94,43.72,97.65,97.66,97.65S348.15,303.77,348.15,249.84z M250.49,191.26c32.36,0,58.6,26.22,58.6,58.58
		s-26.24,58.61-58.6,58.61s-58.6-26.24-58.6-58.61S218.13,191.26,250.49,191.26z"/>
	<path class="st1" d="M309.08,249.84c0,32.36-26.24,58.61-58.6,58.61s-58.6-26.24-58.6-58.61s26.23-58.58,58.6-58.58
		S309.08,217.48,309.08,249.84z"/>
</g>
<path class="st4" d="M373.54-0.15H230.96c-5.4,0-9.76,4.34-9.76,9.74s4.37,9.79,9.76,9.79h142.58
	c59.23,0,107.43,48.19,107.43,107.42v246.08c0,59.25-48.2,107.44-107.43,107.44h-246.1c-59.24,0-107.42-48.19-107.42-107.44V126.8
	c0-59.23,48.19-107.42,107.42-107.42h25.39c5.4,0,9.76-4.38,9.76-9.79c0-5.38-4.37-9.74-9.76-9.74h-25.39
	C57.43-0.15,0.49,56.8,0.49,126.8v246.09c0,70,56.95,126.96,126.95,126.96h246.1c69.99,0,126.95-56.96,126.95-126.96V126.8
	C500.5,56.8,443.54-0.15,373.54-0.15z"/>
<path class="st4" d="M348.15,460.77h25.39c48.46,0,87.89-39.43,87.89-87.89V126.8c0-48.45-39.43-87.89-87.89-87.89h-246.1
	c-48.46,0-87.89,39.44-87.89,87.89v246.09c0,48.46,39.43,87.89,87.89,87.89h142.59c5.39,0,9.76-4.36,9.76-9.75
	c0-5.4-4.38-9.78-9.76-9.78H127.45c-37.69,0-68.36-30.66-68.36-68.36V126.8c0-37.7,30.67-68.36,68.36-68.36h246.1
	c37.69,0,68.35,30.65,68.35,68.36v246.08c0,37.7-30.66,68.36-68.35,68.36h-25.39c-5.41,0-9.76,4.38-9.76,9.78
	C338.39,456.41,342.75,460.77,348.15,460.77z"/>
<path class="st4" d="M357.92,249.84c0-59.23-48.2-107.42-107.43-107.42c-59.24,0-107.43,48.19-107.43,107.42
	c0,59.24,48.19,107.44,107.43,107.44C309.71,357.27,357.92,309.08,357.92,249.84z M250.49,337.72c-48.46,0-87.89-39.43-87.89-87.89
	c0-48.45,39.43-87.9,87.89-87.9c48.46,0,87.89,39.45,87.89,87.9C338.38,298.3,298.95,337.72,250.49,337.72z"/>
<path class="st4" d="M250.49,181.48c-37.69,0-68.35,30.65-68.35,68.36c0,37.7,30.66,68.36,68.35,68.36s68.36-30.65,68.36-68.36
	S288.19,181.48,250.49,181.48z M250.49,298.66c-26.93,0-48.82-21.9-48.82-48.82c0-26.91,21.9-48.83,48.82-48.83
	s48.82,21.93,48.82,48.83C299.31,276.77,277.42,298.66,250.49,298.66z"/>
<path class="st4" d="M412.59,126.8c0-21.53-17.52-39.06-39.06-39.06c-21.55,0-39.07,17.52-39.07,39.06
	c0,21.54,17.52,39.08,39.07,39.08C395.07,165.86,412.59,148.33,412.59,126.8z M354.01,126.8c0-10.76,8.77-19.53,19.53-19.53
	c10.76,0,19.53,8.76,19.53,19.53c0,10.77-8.77,19.54-19.53,19.54C362.77,146.32,354.01,137.57,354.01,126.8z"/>
<path class="st4" d="M191.9,19.37c5.39,0,9.76-4.37,9.76-9.76s-4.38-9.76-9.76-9.76h-0.01c-5.4,0-9.76,4.37-9.76,9.76
	C182.13,15,186.51,19.37,191.9,19.37z"/>
<path class="st4" d="M309.08,441.25c-5.39,0-9.76,4.38-9.76,9.76c0,5.4,4.38,9.76,9.78,9.76c5.41,0,9.76-4.37,9.76-9.76
	C318.85,445.62,314.48,441.25,309.08,441.25L309.08,441.25z"/>
</svg>
