<?xml version="1.0" encoding="utf-8"?>
<!-- Generator: Adobe Illustrator 25.2.0, SVG Export Plug-In . SVG Version: 6.00 Build 0)  -->
<svg version="1.1" id="Layer_1" xmlns="http://www.w3.org/2000/svg" xmlns:xlink="http://www.w3.org/1999/xlink" x="0px" y="0px"
	 viewBox="0 0 500 500" style="enable-background:new 0 0 500 500;" xml:space="preserve">
<style type="text/css">
	.st0{fill:#D52328;}
</style>
<path class="st0" d="M484.28,341.08c0.19-0.21,0.38-0.44,0.57-0.65c0.55-0.64,1.1-1.3,1.62-1.95c0.09-0.11,0.17-0.21,0.27-0.33
	c8.92-11.34,13.75-25.01,13.75-39.34V40.13c0-22.21-19.2-40.29-42.88-40.29H206.89c-23.63,0-42.86,18.08-42.86,40.29v91.85
	c-11.84-0.66-23.85,1.26-34.8,5.63c-15.44,6.16-28.05,16.67-36.47,30.36L51.77,234.7l-40.99,66.76c-3.97,6.47-6.77,13.28-8.43,20.21
	c-0.55,2.31-0.97,4.64-1.28,6.96c-0.17,1.17-0.27,2.34-0.36,3.51c-0.19,2.32-0.27,4.65-0.19,6.98c0.02,1.27,0.11,2.54,0.19,3.8
	c0.55,6.79,2.1,13.49,4.63,19.86c0.71,1.86,1.56,3.69,2.48,5.52c0.15,0.31,0.29,0.67,0.46,0.99c6.5,12.53,16.86,23.43,30.64,30.92
	c0.4,0.21,0.78,0.42,1.17,0.62c0.33,0.18,0.69,0.36,1.06,0.54c0.27,0.16,0.55,0.27,0.82,0.42c0.51,0.23,0.97,0.48,1.48,0.69
	c0.15,0.08,0.33,0.16,0.48,0.23c0.61,0.27,1.22,0.54,1.81,0.8c0.04,0.01,0.09,0.03,0.13,0.05c9.88,4.17,20.61,6.34,31.42,6.34
	c11.23,0,22.22-2.31,32.26-6.65c0.11-0.04,0.17-0.06,0.23-0.1c0.09-0.03,0.15-0.06,0.23-0.09c2.34,24.64,13.61,47.57,32.39,65.34
	c21.18,20.04,49.38,31.23,79.41,31.45h0.09l0,0h0.15c0.23,0.01,0.48,0.01,0.71,0.01c51.84,0,95.63-32.91,109-77.66h39.5
	c10.11,0,20.04-2.11,29.13-5.98c0.25-0.09,0.53-0.18,0.78-0.29c1.35-0.6,2.65-1.22,3.93-1.9c0.02,0,0.02,0,0.02,0
	c1.01-0.52,2-1.05,2.96-1.62c0.06-0.03,0.13-0.07,0.17-0.09c0.93-0.54,1.83-1.08,2.71-1.65c0.11-0.06,0.19-0.13,0.27-0.18
	c0.84-0.56,1.66-1.09,2.48-1.68c0.13-0.1,0.27-0.18,0.4-0.27c0.78-0.56,1.52-1.1,2.25-1.68c0.17-0.14,0.36-0.26,0.51-0.42
	c0.69-0.54,1.37-1.1,2.04-1.68c0.19-0.16,0.4-0.32,0.59-0.5c0.8-0.71,1.57-1.43,2.34-2.18c0.04-0.03,0.06-0.06,0.11-0.08
	l58.74-57.09c0.48-0.48,0.95-0.95,1.41-1.43c0.25-0.24,0.48-0.52,0.73-0.76C483.29,342.16,483.8,341.64,484.28,341.08z
	 M110.76,177.72c10.11-16.48,29.08-26.36,48.81-26.36c4.15,0,8.32,0.45,12.49,1.36c5.36,1.17,10.54,3.11,15.35,5.7
	c17.3,9.42,28.05,26.93,28.05,45.75c0,9.21-2.58,18.31-7.53,26.32l-35.79,58.27l-97.18-52.73L110.76,177.72z M108.26,381.6
	c-0.46,0.27-0.93,0.58-1.41,0.84c-0.19,0.12-0.4,0.22-0.61,0.34c-0.4,0.22-0.8,0.44-1.2,0.67c-0.25,0.14-0.48,0.24-0.75,0.38
	c-0.36,0.19-0.73,0.38-1.1,0.57c-0.29,0.14-0.59,0.26-0.88,0.39c-0.33,0.16-0.66,0.3-0.99,0.46c-0.33,0.16-0.68,0.29-1.01,0.46
	c-0.29,0.12-0.57,0.21-0.82,0.33c-0.42,0.16-0.82,0.31-1.24,0.48c-0.17,0.08-0.4,0.14-0.59,0.21c-0.48,0.17-0.97,0.33-1.45,0.52
	c-0.11,0.02-0.22,0.06-0.29,0.1c-11.94,3.92-25.13,3.98-37.22-0.05c-0.02-0.01-0.04-0.01-0.06-0.01c-0.59-0.2-1.13-0.39-1.72-0.61
	c-0.11-0.05-0.23-0.09-0.33-0.15c-0.48-0.16-0.95-0.35-1.43-0.54c-0.17-0.08-0.31-0.14-0.48-0.21c-0.42-0.17-0.86-0.36-1.3-0.57
	c-0.17-0.07-0.36-0.14-0.53-0.23c-0.42-0.2-0.84-0.38-1.26-0.6c-0.19-0.08-0.36-0.16-0.51-0.25c-0.61-0.27-1.17-0.59-1.74-0.89
	c-26.79-14.55-36.01-46.86-20.54-72.06l35.81-58.27l95.54,51.86c-0.36,0.21-0.69,0.44-1.03,0.66c-0.42,0.24-0.8,0.51-1.2,0.77
	c-0.17,0.09-0.29,0.21-0.48,0.3c-0.29,0.2-0.57,0.39-0.84,0.58c-0.02,0.02-0.04,0.02-0.04,0.02c-0.4,0.28-0.8,0.56-1.17,0.83
	c-0.19,0.13-0.38,0.25-0.57,0.37c-0.29,0.23-0.61,0.46-0.93,0.69c-0.33,0.23-0.68,0.48-1.01,0.73c-0.22,0.14-0.42,0.29-0.61,0.46
	c-0.36,0.25-0.68,0.5-0.99,0.75c-0.27,0.21-0.57,0.44-0.84,0.64c-0.23,0.19-0.46,0.38-0.69,0.57c-0.33,0.26-0.68,0.54-0.99,0.8
	c-0.23,0.18-0.46,0.36-0.69,0.55c-0.25,0.21-0.53,0.45-0.78,0.66c-0.36,0.29-0.68,0.57-1.03,0.85c-0.17,0.16-0.33,0.31-0.51,0.46
	c-0.27,0.25-0.57,0.52-0.84,0.75c-0.36,0.31-0.69,0.64-1.03,0.94c-0.46,0.4-0.9,0.81-1.32,1.23c-0.33,0.3-0.69,0.64-0.99,0.94
	c-0.09,0.05-0.15,0.13-0.19,0.17c-0.4,0.38-0.78,0.75-1.13,1.14c-0.29,0.29-0.61,0.6-0.88,0.88c-0.04,0.03-0.06,0.07-0.11,0.1
	c-0.4,0.42-0.78,0.82-1.17,1.24c-0.27,0.28-0.53,0.55-0.78,0.82c-0.06,0.08-0.13,0.13-0.19,0.2c-0.36,0.38-0.69,0.79-1.03,1.16
	c-0.29,0.3-0.57,0.63-0.84,0.93c-0.22,0.25-0.44,0.53-0.68,0.79c-0.15,0.16-0.29,0.35-0.44,0.52c-0.27,0.33-0.55,0.65-0.84,0.99
	c-0.09,0.12-0.17,0.21-0.25,0.33c-0.29,0.33-0.55,0.68-0.82,1.03c-0.25,0.31-0.51,0.64-0.75,0.95c-0.13,0.16-0.23,0.31-0.38,0.48
	c-0.25,0.33-0.51,0.68-0.75,1.03c-0.23,0.28-0.44,0.58-0.66,0.86c-0.15,0.2-0.31,0.4-0.46,0.61c-0.23,0.33-0.48,0.69-0.71,1.02
	c-0.17,0.26-0.38,0.53-0.55,0.78c-0.17,0.24-0.36,0.5-0.51,0.74c-0.23,0.34-0.46,0.68-0.69,1.01c-0.15,0.22-0.29,0.46-0.44,0.69
	c-0.19,0.28-0.4,0.61-0.57,0.9c-0.22,0.31-0.44,0.65-0.64,0.99c-0.13,0.2-0.25,0.42-0.4,0.62c-0.19,0.33-0.4,0.69-0.61,1.03
	c-0.19,0.32-0.4,0.64-0.57,0.98c-0.09,0.09-0.13,0.19-0.17,0.26c-0.06,0.1-0.13,0.2-0.15,0.29c-0.23,0.37-0.44,0.74-0.66,1.12
	c-0.29,0.52-0.59,1.05-0.88,1.6c-0.19,0.36-0.38,0.73-0.57,1.08c-0.29,0.56-0.59,1.1-0.86,1.66c-0.17,0.36-0.33,0.71-0.51,1.06
	c-0.02,0.04-0.04,0.08-0.06,0.13c-0.09,0.16-0.17,0.32-0.23,0.49c-0.19,0.37-0.36,0.73-0.53,1.1c-0.15,0.31-0.27,0.64-0.44,0.96
	c-0.09,0.21-0.19,0.45-0.27,0.68c-0.19,0.39-0.38,0.79-0.55,1.2c-0.13,0.26-0.22,0.53-0.31,0.79c-0.13,0.25-0.22,0.5-0.33,0.75
	c-0.15,0.45-0.36,0.89-0.51,1.33c-0.09,0.21-0.17,0.42-0.25,0.65c-0.09,0.27-0.22,0.56-0.29,0.83c-0.17,0.46-0.36,0.93-0.53,1.41
	c-0.06,0.17-0.13,0.33-0.17,0.51c-0.11,0.3-0.22,0.6-0.29,0.89c-0.23,0.65-0.46,1.3-0.66,1.96c-0.11,0.26-0.17,0.54-0.25,0.82
	c-0.22,0.68-0.42,1.36-0.61,2.04c-0.06,0.21-0.13,0.45-0.19,0.65c-0.38,1.37-0.73,2.73-1.06,4.12c-0.04,0.21-0.11,0.42-0.15,0.63
	c-0.15,0.66-0.27,1.35-0.42,1.99c-0.06,0.33-0.15,0.68-0.22,1.03c0,0.06,0,0.1-0.04,0.15c-0.09,0.57-0.19,1.11-0.29,1.69
	c-0.04,0.35-0.13,0.7-0.17,1.06c-0.02,0.09-0.04,0.18-0.04,0.27c-0.11,0.54-0.17,1.06-0.23,1.59c-0.04,0.13-0.04,0.24-0.06,0.38
	c-0.02,0.21-0.06,0.44-0.11,0.65c-0.57,0.42-1.17,0.79-1.77,1.16C108.53,381.42,108.41,381.51,108.26,381.6z M130.34,393.4
	c0-2.43,0.13-4.86,0.33-7.32c0.09-0.87,0.17-1.74,0.27-2.61c0.22-1.65,0.46-3.3,0.75-4.92c0.02-0.1,0.04-0.19,0.04-0.29
	c0.13-0.63,0.25-1.24,0.4-1.88c0.04-0.23,0.09-0.46,0.13-0.69c0.13-0.56,0.27-1.09,0.42-1.64c0.06-0.31,0.13-0.63,0.19-0.91
	c0.15-0.5,0.27-0.97,0.4-1.47c0.11-0.34,0.19-0.71,0.29-1.06c0.15-0.46,0.27-0.88,0.4-1.33c0.15-0.39,0.25-0.79,0.38-1.16
	c0.15-0.44,0.27-0.83,0.42-1.22c0.13-0.44,0.25-0.85,0.44-1.27c0.13-0.38,0.27-0.77,0.42-1.15c0.17-0.42,0.31-0.86,0.48-1.3
	c0.15-0.37,0.31-0.74,0.46-1.1c0.19-0.45,0.36-0.87,0.55-1.31c0.15-0.35,0.31-0.71,0.48-1.05c0.19-0.45,0.38-0.89,0.61-1.34
	c0.15-0.33,0.31-0.67,0.48-1.01c0.19-0.46,0.42-0.9,0.64-1.35c0.17-0.31,0.36-0.64,0.53-0.96c0.23-0.45,0.46-0.91,0.71-1.36
	c0.15-0.32,0.36-0.64,0.51-0.93c0.25-0.46,0.53-0.91,0.78-1.36c0.19-0.3,0.38-0.61,0.55-0.9c0.27-0.45,0.53-0.91,0.82-1.35
	c0.19-0.29,0.38-0.6,0.57-0.88c0.29-0.45,0.57-0.88,0.86-1.34c0.22-0.28,0.4-0.58,0.61-0.85c0.29-0.45,0.59-0.87,0.88-1.31
	c0.22-0.28,0.42-0.58,0.64-0.85c0.31-0.42,0.61-0.85,0.95-1.27c0.23-0.28,0.44-0.56,0.66-0.85c0.33-0.42,0.66-0.83,0.99-1.22
	c0.23-0.27,0.46-0.56,0.69-0.83c0.33-0.39,0.66-0.8,1.03-1.2c0.23-0.27,0.48-0.56,0.73-0.81c0.33-0.4,0.68-0.79,1.03-1.17
	c0.25-0.26,0.51-0.54,0.75-0.82c0.38-0.37,0.71-0.73,1.08-1.1c0.25-0.27,0.53-0.54,0.8-0.79c0.38-0.37,0.73-0.74,1.12-1.09
	c0.27-0.25,0.57-0.53,0.82-0.77c0.38-0.36,0.75-0.7,1.13-1.05c0.27-0.25,0.59-0.52,0.86-0.76c0.38-0.34,0.75-0.68,1.13-1.02
	c0.31-0.25,0.61-0.51,0.9-0.75c0.4-0.32,0.8-0.65,1.17-0.97c0.31-0.26,0.66-0.5,0.97-0.75c0.38-0.29,0.8-0.63,1.17-0.93
	c0.33-0.23,0.68-0.48,1.01-0.72c0.38-0.3,0.78-0.62,1.17-0.89c0.36-0.23,0.69-0.48,1.03-0.72c0.42-0.27,0.82-0.58,1.24-0.83
	c0.33-0.23,0.69-0.48,1.06-0.69c0.42-0.27,0.82-0.55,1.26-0.81c0.38-0.23,0.73-0.46,1.12-0.67c0.4-0.25,0.82-0.53,1.24-0.77
	c0.4-0.21,0.78-0.44,1.15-0.65c0.42-0.23,0.82-0.48,1.24-0.7c0.04-0.03,0.13-0.05,0.17-0.09c1.17-0.65,2.38-1.26,3.6-1.86
	c0.31-0.15,0.64-0.29,0.95-0.46c1.24-0.58,2.47-1.14,3.73-1.68c0.02,0,0.02-0.01,0.02-0.01c8.5-3.6,17.52-5.96,26.77-7.02v172.45
	C165.87,474.39,130.34,437.58,130.34,393.4z M232.29,479.82v-172.8c0.02,0,0.06,0,0.06,0c1.39,0.14,2.73,0.29,4.1,0.49
	c0.06,0,0.15,0.02,0.23,0.03c1.3,0.18,2.61,0.42,3.89,0.64c0.17,0.03,0.29,0.06,0.48,0.09c1.24,0.23,2.47,0.5,3.68,0.77
	c0.19,0.04,0.38,0.1,0.59,0.14c1.17,0.27,2.38,0.59,3.55,0.93c0.22,0.05,0.42,0.1,0.64,0.15c1.15,0.34,2.31,0.7,3.45,1.07
	c0.22,0.06,0.42,0.13,0.61,0.2c1.13,0.37,2.29,0.77,3.42,1.19c0.17,0.07,0.36,0.15,0.53,0.21c1.15,0.44,2.29,0.91,3.4,1.39
	c0.17,0.06,0.29,0.12,0.42,0.18c1.15,0.5,2.32,1.03,3.45,1.56c0.06,0.04,0.13,0.08,0.19,0.11c1.12,0.55,2.21,1.09,3.31,1.67
	c0.13,0.08,0.22,0.13,0.33,0.18c1.08,0.59,2.12,1.17,3.18,1.8c0.15,0.1,0.31,0.19,0.46,0.27c1.03,0.6,2.02,1.23,3,1.88
	c0.17,0.12,0.36,0.23,0.55,0.35c0.95,0.64,1.9,1.29,2.84,1.95c0.19,0.14,0.38,0.25,0.55,0.42c0.93,0.66,1.83,1.35,2.73,2.05
	c0.17,0.14,0.36,0.29,0.53,0.42c0.9,0.71,1.79,1.45,2.65,2.21c0.17,0.14,0.31,0.25,0.46,0.39c0.88,0.77,1.77,1.56,2.61,2.36
	c0.13,0.11,0.23,0.21,0.33,0.32c0.88,0.83,1.77,1.68,2.61,2.56c0.04,0.05,0.11,0.11,0.15,0.15c0.84,0.87,1.64,1.76,2.42,2.65
	c0.11,0.1,0.19,0.18,0.25,0.27c0.82,0.9,1.56,1.81,2.32,2.71c0.13,0.16,0.23,0.28,0.33,0.45c0.71,0.89,1.41,1.81,2.1,2.72
	c0.13,0.18,0.25,0.33,0.36,0.52c0.68,0.91,1.32,1.85,1.96,2.78c0.13,0.18,0.25,0.35,0.38,0.55c0.61,0.95,1.22,1.9,1.81,2.86
	c0.11,0.19,0.22,0.38,0.31,0.56c0.59,0.98,1.15,1.96,1.7,3c0.09,0.14,0.17,0.3,0.25,0.46c0.55,1.05,1.1,2.09,1.59,3.17
	c0.06,0.11,0.13,0.23,0.17,0.34c0.51,1.1,1.03,2.25,1.52,3.4c0.02,0.02,0.02,0.04,0.02,0.08c0.48,1.13,0.95,2.3,1.37,3.45
	c0.04,0.12,0.09,0.21,0.11,0.31c0.44,1.11,0.8,2.29,1.17,3.43c0.04,0.15,0.09,0.3,0.13,0.46c0.36,1.12,0.68,2.26,0.97,3.4
	c0.06,0.19,0.11,0.36,0.15,0.56c0.29,1.14,0.57,2.28,0.8,3.44c0.04,0.19,0.11,0.37,0.13,0.58c0.23,1.14,0.42,2.32,0.61,3.49
	c0.04,0.18,0.06,0.36,0.09,0.55c0.19,1.18,0.33,2.39,0.46,3.59c0.02,0.16,0.02,0.31,0.06,0.48c0.11,1.23,0.22,2.48,0.27,3.73
	c0,0.12,0,0.21,0,0.31c0.09,1.32,0.13,2.63,0.13,3.96c0,1.44-0.04,2.84-0.13,4.27c0,0.29-0.04,0.6-0.06,0.89
	c-0.06,1.1-0.15,2.23-0.27,3.34c-0.04,0.46-0.13,0.92-0.17,1.38c-0.11,0.92-0.23,1.84-0.36,2.75c-0.11,0.65-0.23,1.31-0.36,1.94
	c-0.13,0.7-0.23,1.4-0.38,2.12C305.76,447.19,272.9,475.89,232.29,479.82z M335.53,402.63c0-0.09,0-0.16,0.02-0.25
	c0.13-1.35,0.22-2.73,0.29-4.1c0-0.21,0.02-0.42,0.02-0.64c0.06-1.4,0.11-2.8,0.11-4.22c0-9.94-1.45-19.57-4.21-28.7h18.74
	c5.74,0,10.39-4.37,10.39-9.77c0-5.38-4.65-9.77-10.39-9.77h-26.85c-18.74-34.49-56.93-58.16-100.88-58.16c-0.23,0-0.46,0-0.68,0.01
	h-0.19h-0.09c-1.17,0.02-2.38,0.04-3.57,0.1c-0.25,0-0.51,0.02-0.75,0.03c-0.88,0.04-1.79,0.09-2.69,0.14
	c-0.51,0.05-1.03,0.09-1.54,0.13c-0.61,0.05-1.24,0.1-1.87,0.16c-0.64,0.05-1.26,0.13-1.9,0.19c-0.51,0.07-0.99,0.11-1.5,0.17
	c-0.71,0.1-1.39,0.19-2.08,0.27c-0.44,0.08-0.84,0.13-1.28,0.2c-0.75,0.12-1.5,0.22-2.23,0.35c-0.38,0.07-0.73,0.12-1.12,0.2
	c-0.78,0.15-1.54,0.27-2.31,0.45c-0.33,0.07-0.69,0.15-1.03,0.21c-0.78,0.17-1.56,0.33-2.34,0.52c-0.13,0.03-0.25,0.05-0.36,0.1
	l30.69-50c6.75-10.97,10.3-23.45,10.3-36.06c0-25.78-14.72-49.78-38.44-62.66c-0.95-0.51-1.92-0.99-2.86-1.48
	c-0.29-0.14-0.61-0.27-0.93-0.42c-0.69-0.34-1.39-0.65-2.06-0.96c-0.36-0.16-0.69-0.28-1.03-0.46c-0.71-0.29-1.43-0.59-2.12-0.86
	c-0.31-0.11-0.61-0.23-0.9-0.35c-1.01-0.37-2.02-0.73-3.05-1.06c-0.02,0-0.02-0.02-0.04-0.02V40.18c0-11.46,9.91-20.76,22.08-20.76
	h250.72c12.2,0,22.11,9.31,22.11,20.76v258.67c0,4.49-0.68,8.9-1.98,13.1h-53.88c-20.67,0-37.51,15.82-37.51,35.27v53.23
	c-4.86,1.47-9.95,2.24-15.1,2.24h-35.7V402.63z M407.14,388.25v-41.09c0-8.69,7.5-15.74,16.74-15.74h41.72l-53.71,52.2
	L407.14,388.25z"/>
<path class="st0" d="M249.39,106.69h165.05c5.72,0,10.37-4.37,10.37-9.77s-4.65-9.78-10.37-9.78H249.39
	c-5.74,0-10.39,4.38-10.39,9.78S243.65,106.69,249.39,106.69z"/>
<path class="st0" d="M416.94,173.17h-0.02c-5.74,0-10.37,4.37-10.37,9.76c0,5.39,4.65,9.77,10.39,9.77s10.39-4.37,10.39-9.77
	C427.33,177.54,422.68,173.17,416.94,173.17z"/>
<path class="st0" d="M383.16,182.93c0-5.38-4.65-9.76-10.39-9.76H249.39c-5.74,0-10.39,4.37-10.39,9.76c0,5.39,4.65,9.77,10.39,9.77
	h123.39C378.51,192.69,383.16,188.32,383.16,182.93z"/>
<path class="st0" d="M424.8,268.95c0-5.39-4.65-9.77-10.37-9.77H299.92c-5.72,0-10.37,4.37-10.37,9.77c0,5.37,4.65,9.76,10.37,9.76
	h114.51C420.16,278.71,424.8,274.33,424.8,268.95z"/>
</svg>
