<svg xmlns="http://www.w3.org/2000/svg" xmlns:xlink="http://www.w3.org/1999/xlink" id="Layer_1" x="0" y="0" version="1.1" viewBox="0 0 500 500" xml:space="preserve" style="enable-background:new 0 0 500 500"><style type="text/css">.st0{fill:#164576}.st1{fill:#d52328}</style><path d="M292.14,118.89c0,65.74-46.64,119.05-104.17,119.05S83.82,184.63,83.82,118.89S130.46-0.16,187.98-0.16	C245.51-0.16,292.14,53.14,292.14,118.89z" class="st0"/><path d="M276.52,285.55H99.44c-54.56,0-98.95,50.75-98.95,113.1v83.33c0,9.86,7.01,17.86,15.63,17.86h343.74	c8.62,0,15.63-8,15.63-17.86v-83.33C375.48,336.31,331.08,285.55,276.52,285.55z" class="st0"/><path d="M495.49,201.03l-72.92-77.37c-2.94-3.11-6.77-4.75-10.62-4.75c-10.34,0-15.65,10.06-15.65,17.84v53.58h-83.33	c-11.52,0-20.84,10.67-20.84,23.82c0,13.14,9.31,23.81,20.84,23.81h83.33v53.56c0,9.89,7.04,17.86,15.63,17.86	c3.88,0,7.68-1.63,10.65-4.75l72.92-77.4c3.16-3.39,4.98-8.13,4.98-13.09C500.48,209.18,498.66,204.43,495.49,201.03z" class="st1"/></svg>