<?xml version="1.0" encoding="utf-8"?>
<!-- Generator: Adobe Illustrator 25.2.3, SVG Export Plug-In . SVG Version: 6.00 Build 0)  -->
<svg version="1.1" id="Layer_1" xmlns="http://www.w3.org/2000/svg" xmlns:xlink="http://www.w3.org/1999/xlink" x="0px" y="0px"
	 viewBox="0 0 1080 1080" style="enable-background:new 0 0 1080 1080;" xml:space="preserve">
<style type="text/css">
	.st0{fill:#E6E6E6;}
	.st1{fill:#FF3333;stroke:#FF3333;stroke-width:2;stroke-miterlimit:10;}
	.st2{fill:#010101;}
</style>
<path class="st0" d="M167,715.2c92.8,214.1,406.9,214.4,499.9,0c10.8-24.9-8.3-52.4-36.1-52.4H203
	C175.2,662.8,156.2,690.3,167,715.2z M630.7,693.7c5,0,8.6,4.9,6.6,9.4c-81.9,188.9-358.9,189.1-440.9,0c-2-4.5,1.7-9.4,6.6-9.4
	H630.7z"/>
<path class="st0" d="M219.5,524.6c0-30.7,25.8-55.7,57.4-55.7s57.4,25,57.4,55.7c0,8.6,7.2,15.5,15.9,15.5c8.9,0,16-7,16-15.5
	c0-47.8-40.1-86.6-89.4-86.6c-49.3,0-89.4,38.9-89.4,86.6c0,8.6,7.2,15.5,15.9,15.5C212.3,540.1,219.5,533.2,219.5,524.6z"/>
<path class="st0" d="M499.4,524.6c0-30.7,25.8-55.7,57.4-55.7c31.7,0,57.4,25,57.4,55.7c0,8.6,7.2,15.5,16,15.5
	c8.8,0,15.9-7,15.9-15.5c0-47.8-40.1-86.6-89.4-86.6c-49.3,0-89.4,38.9-89.4,86.6c0,8.6,7.2,15.5,16,15.5
	C492.2,540.1,499.4,533.2,499.4,524.6z"/>
<path class="st1" d="M953.7,883.9c-53.6-9.4-131-29.7-203-73.7c-26.5,37.5-59.8,70.8-99,97.9c-7.2,5-17.1,3.4-22.3-3.6
	c-5.1-7-3.4-16.6,3.7-21.6c98-67.8,156.5-177.8,156.5-294.3c0-199.2-167.3-361.3-372.9-361.3C211.6,227.2,44.4,389,44.1,587.9
	c-0.2,115.3,57.2,224.7,153.4,292.8c18,12.7,23.2,36.2,12.2,54.6c-22.7,37.9-51.5,72.4-85.4,102.4c56.2-9.8,137.6-31.9,209.3-81.3
	c10.9-7.5,24.4-10.7,38.1-9.1c67,7.9,136-1.5,199.7-29.7c8-3.5,17.5-0.1,21.2,7.7c3.6,7.8,0.1,17-7.9,20.5
	c-68.7,30.4-143.5,40.9-216.9,32.2c-5.8-0.6-11.4,0.6-15.7,3.6c-77.1,53-163.8,76.4-223.1,86.7c-31.2,5.4-50.4-32.2-26.9-52.9
	c31.8-28,58.7-60.2,79.9-95.7c2.8-4.6,1.4-10.7-3.3-13.9C74.1,831.8,11.9,714.1,12.1,587.8c0.3-186.1,131.7-336.5,302.7-379.1
	c33.4-56.3,81.1-104,138.2-138.3c7.5-4.5,17.3-2.3,22,5c4.7,7.3,2.4,16.8-5.2,21.3c-44.4,26.6-82.6,62.1-111.9,103.6
	c246.9-34.5,463.8,151.4,463.8,388.2c0,69.4-19.2,136.6-54,195.4c67.3,41.2,140,60.4,190.7,69.3c-33.9-30.1-62.6-64.5-85.3-102.4
	c-11.1-18.4-5.8-41.8,12.1-54.5c96.2-68,153.6-177.5,153.4-292.8C1038.3,152.7,778.1-23.2,534.2,66c-8.3,3-17.5-1-20.6-9
	c-3.1-8,1.1-16.9,9.3-19.9c263.1-96.3,547.2,90.6,547.7,366.4c0.3,126.7-62.2,244.2-166.5,317.8c-4.7,3.3-6.1,9.3-3.3,14
	c21.2,35.5,48.1,67.6,79.9,95.7C1004.2,851.6,984.9,889.3,953.7,883.9z"/>
<path class="st2" d="M639.3,698.6"/>
<rect x="194.2" y="678.3" class="st0" width="452" height="68.2"/>
<ellipse class="st0" cx="414.9" cy="763.2" rx="202.1" ry="89.6"/>
</svg>
