<?xml version="1.0" encoding="utf-8"?>
<!-- Generator: Adobe Illustrator 25.2.0, SVG Export Plug-In . SVG Version: 6.00 Build 0)  -->
<svg version="1.1" id="Layer_1" xmlns="http://www.w3.org/2000/svg" xmlns:xlink="http://www.w3.org/1999/xlink" x="0px" y="0px"
	 viewBox="0 0 500 500" style="enable-background:new 0 0 500 500;" xml:space="preserve">
<style type="text/css">
	.st0{fill:#D52328;}
	.st1{fill:#164576;}
</style>
<g>
	<g>
		<path class="st0" d="M382.47,428.87c0,8.63-6.82,15.62-15.25,15.62h-41.5c-8.42,0-15.25-6.99-15.25-15.62v-83.29
			c0-8.63,6.82-15.62,15.25-15.62h41.5c8.42,0,15.25,6.99,15.25,15.62V428.87z"/>
		<path class="st1" d="M174.28,405.6H144.3c-10.72,0.45-10.71,19.08,0,19.53h29.99C185.01,424.68,185,406.05,174.28,405.6z"/>
		<path class="st1" d="M116.72,405.6H98.18c-6.8,0-12.32-6.66-12.32-14.85v-30.92c-0.37-12.92-15.83-12.91-16.2,0v30.92
			c0,18.96,12.8,34.38,28.52,34.38h18.54C127.44,424.68,127.44,406.05,116.72,405.6z"/>
		<path class="st1" d="M69.66,293.02v33.45c0.37,12.92,15.83,12.91,16.2,0v-33.45C85.49,280.09,70.02,280.09,69.66,293.02z"/>
		<path class="st1" d="M200.73,365.61"/>
		<path class="st1" d="M475.66,441.49h-18.9v-74.43l0.34,0.38c4.49,4.95,10.31,7.68,16.4,7.68c6.81,0,13.34-3.47,17.92-9.51
			c9.05-11.91,8.37-30.48-1.52-41.38l-2.32-2.56l-0.74-0.83l-19-20.96c-11.02-14.49-25.47-30.73-42.11-46.74
			c-0.7-0.68-1.41-1.35-2.11-2.02l-61.15-67.45c-9.35-10.32-23.45-10.32-32.81,0L202.25,324.24c-9.88,10.92-10.56,29.47-1.51,41.38
			c4.37,5.76,10.37,9.14,16.84,9.48c0.37,0.01,0.74,0.02,1.1,0.02c6.08,0,11.85-2.7,16.37-7.67l0.34-0.38v74.43h-18.9
			c-32.23,1.61-32.21,56.96,0,58.57h51.14c10.72-0.45,10.71-19.08,0-19.54h-51.14c-10.71-0.45-10.71-19.06,0-19.51h259.17
			c10.72,0.46,10.72,19.06,0,19.51H306.12c-10.72,0.45-10.71,19.08,0,19.54h169.54C507.91,498.46,507.87,443.1,475.66,441.49z
			 M377.93,441.34h-63.71v-72.08c1.76-50.94,61.97-50.9,63.71,0V441.34z M440.56,441.34h-46.44v-72.08
			c-2.64-76.85-93.48-76.78-96.11,0v72.08h-46.43V349.2l94.49-104.24l94.48,104.24V441.34z"/>
		<rect x="346.08" y="232.34" class="st1" width="4.36" height="0.15"/>
		<polygon class="st1" points="487.58,320.85 487.58,321.66 486.84,320.85 		"/>
	</g>
	<g id="insurance-clipboard-document-report-security_1_">
		<path class="st0" d="M81.46,13.53c-6.15,0-11.12,6.01-11.12,13.42c0,7.41,4.99,13.42,11.12,13.42c6.15,0,11.14-6.02,11.14-13.42
			C92.59,19.53,87.61,13.53,81.46,13.53z M81.46,31.41c-2.05,0-3.71-2-3.71-4.48c0-2.47,1.67-4.48,3.71-4.48
			c2.05,0,3.71,2.01,3.71,4.48C85.17,29.41,83.51,31.41,81.46,31.41z"/>
		<path class="st0" d="M33.23,138.73h14.84v8.94H33.23V138.73z"/>
		<path class="st0" d="M55.49,138.73h55.66v8.94H55.49V138.73z"/>
		<path class="st0" d="M33.23,165.56h14.84v8.95H33.23V165.56z"/>
		<path class="st0" d="M33.23,192.39h14.84v8.95H33.23V192.39z"/>
		<path class="st0" d="M33.23,219.22h14.84v8.95H33.23V219.22z"/>
		<path class="st0" d="M218.74,147.68h-3.72c-12.04-0.04-23.74-4.74-33.39-13.42l-8.9-8.05c-1.31-1.2-3.14-1.2-4.45,0l-5.19,4.69
			V40.36c-0.02-7.39-4.99-13.39-11.14-13.42h-30.35c-1.57-5.34-5.76-8.91-10.46-8.94h-8.68C98.38,4.02,85.67-3.33,74.07,1.6
			C67.69,4.3,62.69,10.34,60.45,18h-8.68c-4.7,0.03-8.89,3.6-10.46,8.94H10.96C4.82,26.96-0.15,32.96-0.17,40.36v214.63
			c0.02,7.4,5,13.39,11.13,13.42h140.99c3.41-0.03,6.61-1.92,8.72-5.15l8.23,4.7c1.01,0.6,2.18,0.6,3.2,0l32.57-18.65
			c10.95-6.95,17.8-20.62,17.77-35.54v-61.63C222.45,149.68,220.78,147.68,218.74,147.68L218.74,147.68z M122.27,35.88h29.69
			c2.05,0,3.71,2.01,3.71,4.48v96.98c-2.37,1.79-4.86,3.36-7.42,4.7V49.3c0-2.47-1.67-4.48-3.71-4.48h-22.26L122.27,35.88
			L122.27,35.88z M48.07,31.41c0-2.47,1.66-4.48,3.71-4.48h11.5c1.77,0.02,3.3-1.48,3.63-3.57c1.63-9.69,9.47-15.94,17.49-13.97
			c5.84,1.43,10.41,6.92,11.59,13.97c0.34,2.09,1.87,3.59,3.63,3.57h11.5c2.05,0,3.71,2.01,3.71,4.48V49.3H48.08L48.07,31.41
			L48.07,31.41z M44.36,58.24h74.2c2.05,0,3.71-2.02,3.71-4.48h18.54v91.4c-4.83,1.64-9.82,2.48-14.84,2.51h-3.71
			c-2.05,0-3.71,2.01-3.71,4.47v13.42H55.48v8.95h63.08v17.88H55.48v8.95h63.08v12.44c0,1.81,0.1,3.64,0.3,5.44H55.48v8.95h65.34
			c1.6,4.99,4,9.55,7.08,13.42H22.09V53.77h18.55C40.65,56.25,42.31,58.24,44.36,58.24z M151.96,259.46H10.97
			c-2.05,0-3.71-2.01-3.71-4.48V40.36c0-2.47,1.67-4.48,3.71-4.48h29.69v8.95H18.39c-2.05,0-3.71,2.01-3.71,4.48v196.75
			c0,2.47,1.66,4.47,3.71,4.47h120.05l14.91,8.53C152.92,259.3,152.44,259.43,151.96,259.46z M215.02,213.77
			c0.02,11.52-5.24,22.13-13.69,27.54l-30.83,17.66l-30.76-17.61c-8.47-5.42-13.77-16.04-13.77-27.6v-57.15
			c13.65-0.03,26.91-5.36,37.85-15.19l6.68-6.05l6.68,6.05c10.93,9.83,24.2,15.16,37.84,15.19V213.77z"/>
		<path class="st0" d="M103.72,85.07H92.59V71.66c0-2.47-1.67-4.48-3.71-4.48H74.04c-2.05,0-3.7,2.01-3.7,4.48v13.42H59.21
			c-2.05,0-3.71,2.02-3.71,4.48v17.88c0,2.47,1.66,4.48,3.71,4.48h11.13v13.42c0,2.48,1.66,4.48,3.7,4.48h14.85
			c2.05,0,3.71-2.01,3.71-4.48v-13.42h11.12c2.05,0,3.71-2.01,3.71-4.48V89.56C107.43,87.07,105.77,85.07,103.72,85.07z
			 M100.01,102.96H88.88c-2.05,0-3.71,2-3.71,4.48v13.42h-7.42v-13.42c0-2.48-1.67-4.48-3.71-4.48H62.9v-8.95h11.13
			c2.05,0,3.71-2,3.71-4.47V76.13h7.42v13.42c0,2.47,1.67,4.47,3.71,4.47h11.13V102.96z"/>
		<path class="st0" d="M204.45,164.58c-11.51-2.11-22.4-7.6-31.72-16.01c-1.31-1.2-3.14-1.2-4.45,0
			c-9.32,8.41-20.21,13.9-31.72,16.01c-1.8,0.34-3.14,2.22-3.15,4.42v44.77c0,8.13,3.67,15.6,9.58,19.54l0.22,0.13l25.71,14.72
			c1.01,0.6,2.18,0.6,3.2,0l25.93-14.84c5.9-3.94,9.56-11.42,9.57-19.54v-44.77C207.59,166.8,206.26,164.92,204.45,164.58
			L204.45,164.58z M200.19,213.77c0.02,4.79-2.11,9.21-5.57,11.58l-24.11,13.81l-24.04-13.73c-3.48-2.38-5.64-6.83-5.64-11.66
			v-41.01c10.66-2.5,20.76-7.65,29.69-15.11c8.92,7.46,19.02,12.61,29.68,15.11L200.19,213.77L200.19,213.77z"/>
		<path class="st0" d="M154.58,202.64l-5.25,6.33l11.14,13.42c1.45,1.74,3.79,1.74,5.25,0l29.67-35.78l-5.24-6.34l-27.06,32.61
			L154.58,202.64z"/>
	</g>
</g>
</svg>
