<svg xmlns="http://www.w3.org/2000/svg" xmlns:xlink="http://www.w3.org/1999/xlink" id="Layer_1" x="0" y="0" version="1.1" viewBox="0 0 500 500" xml:space="preserve" style="enable-background:new 0 0 500 500"><style type="text/css">.st0{fill:#164576;stroke:#164576;stroke-width:2;stroke-miterlimit:10}.st1{fill:#d52328}</style><g><path d="M487.37,385.72l-101.21-67.49c-12.82-8.5-30.05-5.71-39.55,6.41l-29.46,37.93c-3.79,4.98-10.68,6.44-16.16,3.4 l-5.59-3.08c-18.58-10.14-41.72-22.76-88.32-69.38c-46.62-46.62-59.24-69.76-69.38-88.32l-3.1-5.6c-3.07-5.48-1.65-12.4,3.34-16.21 l37.86-29.48c12.13-9.5,14.92-26.72,6.44-39.55L114.73,13.11c-8.69-13.07-26.13-17-39.6-8.91L32.81,29.61 C19.53,37.44,9.77,50.1,5.6,64.94C-9.63,120.48,1.83,216.31,142.97,357.5C255.29,469.79,338.88,500,396.32,500 c13.23,0.04,26.41-1.65,39.17-5.12c14.85-4.16,27.52-13.92,35.34-27.23l25.44-42.3C504.37,411.89,500.47,394.42,487.37,385.72z M481.9,416.79l-25.37,42.33c-5.62,9.59-14.71,16.65-25.42,19.7c-51.25,14.07-140.81,2.42-276.33-133.12 C19.28,210.18,7.61,120.61,21.69,69.35c3.05-10.71,10.11-19.82,19.72-25.44l42.32-25.38c5.85-3.52,13.42-1.81,17.19,3.87 l36.65,55.04l30.79,46.16c3.65,5.58,2.46,13.03-2.8,17.16l-37.88,29.48c-11.54,8.81-14.82,24.77-7.73,37.43l3.02,5.45 c10.63,19.53,23.89,43.83,72.23,92.17c48.32,48.32,72.63,61.57,92.16,72.22l5.47,3.03c12.67,7.08,28.61,3.8,37.45-7.72l29.44-37.9 c4.13-5.26,11.61-6.46,17.18-2.78l101.19,67.49C483.74,403.4,485.43,410.97,481.9,416.79z" class="st0"/><path d="M275,36.34c111.37,0.12,201.62,90.39,201.76,201.78c0,6.57,5.33,11.88,11.85,11.88 c6.57,0,11.87-5.31,11.87-11.88C500.34,113.62,399.45,12.73,274.98,12.61c-6.54,0-11.87,5.32-11.87,11.87 C263.13,31.04,268.45,36.34,275,36.34z" class="st1"/><path d="M275,107.55c72.06,0.09,130.44,58.49,130.56,130.56c0,6.57,5.31,11.88,11.85,11.88 c6.57,0,11.87-5.32,11.87-11.88c-0.12-85.16-69.11-154.2-154.31-154.3c-6.54,0-11.85,5.32-11.85,11.88 C263.13,102.24,268.45,107.55,275,107.55z" class="st1"/><path d="M275,178.77c32.76,0.04,59.31,26.58,59.33,59.35c0,6.57,5.33,11.88,11.89,11.88c6.54,0,11.85-5.31,11.85-11.88 c-0.07-45.86-37.23-83.03-83.09-83.09c-6.54,0-11.87,5.33-11.87,11.88S268.45,178.77,275,178.77z" class="st1"/></g></svg>