<?xml version="1.0" encoding="utf-8"?>
<!-- Generator: Adobe Illustrator 25.2.0, SVG Export Plug-In . SVG Version: 6.00 Build 0)  -->
<svg version="1.1" id="Layer_1" xmlns="http://www.w3.org/2000/svg" xmlns:xlink="http://www.w3.org/1999/xlink" x="0px" y="0px"
	 viewBox="0 0 500 500" style="enable-background:new 0 0 500 500;" xml:space="preserve">
<style type="text/css">
	.st0{fill:#2D9DBF;}
	.st1{fill:#199ABD;}
	.st2{fill:#FFFFFF;}
	.st3{fill:#E5F5FD;}
	.st4{fill:#020202;}
</style>
<g>
	<g>
		<ellipse class="st0" cx="250.48" cy="249.84" rx="242.67" ry="242.67"/>
		<path class="st1" d="M273.97,469.02c-134.02,0-242.67-108.64-242.67-242.67c0-61.05,22.58-116.76,59.78-159.39
			c-51,44.47-83.27,109.88-83.27,182.87c0,134.02,108.66,242.68,242.67,242.68c72.99,0,138.41-32.27,182.9-83.27
			C390.72,446.44,334.99,469.02,273.97,469.02L273.97,469.02z"/>
		<path class="st2" d="M344.42,101.11h-46.97c-47.55,0-86.12,38.56-86.12,86.12v62.6h-54.79c-4.33,0-7.82,3.52-7.82,7.83v46.97
			c0,4.33,3.52,7.82,7.82,7.82h54.79v140.5l39.14,39.55c13.33,0,26.39-1.11,39.14-3.17V312.46h40.86c3.59,0,6.72-2.44,7.59-5.92
			l11.73-46.97c1.23-4.96-2.5-9.73-7.59-9.73h-52.6v-62.61c0-12.99,10.52-23.49,23.5-23.49h31.32c4.33,0,7.82-3.51,7.82-7.84v-46.96
			C352.24,104.61,348.74,101.11,344.42,101.11z"/>
		<path class="st3" d="M288.86,467.93c-15.47,1.48-31.17,1.46-47.1-0.23c-3.95-0.43-6.94-3.86-6.94-7.83V312.47
			c0-12.97-10.52-23.49-23.5-23.49h-31.3c-4.33,0-7.83-3.52-7.83-7.82v-31.33h-15.66c-4.33,0-7.82,3.52-7.82,7.82v46.98
			c0,4.32,3.51,7.82,7.82,7.82h54.79v176.87c12.75,2.05,25.82,3.18,39.15,3.18c13.33,0,26.4-1.12,39.14-3.18v-21.46L288.86,467.93z"
			/>
	</g>
	<g>
		<path class="st4" d="M427.26,73.06c-47.22-47.22-110-73.22-176.78-73.22s-129.56,26-176.78,73.22s-73.22,110-73.22,176.77
			S26.49,379.41,73.7,426.63c47.21,47.21,110,73.22,176.78,73.22s129.56-26.01,176.78-73.22c47.22-47.22,73.23-110.02,73.23-176.79
			S474.48,120.27,427.26,73.06z M416.89,416.25c-33.29,33.29-74.79,55.37-119.95,64.37V319.78h33.53c6.97,0,13.01-4.72,14.7-11.48
			l11.74-46.96c1.14-4.55,0.13-9.29-2.76-13.01c-2.89-3.7-7.24-5.83-11.94-5.83h-52.6c-4.05,0-7.32,3.28-7.32,7.32
			c0,4.06,3.28,7.32,7.32,7.32h52.6c0.07,0,0.25,0,0.39,0.2c0.16,0.2,0.11,0.36,0.1,0.44l-11.75,46.97
			c-0.05,0.22-0.26,0.38-0.49,0.38h-40.85c-4.05,0-7.32,3.28-7.32,7.31v170.59c-10.46,1.4-21.08,2.13-31.82,2.13
			c-62.86,0-121.96-24.47-166.41-68.92c-44.45-44.46-68.93-103.56-68.93-166.42S39.62,127.85,84.07,83.41
			c44.45-44.46,103.55-68.93,166.41-68.93c62.87,0,121.96,24.46,166.41,68.93c44.45,44.45,68.93,103.55,68.93,166.41
			S461.35,371.8,416.89,416.25L416.89,416.25z"/>
		<path class="st4" d="M344.42,93.79h-46.97c-51.53,0-93.44,41.89-93.44,93.43v55.28h-47.47c-8.35,0-15.15,6.81-15.15,15.16v46.98
			c0,8.36,6.79,15.15,15.15,15.15h47.47v133.59c0,4.05,3.27,7.32,7.32,7.32c4.06,0,7.33-3.28,7.33-7.32V312.47
			c0-4.05-3.28-7.31-7.33-7.31h-54.79c-0.28,0-0.5-0.23-0.5-0.51v-46.96c0-0.28,0.23-0.51,0.5-0.51h54.79
			c4.06,0,7.33-3.27,7.33-7.33v-62.6c0-43.45,35.35-78.8,78.79-78.8h46.97c0.28,0,0.5,0.22,0.5,0.51v46.96
			c0,0.28-0.23,0.51-0.5,0.51h-31.32c-16.98,0-30.81,13.82-30.81,30.82v31.31c0,4.05,3.28,7.33,7.33,7.33
			c4.04,0,7.32-3.29,7.32-7.33v-31.31c0-8.91,7.25-16.17,16.16-16.17h31.32c8.36,0,15.15-6.78,15.15-15.16v-46.97
			C359.57,100.58,352.78,93.79,344.42,93.79z"/>
	</g>
</g>
</svg>
