<?xml version="1.0" encoding="utf-8"?>
<!-- Generator: Adobe Illustrator 25.2.0, SVG Export Plug-In . SVG Version: 6.00 Build 0)  -->
<svg version="1.1" id="Layer_1" xmlns="http://www.w3.org/2000/svg" xmlns:xlink="http://www.w3.org/1999/xlink" x="0px" y="0px"
	 viewBox="0 0 500 500" style="enable-background:new 0 0 500 500;" xml:space="preserve">
<style type="text/css">
	.st0{fill:#F7F8F9;stroke:#164576;stroke-width:2;stroke-miterlimit:10;}
	.st1{fill:#D52328;}
	.st2{fill:#164576;stroke:#164576;stroke-width:2;stroke-miterlimit:10;}
	.st3{fill:#FAFDFF;stroke:#FFFFFF;stroke-width:2;stroke-miterlimit:10;}
	.st4{fill:#FFFFFF;stroke:#FFFFFF;stroke-width:2;stroke-miterlimit:10;}
</style>
<path class="st0" d="M405.11,118.01c-39.85,0-66.93,20.49-81.39,35.48c-11.51-11.93-31.01-27.33-58.58-33.13V43.78
	c0-24.23-19.71-43.94-43.94-43.94H44.43C20.2-0.16,0.49,19.56,0.49,43.78v412.11c0,24.24,19.69,43.95,43.94,43.95H221.2
	c24.21,0,43.94-19.71,43.94-43.95v-48.37c15.26,10.37,32.4,20.76,51.7,31.03c2.16,1.15,4.51,1.72,6.88,1.72
	c2.39,0,4.74-0.57,6.88-1.72c147.8-78.66,169.89-164.25,169.89-208.25C500.49,171.15,462.83,118.01,405.11,118.01z"/>
<path class="st1" d="M396.97,264.5h-29.29c-5.57,0-10.62,3.13-13.12,8.1l-11.58,23.17L323.28,217c-1.48-5.95-6.52-10.33-12.61-11.01
	c-6.11-0.66-11.96,2.53-14.72,8.01l-25.26,50.5h-20.23c-8.11,0-14.66,6.56-14.66,14.65s6.54,14.65,14.66,14.65h29.29
	c5.55,0,10.64-3.13,13.1-8.1l11.6-23.17l19.68,78.76c1.63,6.54,7.5,11.1,14.22,11.1c5.49,0,10.6-3.09,13.08-8.1l25.28-50.48h20.25
	c8.08,0,14.64-6.56,14.64-14.66C411.61,271.07,405.05,264.5,396.97,264.5L396.97,264.5z"/>
<path class="st2" d="M235.84,455.9c0,8.09-6.6,14.66-14.66,14.66H44.42c-8.08,0-14.66-6.57-14.66-14.66V43.79
	c0-8.08,6.58-14.66,14.66-14.66h176.77c8.06,0,14.66,6.58,14.66,14.66v74.46c-54.4,3.94-89.52,55.42-89.52,112.06
	c0,34.18,13.44,93.55,89.52,155.45V455.9z"/>
<path class="st3" d="M162.59,411.96h-58.6c-8.1,0-14.66,6.56-14.66,14.66c0,8.09,6.56,14.64,14.66,14.64h58.6
	c8.08,0,14.66-6.55,14.66-14.64C177.24,418.52,170.66,411.96,162.59,411.96z"/>
<circle class="st4" cx="133.29" cy="73.09" r="14.65"/>
</svg>
