<svg xmlns="http://www.w3.org/2000/svg" xmlns:xlink="http://www.w3.org/1999/xlink" id="Layer_1" x="0" y="0" version="1.1" viewBox="0 0 500 500" xml:space="preserve" style="enable-background:new 0 0 500 500"><style type="text/css">.st0{fill:#106790}.st1{fill:#fff}.st2{fill:#020202}</style><g><path d="M471.19,9.62H29.79c-10.74,0-19.54,8.79-19.54,19.53v441.39c0,10.73,8.8,19.53,19.54,19.53h441.39 c10.74,0,19.53-8.8,19.53-19.53V29.15C490.72,18.4,481.93,9.62,471.19,9.62z" class="st0"/><path d="M162.58,120.94c0,23.05-18.68,41.75-41.73,41.75c-23.06,0-41.76-18.68-41.76-41.75 c0-23.05,18.68-41.76,41.76-41.76C143.9,79.18,162.58,97.88,162.58,120.94z" class="st1"/><path d="M84.96,191.98h71.78v228.5H84.97v-228.5H84.96z" class="st1"/><path d="M199.69,191.98v228.5h71.79V288.61c0-21.61,17.67-39.33,39.31-39.33c21.61,0,39.31,17.71,39.31,39.33v131.88 h71.79V272.31c0-46.87-38.37-85.22-85.23-85.22c-28.19,0-53.32,13.9-68.85,35.18v-30.29H199.69L199.69,191.98z" class="st1"/></g><path d="M373.54,480.31H29.79c-5.4,0-9.78-4.38-9.78-9.77V29.15c0-5.41,4.38-9.77,9.78-9.77h19.52	c5.41,0,9.77-4.38,9.77-9.77c0-5.41-4.37-9.77-9.77-9.77H29.79c-16.16,0-29.31,13.14-29.31,29.3v441.4	c0,16.14,13.15,29.3,29.31,29.3h343.74c5.4,0,9.77-4.37,9.77-9.78C383.29,484.69,378.92,480.31,373.54,480.31z" class="st2"/><path d="M471.19-0.16H127.44c-5.4,0-9.76,4.36-9.76,9.78c0,5.39,4.36,9.75,9.76,9.75h343.75c5.4,0,9.77,4.38,9.77,9.77	v441.4c0,5.4-4.39,9.78-9.77,9.78h-19.53c-5.4,0-9.77,4.36-9.77,9.75c0,5.41,4.37,9.77,9.77,9.77h19.53	c16.16,0,29.3-13.14,29.3-29.29V29.15C500.48,12.99,487.34-0.16,471.19-0.16z" class="st2"/><path d="M120.86,172.46c28.4,0,51.49-23.13,51.49-51.53c0-28.42-23.1-51.53-51.49-51.53	c-28.42,0-51.51,23.11-51.51,51.53C69.34,149.33,92.44,172.46,120.86,172.46z M120.86,88.96c17.64,0,31.98,14.35,31.98,31.99	s-14.35,31.98-31.98,31.98c-17.65,0-32-14.34-32-31.98S103.21,88.96,120.86,88.96z" class="st2"/><path d="M336.65,177.35c-21.58,0-42.41,7.5-59.08,20.75v-6.11c0-5.41-4.37-9.78-9.77-9.78h-68.11	c-5.4,0-9.77,4.38-9.77,9.78v228.5c0,5.41,4.39,9.79,9.77,9.79h71.79c5.4,0,9.75-4.39,9.75-9.79V288.62	c0-16.3,13.26-29.55,29.56-29.55c16.29,0,29.52,13.26,29.52,29.55v131.88c0,5.41,4.37,9.79,9.77,9.79h71.79	c5.38,0,9.75-4.39,9.75-9.79V272.32C431.63,219.93,389.04,177.35,336.65,177.35z M412.1,410.73h-52.24V288.61	c0-27.06-22.02-49.08-49.07-49.08c-27.05,0-49.09,22.02-49.09,49.08v122.13h-52.22V201.75h48.56v20.52c0,4.23,2.72,7.97,6.75,9.29	c4.01,1.32,8.42-0.13,10.91-3.52c14.24-19.51,37.04-31.16,60.96-31.16c41.62,0,75.45,33.84,75.45,75.46v138.4H412.1z" class="st2"/><path d="M84.96,182.21c-5.41,0-9.77,4.38-9.77,9.78v228.5c0,5.41,4.36,9.78,9.77,9.78h71.78c5.4,0,9.77-4.37,9.77-9.78	v-228.5c0-5.41-4.37-9.78-9.77-9.78H84.96z M146.97,410.73H94.72V201.75h52.25V410.73z" class="st2"/><path d="M88.37,19.38c5.4,0,9.76-4.38,9.76-9.77c0-5.41-4.37-9.77-9.76-9.77l0,0c-5.41,0-9.76,4.36-9.76,9.77	C78.61,15,82.97,19.38,88.37,19.38z" class="st2"/><path d="M412.59,480.31L412.59,480.31c-5.4,0-9.77,4.37-9.77,9.76c0,5.41,4.37,9.77,9.77,9.77	c5.4,0,9.77-4.37,9.77-9.77C422.36,484.69,417.99,480.31,412.59,480.31z" class="st2"/></svg>