<svg xmlns="http://www.w3.org/2000/svg" xmlns:xlink="http://www.w3.org/1999/xlink" id="Layer_1" x="0" y="0" version="1.1" viewBox="0 0 500 500" xml:space="preserve" style="enable-background:new 0 0 500 500"><style type="text/css">.st0{fill:#d52328}.st1{fill:#164576}</style><path d="M250.22,333.18c95.08,0,172.42-74.76,172.42-166.67c0-91.89-77.34-166.67-172.42-166.67	C155.15-0.16,77.8,74.61,77.8,166.51C77.8,258.42,155.15,333.18,250.22,333.18z M250.22,16.52c85.57,0,155.17,67.29,155.17,149.99	c0,82.72-69.6,149.99-155.17,149.99c-85.55,0-155.19-67.28-155.19-149.99C95.03,83.81,164.66,16.52,250.22,16.52z" class="st0"/><path d="M8.84,499.84h302.04c6.82-0.01,13.57-1.57,19.64-4.59l150.83-74.65c16.96-8.34,23.73-28.38,15.15-44.8	l-3.9-7.44c-8.6-16.4-29.35-22.97-46.33-14.65l-121.1,58.91c3.16-7.46,3.49-15.76,0.91-23.44c-4.58-13.64-17.83-22.83-32.67-22.67	h-69.04c-8.16-10.47-20.95-16.63-34.5-16.66H8.82c-4.77,0-8.61,3.73-8.61,8.32v133.34C0.21,496.12,4.07,499.84,8.84,499.84z M212.29,379.02c1.54,2.58,4.38,4.17,7.46,4.17h73.64c7.32-0.08,13.86,4.37,16.24,11.05c2.17,6.09,0.58,12.83-4.11,17.39	c-3.23,3.12-7.61,4.89-12.2,4.88H198.5c-4.76,0-8.62,3.73-8.62,8.33s3.86,8.33,8.62,8.33h120.69c1.35,0,2.69-0.31,3.88-0.88	l130.96-63.7c8.49-4.17,18.87-0.88,23.17,7.32c0,0.01,0,0.01,0.02,0.01l3.88,7.43c4.31,8.23,0.89,18.26-7.61,22.42l-150.84,74.66	c-3.64,1.8-7.68,2.74-11.79,2.75h-198.6V366.51h77.59C199.11,366.54,207.64,371.28,212.29,379.02z M17.45,366.51h77.58v116.67H17.45	V366.51L17.45,366.51z" class="st1"/><path d="M250.22,33.19c-76.17,0-137.94,59.7-137.94,133.33c0,73.64,61.77,133.34,137.94,133.34	c76.19,0,137.94-59.7,137.94-133.34C388.07,92.91,326.37,33.26,250.22,33.19z M362.29,174.85h8.3c-1.83,25.13-12.08,49-29.19,68.02	l-5.83-5.65c-3.37-3.25-8.83-3.24-12.2,0.01c-3.36,3.26-3.36,8.54,0,11.8l5.85,5.64c-19.68,16.53-44.38,26.45-70.39,28.23v-8.04	c0-4.61-3.85-8.33-8.62-8.33c-4.76,0-8.6,3.73-8.6,8.33v8.03c-26.01-1.79-50.71-11.69-70.37-28.22l5.83-5.65	c3.37-3.26,3.36-8.54,0-11.79c-3.37-3.25-8.83-3.25-12.2,0l0,0l-5.83,5.65c-17.13-19.01-27.36-42.88-29.21-68.02h8.31	c4.77,0,8.62-3.73,8.62-8.33c0-4.6-3.85-8.32-8.62-8.32h-8.3c1.85-25.14,12.08-49.01,29.19-68.02l5.85,5.64	c3.37,3.25,8.81,3.25,12.19,0c3.37-3.26,3.37-8.54,0-11.8l0,0l-5.83-5.63c19.66-16.53,44.36-26.44,70.37-28.22v8.04	c0,4.61,3.85,8.33,8.6,8.33c4.77,0,8.62-3.73,8.62-8.33v-8.04c26.01,1.79,50.71,11.69,70.39,28.23L323.36,84	c-3.36,3.26-3.36,8.55,0,11.8c3.37,3.25,8.83,3.25,12.2,0l5.83-5.64c17.11,19,27.36,42.87,29.21,68.01h-8.31	c-4.76,0-8.62,3.73-8.62,8.33C353.67,171.11,357.53,174.85,362.29,174.85L362.29,174.85z" class="st0"/><path d="M327.81,158.18H274.6c-2.62-7.11-8.42-12.69-15.78-15.24v-34.75c0-4.61-3.85-8.34-8.6-8.34	c-4.76,0-8.62,3.73-8.62,8.34v34.75c-13.46,4.61-20.53,18.88-15.78,31.91c4.77,13.02,19.54,19.85,33.01,15.25	c7.36-2.53,13.16-8.12,15.78-15.25h53.19c4.77,0,8.62-3.73,8.62-8.33S332.56,158.18,327.81,158.18z M250.22,174.85	c-4.76,0-8.62-3.73-8.62-8.33s3.86-8.33,8.62-8.33c4.76,0,8.6,3.73,8.6,8.33S254.97,174.85,250.22,174.85z" class="st0"/></svg>