<svg xmlns="http://www.w3.org/2000/svg" xmlns:xlink="http://www.w3.org/1999/xlink" id="Layer_1" x="0" y="0" version="1.1" viewBox="0 0 500 500" xml:space="preserve" style="enable-background:new 0 0 500 500"><style type="text/css">.st0{fill:#d52328}.st1{fill:#164576;stroke:#164576;stroke-width:2;stroke-miterlimit:10}.st2{fill:#020202}</style><path d="M73.63,333.88c43.84,101.26,192.19,101.38,236.1,0c5.09-11.77-3.91-24.78-17.06-24.78H90.67	C77.51,309.1,68.54,322.13,73.63,333.88z M292.68,323.74c2.34,0,4.04,2.32,3.13,4.46c-38.67,89.33-169.52,89.45-208.26,0	c-0.94-2.14,0.78-4.46,3.13-4.46H292.68z" class="st0"/><path d="M98.45,243.77c0-14.51,12.17-26.32,27.13-26.32s27.13,11.81,27.13,26.32c0,4.05,3.38,7.33,7.53,7.33	c4.18,0,7.55-3.29,7.55-7.33c0-22.58-18.94-40.96-42.22-40.96c-23.3,0-42.24,18.38-42.24,40.96c0,4.05,3.38,7.33,7.53,7.33	C95.07,251.11,98.45,247.83,98.45,243.77z" class="st0"/><path d="M230.65,243.77c0-14.51,12.17-26.32,27.13-26.32c14.96,0,27.13,11.81,27.13,26.32c0,4.05,3.38,7.33,7.55,7.33	s7.53-3.29,7.53-7.33c0-22.58-18.93-40.96-42.22-40.96c-23.28,0-42.24,18.38-42.24,40.96c0,4.05,3.4,7.33,7.55,7.33	C227.28,251.11,230.65,247.83,230.65,243.77z" class="st0"/><path d="M445.26,413.66c-25.34-4.43-61.89-14.03-95.87-34.86c-12.51,17.75-28.24,33.48-46.74,46.28	c-3.38,2.36-8.09,1.59-10.51-1.69c-2.42-3.3-1.62-7.87,1.76-10.22c46.3-32.06,73.93-84.08,73.93-139.19	c0-94.22-79.01-170.87-176.12-170.87c-96.96,0-175.97,76.52-176.12,170.57c-0.1,54.52,27,106.27,72.44,138.45	c8.49,6.02,10.95,17.1,5.74,25.8c-10.75,17.94-24.32,34.22-40.33,48.42c26.54-4.65,64.98-15.11,98.89-38.47	c5.13-3.53,11.53-5.04,17.99-4.28c31.65,3.73,64.22-0.73,94.32-14.06c3.8-1.67,8.28-0.05,10.01,3.64c1.72,3.68,0.04,8.02-3.74,9.7	c-32.47,14.36-67.8,19.34-102.43,15.25c-2.73-0.3-5.36,0.28-7.4,1.72c-36.41,25.05-77.39,36.12-105.37,41	c-14.75,2.57-23.82-15.25-12.73-25.04c15.01-13.26,27.7-28.48,37.74-45.24c1.32-2.19,0.64-5.04-1.56-6.6	c-49.38-34.95-78.77-90.6-78.67-150.32C0.64,185.67,62.7,114.53,143.47,94.38c15.8-26.61,38.29-49.19,65.29-65.4	c3.55-2.12,8.19-1.07,10.38,2.38c2.2,3.43,1.12,7.96-2.44,10.08c-20.95,12.6-39,29.35-52.85,48.97	c116.63-16.32,219.07,71.58,219.07,183.59c0,32.82-9.05,64.62-25.49,92.42c31.77,19.47,66.13,28.55,90.09,32.75	c-16.03-14.24-29.57-30.51-40.31-48.43c-5.23-8.7-2.74-19.79,5.72-25.79c45.46-32.18,72.54-83.92,72.46-138.45	C485.2,67.88,362.32-15.29,247.12,26.91c-3.91,1.42-8.24-0.48-9.73-4.26c-1.47-3.77,0.52-8,4.41-9.43	c124.28-45.53,258.46,42.85,258.69,173.27c0.14,59.9-29.4,115.47-78.65,150.3c-2.22,1.57-2.88,4.42-1.58,6.61	c10.03,16.77,22.74,31.99,37.76,45.24C469.09,398.41,459.99,416.23,445.26,413.66z" class="st1"/><path d="M296.73,326.07" class="st2"/><rect width="213.49" height="32.25" x="86.51" y="316.44" class="st0"/><ellipse cx="190.74" cy="356.59" class="st0" rx="95.45" ry="42.38"/></svg>