<svg xmlns="http://www.w3.org/2000/svg" xmlns:xlink="http://www.w3.org/1999/xlink" id="Layer_1" x="0" y="0" version="1.1" viewBox="0 0 500 500" xml:space="preserve" style="enable-background:new 0 0 500 500"><style type="text/css">.st0{fill:#67c8c6}.st1{fill:#e5c6c6}.st2{fill:#4464af}.st3{fill:#050404}.st4{opacity:.7;fill:#030405;enable-background:new}.st5{fill:#eb9999}.st6{fill:#8cb3df}.st7{fill:#c0cde1}.st8{fill:#f0d254}.st9{fill:#68a8dc}.st10{fill:#fffaf5}.st11{fill:#8ebd3f}.st12{fill:#a4cf4e}</style><path d="M438.96,502.84H38.36v-43.5c0-39.86,41.84-72.18,93.47-72.18h213.66c51.62,0,93.47,32.31,93.47,72.18	L438.96,502.84L438.96,502.84z" class="st0"/><path d="M413.41,197.96c-0.38,0-0.73,0.03-1.1,0.04v-12.54c0-73.3-77.75-132.73-173.66-132.73	c-95.9,0-173.66,59.43-173.66,132.73V198c-0.37-0.01-0.72-0.04-1.09-0.04c-29.26,0-52.99,18.13-52.99,40.49s23.72,40.49,52.99,40.49	c1.92,0,3.8-0.09,5.68-0.24c17.92,58.71,86.79,102.46,169.08,102.46c82.29,0,151.16-43.75,169.08-102.46	c1.87,0.15,3.76,0.24,5.68,0.24c29.25,0,52.98-18.13,52.98-40.49C466.39,216.09,442.67,197.96,413.41,197.96z" class="st1"/><path d="M271.67,322.47c-2.99,0-5.39-1.86-5.39-4.16c0-3.31-1.85-6.5-5.36-9.23c-3.08-2.39-7.28-4.26-12.15-5.4	c-2.94-0.69-6.25-1.02-10.13-1.02c-3.89,0-7.21,0.34-10.13,1.02c-4.86,1.14-9.06,3.01-12.15,5.4c-3.51,2.73-5.37,5.92-5.37,9.23	c0,2.3-2.41,4.16-5.39,4.16c-2.99,0-5.39-1.86-5.39-4.16c0-5.48,3.01-10.84,8.49-15.1c4.33-3.36,10.1-5.97,16.67-7.51	c3.96-0.93,8.29-1.38,13.27-1.38c4.97,0,9.31,0.45,13.27,1.38c6.57,1.54,12.34,4.15,16.67,7.51c5.48,4.26,8.49,9.62,8.49,15.1	C277.06,320.61,274.65,322.47,271.67,322.47L271.67,322.47z" class="st2"/><path d="M7.94,150.97c-7.86-16.25-8.41-34.07-1.58-50.59l0.58-1.42c11.18-27.03,40.62-47.18,76.72-52.48	c17.04-2.51,34.62-1.54,51.05,2.78l1.92,0.5c0.11,0.77,0.28,1.54,0.52,2.31c7.88,24.88,22.36,47.82,42.02,67.53	c-17.07,36.71-37.94,57.64-53.86,69.23l0,0l-20.89,16.38l-40.51-7.24c-11.07,0-21.33,2.6-29.83,7.03L7.94,150.97z" class="st3"/><path d="M444.45,95.32c-13.62-32.65-44.75-58.59-84.54-71.37l0.01-0.02C220.04-29.25,143.55,34.91,143.55,34.91	c-5.76,4.28-8.44,10.79-6.41,17.17c16.06,50.69,59.33,93.37,118.53,116.92l0.08,0.03c12.78,5.08,26.13,9.24,39.87,12.4	c3.41,0.79,6.17-2.27,4.1-4.55l-28.76-31.69c-2.5-2.76,1.9-6.14,5.32-4.06c31.81,19.23,93.6,51.08,156.1,52.69l10.18-21.52	C454.25,147.54,454.92,120.41,444.45,95.32z" class="st3"/><path d="M251.49,380.76c-0.7,0.05-1.4,0.09-2.11,0.13c-1.09,0.05-2.18,0.1-3.28,0.13c-2.47,0.08-4.95,0.14-7.46,0.14	c-2.5,0-4.99-0.06-7.46-0.14c-1.11-0.04-2.19-0.08-3.28-0.13c-0.7-0.04-1.4-0.08-2.1-0.13c-25.58-1.43-49.62-7.05-70.91-16.04v15.41	c0,35.82,36.29,64.86,81.05,64.86h5.38c44.76,0,81.06-29.04,81.06-64.86v-15.41C301.09,373.71,277.06,379.33,251.49,380.76z" class="st1"/><path d="M150.3,257.19c-2.32,0-4.58-0.93-5.85-2.59c-1.88-2.51-0.79-5.7,2.44-7.15l31.4-14.12l-31.4-14.12	c-3.23-1.46-4.32-4.65-2.44-7.14c1.88-2.5,6.03-3.34,9.25-1.89l34.27,15.42c3.61,1.62,5.76,4.52,5.76,7.73	c0,3.23-2.15,6.11-5.76,7.74l-34.27,15.42C152.63,256.96,151.46,257.19,150.3,257.19L150.3,257.19z M181.16,234.62h0.03H181.16z" class="st4"/><path d="M327.15,257.19c-1.16,0-2.33-0.23-3.39-0.71l-34.27-15.42c-3.6-1.62-5.76-4.51-5.76-7.73	c0-3.22,2.16-6.12,5.76-7.74l34.27-15.42c3.23-1.45,7.37-0.61,9.25,1.89c1.88,2.49,0.79,5.7-2.45,7.14l-31.39,14.13l31.39,14.12	c3.23,1.45,4.33,4.65,2.45,7.15C331.74,256.26,329.47,257.19,327.15,257.19L327.15,257.19z" class="st4"/><path d="M183.34,308.49c-13.27,15.04-0.65,35.3,23.18,37.88c10.08,1.09,20.89,1.68,32.13,1.68	c11.25,0,22.06-0.59,32.13-1.68c23.83-2.58,36.46-22.84,23.19-37.88c-12.95-14.66-32.91-24.05-55.32-24.05	C216.25,284.44,196.27,293.83,183.34,308.49L183.34,308.49z" class="st5"/><path d="M240.36,276.04c0,4.64,3.82,8.4,8.54,8.4s8.54-3.75,8.54-8.4v-19.65c-4.77,4.69-10.86,7.27-17.08,7.78V276.04	L240.36,276.04z" class="st6"/><path d="M238.05,266.75c-8.41,0-16.82-2.48-23.22-7.41l-0.54-0.42c-2.11-1.62-2.13-4.26-0.01-5.89	c2.09-1.64,5.52-1.64,7.63-0.01l0.55,0.42c8.6,6.64,22.58,6.64,31.18,0c2.11-1.63,5.52-1.63,7.63,0c2.11,1.62,2.11,4.26,0,5.89	C254.86,264.28,246.45,266.75,238.05,266.75L238.05,266.75z" class="st4"/><path d="M343.57,317.95l-7.85-4.07c-8.12-4.2-18.62-4.48-27.09-0.71l-23.56,10.48c-9.29,4.13-16.88,10.2-21.9,17.51	l-12.74,18.55c-4.58,6.67-3.85,14.77,1.88,20.88l5.54,5.91c20.57,21.95,50.17,37.85,83.97,45.09l83.09,61.97l63.04-50.41	l-83.09-61.98C394.29,355.35,372.7,333.06,343.57,317.95L343.57,317.95z" class="st1"/><path d="M487.44,491.49c-17.42,13.93-46.14,14.31-64.17,0.87l-43.8-32.66l63.04-50.42l43.8,32.66	C504.34,455.39,504.84,477.57,487.44,491.49L487.44,491.49z" class="st1"/><path d="M280.02,282.4l22.12-0.26c13.14-0.16,25.02,5.59,29.81,14.43l72.76,133.86c3.15,5.8-1.14,12.34-9.36,14.27	l-102.81,24.07c-9.85,2.31-19.88-3.12-19.58-10.58L280.02,282.4z" class="st7"/><path d="M296.62,282.21l-26.11,0.31c-13.15,0.15-24.78,6.17-29.24,15.1l-74.81,150.1c-2.93,5.88,1.61,12.31,9.9,14.04	l116.33,24.33c9.93,2.08,19.76-3.56,19.16-11.03L296.62,282.21z" class="st7"/><path d="M331.96,296.57c-4.8-8.83-16.67-14.58-29.81-14.43l-5.53,0.06l-16.6,0.19l-9.51,0.11	c-13.14,0.15-24.79,6.17-29.24,15.1l-9.8,19.64l18.11-0.21c3.14-0.04,5.73,1.77,5.78,4.06l0.32,16.29	c0.16,8.46,9.33,15.74,21.06,15.86c12.12,0.12,21.93-7.01,21.76-15.71l-0.35-17.96c-0.03-1.71,1.86-3.12,4.22-3.15	c2.36-0.03,4.31,1.34,4.33,3.05l0.11,4.95c0.16,8.46,9.34,15.74,21.06,15.86c10.41,0.1,19.09-5.15,21.24-12.12L331.96,296.57z" class="st6"/><g><path d="M421.35,376.17c-0.35,0-0.68-0.03-1.02-0.09c-2.75-0.43-4.51-2.5-3.95-4.61l1.58-6.01l-7.64-1.67 c-2.2-0.48-3.71-2.03-3.68-3.79l0.06-6.05l-7.79-0.35c-2.16-0.09-4.01-1.24-4.58-2.85l-3.46-9.52c-0.75-2.07,0.82-4.23,3.51-4.82 c2.7-0.58,5.5,0.64,6.24,2.72l2.48,6.82l9,0.4c2.69,0.11,4.79,1.85,4.77,3.94l-0.07,6.79l8.45,1.84c2.55,0.56,4.12,2.54,3.58,4.55 l-2.53,9.58C425.81,374.89,423.69,376.17,421.35,376.17L421.35,376.17z" class="st8"/></g><g><path d="M20.98,493.17c-2.8,1.14-6.36,0.65-8.45-1.32L1.72,481.67c-2.27-2.13-2.02-5.25,0.57-7.16l8.56-6.29l-5.6-8.06 c-1.72-2.47-0.63-5.55,2.48-7l10.39-4.84l-2.6-9.34c-0.8-2.84,1.55-5.64,5.23-6.26c3.68-0.61,7.32,1.19,8.11,4.04l3.63,13.01 c0.62,2.2-0.65,4.46-3.14,5.62l-9,4.2l4.99,7.18c1.45,2.09,0.92,4.68-1.31,6.31l-7.73,5.7l6.78,6.39c2.4,2.25,1.97,5.57-0.94,7.41 C21.77,492.8,21.39,493,20.98,493.17z" class="st8"/></g><g><g><path d="M191.06,330.23c-0.29-0.6-0.57-1.22-0.87-1.87l-0.28-0.58l-5.21,9.58l-2.96,7.09 c4.47,1.31,9.47-0.44,11.17-3.88C194.46,337.42,193.03,334.4,191.06,330.23z" class="st9"/><path d="M189.21,328.08c-0.77,0.34-1.52,0.65-2.24,0.96c-5.06,2.12-8.71,3.65-10.25,6.8 c-1.69,3.45,0.57,7.31,5.04,8.62l8.17-16.67L189.21,328.08z" class="st9"/></g><g><path d="M179.98,340.2l1.12-0.61c-0.48-0.76-0.58-1.68-0.15-2.54c0.39-0.79,1.14-1.41,2.14-1.76l-0.57-0.96 c-1.31,0.48-2.32,1.31-2.84,2.35C179.1,337.89,179.25,339.16,179.98,340.2L179.98,340.2z" class="st10"/><path d="M181.89,340.45l-1.13,0.61c0.57,0.48,1.28,0.86,2.11,1.1l0.48-0.98 C182.78,341.01,182.29,340.77,181.89,340.45z" class="st10"/></g></g><g><g><path d="M350.62,386.15c-0.65-0.39-1.31-0.82-1.99-1.25l-0.63-0.39l1.97,10.28l2.23,7.25c4.69-0.67,7.8-4.17,6.93-7.8 C358.35,390.94,355.11,388.94,350.62,386.15z" class="st9"/><path d="M347.61,385.05c-0.44,0.59-0.87,1.17-1.29,1.72c-2.9,3.83-5,6.61-4.2,9.92c0.87,3.62,5.39,6.03,10.09,5.36 l-4.21-17.53L347.61,385.05z" class="st9"/></g><g><path d="M347.84,399.12l0.55-0.97c-0.93-0.46-1.62-1.21-1.84-2.1c-0.19-0.84,0.03-1.68,0.64-2.37l-1.13-0.58 c-0.8,0.93-1.11,2.04-0.85,3.14C345.52,397.49,346.52,398.52,347.84,399.12L347.84,399.12z" class="st10"/><path d="M349.64,398.57l-0.55,0.97c0.81,0.18,1.67,0.22,2.55,0.1l-0.25-1.02 C350.78,398.69,350.19,398.68,349.64,398.57z" class="st10"/></g></g><g><g><path d="M261.39,407.07c-0.43-0.53-0.89-1.1-1.36-1.68l-0.41-0.52l-2.5,10.22l-0.97,7.41 c4.72,0.55,9.14-1.96,9.86-5.61C266.66,413.55,264.45,410.83,261.39,407.07z" class="st9"/><path d="M259.01,405.27c-0.67,0.46-1.32,0.88-1.95,1.3c-4.37,2.88-7.53,4.98-8.18,8.31 c-0.71,3.64,2.54,7.06,7.26,7.61l3.47-17.63L259.01,405.27z" class="st9"/></g><g><path d="M253.27,418.62l0.92-0.77c-0.67-0.67-1.02-1.55-0.84-2.46c0.16-0.84,0.73-1.57,1.61-2.08l-0.82-0.84 c-1.16,0.67-1.92,1.65-2.13,2.75C251.76,416.49,252.27,417.71,253.27,418.62L253.27,418.62z" class="st10"/><path d="M255.19,418.55l-0.93,0.77c0.69,0.37,1.48,0.64,2.37,0.74l0.19-1.04 C256.22,418.96,255.67,418.79,255.19,418.55z" class="st10"/></g></g><g><g><path d="M190.7,355.6c-0.11-0.17-0.22-0.35-0.35-0.55l-0.11-0.17l-1.17,3.09l-0.59,2.26c1.44,0.28,2.89-0.4,3.26-1.51 C192.07,357.72,191.49,356.83,190.7,355.6z" class="st9"/><path d="M190.04,354.99c-0.23,0.13-0.44,0.24-0.65,0.35c-1.46,0.79-2.5,1.35-2.84,2.37c-0.36,1.1,0.5,2.22,1.93,2.51 l1.75-5.35L190.04,354.99z" class="st9"/></g><g><path d="M187.77,358.96l0.31-0.21c-0.18-0.22-0.25-0.51-0.16-0.78c0.09-0.25,0.28-0.47,0.58-0.61l-0.22-0.27 c-0.38,0.18-0.65,0.47-0.76,0.8C187.38,358.28,187.49,358.66,187.77,358.96L187.77,358.96z" class="st10"/><path d="M188.35,358.99l-0.32,0.22c0.19,0.12,0.43,0.22,0.7,0.28l0.1-0.31 C188.65,359.14,188.49,359.08,188.35,358.99z" class="st10"/></g></g><g><g><path d="M240.91,351.88c-0.32-0.41-0.65-0.84-0.99-1.28l-0.3-0.4l-2.02,7.61l-0.84,5.54c3.51,0.45,6.86-1.39,7.46-4.1 C244.74,356.77,243.14,354.72,240.91,351.88z" class="st9"/><path d="M239.15,350.52c-0.5,0.33-0.99,0.65-1.47,0.95c-3.31,2.12-5.7,3.65-6.24,6.13c-0.6,2.72,1.79,5.3,5.31,5.77 l2.87-13.15L239.15,350.52z" class="st9"/></g><g><path d="M234.66,360.43l0.7-0.56c-0.5-0.5-0.74-1.17-0.59-1.85c0.13-0.63,0.58-1.17,1.23-1.54l-0.6-0.63 c-0.88,0.5-1.46,1.22-1.63,2.04C233.57,358.83,233.92,359.75,234.66,360.43L234.66,360.43z" class="st10"/><path d="M236.1,360.4l-0.71,0.58c0.5,0.29,1.1,0.49,1.75,0.57l0.17-0.77C236.86,360.72,236.45,360.59,236.1,360.4z" class="st10"/></g></g><g><g><g><path d="M339.36,416.78c-1.17,0-2.11-0.72-2.11-1.61v-1.96c0-0.89,0.94-1.62,2.11-1.62c1.16,0,2.1,0.73,2.1,1.62 v1.96C341.46,416.06,340.52,416.78,339.36,416.78z" class="st11"/></g><g><path d="M339.36,433.55c-1.17,0-2.11-0.73-2.11-1.62v-1.95c0-0.9,0.94-1.63,2.11-1.63c1.16,0,2.1,0.73,2.1,1.63 v1.95C341.46,432.82,340.52,433.55,339.36,433.55z" class="st11"/></g></g><g><g><path d="M332.58,418.95c-0.54,0-1.08-0.15-1.48-0.47l-1.79-1.39c-0.82-0.63-0.82-1.66,0-2.3 c0.82-0.63,2.15-0.63,2.97,0l1.79,1.39c0.82,0.63,0.82,1.66,0,2.3C333.66,418.8,333.12,418.95,332.58,418.95z" class="st11"/></g><g><path d="M347.93,430.8c-0.54,0-1.08-0.15-1.48-0.47l-1.79-1.38c-0.82-0.64-0.82-1.67,0-2.3 c0.82-0.64,2.15-0.64,2.97,0l1.79,1.38c0.82,0.63,0.82,1.66,0,2.3C348.99,430.65,348.47,430.8,347.93,430.8z" class="st11"/></g></g><g><g><path d="M329.77,424.19h-2.53c-1.17,0-2.1-0.72-2.1-1.62c0-0.9,0.93-1.62,2.1-1.62h2.53c1.16,0,2.09,0.72,2.09,1.62 C331.87,423.47,330.93,424.19,329.77,424.19z" class="st11"/></g><g><path d="M351.48,424.19h-2.53c-1.16,0-2.1-0.72-2.1-1.62c0-0.9,0.94-1.62,2.1-1.62h2.53c1.16,0,2.1,0.72,2.1,1.62 C353.58,423.47,352.63,424.19,351.48,424.19z" class="st11"/></g></g><g><g><path d="M330.79,430.8c-0.53,0-1.08-0.15-1.48-0.47c-0.82-0.64-0.82-1.67,0-2.3l1.79-1.38 c0.82-0.64,2.15-0.64,2.97,0c0.82,0.63,0.82,1.66,0,2.3l-1.79,1.38C331.87,430.65,331.33,430.8,330.79,430.8z" class="st11"/></g><g><path d="M346.13,418.95c-0.54,0-1.08-0.15-1.48-0.47c-0.82-0.64-0.82-1.67,0-2.3l1.79-1.39 c0.82-0.63,2.15-0.63,2.97,0c0.82,0.64,0.82,1.67,0,2.3l-1.79,1.39C347.2,418.8,346.67,418.95,346.13,418.95z" class="st11"/></g></g></g><g><ellipse cx="339.36" cy="422.57" class="st12" rx="9.57" ry="7.39"/></g><path d="M339.36,415.18c-1.61,0-3.13,0.31-4.46,0.85c3.04,1.23,5.12,3.7,5.12,6.55c0,2.84-2.07,5.3-5.12,6.55	c1.33,0.54,2.85,0.85,4.46,0.85c5.29,0,9.56-3.31,9.56-7.39C348.92,418.5,344.64,415.18,339.36,415.18z" class="st11"/><g><g><g><path d="M251.49,377.35c-1,0-1.81-0.63-1.81-1.4v-1.69c0-0.77,0.81-1.39,1.81-1.39c1.01,0,1.81,0.62,1.81,1.39v1.69 C253.3,376.72,252.51,377.35,251.49,377.35z" class="st11"/></g><g><path d="M251.49,391.8c-1,0-1.81-0.63-1.81-1.4v-1.69c0-0.77,0.81-1.39,1.81-1.39c1.01,0,1.81,0.62,1.81,1.39v1.69 C253.3,391.17,252.51,391.8,251.49,391.8z" class="st11"/></g></g><g><g><path d="M245.65,379.21c-0.47,0-0.93-0.14-1.28-0.41l-1.55-1.19c-0.7-0.55-0.7-1.44,0-1.98 c0.7-0.54,1.86-0.54,2.57,0l1.55,1.19c0.7,0.54,0.7,1.43,0,1.98C246.58,379.08,246.12,379.21,245.65,379.21z" class="st11"/></g><g><path d="M258.89,389.43c-0.47,0-0.93-0.13-1.28-0.41l-1.55-1.19c-0.7-0.54-0.7-1.43,0-1.98 c0.7-0.54,1.85-0.54,2.56,0l1.55,1.19c0.7,0.55,0.7,1.44,0,1.98C259.81,389.3,259.35,389.43,258.89,389.43z" class="st11"/></g></g><g><g><path d="M243.23,383.73h-2.19c-1,0-1.82-0.63-1.82-1.4c0-0.77,0.82-1.4,1.82-1.4h2.19c1,0,1.82,0.64,1.82,1.4 C245.05,383.1,244.23,383.73,243.23,383.73z" class="st11"/></g><g><path d="M261.94,383.73h-2.19c-1,0-1.8-0.63-1.8-1.4c0-0.77,0.8-1.4,1.8-1.4h2.19c1,0,1.82,0.64,1.82,1.4 C263.77,383.1,262.95,383.73,261.94,383.73z" class="st11"/></g></g><g><g><path d="M244.11,389.43c-0.47,0-0.92-0.13-1.28-0.41c-0.7-0.54-0.7-1.43,0-1.98l1.55-1.19 c0.7-0.54,1.85-0.54,2.56,0c0.7,0.55,0.7,1.44,0,1.98l-1.55,1.19C245.04,389.3,244.57,389.43,244.11,389.43z" class="st11"/></g><g><path d="M257.34,379.21c-0.47,0-0.92-0.14-1.28-0.41c-0.7-0.55-0.7-1.44,0-1.98l1.55-1.19 c0.7-0.54,1.85-0.54,2.56,0c0.7,0.54,0.7,1.43,0,1.98l-1.55,1.19C258.27,379.08,257.81,379.21,257.34,379.21z" class="st11"/></g></g></g><g><ellipse cx="251.49" cy="382.33" class="st12" rx="8.26" ry="6.38"/></g><path d="M251.49,375.95c-1.39,0-2.7,0.26-3.84,0.72c2.62,1.08,4.41,3.19,4.41,5.65s-1.79,4.57-4.41,5.64	c1.14,0.47,2.46,0.73,3.84,0.73c4.56,0,8.25-2.86,8.25-6.38C259.75,378.8,256.06,375.95,251.49,375.95z" class="st11"/><g><g><g><path d="M199.69,446.31c-0.67,0-1.21-0.41-1.21-0.93v-1.13c0-0.51,0.54-0.94,1.21-0.94c0.67,0,1.2,0.43,1.2,0.94 v1.13C200.89,445.9,200.36,446.31,199.69,446.31z" class="st11"/></g><g><path d="M199.69,455.98c-0.67,0-1.21-0.41-1.21-0.93v-1.13c0-0.51,0.54-0.94,1.21-0.94c0.67,0,1.2,0.42,1.2,0.94 v1.13C200.89,455.57,200.36,455.98,199.69,455.98z" class="st11"/></g></g><g><g><path d="M195.78,447.57c-0.31,0-0.62-0.09-0.85-0.28l-1.04-0.8c-0.47-0.36-0.47-0.96,0-1.33 c0.48-0.36,1.24-0.36,1.72,0l1.03,0.8c0.48,0.37,0.48,0.96,0,1.32C196.4,447.47,196.09,447.57,195.78,447.57z" class="st11"/></g><g><path d="M204.62,454.4c-0.31,0-0.62-0.1-0.85-0.28l-1.03-0.79c-0.47-0.37-0.47-0.96,0-1.33 c0.47-0.37,1.24-0.37,1.71,0l1.03,0.8c0.48,0.37,0.48,0.96,0,1.32C205.25,454.31,204.94,454.4,204.62,454.4z" class="st11"/></g></g><g><g><path d="M194.16,450.59h-1.46c-0.67,0-1.21-0.42-1.21-0.93c0-0.52,0.55-0.94,1.21-0.94h1.46 c0.66,0,1.2,0.42,1.2,0.94C195.37,450.16,194.83,450.59,194.16,450.59z" class="st11"/></g><g><path d="M206.67,450.59h-1.46c-0.67,0-1.21-0.42-1.21-0.93c0-0.52,0.54-0.94,1.21-0.94h1.46 c0.67,0,1.21,0.42,1.21,0.94C207.89,450.16,207.35,450.59,206.67,450.59z" class="st11"/></g></g><g><g><path d="M194.74,454.4c-0.31,0-0.62-0.1-0.87-0.28c-0.47-0.36-0.47-0.95,0-1.32l1.04-0.8c0.47-0.37,1.24-0.37,1.7,0 c0.48,0.36,0.48,0.96,0,1.33l-1.03,0.79C195.37,454.31,195.05,454.4,194.74,454.4z" class="st11"/></g><g><path d="M203.59,447.57c-0.31,0-0.62-0.09-0.85-0.28c-0.47-0.36-0.47-0.95,0-1.32l1.04-0.8 c0.47-0.36,1.23-0.36,1.7,0c0.48,0.37,0.48,0.96,0,1.33l-1.03,0.8C204.22,447.47,203.91,447.57,203.59,447.57z" class="st11"/></g></g></g><g><ellipse cx="199.69" cy="449.64" class="st12" rx="5.53" ry="4.27"/></g><path d="M199.69,445.38c-0.93,0-1.8,0.18-2.57,0.5c1.76,0.71,2.95,2.13,2.95,3.77s-1.19,3.06-2.95,3.77	c0.77,0.31,1.64,0.49,2.57,0.49c3.05,0,5.52-1.91,5.52-4.26S202.74,445.38,199.69,445.38z" class="st11"/></svg>