<svg xmlns="http://www.w3.org/2000/svg" xmlns:xlink="http://www.w3.org/1999/xlink" id="Layer_1" x="0" y="0" version="1.1" viewBox="0 0 500 500" xml:space="preserve" style="enable-background:new 0 0 500 500"><style type="text/css">.st0{fill:#d8939e}.st1{fill:#d76f79}.st2{fill:#cd7e86}.st3{fill:#e5a9af}</style><g><path d="M317.6,438.12c-14.31-13.07-1.83-61.14-1.83-84.77l-75.14,27.09l47.3,106.67 c3.47,7.83,10.13,12.72,17.39,12.72c13.08,0,22.57-15.33,19.12-30.88L317.6,438.12z" class="st0"/><path d="M294.02,380.45c0,39.62,26.05,71.72,58.18,71.72h10.25c38.22,0,71.41-33.97,75.88-77.54 c-9.2,3.78-25.4-37.03-35.64-37.03L294.02,380.45z" class="st1"/><path d="M171.47,380.45h154.02h83.56c25.62,0,48.82-12.82,65.61-33.54c12.34-15.23,12.36-39.9,0.01-55.12l-8.21-10.12 l1.55,1.9c12.36,15.24,33.67,4.67,33.74-16.89c0-0.17,0-0.34,0-0.51c0-73.05-23.84-139.21-62.48-187.34 c-7.72-9.64-20.31-9.77-28.1-0.18l-2.69,3.31c8.81-10.86,7.36-28.96-3.01-37.49h0.01C371.2,16.28,330.01-0.16,285.7-0.16h-14.18 c-10.92,0-19.77,10.9-19.77,24.37c0-13.46-8.86-24.37-19.76-24.37h-44.14c-32.89,0-64.37,10.27-92.04,28.74 c-11.56,7.71-13.73,27.08-4.43,38.55l-4.91-6.06c-7.41-9.13-19.31-9.53-27.14-0.96c-22.9,25.12-40.95,57.19-52.38,93.96 c-19.66,64.24,18.86,132.88,74.54,132.88h18.79c1.4,0,2.5,1.45,2.42,3.17c-0.1,1.83-0.14,3.7-0.14,5.54 C102.56,342.56,133.42,380.55,171.47,380.45L171.47,380.45z" class="st0"/><path d="M439.28,78.84c-6.73-8.38-17.12-9.56-24.82-3.44c29.45,45.52,47.07,103.21,47.07,165.96v0.28 c-0.13,62.99-41.59,114.01-92.71,114.01H131.23c-3.08,0.01-6.1-0.23-9.09-0.71c12.52,15.8,30,25.58,49.33,25.53h237.58 c25.62,0,48.82-12.83,65.61-33.54c12.33-15.24,12.36-39.9,0.02-55.13l-6.66-8.2c12.36,15.23,33.66,4.64,33.74-16.91 c0-0.17,0-0.34,0-0.51C501.75,193.13,477.91,126.96,439.28,78.84z" class="st2"/><path d="M62.88,99.47c-2.9,3.98-5.68,8.13-8.33,12.42c-3.8,6.13-3.33,14.77,1.09,20.21l0.14,0.16 c5.35,6.59,14.16,5.83,18.76-1.57c2.25-3.63,4.59-7.13,7.05-10.51c4.35-5.99,4.3-15.06-0.19-20.9l-0.13-0.17 C76.24,92.58,67.76,92.74,62.88,99.47z" class="st3"/><path d="M57.34,209.32c-4.55-8.12-6.29-17.28-4.7-27.21c0.83-5.09-0.4-10.36-3.38-14.05 c-7.01-8.64-18.94-4.24-21.03,7.71c-3,17.13-1.28,33.85,8.44,51.17c7.16,12.77,17.22,21.77,28.77,26.09 c8,2.99,16.06-4.43,16.06-14.74v-0.24c0-6.7-3.48-12.73-8.68-14.65C66.59,221.12,61.26,216.3,57.34,209.32z" class="st3"/><g><path d="M317.88,201.62H299h-15.08H208.3h-15.08h-29.5c-12.15,0-23.64,3.51-33.85,9.76l-13.09,10.17 c-16.12,15.55-27.07,38.9-29.06,65.4h12.56c1.26,0,2.27,1.16,2.41,2.64c2.52-38.78,28.93-69.38,61.03-69.38h154.17 c4.16,0,7.55-4.17,7.55-9.31C325.43,205.77,322.06,201.62,317.88,201.62z" class="st2"/><path d="M321.53,279.64c24.67,0,47.89-11.85,65.34-33.37l23.36-28.79c2.95-3.63,2.95-9.51,0-13.15 c-2.95-3.63-7.72-3.65-10.67,0l-23.36,28.79c-14.6,17.99-34.02,27.92-54.67,27.92H192.82c-15.92,0-30.9,7.63-42.16,21.53 l-2.56,3.15c-2.95,3.64-2.95,9.52,0,13.17c1.47,1.81,3.41,2.73,5.33,2.73c1.94,0,3.86-0.92,5.34-2.73l2.56-3.16 c8.41-10.38,19.6-16.08,31.49-16.08L321.53,279.64L321.53,279.64z" class="st2"/><path d="M385.98,354.59c-19.97-24.59-46.49-38.15-74.71-38.15h-93.86c-4.16,0-7.54,4.16-7.54,9.3 c0,5.14,3.38,9.3,7.54,9.3h93.85c24.19,0,46.93,11.61,64.05,32.7l10.3,12.71h21.35L385.98,354.59z" class="st2"/><path d="M418.94,257.81c-2.95,3.64-2.95,9.51,0,13.16c1.47,1.81,3.41,2.72,5.35,2.72c1.92,0,3.85-0.9,5.33-2.72 l13.59-16.76c17.06-21.03,20.01-54.5,7.01-79.54l-5.89-11.35c-2.23-4.33-6.91-5.59-10.41-2.82c-3.52,2.78-4.54,8.52-2.29,12.86 l5.88,11.35c9.21,17.75,7.12,41.46-4.96,56.37L418.94,257.81z" class="st2"/><path d="M86.47,61.07c-6.55-8.07-16.61-9.33-24.25-3.59l37.31,46c1.48,1.82,3.4,2.72,5.33,2.72 c1.94,0,3.87-0.9,5.34-2.72c2.95-3.65,2.95-9.53,0-13.17L86.47,61.07z" class="st2"/><path d="M244.21,115.45c4.17,0,7.55-4.18,7.55-9.32V24.2c0-11.48-6.42-21.09-15.09-23.69v105.63 C236.67,111.27,240.05,115.45,244.21,115.45z" class="st2"/><path d="M163.18,121.09c-3.09,0.37-5.33,3.99-5,8.13l5.2,65.65c0,0,3.32,3.3,6.08,2.46c2.75-0.84,5.07-4.15,5.07-4.15 l-5.17-65.31C169.03,123.74,166.27,120.69,163.18,121.09z" class="st2"/><path d="M310.44,79.89c-3.1-0.15-5.75,4.88-5.92,11.24l-2.76,101.03c0,0,2.89,5.78,5.72,5.13 c2.82-0.65,5.51-5.16,5.51-5.16l2.75-100.53C315.92,85.24,313.55,80.01,310.44,79.89z" class="st2"/><path d="M269.9,141.07c-3.1-0.15-5.68,2.23-5.76,5.28l-1.28,48.59c0,0,2.97,2.85,5.79,2.59 c2.8-0.26,5.43-2.37,5.43-2.37l1.3-48.33C275.45,143.75,273,141.18,269.9,141.07z" class="st2"/><path d="M214.66,138.6c-3.1,0-5.61,2.47-5.61,5.52l0.03,48.62c0,0,3.04,2.72,5.85,2.35c2.8-0.37,5.36-2.6,5.36-2.6 l-0.02-48.38C220.27,141.07,217.76,138.6,214.66,138.6z" class="st2"/><path d="M106.24,185.29c-2.78,1.69-4.53,4.36-3.89,5.96l10.2,25.62c0,0,3.31-0.22,5.75-1.94 c2.44-1.71,4.28-4.29,4.28-4.29l-10.15-25.48C111.79,183.54,109.02,183.6,106.24,185.29z" class="st2"/><path d="M411.42,52.09c-1.45-2.94-3.44-5.56-5.94-7.62h0.01c-13.63-11.21-28.36-20.56-43.92-27.75 c10.03,7.9,19.51,16.79,28.32,26.55c8.19,9.09,8.64,24.72,0.84,34.34l-27.51,33.9c-2.96,3.64-2.96,9.52,0,13.15 c1.48,1.82,3.4,2.73,5.34,2.73c1.92,0,3.86-0.91,5.33-2.73l34.61-42.68C415.16,73.75,415.98,61.33,411.42,52.09L411.42,52.09z" class="st2"/></g></g></svg>