<?xml version="1.0" encoding="utf-8"?>
<!-- Generator: Adobe Illustrator 25.2.0, SVG Export Plug-In . SVG Version: 6.00 Build 0)  -->
<svg version="1.1" id="Layer_1" xmlns="http://www.w3.org/2000/svg" xmlns:xlink="http://www.w3.org/1999/xlink" x="0px" y="0px"
	 viewBox="0 0 500 500" style="enable-background:new 0 0 500 500;" xml:space="preserve">
<style type="text/css">
	.st0{fill:#CA8C94;}
	.st1{fill:#B65C63;}
	.st2{fill:#E28086;}
	.st3{fill:#CF5564;}
	.st4{fill:#C24D5D;}
	.st5{fill:#AB2E41;}
	.st6{fill:#E17361;}
	.st7{opacity:0.1;fill:#010101;enable-background:new    ;}
	.st8{fill:#9EC0E5;}
	.st9{fill:#A2C5E8;}
	.st10{fill:#DB4B55;}
</style>
<g>
	<g>
		<g>
			<path class="st0" d="M490.72,209.7H369.67v-51.87h121.05c5.65,0,10.23,3.07,10.23,6.85v38.17
				C500.95,206.63,496.38,209.7,490.72,209.7z"/>
		</g>
	</g>
	<g>
		<path class="st1" d="M490.72,157.84h-25.64v21c0,3.78-4.56,6.85-10.22,6.85h-85.2v24.01H490.7c5.64,0,10.22-3.07,10.22-6.85
			v-38.17C500.95,160.9,496.38,157.84,490.72,157.84L490.72,157.84z"/>
	</g>
	<g>
		<g>
			<path class="st0" d="M178.44,151.13h-77.43V7.2c0-3.78,4.58-6.85,10.22-6.85h56.98c5.65,0,10.22,3.07,10.22,6.85V151.13
				L178.44,151.13z"/>
		</g>
	</g>
	<g>
		<path class="st1" d="M168.22,0.34h-26.93v150.79h37.16V7.2C178.44,3.41,173.87,0.34,168.22,0.34L168.22,0.34z"/>
	</g>
	<g>
		<g>
			<path class="st2" d="M255.88,182.02h-77.43V68.51c0-38.37,46.44-69.47,103.71-69.47h22.56c5.64,0,10.23,3.07,10.23,6.85v38.17
				c0,3.78-4.58,6.85-10.23,6.85h-22.56c-14.51,0-26.28,7.89-26.28,17.6V182.02z"/>
		</g>
	</g>
	<g>
		<path class="st3" d="M304.74-0.96h-22.56c-1.9,0-3.79,0.04-5.66,0.11v29.18c0,3.78-4.58,6.85-10.23,6.85h-6.18
			c-23.55,0-42.65,12.79-42.65,28.57v118.28h38.47V68.51c0-9.73,11.79-17.6,26.28-17.6h22.56c5.64,0,10.23-3.07,10.23-6.85V5.89
			C314.96,2.11,310.38-0.96,304.74-0.96L304.74-0.96z"/>
	</g>
	<g>
		<path class="st4" d="M427.38,181.91l-16.22,49.16l-133.61-50.43l51.39-87.19l74.79,41.9C423.96,146.7,433.08,164.65,427.38,181.91
			z"/>
	</g>
	<g>
		<path class="st5" d="M403.72,135.35l-74.8-41.9l-13.04,22.12l46.59,26.1c20.24,11.34,29.37,29.29,23.67,46.55l-9.82,29.71
			l34.82,13.14l16.22-49.16C433.08,164.65,423.96,146.7,403.72,135.35z"/>
	</g>
	<g>
		<path class="st4" d="M159.93,124.38L113.31,93.2c-18.83-12.6-50.17-10.51-64.93,4.32l-25.64,25.76
			c-24.8,24.95-28.72,56.7-10.32,84.03l57.81,85.93l99.29-94.45C193.79,175.73,189.74,144.31,159.93,124.38L159.93,124.38z"/>
	</g>
	<path class="st5" d="M159.93,124.38L113.31,93.2c-15.89-10.63-40.65-10.8-56.87-1.7c3.26,1.23,6.31,2.77,9.1,4.63l46.63,31.18
		c29.8,19.94,33.86,51.35,9.61,74.42l-68.95,65.6l17.44,25.92l99.29-94.45C193.79,175.73,189.74,144.31,159.93,124.38L159.93,124.38
		z"/>
	<g>
		<path class="st0" d="M167.41,161.98l59.14-48.16c31.86-25.95,79.39-40.99,129.54-40.99h82.43c5.65,0,10.23,3.07,10.23,6.85v38.09
			c0,3.78-4.56,6.85-10.23,6.85h-70.96c-22.98,0-41.38,12.74-40.63,28.12l1.77,36L167.41,161.98z"/>
	</g>
	<g>
		<path class="st1" d="M438.53,72.83h-28.79v18.82c0,3.78-4.56,6.85-10.22,6.85h-39.77c-39.87,0-72.1,21.8-71.73,48.51l0.49,35.08
			l40.17,6.66l-1.76-36c-0.76-15.38,17.65-28.12,40.62-28.12h70.96c5.65,0,10.22-3.07,10.22-6.85V79.69
			C448.76,75.9,444.18,72.83,438.53,72.83z"/>
	</g>
	<g>
		<path class="st6" d="M306.14,493.97l-112.8-35.61c-56.47-17.82-101.16-48.94-125.56-87.41c-31.59-49.79-25.96-106.68,15.19-153.24
			l37.97-43.01c23.65-26.76,73.31-37.57,115.94-25.21l91.2,26.45c0,0,30.88,17.18,41.92,22.17c11.06,5,37.83,8.15,47.27,14.39
			c24.16,15.96,42.66,35.68,53.56,57.74c15.49,31.3,14.57,65.19-2.57,96.1l-54.43,98.21C397.74,493.58,347.98,507.18,306.14,493.97
			L306.14,493.97z"/>
	</g>
	<g>
		<path class="st7" d="M470.84,270.22c-19.39-39.28-62.92-71.14-119.6-87.58l-38.38-11.13c35.66,18.02,62.7,43.02,76.97,71.94
			c15.85,32.07,14.91,66.79-2.64,98.45l-55.78,100.61c-12.26,22.11-43.54,35.46-76.37,35.33l51.09,16.13
			c41.84,13.21,91.59-0.39,107.69-29.43l54.43-98.21C485.39,335.42,486.29,301.52,470.84,270.22L470.84,270.22z"/>
	</g>
	<g>
		<path class="st3" d="M171.26,301.42H152.4c-22.18,0-40.2-12.08-40.2-26.94v-6.17c0-4.05,4.89-7.34,10.94-7.34
			c6.06,0,10.96,3.29,10.96,7.34v6.17c0,6.76,8.21,12.26,18.3,12.26h18.86c6.06,0,10.96,3.29,10.96,7.34
			C182.22,298.14,177.3,301.42,171.26,301.42L171.26,301.42z"/>
	</g>
	<path class="st8" d="M349.23,452.81v-15.99c0-11.76-6.83-22.81-19.25-31.13c-8.29-5.54-12.83-12.91-12.83-20.75v-22.12
		c0-0.01,0-0.01,0-0.02c-0.01-11.76-6.83-22.81-19.25-31.12l-19.16-12.83l1.46-0.98c11.69-7.83,18.1-18.23,18.1-29.29V167.3
		l-21.91-6.36v127.63c0,7.14-4.16,13.86-11.7,18.91l-31.08,20.83c-4.26,2.86-4.26,7.51,0,10.38c4.28,2.86,11.21,2.86,15.51,0
		l14.12-9.46l19.16,12.83c7.24,4.86,11.64,11.11,12.63,17.85l-28.67,19.2c-9.38,6.29-14.57,14.65-14.57,23.55v7.48
		c0,6.15-7.45,11.15-16.64,11.15c-6.06,0-10.95,3.28-10.95,7.34c0,4.05,4.89,7.33,10.95,7.33c21.26,0,38.55-11.58,38.55-25.82v-7.48
		c0-4.97,2.9-9.65,8.15-13.17l13.37-8.96v4.4c0,11.76,6.83,22.82,19.25,31.13c8.29,5.54,12.83,12.91,12.83,20.75v16
		c0,4.05,4.89,7.33,10.95,7.33S349.23,456.87,349.23,452.81L349.23,452.81z"/>
	<path class="st9" d="M349.23,452.81v-15.99c0-5.98-1.77-11.78-5.15-17.13l-12.66,22.82c-1.19,2.15-2.58,4.22-4.12,6.21v4.09
		c0,4.06,4.9,7.34,10.96,7.34C344.33,460.15,349.23,456.87,349.23,452.81L349.23,452.81z"/>
	<path class="st8" d="M183.89,210.16h-39.41c-10.15,0-19.66-2.65-26.86-7.46l-13.43-9l-11.5,13.05l9.47,6.33
		c10.87,7.29,25.24,11.43,40.58,11.72v23.48c0,4.06,4.88,7.34,10.94,7.34c6.06,0,10.95-3.28,10.95-7.34v-23.45h19.28
		c6.06,0,10.95-3.28,10.95-7.34C194.84,213.44,189.93,210.16,183.89,210.16L183.89,210.16z"/>
	<path class="st3" d="M430.93,295.36H414.6c-7.38,0-14.3-1.92-19.49-5.4L378.6,278.9v-86.7c-7.04-2.9-14.33-5.55-21.9-7.91v37.8
		h-58.8c-23.6,0-42.8,12.86-42.8,28.66c0,7.71-9.36,13.99-20.9,13.99h-14.53c-11.43,0-22.19,2.98-30.27,8.39l-59.61,39.94
		c-4.28,2.86-4.28,7.51,0,10.38c4.26,2.86,11.2,2.86,15.5,0l59.62-39.93c3.93-2.64,9.21-4.1,14.76-4.1h14.53
		c23.6,0,42.8-12.86,42.8-28.67c0-7.71,9.36-13.99,20.9-13.99h58.81v11.25l-33.63,22.53c-4.27,2.86-4.27,7.51,0,10.38
		c4.27,2.86,11.21,2.87,15.5,0l18.13-12.15v65.87c0,17.91,10.41,34.75,29.32,47.41l14.61,9.79c4.28,2.86,11.21,2.86,15.51,0
		c4.27-2.86,4.26-7.51,0-10.38l-14.62-9.79c-5.59-3.74-10.22-7.95-13.82-12.49h32.19c6.06,0,10.95-3.28,10.95-7.33
		c0-4.06-4.89-7.34-10.95-7.34h-39.87c-0.91-3.22-1.41-6.52-1.41-9.86v-34.98l1.02,0.67c9.32,6.26,21.76,9.71,34.98,9.71h16.33
		c6.05,0,10.95-3.28,10.95-7.34C441.9,298.65,436.98,295.36,430.93,295.36L430.93,295.36z"/>
	<g>
		<path class="st10" d="M416.12,381.46l-14.61-9.79c-5.59-3.74-10.23-7.95-13.83-12.49h32.2c6.06,0,10.94-3.28,10.94-7.33
			c0-4.06-4.89-7.34-10.94-7.34h-34.14l-14.08,25.41c4.03,4.35,8.81,8.42,14.35,12.13l14.61,9.79c4.28,2.86,11.22,2.86,15.52,0
			C420.41,388.97,420.41,384.33,416.12,381.46L416.12,381.46z"/>
		<path class="st10" d="M430.93,295.36H414.6c-4.86,0-9.48-0.84-13.57-2.4c-0.16,5.17-0.7,10.34-1.66,15.49
			c4.87,1.04,9.97,1.59,15.23,1.59h16.33c6.05,0,10.93-3.28,10.93-7.34C441.87,298.64,436.98,295.36,430.93,295.36z"/>
		<path class="st10" d="M378.62,225.07v-32.86c-1.74-0.72-3.53-1.43-5.31-2.12c-0.02-0.01-0.02-0.01-0.03-0.01
			c-1.71-0.66-3.43-1.3-5.17-1.93c-0.13-0.04-0.23-0.09-0.35-0.13c-1.62-0.59-3.29-1.16-4.92-1.72c-0.2-0.07-0.42-0.14-0.62-0.21
			c-1.81-0.61-3.64-1.21-5.51-1.79v16.73C365.1,208.53,372.44,216.57,378.62,225.07z"/>
	</g>
</g>
</svg>
