<svg xmlns="http://www.w3.org/2000/svg" xmlns:xlink="http://www.w3.org/1999/xlink" id="Layer_1" x="0" y="0" version="1.1" viewBox="0 0 500 500" xml:space="preserve" style="enable-background:new 0 0 500 500"><style type="text/css">.st0{fill:#d1a983}.st1{opacity:.1;fill:#010101;enable-background:new}.st2{fill:#2d5a7d}.st3{fill:#e17361}</style><path d="M223.11,499.88c-9.21,0-16.67-9.62-16.67-21.48V301.87c0-14.77-7.36-27.66-18.29-32.08l-59.37-23.97	c-8.79-3.54-13.68-15.6-10.92-26.92c2.75-11.32,12.1-17.63,20.88-14.08l59.37,23.97c24.91,10.06,41.66,39.42,41.66,73.08V478.4	C239.78,490.27,232.32,499.88,223.11,499.88z" class="st0"/><path d="M190.32,327.29c-4.43-19.01-12.38-36.45-23.38-51.08l-26.84-10.84c-7.9-3.19-16.28,2.48-18.77,12.64	c-2.46,10.17,1.93,21,9.82,24.17l53.32,21.53C186.59,324.56,188.54,325.78,190.32,327.29z" class="st1"/><path d="M303.39,499.88c-9.21,0-16.67-9.62-16.67-21.48V301.87c0-33.65,16.74-63.02,41.66-73.08l59.38-23.97	c8.78-3.55,18.14,2.75,20.89,14.08c2.75,11.32-2.14,23.37-10.92,26.92l-59.39,23.97c-10.94,4.41-18.29,17.31-18.29,32.08V478.4	C320.05,490.27,312.59,499.88,303.39,499.88z" class="st0"/><path d="M313.48,327.29c4.43-19.01,12.39-36.45,23.38-51.08l26.85-10.84c7.9-3.19,16.28,2.48,18.76,12.64	c2.48,10.17-1.92,21-9.81,24.17l-53.32,21.53C317.22,324.56,315.26,325.78,313.48,327.29z" class="st1"/><path d="M377.42,256.61l-59.68-26.89c-12.56-5.65-23.1-16.98-29.69-31.87l-14.11-31.84	c-4.65-10.53-7.11-22.44-7.11-34.56V19.72c0-10.39-6.19-19.33-14.24-19.81c-8.6-0.52-15.69,8.31-15.69,19.27v112.28	c0,12.12-2.44,24.03-7.11,34.56l-14.09,31.84c-6.59,14.89-17.13,26.21-29.7,31.86l-59.28,26.7c-7.77,3.51-12.27,14.36-9.67,24.44	c2.08,8.13,7.94,13.24,14.21,13.24c1.64,0,3.3-0.35,4.94-1.09l59.68-26.88c19.38-8.73,35.65-26.19,45.82-49.17l8.87-20.01	c0.58-1.31,2.04-1.31,2.61,0l8.86,20.01c10.18,22.98,26.44,40.44,45.83,49.17l59.68,26.88c1.64,0.74,3.3,1.09,4.94,1.09	c6.18,0,11.98-4.98,14.13-12.93C389.34,271.13,385.23,260.13,377.42,256.61z" class="st2"/><path d="M332.58,274.91c2.07-2.66,2.49-4.81,2.49-7.2s-0.43-4.53-2.49-7.2c-7.5-9.68-13.62-20.66-18.25-32.55	c1.26,0.71,2.54,1.37,3.83,1.97l59.29,26.7c7.76,3.5,12.25,14.36,9.67,24.44c-2.09,8.13-7.95,13.24-14.21,13.24	c-1.64,0-3.31-0.34-4.94-1.09l-36.7-16.53C331.71,276.09,332.13,275.49,332.58,274.91z" class="st1"/><path d="M171.62,274.72c-2.05-2.67-2.49-4.81-2.49-7.2c0-2.4,0.44-4.54,2.49-7.21c7.51-9.68,13.62-20.67,18.26-32.55	c-1.26,0.71-2.54,1.37-3.84,1.95l-59.27,26.7c-7.78,3.5-12.27,14.36-9.67,24.44c2.08,8.14,7.94,13.24,14.21,13.24	c1.64,0,3.31-0.35,4.94-1.09l36.7-16.53C172.49,275.91,172.07,275.3,171.62,274.72z" class="st1"/><path d="M1.9,267.52c0,50.43,10.56,116.23,47.84,164.29c29.16,37.59,76.45,37.59,105.6,0s29.16-98.52,0-136.1	c-8.35-10.77-9.25-22.26-9.25-28.19c0-5.93,0.88-17.43,9.25-28.19c29.16-37.59,29.16-98.52,0-136.11s-76.45-37.59-105.6,0	C12.45,151.28,1.9,217.09,1.9,267.52z" class="st3"/><path d="M36.55,122.75C9.91,168.09,1.9,223.63,1.9,267.52c0,50.43,10.56,116.23,47.84,164.29	c29.16,37.59,76.45,37.59,105.6,0c2.24-2.89,4.31-5.95,6.21-9.1C61.8,459.4-11.31,264.23,36.55,122.75z" class="st1"/><path d="M501.9,267.52c0,50.43-10.55,116.23-47.84,164.29c-29.16,37.59-76.45,37.59-105.6,0	c-29.16-37.59-29.16-98.52,0-136.1c8.35-10.77,9.24-22.26,9.24-28.19c0-5.93-0.88-17.43-9.24-28.19	c-29.16-37.59-29.16-98.52,0-136.11c29.15-37.59,76.45-37.59,105.6,0C491.35,151.28,501.9,217.09,501.9,267.52z" class="st3"/><path d="M403.54,411.34c-46.26-4.32-60.3-68.27-51.2-121.58c-1.07,1.98-2.34,3.97-3.87,5.94	c-29.16,37.59-29.16,98.52,0,136.1c29.15,37.59,76.45,37.59,105.6,0c31.33-40.38,43.77-93.3,46.96-139.1	C470.17,385.73,451.89,415.86,403.54,411.34z" class="st1"/><path d="M146.14,265.47c-17.98,6.41-27.67,24.56-32.03,35.51c-1.84,4.64-0.42,10.33,3.2,12.7	c1.07,0.71,2.21,1.04,3.33,1.04c2.65,0,5.23-1.88,6.53-5.14c3.09-7.78,9.8-20.54,21.76-25.49c-2.45-6.7-2.83-12.79-2.83-16.57	C146.1,266.9,146.12,266.2,146.14,265.47z M146.25,263.53c0.36-4.79,1.52-11.21,5-17.83c-13.43-4.17-20.8-18.05-24.08-26.32	c-1.85-4.64-6.26-6.47-9.85-4.1c-3.61,2.38-5.03,8.06-3.19,12.71C118.48,238.94,128.21,257.14,146.25,263.53z" class="st1"/><path d="M386.49,215.28c-3.61-2.38-8.01-0.54-9.85,4.1c-3.28,8.28-10.64,22.15-24.07,26.32	c3.47,6.61,4.63,13.03,4.98,17.83c18.04-6.38,27.78-24.58,32.13-35.54C391.51,223.34,390.1,217.65,386.49,215.28z" class="st1"/><path d="M376.64,309.58c1.3,3.27,3.86,5.14,6.53,5.14c1.13,0,2.26-0.34,3.33-1.04c3.61-2.38,5.02-8.07,3.19-12.71	c-4.35-10.94-14.05-29.09-32.03-35.51c0.04,0.74,0.05,1.43,0.05,2.05c0,3.79-0.37,9.87-2.83,16.58	C366.84,289.04,373.55,301.81,376.64,309.58z" class="st1"/></svg>