<?xml version="1.0" encoding="utf-8"?>
<!-- Generator: Adobe Illustrator 25.2.0, SVG Export Plug-In . SVG Version: 6.00 Build 0)  -->
<svg version="1.1" id="Layer_1" xmlns="http://www.w3.org/2000/svg" xmlns:xlink="http://www.w3.org/1999/xlink" x="0px" y="0px"
	 viewBox="0 0 500 500" style="enable-background:new 0 0 500 500;" xml:space="preserve">
<style type="text/css">
	.st0{fill:#3F4B67;}
	.st1{fill:#E49949;}
	.st2{fill:#215EA1;}
	.st3{fill:#A5393F;}
	.st4{fill:#6C2028;}
</style>
<path class="st0" d="M233.29,338.11v141.05c0,11.43,7.46,20.68,16.66,20.68c9.19,0,16.65-9.25,16.65-20.68V313.66
	C255.84,322.14,244.74,330.34,233.29,338.11z"/>
<path class="st1" d="M306.27,362.12h-14.95c-23.36,0-42.52-22.18-44.65-50.5c-8.25,8.29-16.94,16.62-26.03,24.91
	c10.09,36.48,37.89,62.76,70.67,62.76h14.95c8.25,0,14.96-8.31,14.96-18.58C321.22,370.44,314.53,362.12,306.27,362.12z"/>
<path class="st2" d="M201.59,92.74c-4.12,0-7.47-4.16-7.47-9.29c0-25.61-16.77-46.44-37.38-46.44c-4.13,0-7.47-4.16-7.47-9.29
	c0-5.13,3.35-9.29,7.47-9.29c28.85,0,52.34,29.17,52.34,65.02C209.07,88.58,205.73,92.74,201.59,92.74z"/>
<path class="st2" d="M224.03,92.74c-4.13,0-7.47-4.16-7.47-9.29c0-5.13,3.34-9.29,7.47-9.29c20.61,0,37.38-20.84,37.38-46.44
	c0-5.13,3.35-9.29,7.47-9.29c4.12,0,7.47,4.16,7.47,9.29C276.38,63.57,252.89,92.74,224.03,92.74z"/>
<path class="st0" d="M209.76,123.26c4.72,1.32,9.49,2.38,14.27,3.31V18.43c0-10.27-6.7-18.58-14.96-18.58
	c-8.25,0-14.96,8.31-14.96,18.58v101.01C199.78,120.68,205.13,121.97,209.76,123.26z"/>
<path class="st1" d="M14.68,92.74h7.47c15.33,0,28.74,9.65,36.83,24.22c10.12-3.41,20.64-5.49,31.27-6.63
	c-11.72-32.25-37.75-54.74-68.1-54.74h-7.47c-8.25,0-14.96,8.31-14.96,18.57C-0.27,84.43,6.42,92.74,14.68,92.74L14.68,92.74z"/>
<path class="st3" d="M15.02,150.12c1.09-4.35,2.23-8.68,3.47-13c6.58-23.2,14.93-45.96,27.15-65.49
	c34.22-54.76,94.74-61.66,147.21-58.31c25.5,1.63,66.83,8.46,91.76,15.29c24.32,6.66,49.29,8.91,74.24,6.95
	c33.59-2.66,76.55-14.31,102.59-31.6c21.51-14.28,46.2,12.52,36.31,39.83c-6.71,18.46-21.2,43.12-48.37,76.02
	c-8.71,10.54-17.24,21.16-25.41,32.3c-27.69,37.76-109.82,141.31-215.55,206.92c-20.19,12.52-41.6,22.1-63.88,27.11
	c-21.53,4.85-56.97,20.63-76.89,71.69c-3.7,9.46-5.17,42.77-34.6,42.16c-7.43-0.14-15.48-15.55-16.86-38.06
	c-1.94-30.98-9.72-60.6-12.25-91.57C-2.18,295.86-2.99,222.02,15.02,150.12L15.02,150.12z"/>
<g>
	<path class="st4" d="M52.97,403.92c-0.63,0-1.28-0.11-1.9-0.3c-2.77-0.91-4.87-3.7-5.43-7.19c-0.12-0.81-0.38-2.16-0.7-3.96
		c-3.42-18.96-13.81-76.64-6.78-120.4c0.81-5.03,4.76-8.27,8.81-7.28c4.06,1,6.67,5.9,5.86,10.93c-3.88,24.08-2.35,57.64,4.51,99.88
		c26.28-30.51,56.24-40.28,68.94-43.19c14.95-3.43,30.8-12.68,42.93-20.34c3.68-2.34,8.19-0.51,10.06,4.06
		c1.88,4.57,0.4,10.16-3.27,12.49c-13.04,8.25-30.17,18.2-47.02,22.06c-12.78,2.93-45.23,13.68-70.34,50.02
		C57.21,402.77,55.12,403.92,52.97,403.92L52.97,403.92z"/>
	<path class="st4" d="M52.97,208.85c-0.81,0-1.64-0.17-2.46-0.52c-3.88-1.67-5.98-6.96-4.62-11.81
		c5.55-19.94,19.38-51.81,26.79-63.93c14.94-24.34,41.13-35.2,84.94-35.2c4.13,0,7.47,4.16,7.47,9.29c0,5.13-3.35,9.29-7.47,9.29
		c-38.69,0-61.21,8.6-73.03,27.88c-6.63,10.82-19.52,40.64-24.56,58.75C58.96,206.44,56.07,208.85,52.97,208.85L52.97,208.85z"/>
	<path class="st4" d="M263.3,306.79c12.7-11.42,24.65-22.97,35.71-34.35c24.47-68.99-7.87-124.23-8.27-124.89
		c-2.48-4.09-7.14-4.93-10.45-1.87c-3.3,3.07-3.98,8.88-1.53,12.99c1.68,2.81,40.31,69.54-14.55,146.18
		C263.8,305.44,263.58,306.12,263.3,306.79L263.3,306.79z"/>
</g>
</svg>
