<svg xmlns="http://www.w3.org/2000/svg" xmlns:xlink="http://www.w3.org/1999/xlink" id="Layer_1" x="0" y="0" version="1.1" viewBox="0 0 500 500" xml:space="preserve" style="enable-background:new 0 0 500 500"><style type="text/css">.st0{fill:#a5463e}.st1{fill:#b7846f;enable-background:new}.st1,.st2{opacity:.15}.st2,.st3,.st4,.st5{enable-background:new}.st2,.st3{fill:#d1a38d}.st3{opacity:.2}.st4{opacity:.5;fill:#501d1a}.st5{opacity:.15;fill:#f2ceb8}.st6{fill:#612822}.st6,.st7{opacity:.5;enable-background:new}.st8{fill:#cab38c}.st9{fill:#b29060}.st10{opacity:.5;fill:#a48158;enable-background:new}</style><path d="M211.87,114.97c-8.85-32.09-46.08-44.24-70.83-23.11C55.25,165.14,0.49,276.6,0.49,401.42	c0,20.53,1.48,40.68,4.33,60.37c1.92,13.19,10.94,24.13,23.17,27.95c21.14,6.59,43.51,10.14,66.69,10.14	c32.08,0,62.65-6.79,90.47-19.06c8.73-3.87,15.49-11.42,18.57-20.8c19.12-58.34,29.52-120.92,29.52-186.03	C233.26,218.83,225.8,165.46,211.87,114.97z" class="st0"/><g><path d="M178.39,428.83l1.05-0.92c43.62-38.95,52.88-146.32,53.79-158.55c-0.41-53.57-7.82-105.39-21.37-154.49 c-8.87-32.11-46.18-44.09-70.91-22.93C76.51,147.01,29.6,223.62,10.27,311.25c6.88,41.25,23.69,78.94,47.7,110.31 c11.21,14.64,28.56,22.59,46.47,21.52c11.78-0.7,25.12-1.13,40.13-1.13C157.66,441.97,168.83,437.03,178.39,428.83z" class="st1"/><path d="M141.18,91.74C89.34,135.99,48.82,194.18,24.84,260.83c-2.82,7.88,0.2,16.71,7.11,21.03 c35.09,21.98,76.14,34.62,120.04,34.62c24.2,0,47.55-3.85,69.5-10.98c6.77-2.2,11.37-8.72,11.57-16.13 c0.14-5.11,0.21-10.23,0.21-15.38c0-55.18-7.46-108.55-21.39-159.04C203.04,82.95,165.88,70.67,141.18,91.74z" class="st2"/><path d="M101.84,157.94c-10.9,23.25-10.98,46.87-0.24,52.75c10.76,5.88,28.3-8.2,39.19-31.46s10.99-46.87,0.23-52.75 C130.26,120.61,112.72,134.69,101.84,157.94z" class="st3"/></g><g><path d="M210.7,111.24c-8.8-24.32-43.63-17.87-43.93,8.12c0,0.15,0,0.3,0,0.46l0,0c0,20.62,8.77,40.19,23.92,53.4l0,0 c25.88,22.54,41.27,55.49,42.48,90.53c-0.87-51.54-8.24-101.42-21.3-148.78C211.52,113.69,211.13,112.45,210.7,111.24z" class="st4"/><path d="M78.46,464.45c23.28,2.39,60.55,7.28,93.6-0.67c11.75-2.57,22.41-8.73,30.7-17.54 c5.26-5.59,8.97-12.55,10.96-20.12c0-0.03,0.01-0.05,0.02-0.08l0.04-0.04c1.09-4.14,2.11-8.29,3.11-12.47 c0.11-0.43,0.21-0.87,0.32-1.31c0.64-2.68,1.27-5.39,1.85-8.07c0.21-0.96,0.43-1.91,0.64-2.89c0.66-3.06,1.3-6.11,1.92-9.2 c0.08-0.32,0.13-0.63,0.2-0.96l0,0.01c7.51-37.82,11.48-76.99,11.48-117.13c0-1.72,0.01-3.45,0-5.17 c-0.66,9.18-9.49,119.48-53.83,159.08l-1.05,0.91c-9.55,8.21-20.73,13.15-33.8,13.15c-60.87,0-94.45,7.14-106.1,10.2 c-0.55,0.14-1.26,0.86-1.26,0.86c-0.07,0.11-0.14,0.21-0.2,0.32c-0.69,1.34,0.12,2.97,1.5,3.39 C51.53,460.73,64.91,463.06,78.46,464.45z" class="st4"/></g><path d="M289.1,114.97c8.85-32.09,46.08-44.24,70.83-23.11c85.78,73.28,140.55,184.75,140.55,309.57	c0,20.53-1.49,40.68-4.34,60.37c-1.92,13.18-10.94,24.12-23.18,27.95c-21.13,6.59-43.51,10.14-66.7,10.14	c-32.07,0-62.65-6.79-90.46-19.06c-8.74-3.87-15.5-11.42-18.57-20.8c-19.13-58.34-29.53-120.92-29.53-186.03	C267.72,218.83,275.18,165.46,289.1,114.97z" class="st0"/><g><g><path d="M269.56,287.14L269.56,287.14L269.56,287.14L269.56,287.14L269.56,287.14v0.01v0.01l0,0.01l0,0l0,0v0.01 c0,0,0,0,0,0.01l0,0c0,0.01,0,0.01,0,0.01v0.01h0h0c0,0,0,0.01,0,0.01l0,0.01c0,0,0,0,0,0.01c0,0,0-0.01,0,0c0,0.01,0,0.01,0,0.02 c0,0.01,0,0,0,0s0,0,0,0.01l0,0c0,0,0,0.01,0,0.02h0c0.01,0.14,0.07,0.3,0.08,0.41l0,0c0,0.06,0,0.11,0,0.12s0.01,0.02,0.01,0.03 c0,0.01,0,0,0,0v0.01l0,0l0,0v-0.01v0.01c0,0,0-0.01-0.01-0.05c-0.01-0.09-0.04-0.27-0.06-0.46c-0.03-0.25,0.12,1.06,0.03,0.26 c-0.04-0.31-0.09-0.76-0.09-0.76S269.53,286.94,269.56,287.14L269.56,287.14L269.56,287.14L269.56,287.14z" class="st5"/></g></g><path d="M269.64,287.81c-0.07-0.47-0.11-0.92-0.17-1.38C269.53,286.89,269.58,287.35,269.64,287.81z" class="st6"/><path d="M270.6,295.2c-0.09-0.59-0.16-1.18-0.24-1.76C270.44,294.02,270.52,294.61,270.6,295.2z" class="st5"/><path d="M270.6,295.2c-0.09-0.59-0.16-1.18-0.24-1.76C270.44,294.02,270.52,294.61,270.6,295.2z" class="st6"/><path d="M270.25,292.57c-0.08-0.53-0.14-1.05-0.2-1.55C270.11,291.53,270.18,292.05,270.25,292.57z" class="st5"/><path d="M270.25,292.57c-0.08-0.53-0.14-1.05-0.2-1.55C270.11,291.53,270.18,292.05,270.25,292.57z" class="st6"/><path d="M269.93,290.13c-0.07-0.49-0.13-0.97-0.19-1.46C269.81,289.16,269.87,289.64,269.93,290.13z" class="st5"/><path d="M269.93,290.13c-0.07-0.49-0.13-0.97-0.19-1.46C269.81,289.16,269.87,289.64,269.93,290.13z" class="st6"/><path d="M391.85,442.86c-0.26-0.02-0.51-0.03-0.78-0.05C391.32,442.82,391.59,442.84,391.85,442.86z" class="st5"/><path d="M391.85,442.86c-0.26-0.02-0.51-0.03-0.78-0.05C391.32,442.82,391.59,442.84,391.85,442.86z" class="st6"/><path d="M267.88,270.91c-0.01-0.17-0.03-0.33-0.04-0.49C267.85,270.58,267.86,270.74,267.88,270.91z" class="st5"/><path d="M267.88,270.91c-0.01-0.17-0.03-0.33-0.04-0.49C267.85,270.58,267.86,270.74,267.88,270.91z" class="st6"/><path d="M267.95,271.89c-0.01-0.18-0.03-0.36-0.05-0.54C267.93,271.52,267.95,271.7,267.95,271.89z" class="st5"/><path d="M267.95,271.89c-0.01-0.18-0.03-0.36-0.05-0.54C267.93,271.52,267.95,271.7,267.95,271.89z" class="st6"/><path d="M269.38,285.62c-0.06-0.46-0.11-0.91-0.15-1.35C269.27,284.72,269.32,285.16,269.38,285.62z" class="st5"/><path d="M269.38,285.62c-0.06-0.46-0.11-0.91-0.15-1.35C269.27,284.72,269.32,285.16,269.38,285.62z" class="st6"/><path d="M267.78,269.68c0,0.12,0.01,0.24,0.03,0.38C267.8,269.92,267.79,269.8,267.78,269.68z" class="st5"/><path d="M267.78,269.68c0,0.12,0.01,0.24,0.03,0.38C267.8,269.92,267.79,269.8,267.78,269.68z" class="st6"/><path d="M392.08,442.87c1.51,0.09,3,0.15,4.44,0.24c0.01,0,0.02,0,0.02,0c-1.29-0.09-2.6-0.14-3.92-0.22	C392.45,442.87,392.26,442.87,392.08,442.87z" class="st5"/><path d="M392.08,442.87c1.51,0.09,3,0.15,4.44,0.24c0.01,0,0.02,0,0.02,0c-1.29-0.09-2.6-0.14-3.92-0.22	C392.45,442.87,392.26,442.87,392.08,442.87z" class="st6"/><path d="M268.06,273.06c-0.02-0.23-0.04-0.45-0.07-0.66C268.02,272.62,268.04,272.83,268.06,273.06z" class="st5"/><path d="M268.06,273.06c-0.02-0.23-0.04-0.45-0.07-0.66C268.02,272.62,268.04,272.83,268.06,273.06z" class="st6"/><path d="M269.13,283.54c-0.06-0.48-0.11-0.94-0.16-1.41C269.02,282.6,269.07,283.06,269.13,283.54z" class="st5"/><path d="M269.13,283.54c-0.06-0.48-0.11-0.94-0.16-1.41C269.02,282.6,269.07,283.06,269.13,283.54z" class="st6"/><path d="M268.91,281.58c-0.14-1.28-0.27-2.47-0.38-3.58C268.65,279.11,268.77,280.31,268.91,281.58z" class="st5"/><path d="M268.91,281.58c-0.14-1.28-0.27-2.47-0.38-3.58C268.65,279.11,268.77,280.31,268.91,281.58z" class="st6"/><path d="M268.48,277.48c-0.04-0.36-0.07-0.73-0.11-1.08C268.41,276.76,268.44,277.12,268.48,277.48z" class="st5"/><path d="M268.48,277.48c-0.04-0.36-0.07-0.73-0.11-1.08C268.41,276.76,268.44,277.12,268.48,277.48z" class="st6"/><path d="M268.31,275.8c-0.03-0.29-0.06-0.58-0.08-0.85C268.26,275.22,268.29,275.5,268.31,275.8z" class="st5"/><path d="M268.31,275.8c-0.03-0.29-0.06-0.58-0.08-0.85C268.26,275.22,268.29,275.5,268.31,275.8z" class="st6"/><path d="M268.18,274.35c-0.04-0.27-0.06-0.53-0.09-0.77C268.13,273.83,268.15,274.09,268.18,274.35z" class="st5"/><path d="M268.18,274.35c-0.04-0.27-0.06-0.53-0.09-0.77C268.13,273.83,268.15,274.09,268.18,274.35z" class="st6"/><path d="M359.8,91.74c51.84,44.25,92.35,102.44,116.34,169.09c2.82,7.88-0.2,16.71-7.1,21.03	c-35.09,21.98-76.15,34.62-120.04,34.62c-24.2,0-47.55-3.85-69.5-10.98c-6.78-2.2-11.37-8.72-11.58-16.13	c-0.12-5.11-0.21-10.23-0.21-15.38c0-55.18,7.47-108.55,21.39-159.04C297.93,82.95,335.11,70.67,359.8,91.74z" class="st2"/><g class="st7"><path d="M290.29,111.24c8.81-24.32,43.63-17.87,43.93,8.12c0,0.15,0,0.3,0,0.46l0,0c0,20.62-8.76,40.19-23.93,53.4l0,0 c-25.88,22.54-41.27,55.49-42.48,90.53c0.87-51.54,8.24-101.42,21.3-148.78C289.45,113.69,289.85,112.45,290.29,111.24z" class="st4"/><path d="M463.95,453.36c-0.08-0.11-0.13-0.22-0.21-0.32c0,0-0.72-0.72-1.25-0.86c-8.77-2.32-30-6.94-65.96-9.08 c-0.01,0-0.01,0-0.03,0c-1.44-0.09-2.93-0.15-4.44-0.24c-0.08,0-0.15-0.01-0.24-0.01c-0.26-0.02-0.52-0.03-0.79-0.05 c-6.8-0.32-18.22-0.59-26.08-0.77c-0.04,0-0.08-0.01-0.11-0.01c-4.69-0.16-8.35-4.17-8.2-8.99l0.85-27.4 c0.61-19.82-11.95-37.56-30.52-43.14l0,0c-29.91-8.99-51.88-35.06-56.3-66.66c0-0.01,0-0.02,0-0.03c-0.04-0.21-0.07-0.41-0.1-0.61 c-0.08-0.59-0.16-1.18-0.24-1.76c-0.04-0.29-0.08-0.58-0.11-0.86c-0.08-0.53-0.13-1.05-0.2-1.55c-0.04-0.3-0.09-0.59-0.11-0.88 c-0.07-0.5-0.13-0.98-0.19-1.46c-0.04-0.29-0.08-0.57-0.11-0.86c-0.07-0.47-0.11-0.92-0.17-1.38c-0.04-0.27-0.07-0.54-0.11-0.82 c-0.06-0.46-0.11-0.91-0.15-1.35c-0.04-0.24-0.08-0.49-0.1-0.73c-0.06-0.48-0.11-0.94-0.16-1.41c-0.01-0.18-0.04-0.37-0.06-0.55 c-0.15-1.28-0.27-2.47-0.38-3.59c-0.02-0.17-0.04-0.34-0.06-0.51c-0.04-0.36-0.07-0.73-0.11-1.08c-0.04-0.22-0.06-0.41-0.08-0.62 c-0.03-0.29-0.06-0.57-0.08-0.85c-0.03-0.21-0.04-0.39-0.06-0.59c-0.03-0.27-0.06-0.52-0.08-0.77c-0.01-0.18-0.04-0.35-0.04-0.52 c-0.03-0.23-0.04-0.45-0.07-0.66c-0.01-0.17-0.03-0.35-0.06-0.51c-0.01-0.18-0.03-0.36-0.04-0.54c0-0.15-0.03-0.3-0.04-0.44 c-0.01-0.17-0.03-0.33-0.04-0.49c0-0.12-0.01-0.25-0.03-0.36c-0.01-0.14-0.02-0.26-0.03-0.38c-0.03-0.32-0.06-0.62-0.08-0.83 c-0.01,1.72,0,3.44,0,5.16c0,40.15,3.97,79.32,11.48,117.13h-0.01c0.08,0.32,0.14,0.63,0.2,0.96c0.62,3.08,1.26,6.13,1.92,9.2 c0.21,0.96,0.43,1.91,0.64,2.88c0.58,2.7,1.21,5.39,1.84,8.08c0.11,0.43,0.21,0.87,0.32,1.32c0.99,4.16,2.01,8.33,3.11,12.46 l0.04,0.03c0.01,0.03,0.01,0.05,0.01,0.09c1.99,7.57,5.7,14.54,10.96,20.12c8.28,8.81,18.94,14.97,30.7,17.55 c33.04,7.94,70.29,3.05,93.59,0.66c13.54-1.39,26.93-3.72,39.93-7.7C463.83,456.34,464.64,454.69,463.95,453.36z" class="st4"/></g><path d="M310.29,173.22L310.29,173.22c2.47-2.16,4.77-4.51,6.9-6.99l-40.09-34.21c-2.59-2.21-4.08-5.49-4.08-8.93V23.7	c0-12.61-9.57-23.35-21.88-23.8c-12.92-0.47-23.53,10.11-23.53,23.24v99.95c0,3.45-1.5,6.72-4.07,8.93l-39.89,34.03	c2.18,2.55,4.52,4.95,7.06,7.17l0,0c9.15,7.97,16.99,17.24,23.33,27.44l29-24.76c4.22-3.59,10.33-3.59,14.54,0l29.25,24.97	C293.21,190.58,301.08,181.24,310.29,173.22z" class="st8"/><g><path d="M273.01,56.53V23.7c0-0.14-0.01-0.26-0.01-0.39c-0.04,5.9-2.24,11.79-6.64,16.28 c-8.87,9.07-23.27,9.07-32.11,0c-5.45-5.59-7.54-13.34-6.27-20.59c-0.24,1.35-0.38,2.73-0.38,4.15v33.39 c6.79,4.85,14.74,7.29,22.7,7.29C258.26,63.82,266.21,61.38,273.01,56.53z" class="st9"/><path d="M227.59,90.79c0,0.19,0.02,0.39,0.02,0.58c6.79,4.81,14.73,7.23,22.68,7.23c7.95,0,15.9-2.42,22.69-7.23 c0-0.19,0.01-0.39,0.01-0.58h0V57.55h0c0.14,6.38-2.19,12.37-6.61,16.86c-8.87,9.03-23.31,9.03-32.18,0 c-4.41-4.49-6.77-10.48-6.61-16.86h-0.01v33.24H227.59z" class="st9"/><path d="M273.1,124.51c-0.06-0.47-0.1-0.95-0.1-1.43V91.37c0,0-0.01,0.01-0.02,0.02c0,6.15-2.32,11.93-6.6,16.28 c-8.87,9.03-23.31,9.03-32.18,0c-4.28-4.35-6.59-10.12-6.59-16.28c-0.01-0.01-0.02-0.01-0.03-0.02v31.72 c0,0.48-0.04,0.95-0.09,1.43l0.1,0.01c0,0.03,0.01,0.06,0.01,0.1c6.79,4.81,14.74,7.23,22.69,7.23c7.96,0,15.91-2.42,22.7-7.23 c0-0.04,0-0.07,0-0.1L273.1,124.51z" class="st9"/><path d="M283.4,137.38l-6.3-5.37c-2.21-1.89-3.63-4.58-3.99-7.48c-0.04,0.03-0.08,0.05-0.11,0.08 c0.11,6.34-2.22,12.29-6.61,16.76c-8.87,9.03-23.31,9.03-32.18,0c-4.39-4.46-6.74-10.42-6.61-16.76c-0.04-0.03-0.08-0.05-0.11-0.08 c-0.36,2.9-1.77,5.58-3.99,7.48l-5.97,5.1l-4,3.42c1.97,4.88,4.88,9.37,8.66,13.22c7.75,7.88,17.93,11.83,28.1,11.83 c10.18,0,20.35-3.94,28.1-11.83c3.79-3.86,6.7-8.34,8.66-13.22L283.4,137.38z" class="st9"/><ellipse cx="250.3" cy="23.14" class="st9" rx="8.51" ry="8.72"/></g><g><path d="M277.1,132.02c-2.59-2.21-4.08-5.49-4.08-8.93V23.7c0-0.08,0-0.15,0-0.23c-0.1,5.85-2.28,11.66-6.63,16.12 c-1.45,1.48-3.04,2.73-4.75,3.72c-7.02,4.13-11.32,11.82-11.32,20.11v59.66c0,10.36,4.49,20.17,12.26,26.8l38.21,32.62 c3-3.26,6.16-6.36,9.52-9.28l0,0c2.47-2.16,4.76-4.5,6.9-6.98L277.1,132.02z" class="st10"/><path d="M200.66,182.98L200.66,182.98c4.99,5.48,9.46,11.4,13.37,17.66l29-24.75c2.11-1.8,4.7-2.69,7.27-2.7h-23.15 C217.47,173.2,208.1,176.67,200.66,182.98z" class="st10"/></g></svg>