<?xml version="1.0" encoding="utf-8"?>
<!-- Generator: Adobe Illustrator 25.2.0, SVG Export Plug-In . SVG Version: 6.00 Build 0)  -->
<svg version="1.1" id="Layer_1" xmlns="http://www.w3.org/2000/svg" xmlns:xlink="http://www.w3.org/1999/xlink" x="0px" y="0px"
	 viewBox="0 0 500 500" style="enable-background:new 0 0 500 500;" xml:space="preserve">
<style type="text/css">
	.st0{fill:#CE665B;}
	.st1{fill:#D6B584;}
	.st2{fill:#BB7459;}
	.st3{fill:#D3A07D;}
	.st4{fill:#AB4957;}
</style>
<path class="st0" d="M225.93,254.39v66.74c0,11.4-3.41,22.49-9.74,31.61c-6.32,9.12-9.73,20.21-9.73,31.61v5.12
	c0,8.17,1.75,16.25,5.13,23.56l18.61,40.28c5.34,11.55,16.25,18.86,28.18,18.86c11.93,0,22.85-7.31,28.18-18.86l18.61-40.26
	c3.37-7.32,5.12-15.38,5.12-23.57v-5.12c0-11.4-3.41-22.49-9.73-31.61c-6.32-9.12-9.74-20.21-9.74-31.61v-66.74"/>
<path class="st1" d="M258.38,475.5c2.73,0,5.3-1.71,7.37-4.64c-4.87-20.52-7.37-42.61-7.37-64.94c0,22.32-2.5,44.42-7.37,64.94
	C253.08,473.79,255.66,475.5,258.38,475.5L258.38,475.5z"/>
<path class="st1" d="M85.39,432.2v-30.97c0-31.4-9.16-61.89-26.02-86.69l-2.01-2.95c-16.86-24.78-26.01-55.29-26.01-86.69v-22.14
	c0-38.99,27.64-70.59,61.74-70.59l23.16-35.3H93.09c-51.14,0-92.61,47.42-92.61,105.89v39.79c0,31.4,9.15,61.9,26.01,86.69l2,2.93
	c16.86,24.78,26.01,55.29,26.01,86.69v66.26"/>
<path class="st1" d="M446.45,478.25v-66.27c0-31.39,9.15-61.89,26.02-86.69l2-2.93c16.86-24.78,26.01-55.28,26.01-86.69v-39.79
	c0-58.47-41.47-105.88-92.61-105.88h-23.16l23.16,35.3c34.09,0,61.74,31.61,61.74,70.59v22.15c0,31.39-9.15,61.89-26,86.68
	l-2.02,2.95c-16.86,24.79-26.01,55.28-26.01,86.68v30.97"/>
<ellipse class="st2" cx="255.41" cy="149.86" rx="187.19" ry="114.71"/>
<path class="st3" d="M373.5,60.9c-32.21-16.08-73.31-25.73-118.09-25.73c-103.39,0-187.2,51.35-187.2,114.7
	c0,21.4,9.74,41.36,26.39,58.51c15.34,2.13,31.23,3.26,47.51,3.26C268.12,211.62,370.55,144.47,373.5,60.9z"/>
<path class="st1" d="M58.36-0.15l24.02,26.89c9.97,11.16,15.39,25.01,15.39,39.28s5.43,28.13,15.39,39.28l28.76,32.63l34.67-14.56
	l-24.3-27.2c-9.79-10.96-15.11-24.55-15.11-38.58v-1.87c0-13.37-4.84-26.37-13.79-37.06L107.64-0.16"/>
<path class="st1" d="M452.45-0.15l-24.02,26.89c-9.97,11.16-15.39,25.01-15.39,39.28s-5.43,28.13-15.39,39.28l-28.24,31.93
	l-35.19-13.86l24.3-27.2c9.79-10.96,15.12-24.55,15.12-38.58v-1.87c0-13.37,4.84-26.37,13.79-37.06l15.75-18.82"/>
<g>
	<ellipse class="st0" cx="168.94" cy="142.64" rx="28.96" ry="23.39"/>
	<ellipse class="st0" cx="345.81" cy="143.93" rx="28.96" ry="23.39"/>
	<ellipse class="st0" cx="69.13" cy="454.1" rx="43.77" ry="45.75"/>
	<ellipse class="st0" cx="442.6" cy="454.1" rx="43.78" ry="45.75"/>
</g>
<path class="st4" d="M171.73,126.38c-2.78,2.75-6.18,5.02-9.89,6.68c-2.41-3.68-5.12-7.16-8.12-10.5c-2.91,1.43-5.5,3.16-7.65,5.15
	c5.62,6.2,10.12,13.11,13.37,20.55l1.59,3.67l8.93-3.11l-1.59-3.67c-0.66-1.51-1.42-2.98-2.17-4.45c4.75-2.14,9.08-5.04,12.64-8.56
	l1.11-1.1l-7.1-5.77L171.73,126.38z"/>
<path class="st4" d="M336.64,126.71l-6.29,6.48l1.26,0.98c4,3.13,8.68,5.54,13.68,7.16c-0.54,1.54-1.11,3.08-1.57,4.65l-1.09,3.81
	l9.29,2.15l1.09-3.81c2.23-7.74,5.8-15.08,10.55-21.84c-2.4-1.74-5.2-3.19-8.28-4.29c-2.53,3.63-4.77,7.37-6.67,11.29
	c-3.91-1.27-7.58-3.15-10.71-5.59L336.64,126.71z"/>
</svg>
