<?xml version="1.0" encoding="utf-8"?>
<!-- Generator: Adobe Illustrator 25.2.0, SVG Export Plug-In . SVG Version: 6.00 Build 0)  -->
<svg version="1.1" id="Layer_1" xmlns="http://www.w3.org/2000/svg" xmlns:xlink="http://www.w3.org/1999/xlink" x="0px" y="0px"
	 viewBox="0 0 500 500" style="enable-background:new 0 0 500 500;" xml:space="preserve">
<style type="text/css">
	.st0{fill:#EB866B;}
	.st1{fill:#F3BF8B;}
	.st2{fill:#E2B486;}
	.st3{fill:#FDD8B2;}
	.st4{fill:#F3CA9C;}
	.st5{fill:#E5C6A3;}
	.st6{fill:#DDB893;}
	.st7{fill:#FFE3C4;}
	.st8{fill:#EA5D51;}
	.st9{fill:#CF4B41;}
	.st10{fill:#D25046;}
</style>
<g>
	<path class="st0" d="M315.88,146.21H185.1c-10.21,0-18.49-7.04-18.49-15.75V83.49c0-8.7,8.28-15.75,18.49-15.75h130.78
		c10.21,0,18.5,7.04,18.5,15.75v46.99C334.36,139.17,326.09,146.21,315.88,146.21z"/>
	<path class="st1" d="M315.88,146.21H185.1c-10.21,0-18.49-7.04-18.49-15.75V83.49c0-8.7,8.28-15.75,18.49-15.75h130.78
		c10.21,0,18.5,7.04,18.5,15.75v46.99C334.36,139.17,326.09,146.21,315.88,146.21z"/>
	<path class="st2" d="M316.73,67.75h-35.46c9.76,0,17.64,7.38,17.64,16.5v45.46c0,9.12-7.88,16.51-17.64,16.51h35.46
		c9.74,0,17.63-7.39,17.63-16.51V84.24C334.36,75.13,326.47,67.75,316.73,67.75z"/>
	<path class="st0" d="M315.88,289.07H185.1c-10.21,0-18.49-7.04-18.49-15.75v-46.99c0-8.69,8.28-15.74,18.49-15.74h130.78
		c10.21,0,18.5,7.04,18.5,15.74v46.99C334.36,282.03,326.09,289.07,315.88,289.07z"/>
	<path class="st3" d="M315.88,289.07H185.1c-10.21,0-18.49-7.04-18.49-15.75v-46.99c0-8.69,8.28-15.74,18.49-15.74h130.78
		c10.21,0,18.5,7.04,18.5,15.74v46.99C334.36,282.03,326.09,289.07,315.88,289.07z"/>
	<path class="st4" d="M316.73,210.6h-35.46c9.76,0,17.64,7.39,17.64,16.5v45.46c0,9.11-7.88,16.49-17.64,16.49h35.46
		c9.74,0,17.63-7.38,17.63-16.49V227.1C334.36,217.99,326.47,210.6,316.73,210.6z"/>
	<path class="st0" d="M315.88,431.93H185.1c-10.21,0-18.49-7.05-18.49-15.75v-46.97c0-8.7,8.28-15.76,18.49-15.76h130.78
		c10.21,0,18.5,7.05,18.5,15.76v46.97C334.36,424.88,326.09,431.93,315.88,431.93z"/>
	<path class="st1" d="M315.88,431.93H185.1c-10.21,0-18.49-7.05-18.49-15.75v-46.97c0-8.7,8.28-15.76,18.49-15.76h130.78
		c10.21,0,18.5,7.05,18.5,15.76v46.97C334.36,424.88,326.09,431.93,315.88,431.93z"/>
	<path class="st2" d="M316.73,353.46h-35.46c9.76,0,17.64,7.39,17.64,16.51v45.46c0,9.12-7.88,16.5-17.64,16.5h35.46
		c9.74,0,17.63-7.38,17.63-16.5v-45.46C334.36,360.85,326.47,353.46,316.73,353.46L316.73,353.46z"/>
	<path class="st0" d="M316.73,71.28H184.24c-9.74,0-17.63-6.72-17.63-15.03V14.86c0-8.3,7.88-15.02,17.63-15.02h132.5
		c9.74,0,17.63,6.72,17.63,15.02v41.39C334.36,64.55,326.47,71.28,316.73,71.28z"/>
	<path class="st5" d="M316.73,71.28H184.24c-9.74,0-17.63-6.72-17.63-15.03V14.86c0-8.3,7.88-15.02,17.63-15.02h132.5
		c9.74,0,17.63,6.72,17.63,15.02v41.39C334.36,64.55,326.47,71.28,316.73,71.28z"/>
	<path class="st6" d="M316.73-0.16h-35.46c9.76,0,17.64,6.72,17.64,15.02v41.39c0,8.31-7.88,15.03-17.64,15.03h35.46
		c9.74,0,17.63-6.72,17.63-15.03V14.86C334.36,6.57,326.47-0.16,316.73-0.16z"/>
	<path class="st0" d="M316.73,214.13H184.24c-9.74,0-17.63-6.72-17.63-15.02v-41.4c0-8.3,7.88-15.02,17.63-15.02h132.5
		c9.74,0,17.63,6.72,17.63,15.02v41.4C334.36,207.39,326.47,214.13,316.73,214.13z"/>
	<path class="st7" d="M316.73,214.13H184.24c-9.74,0-17.63-6.72-17.63-15.02v-41.4c0-8.3,7.88-15.02,17.63-15.02h132.5
		c9.74,0,17.63,6.72,17.63,15.02v41.4C334.36,207.39,326.47,214.13,316.73,214.13z"/>
	<path class="st3" d="M316.73,142.69h-35.46c9.76,0,17.64,6.72,17.64,15.02v41.39c0,8.3-7.88,15.02-17.64,15.02h35.46
		c9.74,0,17.63-6.72,17.63-15.02v-41.39C334.36,149.42,326.47,142.69,316.73,142.69z"/>
	<path class="st0" d="M316.73,356.97H184.24c-9.74,0-17.63-6.71-17.63-15.02v-41.38c0-8.32,7.88-15.03,17.63-15.03h132.5
		c9.74,0,17.63,6.71,17.63,15.03v41.38C334.36,350.26,326.47,356.97,316.73,356.97z"/>
	<path class="st5" d="M316.73,356.97H184.24c-9.74,0-17.63-6.71-17.63-15.02v-41.38c0-8.32,7.88-15.03,17.63-15.03h132.5
		c9.74,0,17.63,6.71,17.63,15.03v41.38C334.36,350.26,326.47,356.97,316.73,356.97z"/>
	<path class="st6" d="M316.73,285.55h-35.46c9.76,0,17.64,6.71,17.64,15.03v41.38c0,8.31-7.88,15.02-17.64,15.02h35.46
		c9.74,0,17.63-6.71,17.63-15.02v-41.38C334.36,292.29,326.47,285.55,316.73,285.55z"/>
	<path class="st0" d="M316.73,499.84H184.24c-9.74,0-17.63-6.73-17.63-15.03v-41.39c0-8.3,7.88-15.02,17.63-15.02h132.5
		c9.74,0,17.63,6.72,17.63,15.02v41.39C334.36,493.11,326.47,499.84,316.73,499.84z"/>
	<path class="st5" d="M316.73,499.84H184.24c-9.74,0-17.63-6.73-17.63-15.03v-41.39c0-8.3,7.88-15.02,17.63-15.02h132.5
		c9.74,0,17.63,6.72,17.63,15.02v41.39C334.36,493.11,326.47,499.84,316.73,499.84z"/>
	<path class="st6" d="M316.73,428.41h-35.46c9.76,0,17.64,6.72,17.64,15.02v41.39c0,8.3-7.88,15.03-17.64,15.03h35.46
		c9.74,0,17.63-6.73,17.63-15.03v-41.39C334.36,435.14,326.47,428.41,316.73,428.41z"/>
	<path class="st8" d="M494.48,128.15c-15.66,29.57-54,110.76-77.67,163.8c-23.67,53.04-104.18,48.54-130.82,20.55
		c-19.81-20.84-51.17-20.84-71.02,0c-26.63,27.98-107.14,32.48-130.81-20.55C60.49,238.91,22.15,157.7,6.48,128.15
		C-9.17,98.6,4.17,53.24,66.07,53.24c61.86,0,89.5,37.1,98.66,48.95c9.13,11.85,162.41,11.85,171.55,0
		c9.13-11.85,36.77-48.95,98.66-48.95C496.79,53.25,510.15,98.6,494.48,128.15L494.48,128.15z"/>
	<g>
		<path class="st9" d="M434.92,53.25c-6.64,0-12.87,0.45-18.75,1.22c47.55,7.42,57.09,46.99,42.93,73.69
			c-15.66,29.56-54,110.75-77.67,163.79c-10.39,23.31-31.78,35.5-54.75,39.49c33.47,5.62,74.38-4.19,90.13-39.49
			c23.67-53.04,62.01-134.25,77.67-163.79C510.15,98.6,496.79,53.25,434.92,53.25z"/>
	</g>
	<g>
		<path class="st10" d="M162.81,171.96c-1.86-3.72-6.89-5.46-11.28-3.89c-12.24,4.41-26.42-0.46-31.61-10.88
			c-1.86-3.71-6.9-5.45-11.28-3.89c-4.38,1.59-6.42,5.88-4.58,9.61c8.87,17.8,33.15,26.23,54.17,18.64
			C162.62,179.99,164.66,175.68,162.81,171.96L162.81,171.96z"/>
		<path class="st10" d="M198.48,234.32c-10.27,7.25-25.46,6.05-33.96-2.69c-3.04-3.1-8.46-3.53-12.1-0.96
			c-3.66,2.58-4.16,7.2-1.13,10.31c14.57,14.94,40.6,17.03,58.17,4.6c3.64-2.59,4.15-7.19,1.12-10.3
			C207.55,232.18,202.14,231.74,198.48,234.32L198.48,234.32z"/>
		<path class="st10" d="M392.33,153.32c-4.36-1.59-9.42,0.16-11.29,3.89c-5.19,10.41-19.38,15.3-31.62,10.87
			c-4.35-1.58-9.42,0.16-11.28,3.89c-1.87,3.72,0.19,8.03,4.56,9.61c21.04,7.61,45.3-0.84,54.16-18.63
			C398.75,159.21,396.71,154.91,392.33,153.32z"/>
		<path class="st10" d="M348.55,230.68c-3.65-2.59-9.08-2.16-12.1,0.96c-8.51,8.74-23.71,9.95-33.95,2.69
			c-3.66-2.58-9.08-2.15-12.11,0.96c-3.03,3.1-2.53,7.73,1.12,10.3c17.65,12.46,43.72,10.23,58.17-4.61
			C352.72,237.88,352.22,233.26,348.55,230.68L348.55,230.68z"/>
		<path class="st10" d="M267.61,172.31c-9.53,7.9-24.8,7.74-34.08-0.39c-3.33-2.88-8.78-2.95-12.17-0.11
			c-3.39,2.81-3.47,7.46-0.15,10.35c15.92,13.92,42.14,14.15,58.41,0.65c3.4-2.83,3.48-7.47,0.16-10.35
			C276.46,169.55,271.01,169.5,267.61,172.31z"/>
	</g>
</g>
</svg>
