<svg xmlns="http://www.w3.org/2000/svg" xmlns:xlink="http://www.w3.org/1999/xlink" id="Layer_1" x="0" y="0" version="1.1" viewBox="0 0 500 500" xml:space="preserve" style="enable-background:new 0 0 500 500"><style type="text/css">.st0{fill:#233a1f}.st1{fill:#50a047}.st2{fill:#46783f}.st3{fill:#73943c}</style><path d="M249.99,103.63c-4.16,0-7.54-3.38-7.54-7.55V39.22c0-4.16,3.38-7.54,7.54-7.54c4.17,0,7.55,3.38,7.55,7.54	v56.85C257.55,100.25,254.16,103.63,249.99,103.63z" class="st0"/><path d="M364.23,143.32c-1.93,0-3.87-0.74-5.34-2.21c-2.94-2.94-2.94-7.72,0-10.67l63.05-63.05	c2.94-2.95,7.72-2.95,10.66,0c2.94,2.94,2.94,7.72,0,10.67l-63.05,63.05C368.08,142.58,366.15,143.32,364.23,143.32z" class="st0"/><path d="M460.76,257.55h-44.78c-4.16,0-7.55-3.38-7.55-7.55c0-4.16,3.38-7.54,7.55-7.54h44.78	c4.17,0,7.56,3.38,7.56,7.54C468.3,254.17,464.93,257.55,460.76,257.55z" class="st0"/><path d="M417.09,424.64c-1.93,0-3.87-0.74-5.35-2.21l-21.46-21.47c-2.94-2.94-2.94-7.72,0-10.67s7.72-2.94,10.66,0	l21.47,21.47c2.94,2.94,2.94,7.72,0,10.67C420.95,423.9,419.03,424.64,417.09,424.64z" class="st0"/><path d="M378.77,386.32c-1.91,0-3.87-0.74-5.34-2.21l-14.12-14.12c-2.93-2.94-2.93-7.72,0-10.67	c2.94-2.94,7.72-2.94,10.67,0l14.12,14.12c2.93,2.94,2.93,7.72,0,10.67C382.63,385.58,380.7,386.32,378.77,386.32z" class="st0"/><path d="M249.99,468.31c-4.16,0-7.54-3.38-7.54-7.54v-56.85c0-4.17,3.38-7.55,7.54-7.55c4.17,0,7.55,3.38,7.55,7.55	v56.85C257.55,464.93,254.16,468.31,249.99,468.31z" class="st0"/><path d="M100.96,406.58c-1.93,0-3.87-0.74-5.35-2.21c-2.94-2.95-2.94-7.72,0-10.68l36.17-36.17	c2.94-2.95,7.72-2.95,10.67,0c2.93,2.94,2.93,7.72,0,10.66l-36.17,36.18C104.82,405.84,102.89,406.58,100.96,406.58z" class="st0"/><path d="M84.01,257.55H39.23c-4.16,0-7.56-3.38-7.56-7.55c0-4.16,3.38-7.54,7.56-7.54h44.78c4.16,0,7.54,3.38,7.54,7.54	C91.55,254.17,88.18,257.55,84.01,257.55z" class="st0"/><path d="M137.14,144.68c-1.93,0-3.87-0.74-5.34-2.21L77.53,88.2c-2.95-2.94-2.95-7.72,0-10.67	c2.94-2.94,7.72-2.94,10.66,0l54.28,54.27c2.93,2.95,2.93,7.72,0,10.68C141,143.94,139.06,144.68,137.14,144.68z" class="st0"/><path d="M314.38,109.92c-9.42-6.08-16.55-19.31-27.44-21.79c-11.46-2.6-24.7,7.95-36.94,7.95	c-12.23,0-25.49-10.54-36.94-7.95c-11.83,2.69-19.18,18-29.86,23.15c-10.85,5.23-27.38,1.5-36.7,8.93	c-9.37,7.47-9.37,24.46-16.86,33.82c-7.42,9.31-24.01,13.09-29.24,23.92c-5.13,10.66,2.18,25.95-0.51,37.77	c-2.6,11.45-15.88,22.02-15.88,34.26c0,12.24,13.3,22.82,15.88,34.27c2.69,11.83-4.62,27.11,0.51,37.77	c5.23,10.84,21.82,14.62,29.24,23.93c7.47,9.36,7.49,26.34,16.87,33.81c9.31,7.43,25.87,3.7,36.7,8.93	c10.66,5.15,18.03,20.47,29.86,23.15c11.45,2.6,24.7-7.95,36.94-7.95c12.24,0,25.49,10.54,36.94,7.95	c11.82-2.69,19.18-18,29.85-23.15c10.86-5.23,27.4-1.5,36.7-8.93c9.37-7.47,9.37-24.46,16.87-33.81	c7.42-9.32,24.01-13.09,29.24-23.93c5.13-10.66-2.18-25.95,0.5-37.77c2.61-11.45,15.89-22.03,15.89-34.27	c0-12.24-13.3-22.81-15.89-34.26c-2.68-11.82,4.62-27.11-0.5-37.77c-5.23-10.84-21.81-14.62-29.24-23.92	c-7.47-9.37-7.49-26.35-16.87-33.82c-3.51-2.81-8.07-4.02-12.95-4.73L314.38,109.92z" class="st1"/><path d="M400.08,284.27c2.61-11.45,15.89-22.03,15.89-34.27c0-12.24-13.3-22.81-15.89-34.26	c-2.68-11.82,4.62-27.11-0.5-37.77c-5.23-10.84-21.81-14.62-29.24-23.92c-7.47-9.36-7.49-26.35-16.87-33.82	c-3.51-2.81-8.07-4.02-12.95-4.73l-21.27-4.52c26.26,28.67,42.29,66.87,42.29,108.81c0,89.01-72.15,161.17-161.17,161.17	c-21.62,0-42.24-4.27-61.1-12c1.72,4.29,3.87,8.16,7.19,10.83c9.31,7.43,25.87,3.7,36.7,8.93c10.66,5.15,18.03,20.47,29.86,23.15	c11.45,2.6,24.7-7.95,36.94-7.95c12.24,0,25.49,10.54,36.94,7.95c11.82-2.69,19.18-18,29.85-23.15c10.86-5.23,27.4-1.5,36.7-8.93	c9.37-7.47,9.37-24.46,16.86-33.81c7.43-9.32,24.01-13.09,29.24-23.93C404.72,311.37,397.4,296.08,400.08,284.27z" class="st2"/><g><path d="M218.81,169.73c0,10.83-8.79,19.62-19.62,19.62c-10.84,0-19.62-8.79-19.62-19.62 c0-10.84,8.79-19.62,19.62-19.62C210.03,150.11,218.81,158.89,218.81,169.73z" class="st3"/><path d="M269.62,19.62c0,10.83-8.79,19.62-19.62,19.62c-10.83,0-19.62-8.79-19.62-19.62c0-10.84,8.8-19.62,19.62-19.62 C260.83-0.01,269.62,8.78,269.62,19.62z" class="st3"/><path d="M346,234.58c0,10.83-8.78,19.62-19.62,19.62c-10.84,0-19.62-8.79-19.62-19.62c0-10.84,8.79-19.62,19.62-19.62 C337.22,214.95,346,223.74,346,234.58z" class="st3"/><path d="M230.13,309.15c0,17.09-13.85,30.94-30.93,30.94c-17.1,0-30.94-13.85-30.94-30.94 c0-17.09,13.85-30.95,30.94-30.95C216.28,278.2,230.13,292.05,230.13,309.15z" class="st3"/><path d="M462.74,37.25c-9.41-9.42-24.7-9.42-34.12,0c-9.42,9.42-9.42,24.71,0,34.13c9.42,9.43,24.71,9.43,34.12,0 C472.17,61.96,472.17,46.67,462.74,37.25z" class="st3"/><path d="M500,250c0,10.84-8.79,19.62-19.62,19.62c-10.83,0-19.62-8.78-19.62-19.62c0-10.83,8.8-19.62,19.62-19.62 C491.2,230.38,500,239.17,500,250z" class="st3"/><path d="M453.36,417.67c-9.87-9.86-25.86-9.86-35.7,0c-9.86,9.86-9.87,25.84,0,35.7c9.87,9.87,25.85,9.87,35.7,0 C463.22,443.51,463.22,427.53,453.36,417.67z" class="st3"/><path d="M269.62,480.38c0,10.84-8.79,19.62-19.62,19.62c-10.83,0-19.62-8.79-19.62-19.62 c0-10.83,8.8-19.62,19.62-19.62C260.83,460.76,269.62,469.55,269.62,480.38z" class="st3"/><path d="M100.96,399.03c-7.66-7.66-20.1-7.66-27.74,0c-7.66,7.66-7.66,20.08,0,27.74c7.64,7.66,20.08,7.66,27.74,0 C108.62,419.12,108.62,406.69,100.96,399.03z" class="st3"/><path d="M39.24,250c0,10.84-8.8,19.62-19.62,19.62S0,260.83,0,250c0-10.83,8.79-19.62,19.62-19.62 S39.24,239.17,39.24,250z" class="st3"/><path d="M82.71,46.07c-10.12-10.11-26.52-10.11-36.61,0c-10.12,10.11-10.12,26.5,0,36.62 c10.12,10.12,26.5,10.12,36.61,0C92.81,72.58,92.81,56.19,82.71,46.07z" class="st3"/></g></svg>