<?xml version="1.0" encoding="utf-8"?>
<!-- Generator: Adobe Illustrator 19.0.0, SVG Export Plug-In . SVG Version: 6.00 Build 0)  -->
<svg version="1.1" id="Layer_1" xmlns="http://www.w3.org/2000/svg" xmlns:xlink="http://www.w3.org/1999/xlink" x="0px" y="0px"
	 viewBox="0 0 500 500" style="enable-background:new 0 0 500 500;" xml:space="preserve">
<style type="text/css">
	.st0{fill:#213A1D;}
	.st1{fill:#51A048;}
	.st2{fill:#45773E;}
	.st3{fill:#739324;}
</style>
<path id="XMLID_22_" class="st0" d="M250,103.6c-4.2,0-7.5-3.4-7.5-7.6V39.2c0-4.2,3.4-7.5,7.5-7.5c4.2,0,7.6,3.4,7.6,7.5v56.9
	C257.5,100.2,254.2,103.6,250,103.6z"/>
<path id="XMLID_21_" class="st0" d="M364.2,143.3c-1.9,0-3.9-0.7-5.3-2.2c-2.9-2.9-2.9-7.7,0-10.7l63.1-63c2.9-3,7.7-3,10.7,0
	c2.9,2.9,2.9,7.7,0,10.7l-63,63C368.1,142.6,366.2,143.3,364.2,143.3z"/>
<path id="XMLID_20_" class="st0" d="M460.8,257.5H416c-4.2,0-7.6-3.4-7.6-7.6c0-4.2,3.4-7.5,7.6-7.5h44.8c4.2,0,7.6,3.4,7.6,7.5
	C468.3,254.2,464.9,257.5,460.8,257.5z"/>
<path id="XMLID_19_" class="st0" d="M417.1,424.6c-1.9,0-3.9-0.7-5.3-2.2L390.3,401c-2.9-2.9-2.9-7.7,0-10.7s7.7-2.9,10.7,0
	l21.5,21.5c2.9,2.9,2.9,7.7,0,10.7C421,423.9,419,424.6,417.1,424.6z"/>
<path id="XMLID_18_" class="st0" d="M378.8,386.3c-1.9,0-3.9-0.7-5.3-2.2L359.3,370c-2.9-2.9-2.9-7.7,0-10.7c2.9-2.9,7.7-2.9,10.7,0
	l14.1,14.1c2.9,2.9,2.9,7.7,0,10.7C382.6,385.6,380.7,386.3,378.8,386.3z"/>
<path id="XMLID_17_" class="st0" d="M250,468.3c-4.2,0-7.5-3.4-7.5-7.5v-56.9c0-4.2,3.4-7.6,7.5-7.6c4.2,0,7.6,3.4,7.6,7.6v56.9
	C257.5,464.9,254.2,468.3,250,468.3z"/>
<path id="XMLID_16_" class="st0" d="M101,406.6c-1.9,0-3.9-0.7-5.3-2.2c-2.9-3-2.9-7.7,0-10.7l36.2-36.2c2.9-3,7.7-3,10.7,0
	c2.9,2.9,2.9,7.7,0,10.7l-36.2,36.2C104.8,405.8,102.9,406.6,101,406.6z"/>
<path id="XMLID_15_" class="st0" d="M84,257.5H39.2c-4.2,0-7.6-3.4-7.6-7.6c0-4.2,3.4-7.5,7.6-7.5H84c4.2,0,7.5,3.4,7.5,7.5
	C91.6,254.2,88.2,257.5,84,257.5z"/>
<path id="XMLID_14_" class="st0" d="M137.1,144.7c-1.9,0-3.9-0.7-5.3-2.2L77.5,88.2c-3-2.9-3-7.7,0-10.7c2.9-2.9,7.7-2.9,10.7,0
	l54.3,54.3c2.9,3,2.9,7.7,0,10.7C141,143.9,139.1,144.7,137.1,144.7z"/>
<path id="XMLID_13_" class="st1" d="M314.4,109.9c-9.4-6.1-16.6-19.3-27.4-21.8c-11.5-2.6-24.7,7.9-36.9,7.9
	c-12.2,0-25.5-10.5-36.9-7.9c-11.8,2.7-19.2,18-29.9,23.2c-10.8,5.2-27.4,1.5-36.7,8.9c-9.4,7.5-9.4,24.5-16.9,33.8
	c-7.4,9.3-24,13.1-29.2,23.9c-5.1,10.7,2.2,26-0.5,37.8C97.3,227.2,84,237.8,84,250c0,12.2,13.3,22.8,15.9,34.3
	c2.7,11.8-4.6,27.1,0.5,37.8c5.2,10.8,21.8,14.6,29.2,23.9c7.5,9.4,7.5,26.3,16.9,33.8c9.3,7.4,25.9,3.7,36.7,8.9
	c10.7,5.1,18,20.5,29.9,23.2c11.4,2.6,24.7-7.9,36.9-7.9c12.2,0,25.5,10.5,36.9,7.9c11.8-2.7,19.2-18,29.8-23.2
	c10.9-5.2,27.4-1.5,36.7-8.9c9.4-7.5,9.4-24.5,16.9-33.8c7.4-9.3,24-13.1,29.2-23.9c5.1-10.7-2.2-26,0.5-37.8
	c2.6-11.4,15.9-22,15.9-34.3c0-12.2-13.3-22.8-15.9-34.3c-2.7-11.8,4.6-27.1-0.5-37.8c-5.2-10.8-21.8-14.6-29.2-23.9
	c-7.5-9.4-7.5-26.3-16.9-33.8c-3.5-2.8-8.1-4-12.9-4.7L314.4,109.9z"/>
<path id="XMLID_12_" class="st2" d="M400.1,284.3c2.6-11.4,15.9-22,15.9-34.3c0-12.2-13.3-22.8-15.9-34.3
	c-2.7-11.8,4.6-27.1-0.5-37.8c-5.2-10.8-21.8-14.6-29.2-23.9c-7.5-9.4-7.5-26.3-16.9-33.8c-3.5-2.8-8.1-4-12.9-4.7l-21.3-4.5
	c26.3,28.7,42.3,66.9,42.3,108.8c0,89-72.2,161.2-161.2,161.2c-21.6,0-42.2-4.3-61.1-12c1.7,4.3,3.9,8.2,7.2,10.8
	c9.3,7.4,25.9,3.7,36.7,8.9c10.7,5.1,18,20.5,29.9,23.2c11.4,2.6,24.7-7.9,36.9-7.9c12.2,0,25.5,10.5,36.9,7.9
	c11.8-2.7,19.2-18,29.8-23.2c10.9-5.2,27.4-1.5,36.7-8.9c9.4-7.5,9.4-24.5,16.9-33.8c7.4-9.3,24-13.1,29.2-23.9
	C404.7,311.4,397.4,296.1,400.1,284.3z"/>
<g>
	<path id="XMLID_11_" class="st3" d="M218.8,169.7c0,10.8-8.8,19.6-19.6,19.6c-10.8,0-19.6-8.8-19.6-19.6c0-10.8,8.8-19.6,19.6-19.6
		C210,150.1,218.8,158.9,218.8,169.7z"/>
	<path id="XMLID_10_" class="st3" d="M269.6,19.6c0,10.8-8.8,19.6-19.6,19.6c-10.8,0-19.6-8.8-19.6-19.6C230.4,8.8,239.2,0,250,0
		C260.8,0,269.6,8.8,269.6,19.6z"/>
	<path id="XMLID_9_" class="st3" d="M346,234.6c0,10.8-8.8,19.6-19.6,19.6c-10.8,0-19.6-8.8-19.6-19.6c0-10.8,8.8-19.6,19.6-19.6
		C337.2,215,346,223.7,346,234.6z"/>
	<path id="XMLID_8_" class="st3" d="M230.1,309.1c0,17.1-13.9,30.9-30.9,30.9c-17.1,0-30.9-13.9-30.9-30.9
		c0-17.1,13.9-30.9,30.9-30.9C216.3,278.2,230.1,292.1,230.1,309.1z"/>
	<path id="XMLID_7_" class="st3" d="M462.7,37.3c-9.4-9.4-24.7-9.4-34.1,0c-9.4,9.4-9.4,24.7,0,34.1c9.4,9.4,24.7,9.4,34.1,0
		C472.2,62,472.2,46.7,462.7,37.3z"/>
	<path id="XMLID_6_" class="st3" d="M500,250c0,10.8-8.8,19.6-19.6,19.6c-10.8,0-19.6-8.8-19.6-19.6c0-10.8,8.8-19.6,19.6-19.6
		C491.2,230.4,500,239.2,500,250z"/>
	<path id="XMLID_5_" class="st3" d="M453.4,417.7c-9.9-9.9-25.9-9.9-35.7,0c-9.9,9.9-9.9,25.8,0,35.7c9.9,9.9,25.8,9.9,35.7,0
		C463.2,443.5,463.2,427.5,453.4,417.7z"/>
	<path id="XMLID_4_" class="st3" d="M269.6,480.4c0,10.8-8.8,19.6-19.6,19.6c-10.8,0-19.6-8.8-19.6-19.6c0-10.8,8.8-19.6,19.6-19.6
		C260.8,460.8,269.6,469.6,269.6,480.4z"/>
	<path id="XMLID_3_" class="st3" d="M101,399c-7.7-7.7-20.1-7.7-27.7,0c-7.7,7.7-7.7,20.1,0,27.7c7.6,7.7,20.1,7.7,27.7,0
		C108.6,419.1,108.6,406.7,101,399z"/>
	<path id="XMLID_2_" class="st3" d="M39.2,250c0,10.8-8.8,19.6-19.6,19.6S0,260.8,0,250c0-10.8,8.8-19.6,19.6-19.6
		S39.2,239.2,39.2,250z"/>
	<path id="XMLID_1_" class="st3" d="M82.7,46.1C72.6,36,56.2,36,46.1,46.1C36,56.2,36,72.6,46.1,82.7c10.1,10.1,26.5,10.1,36.6,0
		C92.8,72.6,92.8,56.2,82.7,46.1z"/>
</g>
</svg>
