<svg xmlns="http://www.w3.org/2000/svg" xmlns:xlink="http://www.w3.org/1999/xlink" id="Layer_1" x="0" y="0" version="1.1" viewBox="0 0 500 500" xml:space="preserve" style="enable-background:new 0 0 500 500"><style type="text/css">.st0{fill:#bec0c9}.st1{fill:#d8bf56}.st2{fill:#c7ac37}.st3{fill:#c1c3ca}.st4{fill:#9e9fa2}.st5{fill:#c74a5d}.st6{fill:#ebcf5a}.st7{fill:#64a581}.st8{fill:#ddc447}.st9{fill:#eaefec}.st10{fill:#b83d59}.st11{fill:#cfb440}</style><g><path d="M64.66,80.22h293.44v73.98H64.66V80.22L64.66,80.22z" class="st0"/><path d="M374.56,107.26H48.24v-90c0-9.62,9.66-17.42,21.58-17.42h283.14c11.93,0,21.59,7.8,21.59,17.42V107.26z" class="st1"/><path d="M152.03-0.16c-11.93,0-21.59,7.79-21.59,17.42v90H48.22v-90c0-9.62,9.66-17.42,21.58-17.42H152.03L152.03-0.16 z" class="st2"/><path d="M374.09,499.84H48.69c-26.62,0-48.19-17.4-48.19-38.86V178.81c0-21.47,21.58-38.89,48.19-38.89h325.4 c26.62,0,48.18,17.41,48.18,38.89v282.17C422.29,482.44,400.72,499.84,374.09,499.84z" class="st3"/><path d="M135.62,499.84H48.67c-26.6,0-48.19-17.4-48.19-38.86V178.81c0-21.48,21.58-38.89,48.19-38.89h86.94 c-26.61,0-48.19,17.41-48.19,38.89v282.17C87.43,482.44,109,499.84,135.62,499.84z" class="st4"/><ellipse cx="285.29" cy="278.99" class="st5" rx="88.8" ry="71.64"/><path d="M48.22,64.91h326.32v15.31H48.22V64.91z" class="st2"/><path d="M230.36,307.43c0,41.71-41.91,75.51-93.61,75.51c-18.1,0-34.99-4.14-49.33-11.31 c-26.57-13.32-44.27-37.08-44.27-64.19c0-27.1,17.7-50.87,44.27-64.19c14.34-7.18,31.24-11.32,49.33-11.32 C188.45,231.92,230.36,265.72,230.36,307.43z" class="st6"/><ellipse cx="222.46" cy="387.83" class="st7" rx="73.58" ry="59.36"/><path d="M87.43,243.24v128.37c-26.57-13.32-44.27-37.08-44.27-64.19C43.15,280.33,60.85,256.56,87.43,243.24z" class="st8"/><g><path d="M130.18,278.52c7.68,0,11.29,2.65,11.72,8.53c0.08,1.42,1.01,6.04,9.89,6.04c6.84,0,9.89-2.53,9.89-8.19 c0-12.44-13.17-21.12-32.03-21.12c-19.65,0-31.38,9.5-31.38,25.42v29.84c0,16.15,11.39,25.42,31.25,25.42 c18.92,0,32.14-8.93,32.14-21.73c0-5.59-3.19-8.19-10.03-8.19c-8.3,0-9.58,4.16-9.78,5.91c-0.56,5.07-1.81,9.26-11.45,9.26 c-8.54,0-12.35-3.29-12.35-10.67V289.2C118.1,281.81,121.83,278.52,130.18,278.52L130.18,278.52z" class="st9"/><path d="M322.44,275.45c4.93-3.57,7.64-9.28,7.64-16.32c0-13.46-9.71-20.29-28.84-20.29H278.1 c-5.3,0-9.14,2.58-9.14,6.14v67.89c0,3.44,3.93,6.03,9.14,6.03h25.81c18.36,0,28.47-8.55,28.47-24.09v-1.95 C332.39,284.52,329.27,278.98,322.44,275.45L322.44,275.45z M312.57,292.36V294c0,7.03-3.45,10.16-11.2,10.16h-12.72V282.6h12.72 C310.67,282.6,312.57,286.5,312.57,292.36z M288.66,268.89v-15.31h11.72c8.8,0,9.92,3.9,9.92,7.29c0,5.61-2.89,8.01-9.67,8.01 L288.66,268.89L288.66,268.89z" class="st9"/><path d="M241.36,351.9h-20.19c-4.6,0-8.21,2.38-8.21,5.42v61.03c0,3.03,3.6,5.41,8.21,5.41h20.19 c18.14,0,28.52-8.31,28.52-22.81v-26.23C269.89,360.21,259.5,351.9,241.36,351.9L241.36,351.9z M241.36,410.54h-10.62v-45.41 h10.62c7.33,0,10.76,3.04,10.76,9.59v26.23C252.12,407.5,248.7,410.54,241.36,410.54z" class="st9"/></g><path d="M500.49,466.1c0,18.64-18.72,33.74-41.83,33.74H364c-11.55,0-22.03-3.77-29.58-9.88 c-7.57-6.11-12.25-14.52-12.25-23.86c0-18.62,18.72-33.74,41.83-33.74h94.66c11.56,0,22.03,3.77,29.58,9.89 C495.8,448.35,500.49,456.77,500.49,466.1z" class="st5"/><path d="M458.65,478.07H364c-11.55,0-22.03-3.77-29.58-9.88c-4.47-3.61-7.93-8.04-10.01-12.98 c-1.45,3.41-2.24,7.08-2.24,10.89c0,9.32,4.67,17.76,12.25,23.84c7.57,6.11,18.03,9.88,29.58,9.88h94.66 c23.11,0,41.83-15.1,41.83-33.72c0-3.81-0.8-7.48-2.24-10.89C492.64,468.51,477.05,478.07,458.65,478.07L458.65,478.07z" class="st10"/><path d="M500.49,466.1c0,18.64-18.72,33.74-41.83,33.74h-47.35v-67.48h47.35c11.56,0,22.03,3.77,29.58,9.89 c4.49,3.62,7.97,8.08,10.05,13.04C499.71,458.68,500.49,462.33,500.49,466.1L500.49,466.1z" class="st6"/><path d="M500.49,466.1c0,18.64-18.72,33.74-41.83,33.74h-47.35v-21.76h47.35c18.39,0,34-9.56,39.59-22.87 c0.02,0.02,0.02,0.06,0.05,0.08C499.71,458.68,500.49,462.33,500.49,466.1z" class="st11"/></g></svg>